<?xml version="1.0" standalone="no"?>
<!DOCTYPE svg PUBLIC "-//W3C//DTD SVG 1.1//EN" "http://www.w3.org/Graphics/SVG/1.1/DTD/svg11.dtd" >
<svg xmlns="http://www.w3.org/2000/svg" xmlns:xlink="http://www.w3.org/1999/xlink" version="1.1">
<metadata>
Created by FontForge 20170812 at Fri Feb 26 03:09:49 2021
 By www-data
Copyright (c) Gwangju All rights reserved.
</metadata>
<defs>
<font id="BitgoeulGwangju_Light" horiz-adv-x="45" >
  <font-face 
    font-family="BitgoeulGwangju_Light"
    font-weight="300"
    font-stretch="normal"
    units-per-em="1000"
    panose-1="2 2 6 3 2 1 1 2 1 1"
    ascent="800"
    descent="-200"
    x-height="485"
    cap-height="707"
    bbox="9 -242 1017 854"
    underline-thickness="25"
    underline-position="-212"
    unicode-range="U+000D-FFE6"
  />
<missing-glyph horiz-adv-x="1000" 
d="M100 -100v800h800v-800h-800zM150 -50h700v700h-700v-700z" />
    <glyph glyph-name=".notdef" horiz-adv-x="1000" 
d="M100 -100v800h800v-800h-800zM150 -50h700v700h-700v-700z" />
    <glyph glyph-name="_1" horiz-adv-x="0" 
 />
    <glyph glyph-name="_2" horiz-adv-x="1000" 
 />
    <glyph glyph-name="NULL" horiz-adv-x="0" 
 />
    <glyph glyph-name="NULL" horiz-adv-x="0" 
 />
    <glyph glyph-name="nonmarkingreturn" unicode="&#xd;" horiz-adv-x="1000" 
 />
    <glyph glyph-name="space" unicode=" " horiz-adv-x="300" 
 />
    <glyph glyph-name="exclam" unicode="!" horiz-adv-x="422" 
d="M153 174l58 517h109q-21 -131 -43 -258.5t-42 -258.5h-82zM237 67l-16 -103h-108q4 27 6.5 52t5.5 51h112z" />
    <glyph glyph-name="quotedbl" unicode="&#x22;" horiz-adv-x="487" 
d="M218 728q-4 -63 -8.5 -120t-8.5 -120h-66q-4 61 -8.5 120.5t-8.5 119.5h100zM373 728l-15 -240h-66l-17 240h98z" />
    <glyph glyph-name="numbersign" unicode="#" horiz-adv-x="620" 
d="M57 186v63h109l25 157h-107v64h115l29 221h69l-29 -221h139l30 221h70l-31 -221h99v-64h-108l-23 -157h100v-63h-107l-33 -223h-71l32 223h-135l-34 -223h-68l30 223h-101zM257 406l-20 -157h138l23 157h-141z" />
    <glyph glyph-name="dollar" unicode="$" horiz-adv-x="572" 
d="M237 -45q-8 -2 -9 -2q-10 0 -31 2.5t-45 6.5q-24 5 -48 11t-39 12v6q0 3 2 16t4 28t4.5 28t3.5 17h3q13 -8 36.5 -14t47.5 -10q24 -5 44 -7.5t27 -2.5v234q-31 10 -62 27t-56 41q-25 23 -40.5 52.5t-15.5 64.5q0 51 18 84.5t46 54.5q27 20 59.5 29.5t60.5 12.5v99h89v-95
q38 -5 72 -11t70 -15l-18 -96q-32 8 -60.5 17.5t-63.5 11.5v-200q93 -41 132.5 -94.5t39.5 -115.5q0 -38 -16.5 -68.5t-42.5 -53.5q-27 -23 -59.5 -38.5t-63.5 -23.5v-99h-89v91zM395 153q0 35 -22 55.5t-47 33.5v-181q30 13 49.5 35t19.5 57zM247 550q-11 -2 -24 -7
t-23 -13q-11 -9 -18 -21t-7 -26q0 -18 6.5 -32t16.5 -24q10 -11 23 -19t26 -15v157z" />
    <glyph glyph-name="percent" unicode="%" horiz-adv-x="800" 
d="M559 650h91l-410 -696h-90zM72 486q0 64 38.5 105.5t108.5 41.5q33 0 60.5 -11.5t47.5 -31.5q19 -20 30 -46.5t11 -57.5q0 -30 -10.5 -56.5t-29.5 -45.5q-19 -20 -46.5 -31.5t-61.5 -11.5q-30 0 -57 10.5t-47 29.5t-32 45.5t-12 59.5zM153 487q0 -33 15.5 -54t50.5 -21
q34 0 50 21.5t16 53.5q0 36 -18.5 56t-47.5 20q-34 0 -50 -22t-16 -54zM432 117q0 69 39.5 107.5t108.5 38.5q38 0 66 -13.5t46 -34.5q18 -22 27 -49t9 -53q0 -39 -13.5 -66.5t-34.5 -44.5q-22 -17 -48 -24.5t-51 -7.5q-38 0 -66 12.5t-46 33.5q-19 21 -28 47.5t-9 53.5z
M514 118q0 -33 15 -56.5t51 -23.5q35 0 50.5 24.5t15.5 55.5q0 24 -14 49q-8 11 -20.5 18.5t-31.5 7.5q-34 0 -50 -21.5t-16 -53.5z" />
    <glyph glyph-name="ampersand" unicode="&#x26;" horiz-adv-x="768" 
d="M661 361q-8 -69 -25.5 -131t-57.5 -122q29 -36 60 -74.5t64 -70.5h-138q-14 16 -27.5 33t-27.5 33q-40 -40 -93.5 -59.5t-110.5 -19.5q-51 0 -94 12.5t-75 38.5q-32 25 -51 63.5t-19 92.5q0 40 12 72t34 57q21 25 50.5 45t63.5 37q-16 13 -29.5 32t-23.5 41t-15.5 44.5
t-5.5 43.5q0 45 15 77.5t41 53.5t61.5 31.5t77.5 10.5q37 0 70.5 -11t58.5 -32t40 -52t15 -70q0 -34 -14 -62.5t-36 -51.5q-23 -24 -50.5 -42.5t-54.5 -32.5l132 -161q21 40 29.5 84.5t12.5 89.5h111zM178 163q0 -35 12 -59t33 -39t49 -21.5t59 -6.5q16 0 33 5t32.5 14
t29.5 20.5t23 23.5l-166 201q-19 -12 -38 -26t-34 -30q-15 -17 -24 -37t-9 -45zM259 529q0 -14 5.5 -31.5t14.5 -33.5q9 -17 20 -30.5t22 -19.5q17 9 35.5 20.5t33.5 26.5t24.5 33.5t9.5 39.5q0 38 -22 60.5t-60 22.5q-39 0 -61 -25t-22 -63z" />
    <glyph glyph-name="quotesingle" unicode="'" horiz-adv-x="268" 
d="M186 728q-5 -63 -9.5 -120t-8.5 -120h-66l-17 240h101z" />
    <glyph glyph-name="parenleft" unicode="(" horiz-adv-x="326" 
d="M195 -152q-30 32 -58 87.5t-49 118.5t-34 123t-13 105q0 51 12.5 109.5t34.5 118.5t50 113.5t60 93.5h84q-31 -48 -57.5 -103t-46.5 -113t-31.5 -117.5t-11.5 -116.5q0 -48 13 -104t34 -113t47 -109.5t52 -92.5h-86z" />
    <glyph glyph-name="parenright" unicode=")" horiz-adv-x="326" 
d="M47 -152q30 55 56.5 107.5t46.5 106.5q19 54 30 111.5t11 123.5q0 60 -14 115t-35 107q-22 52 -48 101t-49 97h86q30 -51 58 -101.5t50 -104.5q21 -54 34 -111t13 -118q0 -52 -12.5 -111.5t-33.5 -117.5q-21 -60 -49 -113t-60 -92h-84z" />
    <glyph glyph-name="asterisk" unicode="*" horiz-adv-x="528" 
d="M186 290q-19 14 -35.5 24.5t-34.5 23.5l103 113l-9 11q-1 0 -12.5 1.5t-27.5 4.5q-17 2 -36 5.5t-35 7.5l-31 7l24 80l148 -60q-4 34 -7.5 76.5t-7.5 77.5h89l-15 -154l143 60l24 -80l-153 -30l104 -122l-16 -11q-14 -10 -26.5 -19t-28.5 -17l-79 134z" />
    <glyph glyph-name="plus" unicode="+" horiz-adv-x="564" 
d="M243 317v203h83v-203h203v-80h-203v-203h-83v203h-203v80h203z" />
    <glyph glyph-name="comma" unicode="," horiz-adv-x="209" 
d="M187 58l-89 -220h-76q17 58 30 110t30 110h105z" />
    <glyph glyph-name="hyphen" unicode="-" horiz-adv-x="521" 
d="M484 317v-80h-443v80h443z" />
    <glyph glyph-name="period" unicode="." horiz-adv-x="197" 
d="M42 -45v112h113v-112h-113z" />
    <glyph glyph-name="slash" unicode="/" horiz-adv-x="355" 
d="M331 655l-233 -689h-70l229 689h74z" />
    <glyph glyph-name="zero" unicode="0" horiz-adv-x="610" 
d="M53 325q0 64 12 130.5t42 121.5q29 54 79 89t126 35q73 0 123 -35t80 -89q30 -55 43 -122t13 -130t-13 -129t-43 -121q-31 -55 -80.5 -90.5t-122.5 -35.5q-75 0 -125 35t-79 90q-30 54 -42.5 120.5t-12.5 130.5zM140 300q0 -25 3.5 -56t11.5 -63q7 -32 20 -62t32 -53
q19 -24 45 -38t60 -14q36 0 62.5 16t45.5 42q18 26 30 59.5t19 68.5q7 34 9.5 67t2.5 58q0 24 -3 56.5t-10 67.5q-8 35 -20.5 68.5t-31.5 60.5q-19 26 -44.5 42.5t-59.5 16.5q-39 0 -67 -17.5t-47 -45.5q-19 -29 -30.5 -65.5t-17.5 -73.5q-6 -38 -8 -73t-2 -62z" />
    <glyph glyph-name="one" unicode="1" horiz-adv-x="512" 
d="M241 -38v643l-123 -113q-13 17 -21 29.5t-21 29.5q46 35 87 69t87 70h85q-1 -57 -1 -105.5v-96.5v-100.5t1 -114.5v-311h-94z" />
    <glyph glyph-name="two" unicode="2" horiz-adv-x="584" 
d="M65 -38v97q11 8 42.5 30.5t73.5 56.5q40 33 84.5 75t82.5 90q37 48 61 97.5t24 98.5q0 32 -15 56.5t-38 41.5q-23 16 -51.5 24t-55.5 8q-43 0 -91 -12t-86 -35l-11 64q45 21 97 35t100 14t91.5 -14.5t76.5 -41.5t52 -64.5t19 -83.5q0 -38 -18.5 -81t-48.5 -88
q-31 -45 -71 -89t-82 -84q-43 -40 -86 -74t-80 -57h398v-64h-468z" />
    <glyph glyph-name="three" unicode="3" horiz-adv-x="578" 
d="M163 377h72q28 -1 62.5 6.5t64.5 23.5t50.5 41t20.5 61q0 40 -14 65.5t-37 39.5q-23 13 -53 18t-62 5q-17 0 -38.5 -2.5t-43.5 -7.5q-23 -5 -45.5 -11.5t-41.5 -15.5l-7 66q17 5 41.5 12t53.5 13q28 5 59 8.5t62 1.5q99 -5 154.5 -52.5t55.5 -138.5q0 -61 -43.5 -103.5
t-128.5 -62.5q40 -13 74 -30.5t58 -40.5t37.5 -53.5t13.5 -69.5q0 -54 -24 -91.5t-63 -62.5q-39 -24 -87 -35.5t-96 -11.5q-29 0 -57.5 2.5t-53.5 6.5t-46 8.5t-36 8.5q2 21 3 38t3 36q19 -8 41.5 -13.5t46.5 -8.5q23 -4 45 -6t40 -2q32 0 67 5t64 20t48 41t19 68
q0 57 -27 88t-69 46q-42 14 -91 17t-92 3v70z" />
    <glyph glyph-name="four" unicode="4" horiz-adv-x="625" 
d="M45 209l310 481h141v-491h98v-65h-97v-24v-34.5t0.5 -48t0.5 -65.5h-85v172h-368v75zM124 199h289v439z" />
    <glyph glyph-name="five" unicode="5" horiz-adv-x="584" 
d="M96 690q103 0 201.5 0.5t203.5 0.5v-66l-327 1v-216q31 4 54 4.5t54 0.5q48 0 91 -16.5t76 -46.5t53 -71t20 -92q0 -61 -23 -106t-62 -75t-90.5 -44.5t-108.5 -14.5q-42 0 -84 3.5t-78 16.5q2 20 2.5 38.5t1.5 36.5q29 -12 73.5 -21t104.5 -9q34 0 66 11.5t57 32.5t40 51
t15 66q0 51 -17 83t-45 51q-29 19 -67 26.5t-80 7.5q-29 0 -64 -3t-67 -16v366z" />
    <glyph glyph-name="six" unicode="6" horiz-adv-x="613" 
d="M509 604q-34 14 -70 20.5t-76 6.5q-48 0 -86 -22t-66 -62t-43 -96t-15 -123q13 21 34 38t45 28q49 23 98 23q51 0 92.5 -17t72.5 -48q30 -31 47 -73.5t17 -93.5q0 -54 -19 -97t-52 -74q-34 -31 -78.5 -48t-95.5 -17q-78 0 -126.5 33.5t-74.5 87.5t-35 119t-9 129
q0 81 18 150.5t56 121.5q38 51 98 81t147 30q35 0 71 -7.5t64 -19.5zM471 183q0 32 -10.5 62t-29.5 53q-20 22 -48 35.5t-62 13.5q-27 0 -55 -11.5t-50 -32.5q-23 -22 -37.5 -52t-14.5 -66q0 -82 42 -126q42 -45 105 -45q35 0 64.5 14t50.5 38q21 23 33 53.5t12 63.5z" />
    <glyph glyph-name="seven" unicode="7" horiz-adv-x="578" 
d="M245 -38h-92l293 663h-123q-45 0 -107 -0.5t-155 -0.5v67h223q46 -1 106.5 -1h138.5v-69z" />
    <glyph glyph-name="eight" unicode="8" horiz-adv-x="614" 
d="M162 519q0 -28 15 -51.5t38 -41.5q23 -19 52 -31.5t58 -18.5q26 12 49.5 24t41.5 29q17 16 27.5 38.5t10.5 56.5q0 25 -11 45.5t-30 35.5q-20 15 -47 23.5t-58 8.5q-23 0 -49 -8t-47 -23q-22 -15 -36 -37t-14 -50zM311 -51q-48 0 -92 12t-78 36q-35 24 -56.5 60.5
t-21.5 87.5q0 71 46.5 121.5t118.5 80.5q-67 19 -106 70q-20 24 -30.5 53.5t-7.5 61.5q4 48 27 80t57 52q33 20 72.5 28.5t76.5 8.5q38 0 77.5 -11.5t71.5 -35.5t52 -61t19 -89q0 -29 -12.5 -53.5t-32.5 -44.5t-46 -34.5t-54 -22.5q45 -15 77 -38t54 -49q22 -27 32.5 -56
t10.5 -56q0 -54 -22 -91.5t-57 -62.5q-36 -24 -82 -35.5t-94 -11.5zM476 143q0 33 -15.5 59t-40.5 47q-26 20 -58 35t-66 25q-24 -12 -49.5 -27t-46.5 -34q-22 -20 -36 -43.5t-14 -53.5q0 -35 15 -60.5t40 -42.5q24 -17 54.5 -25.5t62.5 -8.5q30 0 57.5 8t49.5 24
q21 16 34 40t13 57z" />
    <glyph glyph-name="nine" unicode="9" horiz-adv-x="620" 
d="M123 40q31 -14 74 -20q20 -3 39 -4.5t34 -1.5q60 0 102 24t68 64q25 40 35 92.5t6 112.5q-42 -50 -95.5 -63.5t-121.5 -5.5q-43 5 -78 24.5t-60 50.5q-25 30 -38.5 68.5t-13.5 83.5q0 109 66 172q31 30 74.5 47t97.5 17q81 0 129.5 -29.5t75.5 -80.5t36 -118t9 -142
q0 -79 -13.5 -148.5t-48.5 -121.5q-36 -52 -97 -82t-157 -30q-13 0 -30.5 2.5t-36.5 5.5q-38 8 -69 19zM159 471q0 -49 13.5 -81t35.5 -51t49 -26.5t53 -7.5q33 0 61.5 11.5t49.5 34.5q21 22 33 54.5t12 74.5q0 33 -13 62t-35 50t-50 33t-58 12q-61 0 -104 -43
q-21 -21 -34 -52t-13 -71z" />
    <glyph glyph-name="colon" unicode=":" horiz-adv-x="300" 
d="M100 383v109h114v-109h-114zM214 143v-109h-114v109h114z" />
    <glyph glyph-name="semicolon" unicode=";" horiz-adv-x="300" 
d="M112 380v111h113v-111h-113zM217 130q-22 -59 -40 -111t-40 -111h-80l54 222h106z" />
    <glyph glyph-name="less" unicode="&#x3c;" horiz-adv-x="620" 
d="M170 242q94 -42 194 -85.5t194 -85.5v-78l-490 215v68l490 216v-78z" />
    <glyph glyph-name="equal" unicode="=" horiz-adv-x="620" 
d="M558 454v-82h-490v82h490zM558 243v-83h-490v83h490z" />
    <glyph glyph-name="greater" unicode="&#x3e;" horiz-adv-x="620" 
d="M558 276v-68q-125 -54 -245 -108t-245 -108v79l388 171l-388 172v79z" />
    <glyph glyph-name="question" unicode="?" horiz-adv-x="554" 
d="M221 202q0 30 12 56t30 50t39 46.5t39 47.5q18 24 30 50.5t12 57.5q0 28 -12.5 49.5t-31.5 36.5q-20 15 -44.5 22.5t-48.5 7.5q-38 0 -78.5 -11t-75.5 -34l-5 49q-1 10 -2.5 18.5t-1.5 19.5q46 18 85 26t87 8t88.5 -12.5t71.5 -37.5q30 -25 47.5 -62.5t17.5 -88.5
q0 -28 -11.5 -53.5t-29.5 -49.5q-18 -25 -39 -50t-39 -52q-19 -27 -32.5 -58t-15.5 -68h-92v32zM325 58v-106h-116v106h116z" />
    <glyph glyph-name="at" unicode="@" horiz-adv-x="785" 
d="M376 196q12 0 22.5 3.5t17.5 11.5h-1q35 26 54 65t19 82q0 13 -3 21t-7 16q-15 29 -31.5 39.5t-41.5 10.5q-23 0 -45 -14.5t-39 -36.5q-18 -22 -29 -47t-11 -47v-29q0 -20 8.5 -34.5t22.5 -23.5q13 -9 30 -13t34 -4zM549 190q31 5 54 24.5t39 46.5q15 27 23 57t8 57
q0 57 -21 101t-56 75q-36 30 -83 46.5t-101 16.5q-61 0 -112.5 -23t-89.5 -62t-59.5 -91t-21.5 -112q0 -66 21 -119t60 -90q38 -37 92 -56.5t120 -19.5q57 0 114 22.5t95 64.5h73q-48 -72 -123 -112.5t-162 -40.5q-81 0 -148 24.5t-116 70.5q-51 46 -78.5 111.5t-27.5 146.5
q0 84 30 149t82 110q51 45 120.5 69t147.5 24q58 0 114.5 -22t101.5 -61t71.5 -92t26.5 -114q0 -45 -18 -93t-50 -87t-75 -64t-92 -25q-18 0 -35.5 14.5t-24.5 36.5q-22 -21 -50.5 -35.5t-55.5 -14.5q-30 0 -56.5 12.5t-45.5 33.5q-42 44 -42 105q0 45 14.5 88.5t41.5 77.5
t66 55t88 21q32 0 60.5 -19t55.5 -44l7 50h75q-8 -28 -20.5 -63t-24.5 -72t-20.5 -74.5t-8.5 -69.5v-12z" />
    <glyph glyph-name="A" unicode="A" horiz-adv-x="755" 
d="M375 613l-160 -401h325zM644 -38l-75 182h-375q-17 -43 -35.5 -90t-35.5 -92h-86l282 724h116l293 -724h-84z" />
    <glyph glyph-name="B" unicode="B" horiz-adv-x="666" 
d="M84 686h203q52 0 99.5 -9.5t84.5 -30.5q36 -22 57.5 -56.5t21.5 -83.5q0 -64 -25 -102.5t-80 -60.5q42 -13 69.5 -32.5t44.5 -44.5q16 -25 23 -54t7 -62q0 -57 -23 -92.5t-59 -57.5q-37 -22 -83 -30.5t-92 -8.5h-248v725zM167 22h160q34 0 66 7t57 23t39.5 43t14.5 66
q0 43 -16.5 71.5t-47.5 45.5q-31 16 -74.5 22.5t-97.5 6.5h-101v-285zM167 366h102q43 0 80.5 5.5t65.5 19.5t44 39t16 64q0 71 -56 102q-27 15 -66.5 21.5t-88.5 6.5h-97v-258z" />
    <glyph glyph-name="C" unicode="C" horiz-adv-x="743" 
d="M396 -49q-81 0 -147 22t-114 70t-74.5 118t-26.5 169q0 82 28 150t77 116t114.5 74.5t143.5 26.5q106 0 181 -39.5t118 -130.5h-79q-17 20 -37 38.5t-46 32.5q-26 13 -59.5 21t-78.5 8q-61 0 -112.5 -23.5t-88.5 -65.5q-38 -42 -59 -95.5t-21 -113.5q0 -72 21 -129.5
t59 -96.5q37 -40 88.5 -61.5t112.5 -21.5q63 0 119 25t98 70h87q-55 -88 -129.5 -126t-174.5 -38z" />
    <glyph glyph-name="D" unicode="D" horiz-adv-x="729" 
d="M72 -39v725h214q85 0 154.5 -25t120.5 -71q51 -48 78 -112.5t27 -143.5q0 -81 -21.5 -148.5t-69.5 -118.5t-121.5 -78.5t-179.5 -27.5h-202zM158 27h128q75 0 130 21t92 61q73 79 73 225q0 66 -19.5 119t-56.5 91q-37 37 -90 57t-120 20h-137v-594z" />
    <glyph glyph-name="E" unicode="E" horiz-adv-x="594" 
d="M512 27v-66h-426v725h421v-64h-339v-250h313v-65h-313v-280h344z" />
    <glyph glyph-name="F" unicode="F" horiz-adv-x="550" 
d="M484 685v-67h-329v-247h305v-66h-306v-343h-86v723h416z" />
    <glyph glyph-name="G" unicode="G" horiz-adv-x="767" 
d="M457 300h264v-258q-24 -21 -58.5 -39.5t-73.5 -33.5q-40 -14 -84 -22t-87 -8q-87 0 -154 27.5t-113 78.5q-48 51 -72 119.5t-24 153.5q0 82 24 150t70 117q45 48 110.5 75t149.5 27q42 0 84.5 -8.5t80.5 -26.5q37 -19 69 -49.5t53 -73.5l-36 -6q-8 -2 -18.5 -3.5
t-21.5 -3.5q-29 52 -82 79.5t-129 27.5q-72 0 -123 -24t-82 -66q-32 -42 -46.5 -96t-14.5 -112q0 -60 14.5 -117t46.5 -102q31 -45 81.5 -73t123.5 -28q31 0 65.5 6t67.5 17q32 11 58.5 26.5t42.5 35.5v161h-186v49z" />
    <glyph glyph-name="H" unicode="H" horiz-adv-x="724" 
d="M562 -39v352h-393l-1 -352h-86v725h87v-306h393l1 306h86v-725h-87z" />
    <glyph glyph-name="I" unicode="I" horiz-adv-x="240" 
d="M151 686v-725h-72v725h72z" />
    <glyph glyph-name="J" unicode="J" horiz-adv-x="578" 
d="M509 686v-473q0 -69 -10.5 -120t-36.5 -85t-70 -50.5t-111 -16.5q-97 0 -150.5 47t-59.5 144l79 11q4 -28 14.5 -53t27.5 -44t40.5 -30.5t54.5 -11.5q52 0 79.5 20t40.5 52q12 31 13.5 69.5t1.5 75.5v465h87z" />
    <glyph glyph-name="K" unicode="K" horiz-adv-x="680" 
d="M577 686l-364 -333l402 -392h-106l-365 363v-363h-87v725h88l-1 -292l333 292h100z" />
    <glyph glyph-name="L" unicode="L" horiz-adv-x="520" 
d="M467 -39l-412 1v724h83v-657h329v-68z" />
    <glyph glyph-name="M" unicode="M" horiz-adv-x="923" 
d="M704 680h142v-725h-83l-3 631l-246 -631h-89l-248 631l2 -631h-85v725h139l236 -630z" />
    <glyph glyph-name="N" unicode="N" horiz-adv-x="719" 
d="M82 686h97l394 -632v632h73v-725h-103l-387 623v-623h-74v725z" />
    <glyph glyph-name="O" unicode="O" horiz-adv-x="740" 
d="M115 323q0 -63 16.5 -119t49.5 -99t81 -68t114 -25t114.5 26.5t80.5 71.5t48 100.5t16 112.5t-16 112.5t-48 98.5t-80.5 69.5t-114.5 26.5t-114.5 -26t-80.5 -68q-33 -43 -49.5 -98t-16.5 -115zM30 323q0 78 24 145.5t69 118.5t108.5 80.5t144.5 29.5t143.5 -29.5
t107.5 -80.5t68 -118.5t23 -145.5t-23 -145.5t-68 -118.5t-107.5 -81t-143.5 -30q-84 0 -147.5 28.5t-108.5 79.5t-67.5 118.5t-22.5 148.5z" />
    <glyph glyph-name="P" unicode="P" horiz-adv-x="610" 
d="M267 684q55 0 106 -11.5t90 -36.5q39 -26 62.5 -66.5t23.5 -97.5q0 -45 -16.5 -83t-44.5 -65q-29 -28 -67 -44t-83 -16h-189v-303h-88v723h206zM309 325q69 0 112 41q20 19 31.5 46t11.5 60q0 80 -51.5 115t-136.5 35h-127v-297h160z" />
    <glyph glyph-name="Q" unicode="Q" horiz-adv-x="764" 
d="M34 321q0 81 22 149t67 119q43 51 107 79.5t149 28.5q81 0 143.5 -30t107.5 -81q45 -52 68 -120.5t23 -144.5q0 -103 -43.5 -183t-112.5 -129q20 -24 41.5 -51.5t41.5 -53.5h-90l-52 70q-14 -8 -31 -13.5t-34 -8.5q-36 -6 -64 -6q-84 0 -147.5 29t-106.5 80
q-45 51 -67 119t-22 147zM518 68q26 16 48 45t38 64t25 73t9 71q0 55 -17 110t-50 100t-81 72t-111 27q-66 0 -114.5 -28.5t-81.5 -73.5t-50 -100t-17 -107q0 -63 15 -116.5t46 -95.5t77 -66.5t109 -25.5q29 -1 53 3.5t37 12.5l-94 121q27 0 45.5 1t44.5 1z" />
    <glyph glyph-name="R" unicode="R" horiz-adv-x="658" 
d="M300 685q48 0 92.5 -11t78.5 -34q34 -24 54 -60t20 -87q0 -29 -13 -57.5t-36 -51.5q-23 -24 -56.5 -40.5t-73.5 -20.5q37 -18 64 -46t47 -61q20 -34 35.5 -71t29.5 -74v1q12 -32 22 -60t21 -51h-93q-8 20 -13.5 36.5l-12.5 37.5q-14 42 -28.5 80.5t-31.5 69.5
q-18 34 -38 54t-41 31q-22 10 -46.5 12.5t-51.5 2.5h-85v-324h-83v137q0 40 -0.5 91.5t-0.5 121.5v374h240zM289 353q31 0 62 9.5t56 27.5t40 44t15 59q0 36 -17 61t-42 40q-26 15 -56.5 22t-57.5 7h-149v-270h149z" />
    <glyph glyph-name="S" unicode="S" horiz-adv-x="547" 
d="M437 602q-40 14 -75 20.5t-71 6.5q-22 0 -50 -6t-52 -19q-25 -13 -42 -34t-17 -52t15 -54.5t40 -42.5t58 -35t69 -32q35 -16 70.5 -33.5t64.5 -40.5t47.5 -54.5t18.5 -74.5q0 -51 -19.5 -88t-51.5 -63q-33 -26 -76.5 -39t-91.5 -13q-45 0 -79 3t-62 8q-29 5 -51.5 10.5
t-42.5 11.5q3 20 6.5 35.5t6.5 33.5q22 -7 51 -13.5t57 -11.5q27 -5 50.5 -8t34.5 -3q32 0 64 7t58 23q25 16 41 41t16 61q0 28 -14 49.5t-38 39.5q-24 17 -55 32t-64 30q-38 17 -76 36t-69 43t-50 55.5t-19 74.5q0 54 23.5 90.5t61.5 59.5q38 22 84.5 31.5t94.5 9.5
q32 0 69 -7.5t74 -17.5l2 -1z" />
    <glyph glyph-name="T" unicode="T" horiz-adv-x="488" 
d="M51 624v62h385v-62h-155v-663h-71v663h-159z" />
    <glyph glyph-name="U" unicode="U" horiz-adv-x="723" 
d="M580 686h86v-360q0 -88 -11.5 -157t-44.5 -118q-33 -51 -91.5 -78.5t-154.5 -31.5q-91 3 -149 30.5t-91 76.5t-45.5 118.5t-12.5 157.5v362h86l-1 -372q2 -60 7 -115.5t26 -98.5q21 -44 63.5 -70t119.5 -26q75 0 118.5 28.5t64.5 73.5t26 101t4 111v368z" />
    <glyph glyph-name="V" unicode="V" horiz-adv-x="703" 
d="M355 34l224 652h87l-246 -725h-126l-251 725h91z" />
    <glyph glyph-name="W" unicode="W" horiz-adv-x="972" 
d="M187 -44q-44 183 -87 358.5t-86 358.5h78l153 -636l192 624h121l189 -624l155 636h74l-177 -717h-108l-193 628l-199 -628h-112z" />
    <glyph glyph-name="X" unicode="X" horiz-adv-x="711" 
d="M74 686h97l188 -292l191 292h93l-233 -345l251 -380h-99l-209 317l-203 -317h-93l243 380z" />
    <glyph glyph-name="Y" unicode="Y" horiz-adv-x="670" 
d="M301 -39v285q-60 112 -116.5 220t-116.5 220h94l178 -352l178 352h93l-238 -446v-279h-72z" />
    <glyph glyph-name="Z" unicode="Z" horiz-adv-x="573" 
d="M540 30v-69h-503v69l393 581h-370v75h466v-69l-394 -587h408z" />
    <glyph glyph-name="bracketleft" unicode="[" horiz-adv-x="325" 
d="M246 709v-62h-79v-676h79v-62h-164v800h164z" />
    <glyph glyph-name="backslash" unicode="\" horiz-adv-x="432" 
d="M297 -34l-229 689h70l233 -689h-74z" />
    <glyph glyph-name="bracketright" unicode="]" horiz-adv-x="323" 
d="M70 -90v62h99v674h-99v62h185v-798h-185z" />
    <glyph glyph-name="asciicircum" unicode="^" horiz-adv-x="620" 
d="M354 662q48 -100 95 -193.5t95 -193.5h-85l-146 303q-34 -72 -72.5 -151.5t-72.5 -151.5h-86l191 387h81z" />
    <glyph glyph-name="underscore" unicode="_" horiz-adv-x="510" 
d="M468 -101v-44h-422v44h422z" />
    <glyph glyph-name="grave" unicode="`" horiz-adv-x="266" 
d="M165 571q-29 32 -58.5 64.5t-57.5 64.5h99q17 -32 36.5 -64.5t36.5 -64.5h-56z" />
    <glyph glyph-name="a" unicode="a" horiz-adv-x="551" 
d="M101 454q42 26 91.5 39.5t97.5 13.5q220 0 220 -217q0 -85 3 -167t3 -163h-78v64q-18 -22 -42.5 -37t-50.5 -24t-51.5 -12.5t-45.5 -3.5q-43 0 -80 8t-64 27t-42 50t-15 76q0 51 26 86t66 57t88.5 32t96.5 11q32 0 64 -6q15 -4 27.5 -8t18.5 -8q0 51 -11 84t-32 54
q-21 20 -51.5 29t-72.5 9q-45 0 -87 -17t-77 -39zM434 209q-18 14 -42.5 18t-45.5 4q-33 0 -70.5 -5.5t-68.5 -18.5q-32 -14 -53 -37t-21 -59q0 -20 5.5 -38.5t19.5 -31.5q13 -14 36 -22t58 -8q45 0 79 19t58 48q23 29 34.5 64t10.5 67z" />
    <glyph glyph-name="b" unicode="b" horiz-adv-x="620" 
d="M59 708h84v-294q36 42 84.5 67t100.5 25q57 0 103 -22.5t79 -60.5q32 -38 49 -87t17 -101q0 -54 -15.5 -105.5t-44.5 -91.5q-30 -42 -73 -66.5t-100 -24.5q-51 0 -102 19t-96 76v-82h-86v748zM490 230q0 35 -10 73.5t-31 70.5q-21 31 -53 51.5t-75 20.5q-42 0 -74 -17.5
t-54 -45.5q-23 -29 -35.5 -65t-12.5 -72q0 -42 7.5 -83.5t27.5 -75.5q19 -35 53 -56.5t88 -21.5q48 0 80 20.5t52 53.5q20 32 28.5 71t8.5 76z" />
    <glyph glyph-name="c" unicode="c" horiz-adv-x="502" 
d="M438 423q-24 7 -50.5 12.5t-52.5 5.5q-54 0 -93.5 -16t-66.5 -44q-54 -59 -54 -158q0 -57 18 -98t48 -68t70.5 -40.5t85.5 -13.5q29 0 59 5.5t60 18.5l8 -57q-35 -12 -74 -18.5t-75 -6.5q-61 0 -113.5 20t-90.5 57t-60 87.5t-22 113.5q0 70 23 122.5t63 88.5
q40 35 93 52.5t113 17.5q34 0 59.5 -5t59.5 -16z" />
    <glyph glyph-name="d" unicode="d" horiz-adv-x="600" 
d="M555 -40h-86v82q-45 -57 -96 -76t-102 -19q-57 0 -100 24.5t-72 66.5q-30 40 -45.5 91.5t-15.5 105.5q0 52 17 101t50 87q32 38 78 60.5t103 22.5q52 0 100.5 -25t84.5 -67v294h84v-748zM124 230q0 -37 8.5 -76t28.5 -71q20 -33 52 -53.5t80 -20.5q54 0 88 21.5t54 56.5
q19 34 26.5 75.5t7.5 83.5q0 36 -12 72t-35 65q-23 28 -55 45.5t-74 17.5q-43 0 -75 -20.5t-53 -51.5q-21 -32 -31 -70.5t-10 -73.5z" />
    <glyph glyph-name="e" unicode="e" horiz-adv-x="580" 
d="M512 -8q-45 -23 -100.5 -35t-109.5 -12q-72 0 -122 22t-82 60q-32 37 -47.5 86t-15.5 106q0 60 15.5 111.5t46.5 90.5q31 38 77 60.5t109 22.5q64 0 110 -24.5t77 -66.5q30 -42 46 -97.5t19 -116.5h-410q1 -43 14.5 -78t37.5 -59q24 -25 57 -38.5t72 -13.5q48 0 97.5 13
t89.5 32zM441 250q0 32 -10.5 65.5t-30.5 61.5q-20 27 -51.5 44.5t-73.5 17.5q-38 0 -66 -19t-47 -47q-19 -29 -29 -62t-10 -61h318z" />
    <glyph glyph-name="f" unicode="f" horiz-adv-x="402" 
d="M16 448h135q0 75 3.5 126.5t20.5 86.5q12 20 30.5 32.5t40.5 19.5q22 6 46 8.5t47 2.5q12 0 25 -2.5t24 -5.5l-6 -51q-26 3 -40 3q-39 0 -61 -13t-33 -33q-12 -21 -15 -47.5t-3 -53.5v-73h150v-55h-149v-433h-80v433h-135v55z" />
    <glyph glyph-name="g" unicode="g" horiz-adv-x="606" 
d="M258 -207q-51 0 -96 10.5t-77 22.5q2 20 4.5 34.5t5.5 30.5q48 -17 93 -23.5t96 -6.5q54 0 91 16.5t60 47.5t33 75t10 101q-21 -35 -46.5 -53t-51.5 -26q-27 -9 -53.5 -10t-50.5 -1q-54 0 -97 19.5t-73 53.5q-30 33 -46 76.5t-16 91.5q0 51 15.5 98t45.5 83
q29 36 71.5 57.5t99.5 21.5q22 0 46.5 -2.5t50.5 -9.5q25 -8 51 -22.5t52 -38.5v62h82v-442q0 -137 -80 -203q-39 -32 -94.5 -47.5t-125.5 -15.5zM299 67q45 0 77.5 14.5t54.5 40.5q21 25 32 60t11 77q0 39 -11.5 74.5t-33.5 63.5q-23 27 -55.5 43.5t-74.5 16.5t-73.5 -17
t-53.5 -44t-34 -61.5t-12 -69.5q0 -42 8.5 -77.5t29.5 -62.5q20 -27 53 -42.5t82 -15.5z" />
    <glyph glyph-name="h" unicode="h" horiz-adv-x="577" 
d="M142 403q23 32 63.5 56.5t97.5 24.5q52 0 94.5 -16.5t72.5 -48.5t46.5 -78.5t16.5 -106.5v-274h-77l-2 253q0 32 -6 68t-22 67q-17 30 -46 50t-75 20q-48 0 -79 -21t-50 -55t-26.5 -77t-7.5 -86v-219h-85v748h84z" />
    <glyph glyph-name="i" unicode="i" horiz-adv-x="206" 
d="M55 -40v509h91v-509h-91zM50 618v90h97v-90h-97z" />
    <glyph glyph-name="j" unicode="j" horiz-adv-x="236" 
d="M205 -3q0 -38 -6.5 -76t-23.5 -69q-18 -30 -48.5 -49t-79.5 -19q-12 0 -22 1t-16 3l6 66q1 0 1.5 -0.5t1.5 -0.5q19 0 38 5.5t34 19.5t24 38t9 60v498h82v-477zM116 618v90h95v-90h-95z" />
    <glyph glyph-name="k" unicode="k" horiz-adv-x="546" 
d="M475 485l-274 -230l296 -295h-97l-272 268q0 -66 0.5 -132.5t0.5 -135.5h-83v748h83l-1 -427l242 204h105z" />
    <glyph glyph-name="l" unicode="l" horiz-adv-x="213" 
d="M60 -40v748h86v-748h-86z" />
    <glyph glyph-name="m" unicode="m" horiz-adv-x="836" 
d="M595 444q-30 0 -52.5 -15t-37.5 -41t-22 -60.5t-7 -72.5v-295h-90v300q0 32 -6.5 65t-21.5 60q-15 26 -38.5 42.5t-56.5 16.5q-32 0 -54.5 -15t-36.5 -40q-15 -25 -22 -59t-7 -71v-41.5t1 -54.5v-203h-85v534h84v-51q14 25 47 44t75 19q67 0 104.5 -29.5t62.5 -78.5
q27 52 69.5 80t96.5 28q96 0 150.5 -63t54.5 -184v-299h-90v293q-1 54 -9.5 90t-23.5 59q-30 42 -85 42z" />
    <glyph glyph-name="n" unicode="n" horiz-adv-x="589" 
d="M148 436q19 25 59.5 44t94.5 19q66 0 112 -21.5t74 -57.5q28 -37 40.5 -86.5t12.5 -104.5v-269h-82v269q0 34 -6.5 70.5t-23.5 67.5q-17 30 -46.5 50t-77.5 20q-42 0 -71 -16t-48 -44t-28.5 -65.5t-9.5 -82.5v-269h-86v525h86v-49z" />
    <glyph glyph-name="o" unicode="o" horiz-adv-x="594" 
d="M28 223q0 60 20.5 111.5t56.5 89.5q36 37 84 58.5t105 21.5q60 0 108 -22.5t83 -60.5t54 -89.5t19 -108.5q0 -66 -20.5 -117.5t-56.5 -87.5t-84 -54.5t-103 -18.5q-58 0 -107 20.5t-84 57.5t-55 88t-20 112zM115 224q0 -42 11 -81.5t33 -69.5q22 -31 56 -49.5t79 -18.5
q48 0 81.5 18.5t54.5 49.5t30 70t9 81q0 51 -13 91.5t-36 69.5q-24 28 -56 43.5t-70 15.5q-46 0 -80 -20t-56 -51q-22 -32 -32.5 -71t-10.5 -78z" />
    <glyph glyph-name="p" unicode="p" horiz-adv-x="613" 
d="M136 490v-59q31 35 77.5 52.5t95.5 17.5q66 0 113.5 -23.5t79.5 -62.5q31 -39 46 -88.5t15 -103.5q0 -60 -18 -106.5t-51 -80.5q-34 -34 -81 -52t-104 -18q-25 0 -51.5 5.5t-50.5 14.5q-24 10 -43.5 24t-30.5 31v-248h-84v697h87zM479 232q0 37 -9.5 75.5t-29.5 69.5
t-52 50.5t-77 19.5q-48 0 -80.5 -18.5t-53.5 -48.5q-22 -30 -32 -68.5t-10 -78.5q0 -42 9.5 -80t30.5 -68t54.5 -48t81.5 -18q43 0 74.5 19.5t52.5 50.5t31 69t10 74z" />
    <glyph glyph-name="q" unicode="q" horiz-adv-x="626" 
d="M563 490v-697h-84v248q-11 -17 -30.5 -31t-43.5 -24q-24 -9 -50.5 -14.5t-51.5 -5.5q-57 0 -104 18t-80 52q-34 34 -52 80.5t-18 106.5q0 54 15 103.5t47 88.5q31 39 78.5 62.5t113.5 23.5q49 0 95.5 -17.5t77.5 -52.5v59h87zM133 232q0 -36 10 -74t31 -69t52.5 -50.5
t74.5 -19.5q48 0 81.5 18t54.5 48t30.5 68t9.5 80q0 40 -10 78.5t-31 68.5q-22 30 -55.5 48.5t-79.5 18.5q-45 0 -77 -19.5t-52 -50.5t-29.5 -69.5t-9.5 -75.5z" />
    <glyph glyph-name="r" unicode="r" horiz-adv-x="419" 
d="M122 -40h-81v533h81v-68q16 29 63 52q22 10 50 16t59 6q51 0 84 -9l-11 -65q-16 5 -29.5 6.5t-27.5 1.5q-66 0 -103.5 -25.5t-56.5 -64.5q-19 -40 -23.5 -88.5t-4.5 -93.5v-201z" />
    <glyph glyph-name="s" unicode="s" horiz-adv-x="447" 
d="M35 38q43 -21 83 -28t88 -9q16 0 42.5 3.5t51.5 13.5q25 9 43 25t18 40t-13 41.5t-35 31.5q-22 13 -50 24.5t-58 23.5q-33 13 -65.5 29.5t-57.5 37.5q-26 20 -41.5 46t-13.5 58q5 40 25 67.5t50 44.5t67.5 24t77.5 7q38 0 81.5 -8t74.5 -23l-7 -60q-31 11 -67.5 22
t-81.5 9q-20 0 -44.5 -3.5t-45.5 -12.5t-36 -25.5t-16 -43.5q-1 -20 11 -35.5t32 -28.5t46.5 -24.5t55.5 -24.5q33 -14 67 -30.5t62 -36.5q27 -21 44.5 -46.5t17.5 -56.5q0 -33 -16.5 -60.5t-45.5 -47.5q-30 -20 -70 -31.5t-86 -11.5q-24 0 -51 2t-53 6q-27 5 -51 12t-42 16
z" />
    <glyph glyph-name="t" unicode="t" horiz-adv-x="407" 
d="M239 658v-164h121v-58h-121v-311q0 -61 22.5 -85.5t67.5 -24.5q11 0 23 0.5t25 3.5v-63q-24 -9 -56 -9q-77 0 -119 33t-42 113v343h-127v58h127v164h79z" />
    <glyph glyph-name="u" unicode="u" horiz-adv-x="579" 
d="M447 5q-22 -25 -43 -38.5t-42 -19.5t-44 -6.5t-48 -0.5q-63 0 -103.5 21t-65.5 63t-35.5 100.5t-10.5 133.5v227h83l1 -201q0 -58 4 -108.5t19 -88.5t44.5 -60t83.5 -22t85.5 22t47.5 60q16 37 20 87t4 107v204h91v-532h-91v52z" />
    <glyph glyph-name="v" unicode="v" horiz-adv-x="588" 
d="M248 -40q-51 135 -102.5 263.5t-102.5 264.5h87l173 -458l180 458h76q-51 -136 -100.5 -264t-100.5 -264h-110z" />
    <glyph glyph-name="w" unicode="w" horiz-adv-x="882" 
d="M588 -40l-144 479l-145 -479h-107l-158 533h85l126 -461q18 57 55.5 170t88.5 291h112l138 -462l133 462h76l-158 -533h-102z" />
    <glyph glyph-name="x" unicode="x" horiz-adv-x="597" 
d="M79 489h91l136 -199q13 21 31 46.5t37 52.5q18 27 35.5 53t30.5 47h87l-173 -250l198 -279h-92l-161 225l-154 -225h-86l193 279z" />
    <glyph glyph-name="y" unicode="y" horiz-adv-x="538" 
d="M79 -202q-8 0 -16 0.5t-19 1.5l8 60q2 0 4 -0.5t4 -0.5q63 0 107 28t70 98l-204 505h78l167 -421q37 100 78.5 209.5t79.5 211.5h78q-47 -114 -80.5 -198t-59.5 -148t-46.5 -113t-40.5 -94q-31 -70 -84.5 -104.5t-123.5 -34.5z" />
    <glyph glyph-name="z" unicode="z" horiz-adv-x="523" 
d="M68 435v65h406v-73l-356 -408h371v-59h-445v70l353 405h-329z" />
    <glyph glyph-name="braceleft" unicode="{" horiz-adv-x="323" 
d="M294 659q-16 1 -37 -0.5t-32 -6.5q-16 -18 -22 -40t-6 -49q0 -13 2 -28t3 -29q1 -16 1 -31v-29q0 -23 -4 -44.5t-15 -38.5q-11 -18 -30.5 -30.5t-51.5 -18.5q31 -17 49.5 -36.5t29.5 -40.5q10 -22 13.5 -44t3.5 -44v-25t-1 -24t-1.5 -21t-0.5 -21q0 -23 3.5 -41t14.5 -31
q10 -12 29.5 -17.5t51.5 -2.5v-56h-68q-35 0 -55.5 9t-31.5 25t-14.5 37.5t-3.5 46.5v23t1 25q1 12 1.5 24t0.5 25q0 26 -3 50t-13 45q-10 20 -28 35.5t-48 24.5v60q32 4 50 21.5t26 43.5q8 25 9.5 56.5t1.5 65.5q0 35 1 69t11 61q10 26 31 42.5t63 16.5h69v-57z" />
    <glyph glyph-name="bar" unicode="|" horiz-adv-x="213" 
d="M147 -89h-80v803h80v-803z" />
    <glyph glyph-name="braceright" unicode="}" horiz-adv-x="323" 
d="M32 716h69q42 0 63.5 -16.5t31.5 -42.5q10 -27 11 -61t1 -69q0 -34 1 -65.5t10 -56.5q8 -26 25.5 -43.5t49.5 -21.5v-60q-29 -9 -46.5 -25t-27.5 -36q-11 -21 -14.5 -45t-3.5 -49q0 -13 1 -25l2 -24q1 -13 0.5 -25t-0.5 -23q0 -25 -3.5 -46.5t-14.5 -37.5
q-12 -16 -32.5 -25t-54.5 -9h-68v56q31 -3 50.5 2.5t30.5 17.5q10 13 13.5 31t3.5 41v21.5t-1 21.5v-1q-1 11 -1.5 24t-0.5 25q0 22 3.5 44t14.5 44q10 21 29 40.5t50 36.5q-32 6 -52 18.5t-31 30.5q-11 17 -14.5 38.5t-3.5 44.5q0 13 0.5 29.5t1.5 30.5t2 28.5t1 28.5
q0 27 -5.5 49.5t-21.5 39.5q-10 4 -32 6q-10 0 -20 0.5t-17 0.5v57z" />
    <glyph glyph-name="asciitilde" unicode="~" horiz-adv-x="562" 
d="M396 302q12 0 25.5 6t26.5 16t24.5 22.5t18.5 24.5q8 -19 17 -36.5t20 -30.5q-20 -47 -58.5 -65.5t-88.5 -18.5q-29 0 -55 11t-51 24t-50.5 24t-52.5 11q-14 0 -28 -7t-26 -17q-13 -11 -23.5 -24.5t-17.5 -25.5q-11 14 -17.5 29.5t-20.5 38.5q18 44 60 66t87 22
q26 0 51 -11t51 -24q25 -13 51.5 -24t56.5 -11z" />
    <glyph glyph-name="uni007F" horiz-adv-x="343" 
 />
    <glyph glyph-name="uni00A0" unicode="&#xa0;" horiz-adv-x="343" 
 />
    <glyph glyph-name="exclamdown" unicode="&#xa1;" horiz-adv-x="1045" 
d="M461 542h68l14 -271v-381h-96v381zM552 629h-113v117h113v-117z" />
    <glyph glyph-name="currency" unicode="&#xa4;" horiz-adv-x="1045" 
d="M495 562q-95 0 -163 -71q-36 -37 -52 -80t-16 -94q0 -47 17 -92q18 -47 51 -81q15 -17 35 -29.5t41 -21.5q42 -19 87 -19q49 0 89 16.5t73 53.5q70 71 70 173q0 46 -18 93q-9 21 -22 41.5t-30 39.5q-17 15 -34.5 27.5t-38.5 23.5q-48 20 -89 20zM197 -54l-56 59l108 113
q-15 22 -27 44t-20 48q-20 51 -20 107q0 60 19 110q14 51 47 93q-14 13 -27 26.5t-26 30.5q-10 7 -15.5 13.5t-12.5 14.5q-8 7 -14 14l-12 14l56 59l108 -114q79 67 190 67q109 0 190 -66l56 57l28 30l25 26l55 -59l-106 -112q14 -22 27 -45.5t22 -46.5q7 -28 11 -55.5
t4 -56.5t-4 -55.5t-11 -51.5q-18 -52 -49 -95q12 -14 25 -26.5t29 -28.5l26 -28l26 -27l-55 -59l-106 110q-83 -66 -193 -66q-28 0 -54 4t-49 15q-25 8 -47.5 20t-42.5 29z" />
    <glyph glyph-name="section" unicode="&#xa7;" horiz-adv-x="1045" 
d="M257 726q72 0 110 -54q3 -9 7.5 -16t7.5 -14q6 -15 6 -25q0 -15 -6 -22q-3 -6 -7.5 -9.5t-7.5 -7.5q-23 -14 -33 -14q-8 0 -13.5 1.5t-7.5 7.5q-11 8 -17 21q-11 14 -13 31q-2 7 -2.5 14t-0.5 14q0 5 -30 5q-18 0 -24 -12q-8 -18 -8 -40q-2 -41 23 -74q23 -37 68 -73
q25 -24 44 -47.5t34 -47.5q13 -27 18 -52.5t3 -52.5q-6 -32 -20 -50q-8 -10 -17 -16t-17 -10q2 -3 3.5 -6t3.5 -5l6 -12q0 -7 5 -15q1 -4 3 -7t4 -7q2 -8 3.5 -15.5t4.5 -14.5q1 -9 2 -16t1 -15q0 -13 -1.5 -23.5t-2.5 -22.5q-3 -11 -7 -23t-10 -23q-34 -71 -109 -67
q-38 0 -61 13q-16 7 -28.5 15.5t-20.5 19.5q-39 46 -21 90q22 43 71 25q10 -7 16.5 -13.5t11.5 -12.5q7 -20 1 -44v1q-1 -1 -1 -3v-5q0 -1 -0.5 -1.5t-0.5 -1.5v-1q1 -3 12 -3q4 -4 10 -4q3 0 8 0.5t11 3.5q8 0 14 11q3 3 5 7.5t5 10.5q1 5 1.5 10.5t0.5 11.5q0 8 -5 33
q-4 11 -9 21.5t-10 22.5l-30 35q-14 11 -25 24.5t-24 28.5q-14 15 -25.5 28t-21.5 29q-9 9 -13.5 19.5t-8.5 22.5q-7 18 -7 43v12.5t2 13.5q0 11 7 26q7 21 25 35q7 6 14.5 11t17.5 9l-9 14q-15 18 -23 48q-12 24 -12 55q-5 74 30 112q15 20 37.5 30t49.5 12h3zM303 321
q-10 13 -20.5 24t-18.5 22q-13 10 -22 14.5t-18 6.5q-24 1 -24 -12q0 -22 7 -36q3 -7 5.5 -16.5t7.5 -14.5q22 -31 50 -48q23 -20 36 -20q18 0 18 23q0 6 -2.5 13.5t-5.5 15.5q-5 8 -7 16z" />
    <glyph glyph-name="dieresis" unicode="&#xa8;" horiz-adv-x="1045" 
d="M793 820v-129h-129v129h129zM327 820v-129h-127v129h127z" />
    <glyph glyph-name="ordfeminine" unicode="&#xaa;" horiz-adv-x="1045" 
d="M709 218v-12.5t2 -12.5q0 -16 5 -29q1 -15 6 -26q0 -2 2 -12q2 -6 3 -7h-88l-5 15q-2 4 -2.5 7.5t-0.5 8.5l-4 9q0 3 -1.5 6t-2.5 7q-5 -4 -9.5 -8t-9.5 -8q-7 -4 -12 -7.5t-12 -5.5q-1 0 -1 -1q-1 -1 -3 -1h-1q-1 0 0 -1q-16 -9 -29 -15.5t-28 -10.5q-32 -13 -64 -13
q-42 -5 -74 6q-38 6 -64 25q-28 17 -43.5 45.5t-18.5 63.5q-4 32 8 64q6 25 26 50q8 10 18 19.5t23 17.5q10 7 22.5 12.5t28.5 10.5q10 4 20.5 6t22.5 4q12 0 21 4l24 3h6q-1 0 7 2h6q0 1 1 1q3 0 5 1q3 0 6.5 0.5t8.5 1.5q3 0 7.5 1t8.5 2q3 0 7 1t9 2q9 0 18 4
q4 1 11.5 2.5t18.5 5.5q11 2 22 7q2 0 8 10q1 3 2 7.5t1 9.5q0 36 -31 67q-29 29 -95 29q-14 0 -26 -1t-25 -4q-27 -10 -45 -23q-10 -5 -16 -14.5t-11 -21.5q-5 -13 -7 -27.5t-2 -30.5h-86q-3 51 14 89.5t49 67.5q17 11 34.5 20.5t37.5 16.5q18 7 38.5 11t44.5 4
q45 0 81.5 -13.5t69.5 -37.5q63 -57 63 -138v-266zM793 -56h-580v80h580v-80zM621 378l-16 -6q-3 -1 -5 -2t-5 -1q-2 -1 -5 -1q-8 -3 -17.5 -5.5t-20.5 -3.5q-13 -4 -26 -5l-26 -2q-15 -3 -26.5 -5t-20.5 -2q-4 -1 -8.5 -2t-8.5 -1q-5 -1 -7 -1.5t-5 -0.5q-46 -10 -63 -34
q-23 -23 -21 -50q0 -38 36 -54q16 -9 35.5 -13.5t45.5 -2.5q11 0 24.5 4t28.5 10q16 6 29.5 12t26.5 17q55 34 55 76v73z" />
    <glyph glyph-name="uni00AD" unicode="&#xad;" horiz-adv-x="1045" 
d="M754 358v-81h-518v81h518z" />
    <glyph glyph-name="registered" unicode="&#xae;" horiz-adv-x="1045" 
d="M365 535h154q29 -1 57 -8t50 -21t35.5 -36.5t13.5 -53.5q0 -48 -31 -77.5t-75 -35.5q34 -12 56.5 -41.5t33.5 -65.5t22.5 -62t23.5 -49h-66q-5 11 -10.5 27t-11 33t-12 34t-12.5 31q-17 37 -44.5 56.5t-59.5 19.5h-63v-201h-60zM423 329h89q19 0 37.5 6t33.5 17t24 27
t9 37q0 42 -27.5 61.5t-76.5 19.5h-89v-168zM52 309q0 93 35 178q34 82 98 146q29 30 65 54.5t80 43.5q82 36 180 36q94 0 178 -36q41 -19 77.5 -43.5t67.5 -54.5q31 -34 55.5 -69.5t42.5 -75.5q36 -86 36 -179q0 -95 -36 -177q-18 -43 -43 -80t-56 -67q-63 -61 -145 -97
q-85 -34 -177 -34q-96 0 -179 34q-43 19 -79.5 43t-65.5 54q-34 30 -57.5 67t-40.5 80q-36 83 -36 177zM118 309q0 -80 30 -151q32 -70 87 -124q49 -53 123 -83q70 -33 152 -33q80 0 150 33q35 14 67 34.5t58 47.5q53 52 86 124q14 36 22 73.5t8 78.5q0 79 -30 152
q-32 69 -86 125q-26 27 -57.5 47.5t-66.5 36.5q-37 16 -74.5 24t-76.5 8q-42 0 -79.5 -8t-73.5 -24t-67 -36.5t-57 -47.5q-53 -54 -85 -125q-30 -70 -30 -152z" />
    <glyph glyph-name="degree" unicode="&#xb0;" horiz-adv-x="1045" 
d="M39 678q0 14 2 27.5t9 27.5q4 13 11.5 23.5t16.5 21.5q9 9 20 15.5t21 13.5q14 4 25.5 7t27.5 3q31 0 52 -10q13 -7 23 -13.5t20 -15.5q8 -11 15.5 -21.5t13.5 -23.5q4 -14 7 -27.5t3 -27.5q0 -16 -3 -29t-7 -25q-6 -15 -13.5 -25t-15.5 -18q-20 -23 -43 -30
q-12 -7 -26 -9.5t-26 -2.5q-16 0 -27.5 2.5t-25.5 9.5q-10 4 -21 11.5t-20 18.5q-9 8 -16.5 18t-11.5 25q-7 12 -9 25t-2 29zM122 680q0 -26 16 -38q12 -15 34 -15q18 0 35 15q6 8 9.5 16.5t3.5 21.5q0 17 -13 36q-18 15 -35 15q-21 0 -34 -15q-16 -16 -16 -36z" />
    <glyph glyph-name="plusminus" unicode="&#xb1;" horiz-adv-x="1045" 
d="M176 434h276v229h87v-229h276v-84h-276v-230h-87v230h-276v84zM176 61h639v-81h-639v81z" />
    <glyph glyph-name="twosuperior" unicode="&#xb2;" horiz-adv-x="1045" 
d="M287 579l-15 -9q-7 -6 -14 -10.5t-11 -8.5h122v-78h-238q0 13 1 22.5t4 20.5q1 19 14 38q7 16 27 33q12 13 39 34l10 7q3 2 6.5 3.5t6.5 4.5q2 1 4.5 3.5l4.5 4.5l13 8q26 23 26 41q0 29 -30 29q-17 0 -25 -17q-9 -18 -9 -39h-82q0 16 2 30t7 26q3 10 8 19t11 19
q13 18 38 28q9 4 22 7t29 3q12 0 24.5 -2.5t24.5 -5.5q9 -5 18 -10.5t16 -12.5q7 -8 12.5 -16t8.5 -18t4 -20t1 -20q0 -23 -4 -36q-2 -8 -6.5 -15t-8.5 -12q-6 -6 -10.5 -11.5t-9.5 -10.5q-7 -4 -12.5 -9t-10.5 -8z" />
    <glyph glyph-name="threesuperior" unicode="&#xb3;" horiz-adv-x="1045" 
d="M142 675q0 56 35 91q32 32 77 32q11 0 21 -2.5l22 -5.5q9 -5 17.5 -9.5t17.5 -10.5q6 -9 12.5 -16t12.5 -16q8 -19 8 -37t-5 -36q-9 -18 -18 -27q13 -11 23 -30q2 -9 4.5 -17.5t2.5 -18.5q0 -46 -31 -77q-35 -29 -85 -29q-29 0 -48 11q-13 5 -22 11.5t-16 16.5
q-17 18 -24 42q-7 13 -9 25t-2 26h72q0 -11 1.5 -19.5t7.5 -17.5q4 -18 34 -18q10 0 16.5 1.5t13.5 7.5q11 6 11 22q0 11 -7 18q-3 3 -7.5 5t-6.5 5q-5 0 -9.5 1t-11.5 2h-27l1 66h26h11t6 2q3 1 11 9q5 7 5 19q0 9 -9 15q-8 6 -25 6q-23 0 -29 -15q-3 -10 -5.5 -17.5
t-2.5 -14.5h-69z" />
    <glyph glyph-name="acute" unicode="&#xb4;" horiz-adv-x="321" 
d="M223 674q-8 -14 -16.5 -26.5t-19.5 -24.5q-13 -15 -23 -28t-23 -27q-11 -13 -22.5 -26t-23.5 -26l-45 -44q1 7 3.5 13.5t4.5 11.5l10 33q4 15 8 32.5t11 34.5q4 16 10 33.5t13 35.5q5 16 9.5 31.5t11.5 29.5l16 35q7 18 21 32v-1q28 41 74 19q44 -26 20 -75
q-6 -8 -9.5 -15l-7.5 -15q-7 -11 -11 -17q-3 -5 -5 -9t-6 -7z" />
    <glyph glyph-name="paragraph" unicode="&#xb6;" horiz-adv-x="1045" 
d="M663 755v-876h-104v796h-48v-796h-104v473q-84 4 -131 58q-53 59 -53 145q0 83 55 141q61 59 137 59h248z" />
    <glyph glyph-name="periodcentered" unicode="&#xb7;" horiz-adv-x="220" 
d="M181 382v-129h-125v129h125z" />
    <glyph glyph-name="cedilla" unicode="&#xb8;" horiz-adv-x="1045" 
d="M567 -25q29 -8 46 -26t17 -43q0 -31 -32.5 -53t-86.5 -22q-36 0 -59 12t-37 27l13 22q17 -9 34 -12.5t33 -3.5q25 0 39.5 8t14.5 24q0 15 -13 22t-26 7q-20 0 -33 -6l-23 24l54 61h89l-30 -41v0z" />
    <glyph glyph-name="onesuperior" unicode="&#xb9;" horiz-adv-x="1045" 
d="M239 480v196h-61v73q9 0 16.5 -0.5t15.5 2.5q12 0 22 7l6.5 6.5t4.5 8.5q0 1 1 3.5t1 4.5l2 16h69v-317h-77z" />
    <glyph glyph-name="ordmasculine" unicode="&#xba;" horiz-adv-x="1045" 
d="M728 392q0 -26 -4 -52t-10 -50q-8 -26 -18.5 -49t-25.5 -44q-15 -20 -34.5 -37t-40.5 -29q-24 -15 -49 -21t-53 -6q-62 0 -102 25q-46 20 -74 63q-14 19 -26 42t-19 50q-13 46 -13 107q0 48 13 100q7 24 18.5 47t25.5 46q14 19 32.5 36t41.5 31q21 11 46.5 18t57.5 7
q53 0 101 -24q42 -22 74 -63q15 -20 25.5 -42.5t18.5 -49.5q7 -26 11 -51.5t4 -53.5zM793 -56h-580v80h580v-80zM646 391q0 15 -2.5 33t-5.5 37q-5 17 -11.5 33t-15.5 32q-9 13 -21.5 25t-25.5 23q-15 10 -32.5 14t-36.5 4q-39 0 -65 -17q-17 -11 -27 -23t-20 -26
q-11 -15 -17 -31t-10 -33q-7 -19 -9 -37.5t-2 -33.5q0 -17 1.5 -34.5t6.5 -33.5q8 -38 26 -66q18 -31 47 -48q12 -13 29 -16.5t39 -3.5q38 0 67 17q13 10 25.5 21.5t22.5 25.5q9 13 16 30t12 36q4 18 6.5 36t2.5 36z" />
    <glyph glyph-name="onequarter" unicode="&#xbc;" horiz-adv-x="1045" 
d="M157 355h677v-74h-677v74zM306 -75v74l208 261h75v-250h64v-85h-64v-75h-90v75h-193zM499 113l-86 -103h86v103zM463 387v246h-84v82q13 0 24.5 0.5t25.5 4.5q19 0 30 7h-1q3 3 6.5 7.5t6.5 12.5q5 13 5 35h76v-395h-89z" />
    <glyph glyph-name="onehalf" unicode="&#xbd;" horiz-adv-x="1045" 
d="M559 -19q-3 -4 -6.5 -6t-7.5 -4q-3 -2 -7 -4t-7 -4q-8 -6 -15 -10.5t-15 -8.5l-14 -13l-14 -10q-7 -7 -12 -13.5t-9 -11.5h200v-75h-322q0 14 2.5 29t6.5 30q6 26 23 49q6 14 17 25.5t24 24.5q12 10 31 22t44 25q7 4 13.5 7.5t15.5 9.5q6 4 12.5 8.5t13.5 10.5
q5 5 10.5 11.5t10.5 14.5q7 13 7 31q0 24 -16 41q-16 15 -47 15q-40 0 -54 -20q-4 -5 -7.5 -10.5t-4.5 -15.5q-2 -9 -3 -19.5t-1 -20.5h-88q0 18 2.5 34.5t9.5 30.5q9 32 25 49q9 12 22 21t31 17q15 5 31.5 9t37.5 4q38 0 67 -12q14 -4 26 -11.5t21 -16.5q19 -21 29 -42
q10 -27 10 -54q0 -48 -27 -79q-23 -36 -66 -58zM463 387v246h-84v82q13 0 24.5 0.5t25.5 4.5q19 0 30 7h-1q3 3 6.5 7.5t6.5 12.5q5 13 5 35h76v-395h-89zM157 355h677v-74h-677v74z" />
    <glyph glyph-name="threequarters" unicode="&#xbe;" horiz-adv-x="1045" 
d="M420 544q0 -12 0.5 -21.5t3.5 -17.5q3 -17 14 -28q13 -21 57 -21q31 0 52 18q17 19 17 46q0 6 -2.5 11.5t-3.5 12.5q-6 5 -11 9t-12 7t-13.5 4.5t-13.5 3.5q-10 0 -17 1t-14 1h-35l2 76h18h8.5t11.5 1q5 0 9 0.5t9 1.5h6.5t5.5 3q16 5 29 22q11 11 11 26q0 10 -4 18
t-11 16q-10 7 -20 10t-24 3q-62 0 -62 -76h-88q0 34 14 67q5 14 12 26.5t19 22.5q19 19 48 29q27 10 59 10q12 0 25.5 -2.5t28.5 -6.5q11 -5 23.5 -11t22.5 -14q11 -9 19 -18t16 -22q13 -25 13 -55q0 -25 -10.5 -46t-27.5 -38q12 -9 21 -19t17 -21q13 -25 13 -55
q0 -29 -11 -56q-6 -15 -15 -24.5t-18 -18.5q-23 -23 -51 -30q-15 -6 -31.5 -8t-34.5 -2q-35 0 -65 10.5t-52 32.5q-45 40 -45 122h87zM306 -75v74l208 261h75v-250h64v-85h-64v-75h-90v75h-193zM499 113l-86 -103h86v103zM157 355h677v-74h-677v74z" />
    <glyph glyph-name="questiondown" unicode="&#xbf;" horiz-adv-x="1045" 
d="M717 153q0 -26 -2 -52t-8 -51q-5 -23 -15.5 -44t-23.5 -40q-15 -19 -33.5 -32.5t-39.5 -23.5q-24 -12 -49.5 -16t-55.5 -4q-45 0 -81 13q-42 14 -70 42q-32 26 -49 64q-20 37 -20 81q0 17 1.5 33.5t8.5 32.5q9 34 27 59q13 25 36 48q19 16 45 33q12 7 23.5 16.5
t20.5 23.5q20 25 20 64v142h87v-141q0 -59 -26 -102q-15 -24 -32 -41t-37 -27q-38 -22 -63 -55q-15 -19 -20 -41t-5 -50q0 -31 12 -49q13 -24 34 -37q9 -8 20.5 -12t25.5 -7q21 -8 47 -8q20 0 36.5 3t30.5 12q13 5 23 15.5t20 22.5q7 13 12.5 26.5t9.5 30.5q3 16 4 34t1 37
h85zM552 629h-113v117h113v-117z" />
    <glyph glyph-name="AE" unicode="&#xc6;" horiz-adv-x="1045" 
d="M562 145h-336q-12 -24 -20 -51l-21 -49l-21 -53q-13 -25 -20 -49h-92l307 746h535v-81h-428l24 -60t24 -57l48 -121h315v-80h-282q13 -36 27 -69.5t29 -65.5q11 -32 24 -65t29 -68h199v-79h-257zM260 226h269q-8 20 -17.5 42t-16.5 42l-33 82q-8 18 -16.5 39t-15.5 42
q-5 11 -9 20.5t-9 21.5q-3 10 -7.5 20.5t-7.5 22.5z" />
    <glyph glyph-name="Eth" unicode="&#xd0;" horiz-adv-x="1045" 
d="M350 272h262v-80h-262v-170h147q61 0 109 23q24 10 44 25.5t38 36.5q32 38 52 93q16 52 16 115q0 28 -4 56.5t-11 55.5q-19 52 -49 95q-17 17 -37 34.5t-44 28.5q-51 23 -114 23h-147v-336zM262 192h-150v80h150v417h245q72 0 139 -29q32 -15 58 -35t50 -43
q21 -27 39 -57.5t30 -62.5q14 -35 19.5 -71t5.5 -76q0 -38 -5.5 -73t-18.5 -69q-23 -69 -66 -120q-45 -51 -106 -81q-66 -29 -145 -29h-245v249z" />
    <glyph glyph-name="multiply" unicode="&#xd7;" horiz-adv-x="717" 
d="M608 -58l-254 264l-245 -260l-59 65l248 255l-234 246l56 64l236 -246l233 243l54 -61l-229 -246l253 -258z" />
    <glyph glyph-name="Oslash" unicode="&#xd8;" horiz-adv-x="1045" 
d="M375 48q25 -23 55 -29q15 -5 30 -6t35 -1q60 0 104 27q21 11 38.5 29t32.5 40q26 42 42 97q13 55 13 112q0 108 -44 191zM627 578q-27 21 -60 33t-72 12q-32 0 -57.5 -7.5t-45.5 -20.5q-48 -29 -73 -69q-14 -23 -24 -47.5t-17 -51.5q-8 -28 -10.5 -55.5t-2.5 -54.5
q0 -31 2.5 -60t10.5 -54q7 -27 17 -51t21 -42zM265 31q-24 24 -40.5 56t-27.5 68q-24 70 -24 162q0 38 4 75t16 73q10 34 24.5 65.5t35.5 58.5q19 28 44.5 49t56.5 39q30 15 64.5 24t76.5 9q26 0 50 -4.5t48 -11.5q22 -9 43 -19t43 -24q4 5 9.5 14.5t11.5 16.5l23 36
q12 18 22 35t22 32l71 -45l-104 -150q36 -53 59 -121q22 -69 22 -152q0 -71 -18 -140q-10 -35 -25.5 -66t-32.5 -60q-22 -29 -46 -51.5t-54 -38.5q-62 -36 -144 -36q-92 0 -169 50l-23 -34l-24 -38q-7 -9 -12 -18t-11 -17l-23 -34l-69 47z" />
    <glyph glyph-name="Thorn" unicode="&#xde;" horiz-adv-x="1045" 
d="M500 -20q-54 0 -93 17q-22 9 -39 19t-32 25v-108h-88v764h88v-177q16 15 34.5 26.5t40.5 21.5q41 19 89 19q58 0 108 -26q20 -14 39.5 -30.5t37.5 -38.5q32 -44 49 -97q8 -28 12 -56.5t4 -54.5q0 -27 -3.5 -54t-11.5 -54q-9 -27 -20 -51.5t-27 -44.5q-15 -25 -35 -42.5
t-42 -29.5q-23 -16 -51.5 -22t-59.5 -6zM495 500q-42 0 -69 -19q-16 -12 -27.5 -24t-20.5 -27q-11 -19 -17 -35.5t-11 -35.5q-6 -21 -8 -39t-2 -36q0 -19 1.5 -37t7.5 -37q6 -41 26 -70q16 -35 48 -54q28 -21 72 -21q43 0 72 20q28 19 48 51q10 14 16 32t12 38q4 19 6.5 38
t2.5 40q0 17 -2.5 34.5t-6.5 37.5q-6 19 -11.5 36t-14.5 35q-18 31 -49 54q-30 19 -73 19z" />
    <glyph glyph-name="germandbls" unicode="&#xdf;" horiz-adv-x="1045" 
d="M316 -75v558q-4 46 13 85q7 18 17 34t23 30q13 11 28.5 21t34.5 20q20 6 39 8.5t39 2.5q36 0 74 -12q15 -9 29.5 -18.5t27.5 -21.5t21.5 -27.5t17.5 -30.5q5 -17 8.5 -35t4.5 -37q0 -50 -13 -90q-20 -46 -58 -71q25 -10 43.5 -26.5t33.5 -40.5q23 -51 23 -121
q0 -47 -14 -84q-16 -39 -42 -68q-31 -29 -69 -43q-21 -10 -45.5 -12.5t-51.5 -2.5h-69v85h57q32 0 57.5 6t46.5 21q41 27 41 97q0 71 -39 104q-38 31 -107 31h-55v87h46q13 0 24 1.5t23 6.5q23 6 41 21q18 12 29 36q13 22 13 48q0 113 -110 113q-12 0 -22 -3t-18 -7
q-16 -7 -30 -23t-19 -33q-8 -20 -6 -40v-569h-87z" />
    <glyph glyph-name="ae" unicode="&#xe6;" horiz-adv-x="1045" 
d="M740 284q-5 64 -30 101q-28 37 -76 37q-25 0 -44 -13q-21 -13 -32 -31q-16 -20 -23 -44q-5 -14 -7.5 -26.5t-3.5 -23.5h216zM433 209q-8 -4 -16 -5.5t-16 -2.5l-10 -2t-11 -2q-6 -2 -10.5 -2.5t-8.5 -0.5q-7 -2 -12.5 -2.5t-10.5 -1.5q-6 -1 -11.5 -2.5t-10.5 -1.5
q-23 -6 -29 -6q-33 -10 -47 -35q-17 -21 -15 -46q0 -17 7.5 -30t18.5 -21q22 -20 60 -15q14 0 38 12q11 5 20.5 11t20.5 16q18 15 32 33q11 20 11 38v66zM634 -60q-32 0 -59 11q-14 5 -26 12.5t-24 19.5q0 -4 1 -7.5t2 -6.5q0 -9 3 -12h-82q-5 9 -6 11t-2 4.5t-1 6.5
q-5 8 -5 17q-14 -12 -29.5 -21.5t-32.5 -16.5q-36 -17 -67 -17q-18 -2 -33 0t-31 6q-16 3 -28 10t-25 16q-12 10 -21.5 20.5t-15.5 25.5q-8 14 -11.5 30t-3.5 34q-4 49 15 88q13 31 45 54q22 18 64 32q17 6 35 10.5t39 6.5h2q1 0 1 0.5t2 0.5h3.5t4.5 1q7 0 13 2t15 4
q8 0 15 2.5t13 5.5q6 1 11 4.5t11 9.5q6 10 6 28q0 38 -24 67q-12 12 -29.5 19t-40.5 7q-39 0 -66 -32q-14 -17 -20 -39t-6 -50h-88q-3 42 10 83q11 35 39 65q23 26 58 42q31 17 73 17q46 0 90 -24q18 -12 34.5 -28t30.5 -35q12 17 27.5 32t34.5 29q17 11 37 18t42 7
q48 0 83.5 -20t62.5 -57q25 -39 38.5 -97.5t13.5 -137.5h-310q0 -15 2 -29.5t7 -28.5q6 -35 22 -56q6 -12 13.5 -23t19.5 -17q9 -9 20 -12.5t26 -3.5q21 0 37 6t29 21q10 13 18.5 31.5t14.5 42.5h92q-5 -17 -10.5 -34.5t-12.5 -34.5q-18 -34 -39 -61q-25 -29 -54 -44
q-33 -16 -73 -15z" />
    <glyph glyph-name="eth" unicode="&#xf0;" horiz-adv-x="1045" 
d="M338 176q1 -35 20 -61q11 -29 34 -48q9 -12 21 -19.5t26 -13.5q23 -14 59 -14q30 0 58 14q11 6 23.5 13.5t24.5 19.5q8 11 17 22t17 26q12 26 18 61h-318zM467 281l-51 61l113 102q-3 0 -9 2q-6 0 -8 2h-8h-4q-1 0 -2 1q-60 0 -97 -29q-36 -34 -52 -83h-93q6 21 13 41.5
t20 40.5q10 18 22.5 32.5t27.5 29.5q17 11 33.5 22t37.5 19q39 13 88 13q55 0 107 -25l23 21l26 23l49 42l50 -61l-84 -75q18 -22 32.5 -47t26.5 -53q11 -29 16 -60t5 -64q0 -62 -16 -110q-9 -27 -21 -51.5t-28 -44.5q-18 -21 -37 -38.5t-42 -30.5q-24 -14 -51 -20t-56 -6
q-61 0 -102 23q-26 10 -45.5 25t-36.5 36q-34 36 -51 90q-20 51 -20 109v17v8t3 13h413q-2 21 -6 42t-12 39q-18 36 -39 63z" />
    <glyph glyph-name="divide" unicode="&#xf7;" horiz-adv-x="1045" 
d="M166 361h658v-88h-658v88zM495 652q28 0 54 -24q21 -27 21 -57q0 -34 -21 -55q-22 -22 -54 -22q-36 0 -55 22q-22 18 -22 55q0 15 5 29.5t17 27.5q19 24 55 24zM495 142q14 0 28 -7l26 -17l16 -25q6 -15 6 -31q0 -18 -6 -28q-4 -9 -8 -15t-8 -11q-10 -12 -26 -18
q-14 -6 -28 -6q-30 0 -52 20q-24 18 -24 58q0 17 7 31q3 6 5.5 12.5t9.5 12.5q5 4 10.5 8.5t13.5 8.5q10 7 30 7z" />
    <glyph glyph-name="oslash" unicode="&#xf8;" horiz-adv-x="1045" 
d="M307 36q-15 20 -27.5 43t-19.5 50q-10 24 -14 53t-4 59q0 29 3.5 57t13.5 55q13 55 48 96q15 20 35 36t44 31q44 25 109 25q17 0 33.5 -2.5t31.5 -4.5q32 -12 61 -29l30 45q2 5 5 10t7 11l17 21l59 -48l-59 -88q15 -21 27.5 -45t21.5 -51t14 -57.5t5 -61.5q0 -29 -5 -56
t-13 -53q-17 -53 -48 -96q-18 -22 -37 -38.5t-42 -29.5q-24 -14 -51.5 -19.5t-56.5 -5.5q-39 0 -71.5 8t-60.5 30l-26 -38q-8 -14 -15 -21l-11 -19l-63 47zM412 54q19 -15 40 -21.5t43 -6.5q18 0 36.5 5t33.5 16q16 9 28.5 22t23.5 27q9 16 17 32.5t15 37.5q8 38 8 75
q0 22 -1.5 39.5t-3.5 34.5q-5 17 -11 30.5t-14 28.5zM571 434q-9 5 -18 9t-19 8q-23 6 -39 6q-22 0 -39 -5.5t-32 -14.5q-16 -11 -28.5 -24t-23.5 -27q-22 -32 -31 -70q-10 -39 -10 -75q0 -73 30 -127z" />
    <glyph glyph-name="thorn" unicode="&#xfe;" horiz-adv-x="1045" 
d="M266 689h86v-228q17 15 36 25.5t41 20.5q18 8 42 12t50 4q41 0 80 -17q38 -21 63 -44q29 -33 44 -67q13 -36 13 -83v-369h-86v361q0 63 -35 98q-35 36 -90 36q-27 0 -54 -11q-29 -10 -50 -31q-26 -19 -39 -43q-15 -26 -15 -51v-359h-86v746z" />
    <glyph glyph-name="dcroat" unicode="&#x111;" horiz-adv-x="1045" 
d="M499 364q-37 0 -64 -15q-15 -10 -27 -18.5t-22 -21.5q-24 -25 -30 -56q-13 -32 -13 -64q0 -40 13 -67q4 -18 10.5 -30.5t18.5 -26.5q20 -27 48 -39q16 -8 32 -11t34 -3q19 0 34.5 3t30.5 11q13 7 26 16.5t23 22.5q9 14 17.5 26.5t14.5 30.5q11 30 11 67q0 28 -11 64
q-6 16 -14.5 30t-17.5 26q-10 13 -22.5 21.5t-27.5 18.5q-32 15 -64 15zM495 450q21 0 43.5 -4.5t44.5 -11.5q43 -17 73 -42v105h-318v84h318v119h89v-119h120v-84h-120v-553h-89v38q-35 -32 -72 -43q-22 -8 -43.5 -11.5t-45.5 -3.5q-60 0 -99 23q-25 10 -43 25t-35 33
q-16 18 -28.5 39.5t-19.5 45.5q-18 46 -18 99q0 55 18 102q6 24 19 44t27 39q30 33 77 57q20 8 45.5 13.5t56.5 5.5z" />
    <glyph glyph-name="Hbar" unicode="&#x126;" horiz-adv-x="1045" 
d="M216 568v121h87v-121h387v121h87v-121h100v-79h-100v-546h-87v351h-387v-351h-87v546h-103v79h103zM303 489v-115h387v115h-387z" />
    <glyph glyph-name="hbar" unicode="&#x127;" horiz-adv-x="1045" 
d="M270 560v130h89v-130h312v-78h-312v-103q13 15 30.5 25.5t39.5 19.5q18 7 43.5 11.5t54.5 4.5q22 0 41.5 -4.5t39.5 -12.5q34 -20 64 -49q25 -30 42 -70q13 -42 13 -84v-276h-88v269q-1 13 -3.5 26.5t-5.5 27.5q-6 13 -12 23.5t-12 21.5q-19 20 -39 31q-23 12 -52 12
t-54 -14q-16 -7 -28.5 -16t-22.5 -19q-24 -22 -37 -46q-14 -28 -14 -54v-262h-89v538h-127v78h127z" />
    <glyph glyph-name="dotlessi" unicode="&#x131;" horiz-adv-x="1045" 
d="M540 -57h-88v560h88v-560zM540 598h-88v91h88v-91z" />
    <glyph glyph-name="IJ" unicode="&#x132;" horiz-adv-x="1045" 
d="M216 690h87v-746h-87v746zM461 209v-82q0 -31 11 -48q11 -26 28 -37q9 -8 17.5 -14t22.5 -9q10 -5 19 -6t22 -1q9 0 20 1t21 6q11 3 21 8.5t17 13.5q18 11 29 37q4 9 7.5 21.5t3.5 27.5v563h87v-558q0 -22 -4 -42t-11 -39q-8 -20 -19 -36t-24 -29q-27 -30 -66 -44
q-19 -10 -39.5 -14t-42.5 -4t-42.5 3.5t-39.5 12.5q-43 12 -68 40q-31 26 -44 65q-19 36 -14 88v76h88z" />
    <glyph glyph-name="ij" unicode="&#x133;" horiz-adv-x="1045" 
d="M400 1h-88v533h88v-533zM400 629h-88v89h88v-89zM681 636h-90v91h90v-91zM681 -53q0 -11 -1.5 -21.5t-2.5 -21.5q-4 -11 -8 -19.5t-9 -19.5q-10 -15 -28 -27q-10 -7 -21 -8.5t-22 -1.5h-58v77h29q18 0 25 13q6 9 6 31v592h90v-594z" />
    <glyph glyph-name="kgreenlandic" unicode="&#x138;" horiz-adv-x="1045" 
d="M349 -59h-86v570h86v-254l241 254h109l-219 -240l271 -330h-107l-224 271l-71 -68v-203z" />
    <glyph glyph-name="Ldot" unicode="&#x13f;" horiz-adv-x="1045" 
d="M673 319q21 0 41 -18q18 -20 18 -44q0 -13 -5 -21q-7 -14 -13 -20q-10 -10 -19 -14q-12 -5 -22 -5q-13 0 -21 5q-15 5 -20 14q-6 3 -9 8.5t-5 11.5q-4 5 -5 10t-1 11q0 22 20 44q19 18 41 18zM338 689v-667h414v-79h-500v746h86z" />
    <glyph glyph-name="ldot" unicode="&#x140;" horiz-adv-x="1045" 
d="M657 487q59 0 59 -58q0 -30 -15.5 -45t-43.5 -15q-58 0 -58 60q0 58 58 58zM431 689h88v-746h-88v746z" />
    <glyph glyph-name="Lslash" unicode="&#x141;" horiz-adv-x="1045" 
d="M247 359v330h87v-255l102 92l55 -60l-157 -139v-305h414v-79h-501v306l-70 -61l-52 63z" />
    <glyph glyph-name="lslash" unicode="&#x142;" horiz-adv-x="562" 
d="M235 235l-131 -114l-54 69l185 160v339h88v-264l135 119l54 -68l-189 -167v-366h-88v292z" />
    <glyph glyph-name="napostrophe" unicode="&#x149;" horiz-adv-x="1045" 
d="M347 502h86v-43q14 15 34.5 25t42.5 20q21 8 43.5 12.5t48.5 4.5q43 0 80 -17q36 -19 62 -44q14 -16 24 -32.5t19 -34.5q8 -21 11.5 -40.5t3.5 -41.5v-370h-87v362q0 60 -34 97q-36 36 -90 36q-29 0 -54 -11q-32 -13 -50 -31q-26 -20 -39 -43q-15 -26 -15 -51v-359h-86
v561zM266 728q-5 -63 -9.5 -120t-8.5 -120h-66l-17 240h101z" />
    <glyph glyph-name="Eng" unicode="&#x14a;" horiz-adv-x="1045" 
d="M775 -34q0 -36 -8.5 -62t-22.5 -42.5t-32 -24.5t-38 -8h-73v78h33q20 0 33.5 10t18.5 32l-190 292q-25 34 -48.5 71t-47.5 75l-98 150v-594h-86v746h85q25 -37 49.5 -73.5t48.5 -75.5l95 -147l195 -298v594h86v-723z" />
    <glyph glyph-name="eng" unicode="&#x14b;" horiz-adv-x="1045" 
d="M635 301q0 62 -34 99q-38 35 -90 35q-68 0 -111 -49q-25 -24 -36 -46t-11 -40v-360h-86v560h86v-45q17 16 36.5 27.5t40.5 19.5q41 16 92 16q45 0 80 -16q18 -9 34.5 -20t29.5 -23q14 -16 24.5 -33t18.5 -35q7 -21 10 -40t3 -42v-343q0 -11 -1.5 -22t-3.5 -24
q-3 -14 -7 -24.5t-8 -19.5q-7 -12 -14.5 -19.5t-17.5 -13.5q-23 -14 -49 -14h-73v78h33q25 0 40 17q14 16 14 45v332z" />
    <glyph glyph-name="OE" unicode="&#x152;" horiz-adv-x="1045" 
d="M895 646h-330q25 -24 42.5 -51.5t33.5 -57.5q26 -68 32 -148h204v-80h-204q-6 -91 -31 -161q-15 -37 -33.5 -68.5t-44.5 -56.5h339v-79h-525q-40 0 -74 7.5t-61 26.5q-29 15 -51.5 38t-40.5 51q-35 53 -53 125q-10 35 -13.5 70.5t-3.5 72.5q0 33 3 67.5t13 70.5
q16 67 52 125q18 28 40 52t52 41q56 35 137 35h517v-80zM378 641q-58 0 -98 -29q-40 -31 -64 -75q-24 -43 -37 -98q-5 -27 -8 -54t-3 -50q0 -48 10 -98q9 -57 37 -101q23 -47 63 -77q39 -30 100 -30q55 0 96 29q20 16 36 33.5t29 41.5q12 21 20.5 46.5t14.5 53.5
q12 52 12 102q0 39 -11 97q-6 27 -13 52t-20 49q-25 42 -64 77q-40 31 -100 31z" />
    <glyph glyph-name="oe" unicode="&#x153;" horiz-adv-x="1045" 
d="M341 422q-31 0 -52 -21q-13 -11 -20.5 -22.5t-14.5 -25.5q-7 -16 -11 -32t-6 -32q-4 -18 -5 -33t-1 -32q0 -15 1 -31.5t5 -32.5q2 -17 6 -33.5t11 -31.5q7 -14 14 -26t21 -21q10 -12 22.5 -16t29.5 -4t29.5 4t23.5 16q10 9 18.5 21.5t16.5 28.5q5 15 9.5 30t8.5 33
q2 16 3.5 32t1.5 31q0 14 -1.5 29.5t-3.5 33.5q-7 32 -18 65q-8 15 -16.5 26t-18.5 22q-11 10 -23.5 16t-29.5 6zM757 284q-2 30 -8.5 56.5t-19.5 44.5q-27 37 -76 37q-24 0 -43 -13q-10 -7 -18.5 -14t-14.5 -17q-10 -11 -14.5 -21.5t-7.5 -22.5q-11 -27 -11 -50h213z
M341 510q26 0 48.5 -8t42.5 -19q20 -15 35.5 -33.5t30.5 -43.5q23 47 63 77q37 27 92 27q48 0 83.5 -20t62.5 -57q24 -39 37.5 -97.5t13.5 -137.5h-308q0 -15 1 -29.5t6 -28.5q6 -33 20 -56q7 -12 15 -23t20 -17q15 -16 48 -16q18 0 35 6t28 21q25 26 35 74h93
q-5 -18 -11 -35t-14 -34q-16 -33 -38 -61q-26 -29 -54 -44q-33 -16 -73 -15q-53 0 -90 28q-41 26 -65 75q-14 -24 -29.5 -43t-35.5 -33q-20 -15 -43 -21t-49 -6t-48.5 6t-40.5 21q-18 14 -33 31t-27 38q-24 40 -35 93q-6 23 -8.5 47t-2.5 48q0 21 2.5 45.5t8.5 51.5
q11 50 34 92q12 21 27 38t33 32q19 11 41.5 19t48.5 8z" />
    <glyph glyph-name="Tbar" unicode="&#x166;" horiz-adv-x="1045" 
d="M452 322h-242v79h242v217h-242v79h570v-79h-240v-217h240v-79h-240v-378h-88v378z" />
    <glyph glyph-name="tbar" unicode="&#x167;" horiz-adv-x="1045" 
d="M422 332v92h-53v80h53v157h88v-157h61v-80h-61v-92h164v-82h-164v-203q0 -11 2 -13q2 -8 10 -8q4 -2 8 -2.5t12 -0.5h29v-80h-62q-13 0 -23 2t-17 8q-17 7 -27 28q-13 15 -14 38q-4 11 -5 21t-1 22v188h-153v82h153z" />
    <glyph glyph-name="caron" unicode="&#x2c7;" horiz-adv-x="545" 
d="M277 649l-227 122l49 79l178 -103l175 101l43 -68z" />
    <glyph glyph-name="uni02D0" unicode="&#x2d0;" horiz-adv-x="1045" 
d="M249 387l-105 187h206zM246 248l104 -187h-206z" />
    <glyph glyph-name="breve" unicode="&#x2d8;" horiz-adv-x="569" 
d="M125 846q15 -21 32 -39.5t41 -30.5q21 -16 43 -22.5t43 -6.5t42.5 6.5t46.5 22.5q21 12 40 30t33 41l73 -54q-44 -59 -107 -97q-62 -38 -128 -38q-64 0 -128 38q-62 35 -106 97z" />
    <glyph glyph-name="dotaccent" unicode="&#x2d9;" horiz-adv-x="1045" 
d="M495 568q-55 0 -80 26.5t-25 81.5t25 81.5t80 26.5q104 0 104 -108t-104 -108z" />
    <glyph glyph-name="ring" unicode="&#x2da;" horiz-adv-x="1045" 
d="M495 733q-20 0 -33 -13q-12 -12 -12 -36q0 -26 12 -36q12 -14 33 -14t33 14q14 12 14 36q0 22 -14 36q-15 13 -33 13zM495 818q28 0 52 -10q11 -7 21.5 -14t20.5 -15q15 -19 25 -44q5 -13 7 -25.5t2 -25.5q0 -14 -2 -25.5t-7 -25.5q-5 -13 -11 -24t-14 -19
q-21 -20 -42 -30q-24 -10 -52 -10t-49 10q-24 10 -42 30q-9 10 -16 20.5t-11 22.5q-7 14 -8.5 25.5t-1.5 25.5q0 13 1.5 25.5t8.5 25.5q4 12 11 22.5t16 21.5q17 17 42 29q20 10 49 10z" />
    <glyph glyph-name="ogonek" unicode="&#x2db;" horiz-adv-x="1045" 
d="M496 -57q0 -18 14.5 -29t34.5 -11t34 7.5t27 18.5l20 -18q-19 -29 -50 -47.5t-68 -18.5q-42 0 -66 24t-24 56q0 25 14.5 46.5t30.5 31.5h65q-14 -12 -23 -27t-9 -33z" />
    <glyph glyph-name="hungarumlaut" unicode="&#x2dd;" horiz-adv-x="475" 
d="M223 674q-7 -14 -16.5 -26.5t-19.5 -24.5l-45 -55q-13 -13 -24.5 -26t-23.5 -26l-44 -44l16 58q4 15 8.5 32.5t11.5 34.5q4 16 9.5 33.5t12.5 35.5q6 16 11 31.5t10 29.5q0 3 2.5 6t5.5 9q1 3 3.5 7.5t5.5 11.5l11 19l9 13q19 21 35 28q17 5 40 -9q43 -25 19 -75l-15 -30
q-11 -18 -22 -33zM378 674q-8 -13 -16.5 -25.5t-18.5 -25.5l-45 -55q-14 -13 -25 -26t-23 -26l-43 -44q3 14 6.5 27t6.5 31q5 15 10 32.5t11 34.5q5 16 10.5 33.5t12.5 35.5q4 16 9.5 31.5t11.5 29.5q0 3 2 6t5 9q5 6 9 19l12 19q2 3 3.5 6.5t4.5 6.5q19 21 36 28
q15 4 40 -9q43 -24 18 -75q-6 -17 -15 -30l-10.5 -17.5t-11.5 -15.5z" />
    <glyph glyph-name="Alpha" unicode="&#x391;" horiz-adv-x="1045" 
d="M591 625q4 9 18 18q8 8 19 8q5 0 10 -3t11 -6q2 -5 4 -11t4 -14l62 -586q0 -15 4 -15q0 -1 10 -1h23q12 0 19.5 -3t14.5 -8q4 -7 5.5 -12t-0.5 -14q-6 -21 -17 -27q-6 -5 -14 -6t-15 -1h-180q-38 0 -38 36q0 17 16 26q7 4 13.5 6.5t16.5 2.5h29q6 0 11 3q1 1 1 17
q-6 30 -6 61q-2 16 -3 31t-1 32h-219q-8 -13 -14.5 -23t-11.5 -21q-5 -9 -10 -16.5t-10 -14.5l-29 -43q-8 -12 -10 -18l-3 -3t-2 -3q-1 -1 -1 -2h30q24 0 35 -11q7 -12 4 -26q-6 -22 -17 -27q-7 -5 -14 -6t-16 -1h-157q-21 0 -28 6q-9 4 -9 28q0 7 3 13t11 13q13 11 30 11
q7 0 14.5 0.5t14.5 3.5q10 0 19 9l17 17l16 25zM598 235q-3 14 -4.5 28.5t-2.5 28.5q-1 13 -2 27t-1 27q-5 23 -7 54q-2 13 -4 27t-3 33q-17 -30 -35 -57.5t-34 -54.5l-35 -57l-35 -56h163z" />
    <glyph glyph-name="Beta" unicode="&#x392;" horiz-adv-x="1045" 
d="M173 -57q-51 0 -39 40q6 29 44 29q49 0 60 7q1 0 7 10q1 0 1 1q0 3 1 5l2 9q16 60 32 121.5t32 124.5q6 31 14 61.5t15 61.5q8 31 15.5 61.5t17.5 62.5l3 13q1 2 1.5 3.5t0.5 3.5q-6 1 -17.5 2t-32.5 1t-29.5 9.5t-8.5 26.5t15 28q7 3 14.5 5.5t15.5 2.5h262
q18 0 38 -3.5t41 -7.5q35 -13 68 -33q25 -22 42 -55q12 -37 1 -83q-16 -50 -47 -89q-35 -41 -83 -61q34 -18 61 -46q25 -28 25 -72q0 -67 -32 -111q-32 -47 -82 -76q-26 -15 -53.5 -24.5t-57.5 -15.5q-31 -8 -61 -10t-59 -2h-227zM345 33l-7 -21h31h23t24 1h25.5t24.5 1
q38 0 69 16q31 13 56 38q14 12 22 25t17 29q6 16 10 32t4 34q0 25 -19 43q-10 7 -21 11.5t-23 8.5q-15 3 -28 5.5t-27 3.5h-123zM444 333h41t37 2q32 2 55 10h-2q10 5 21 11t23 14q9 7 18.5 14t18.5 16q6 8 13 17.5t13 21.5q4 10 7 22t3 26q0 27 -12 44q-14 13 -37 22
q-12 3 -25.5 4t-28.5 3h-92q-6 -2 -10.5 -2.5t-6.5 -0.5q-4 -4 -4 -10q-1 -2 -2 -4.5t-2 -6.5q-1 -2 -2 -6.5t-2 -9.5l-4 -14t-3 -14l-9 -38q-7 -23 -14.5 -53t-17.5 -68h24z" />
    <glyph glyph-name="Gamma" unicode="&#x393;" horiz-adv-x="1045" 
d="M365 537q3 16 -3 21q-4 0 -11.5 1t-16.5 1q-19 0 -29 2t-15 9q-14 8 -8 29q7 31 45 31h457q27 0 35 -6q6 -8 0 -36l-4 -21q-1 -6 -2 -11.5t-1 -12.5l-9 -52l-11 -53q-2 -7 -3.5 -12.5t-3.5 -11.5l-4 -19q-5 -22 -17 -27q-9 -9 -23 -9q-17 0 -22 8q-8 5 -8 28
q0 11 0.5 21.5t2.5 21.5q0 4 0.5 8.5t0.5 9.5t0.5 8.5t0.5 7.5q0 55 -12 64q-32 23 -194 23h-20q-6 0 -9 -1t-5 -2q-6 -4 -8 -9q-6 -8 -6 -17q-17 -61 -33 -119.5t-28 -119.5q-16 -60 -29.5 -119t-30.5 -119l-5 -18q-5 -9 -1 -13q0 -6 8 -8q4 -2 11 -2h15h14q12 0 19.5 -3
t12.5 -8q8 -12 6 -29q-8 -30 -46 -30h-212q-49 0 -39 43q2 14 15 20q10 7 29 7h34q8 0 18 5q4 1 12 15q2 7 6 12q1 8 8 20z" />
    <glyph glyph-name="uni0394" unicode="&#x394;" horiz-adv-x="1045" 
d="M725 35q0 -7 1 -11.5t2 -7.5v-10q0 -3 0.5 -5.5t0.5 -4.5q0 -23 -11 -37q-12 -15 -44 -15h-411q-16 0 -26.5 1t-16.5 6q-12 4 -12 31q0 17 24 61l360 583q9 14 19 19q7 7 18 7q12 0 19 -10t9 -25zM575 460l-265 -430q-10 -16 -5 -16q0 -1 15 -1h258h23t13 3q6 1 6 16z
" />
    <glyph glyph-name="Epsilon" unicode="&#x395;" horiz-adv-x="1045" 
d="M657 186q5 14 14 18q3 1 7.5 3t10.5 2q7 0 13.5 -3t13.5 -7q11 -13 7 -26l-63 -206q-3 -14 -14 -19q-6 -3 -13 -4t-13 -1h-469q-48 0 -38 43q2 14 17 20q11 7 38 7h21.5t17.5 3q10 4 20 29l-1 -1q8 30 15.5 61t16.5 62l32 124q7 31 14.5 61.5t14.5 61.5l33 123q3 10 1 15
t-6 6q-7 0 -16 1t-23 1q-21 0 -29.5 9t-8.5 26q0 18 14 29q8 3 15 5t15 2h459q28 0 36 -6q4 -8 0 -36q-10 -45 -18 -95l-11 -50l-9 -45q-3 -14 -9 -23t-12 -15q-15 -12 -25 -12q-13 0 -17 6q-6 7 -6 18q-2 5 -2 10t1 11q0 5 0.5 9t2.5 10v11.5t2 16.5v19q0 3 0.5 8t0.5 12
q0 9 -1 18l-2 18q-5 19 -12 23q-28 21 -194 21h-21q-5 0 -8 -1.5t-6 -1.5l-4 -4t-3 -6q-4 -4 -6 -16l-33 -130q-8 -23 -9 -35q-3 -10 -5 -18.5t-3 -16.5q17 0 34 1t28 2q21 0 35 6q5 2 12 10t13 21q6 12 12.5 26t13.5 33q7 20 19 34q10 12 23 12q10 0 21 -14q2 -9 3.5 -20
t-2.5 -25l-62 -246q-8 -28 -20 -33q-8 -7 -13.5 -9t-8.5 -2q-21 0 -24 16q-2 6 -2.5 14t-0.5 16v5t2 11q0 7 3 21v23l-7 10q-9 7 -34 10t-64 4l-15 -56l-13 -52q-8 -27 -15.5 -54t-13.5 -53q-6 -18 0 -23q6 -6 24 -6q46 0 81.5 1t64.5 5q52 6 73 17q10 6 21 17.5t24 31.5
q11 19 22 43.5t23 57.5z" />
    <glyph glyph-name="Zeta" unicode="&#x396;" horiz-adv-x="1045" 
d="M625 561q-34 0 -61 -1t-47 -3q-44 -6 -59 -18q-17 -9 -36 -48q-12 -22 -23.5 -48.5t-23.5 -56.5q-7 -16 -17 -17q-13 -6 -24 -1q-14 2 -20 12q-9 7 -3 21q4 17 9 34t12 35q5 16 10 33t11 34l10 33q0 7 2 13.5t5 16.5q5 18 17 25q9 7 26 7h394q34 0 34 -24q0 -18 -20 -38
l-503 -557h97q70 0 111 6q21 2 35 5.5t24 10.5q11 6 36 49q10 21 22 46t24 59q1 7 16 12h11t11 -1l19 -10q7 -11 5 -18l-62 -205q-8 -15 -14 -19q-7 -3 -13.5 -3.5t-12.5 -0.5h-424q-35 0 -35 22q0 19 19 38l500 557h-62z" />
    <glyph glyph-name="Eta" unicode="&#x397;" horiz-adv-x="1045" 
d="M645 335l12 45q2 12 5 23.5t8 23.5l11 45l12 45q0 3 0.5 5t1.5 4l4 9v15l-10 7q-5 1 -11 2t-14 1h-11q-12 0 -19.5 2t-12.5 9q-13 7 -8 27q8 34 46 34h214q20 0 34 -11q7 -14 1 -34q-5 -14 -14 -21q-14 -6 -29 -6h-30q-11 0 -23 -5q-9 -5 -13 -18q-8 -11 -9 -30
l-116 -453q-1 -4 -2 -6.5t-1 -4.5q-2 -10 -2 -9q-2 -6 -2 -9.5v-4.5q0 -7 11 -7h36q12 0 20 -3t14 -8q7 -13 6 -29q-5 -18 -14 -23q-8 -5 -16 -6t-17 -1h-212q-49 0 -37 41q3 13 16 22q10 7 29 7h16t14 1q7 0 12 2.5t10 4.5q2 2 5 6t7 11l4 11q1 4 3 8l4 8l12 49l13 49
q5 22 11 46.5t14 50.5h-279l-27 -102l-25 -103q-1 -3 -2.5 -5.5t-1.5 -5.5q-1 -4 -1 -9q-2 -7 -2 -10.5v-4.5q0 -7 11 -7h37q11 0 18.5 -3t13.5 -8q8 -13 7 -29q-9 -30 -46 -30h-213q-50 0 -38 41q5 29 45 29h31q12 0 21 6q7 2 13 16q1 2 2 5t3 7q1 7 6 18l115 452q0 5 2 11
l3 9q0 3 0.5 5t0.5 3q0 2 0.5 4t0.5 4q0 4 -9 7h-39q-46 0 -38 38q6 34 45 34h213q13 0 21 -3.5t14 -7.5q4 -7 5 -15t-3 -18q-6 -15 -17.5 -21.5t-26.5 -6.5h-32q-6 -2 -11.5 -3t-8.5 -3q-9 -4 -12 -17q-5 -5 -6 -13l-6 -18q-6 -23 -11.5 -45t-10.5 -39q-6 -22 -11.5 -44
t-11.5 -43h278z" />
    <glyph glyph-name="Theta" unicode="&#x398;" horiz-adv-x="1045" 
d="M578 652q30 0 56 -7t51 -16q21 -12 40 -27.5t33 -33.5q15 -18 25.5 -39.5t18.5 -44.5q6 -24 9.5 -50t3.5 -50q0 -27 -2.5 -52t-8.5 -46q-9 -34 -22.5 -65t-32.5 -63q-21 -32 -43 -60t-48 -53q-26 -26 -55.5 -45.5t-59.5 -35.5q-33 -16 -67.5 -23.5t-68.5 -7.5
q-30 0 -57 5.5t-48 16.5q-25 10 -42.5 25.5t-33.5 33.5q-15 19 -26.5 41t-19.5 45q-13 46 -13 99v25.5t3 24.5q0 14 4 23q2 7 3 12.5t2 11.5q10 35 23.5 66.5t34.5 63.5q35 61 90 113q25 24 54 45.5t62 36.5q61 31 135 31zM570 574q-28 0 -54 -7t-49 -20q-23 -14 -43 -30.5
t-38 -35.5q-36 -43 -60 -94q-12 -27 -23 -52.5t-19 -48.5q-9 -24 -11 -49.5t-2 -48.5q0 -18 1 -34.5t6 -32.5q3 -17 9 -30t16 -27q15 -24 45 -40q14 -8 30 -11t35 -3q28 0 55 5t50 21q45 25 83 66q34 40 60 92q13 25 22.5 50.5t17.5 51.5q3 13 4.5 25t4.5 25q1 13 2.5 25.5
t1.5 27.5t-2 31t-5 33q-11 31 -24 57q-17 22 -44 38q-16 7 -32.5 11.5t-36.5 4.5zM412 254q-12 0 -12 -7q0 -4 -1 -5l-2 -2q-1 -4 -2.5 -6t-1.5 -4l-6 -11q-2 -5 -5 -8q-3 -5 -7.5 -8l-7.5 -5q-8 -6 -18 -6q-28 0 -30 17q-5 14 3 42l29 98q4 18 15 36q7 15 28 15
q11 0 24 -13q8 -19 8 -28q0 -3 -1 -4t-1 -2t-0.5 -2.5t-0.5 -2.5q-5 -9 5 -9h152q10 0 13 7q3 4 5 8l5 10q2 6 5.5 13t8.5 13q5 11 27 11q29 0 29 -30q0 -13 -5 -35q-5 -12 -8 -24t-6 -25q-3 -14 -7.5 -26t-7.5 -21q-4 -13 -7.5 -21t-7.5 -14q-4 -9 -10 -11t-16 -2
q-11 0 -18 5q-10 6 -11 15q-2 5 -2.5 9.5t-0.5 11.5q-1 6 -1 10v11h-153z" />
    <glyph glyph-name="Iota" unicode="&#x399;" horiz-adv-x="1045" 
d="M613 531q-21 -81 -37.5 -143t-27.5 -113q-15 -51 -24 -90.5t-15 -65.5q-9 -29 -13 -47.5t-5 -26.5q-3 -8 -3.5 -10.5t1.5 1.5q-2 -4 -2 -8v-6q0 -7 4 -8q1 -1 13 -1h28q48 0 39 -35q-14 -35 -46 -35h-213q-51 0 -40 41q8 29 47 29h39q10 0 18 6q3 1 11 16q0 2 1 5.5
t2 6.5t2 7.5t4 10.5q15 57 28 113t29 113q12 57 27 113t30 113q0 7 1 10l3 10q0 3 0.5 5t0.5 3q0 2 1 4t1 4q0 3 -3.5 4t-6.5 3h-38q-51 0 -39 41q7 30 46 30h214q14 0 21 -3t13 -7q9 -15 3 -33q-11 -28 -45 -28h-32q-8 0 -12.5 -1.5t-7.5 -1.5q-8 -4 -10 -10q-2 -4 -4 -7.5
t-3 -8.5z" />
    <glyph glyph-name="Kappa" unicode="&#x39a;" horiz-adv-x="1045" 
d="M332 156l-4 -12l-5 -16l-10 -38q-3 -11 -5.5 -20.5t-3.5 -18.5q-3 -9 -3.5 -16.5t-0.5 -12.5q0 -8 11 -8q4 -1 13.5 -1h23.5q11 0 18 -2.5t14 -7.5q8 -12 6 -29q-6 -30 -46 -30h-212q-52 0 -40 43q1 6 6 11.5t12 9.5q10 5 28 5h17.5t15.5 1q5 0 9.5 2.5t10.5 4.5
q3 2 7.5 6.5t7.5 10.5l4 11l5 18l115 451q0 13 4 22q0 2 0.5 4t0.5 3q0 3 0.5 4t0.5 2q0 5 -11 7h-14q-4 0 -10 0.5t-13 0.5q-37 0 -37 35q0 18 16 28q6 3 13 5.5t16 2.5h212q53 0 39 -44q-6 -13 -17 -21q-12 -6 -28 -6h-33q-6 -1 -11 -2t-10 -3q-8 -4 -13 -17
q-5 -12 -10 -31q-6 -16 -9 -30.5t-5 -27.5q-5 -12 -7 -26q-2 -8 -4 -15t-3 -12l-13 -54q-4 -13 -8.5 -27.5t-6.5 -29.5q40 34 77.5 68t77.5 68q38 32 76 66t77 69q3 2 -1 3h-12q-3 0 -6.5 0.5t-9.5 0.5q-19 0 -30.5 2t-16.5 9q-11 7 -6 30q9 30 44 30h226q13 0 21 -2.5
t14 -6.5q8 -14 5 -28q-8 -20 -18 -27q-13 -7 -29 -7q-15 0 -27.5 -1t-22.5 -3q-10 -3 -21 -10.5t-23 -15.5q-30 -28 -59.5 -53.5t-56.5 -48.5q-30 -27 -58 -52t-60 -51l73 -143q17 -38 35 -73t38 -69q9 -17 26 -22q12 -6 39 -6q20 0 31 -10q5 -13 4 -29q-4 -18 -15 -23
q-6 -5 -13 -6t-16 -1h-233q-38 0 -38 37q0 19 14 27q15 5 31 5q18 0 30 0.5t19 4.5q12 2 2 26q-10 16 -17.5 31t-13.5 29q-8 13 -12 25l-12 24q-7 14 -13.5 26t-12.5 24l-12 27q-8 11 -14 29z" />
    <glyph glyph-name="Lambda" unicode="&#x39b;" horiz-adv-x="1045" 
d="M573 460q-16 -28 -33 -55t-32 -54q-18 -26 -34 -52.5t-32 -54.5q-35 -53 -66 -105q-14 -28 -32 -55t-33 -53q-4 -7 -5.5 -9.5t0.5 -4.5q0 -3 22 -3q24 0 35 -11q7 -11 4 -27q-6 -21 -17 -26q-7 -5 -14 -6t-16 -1h-157q-21 0 -31 10q-13 9 -6 31q0 5 3.5 9t10.5 11
q13 10 30 10q8 0 15 0.5t14 2.5q5 2 9.5 3.5t9.5 5.5l17 18q3 4 6.5 10t8.5 15l341 555q4 9 18 18q7 7 19 7q5 0 10 -2.5l11 -5.5q2 -5 4 -11t4 -14l62 -586q0 -13 8 -13q4 -3 29 -3q12 0 19.5 -3t14.5 -8q4 -7 5.5 -12t-0.5 -15q-6 -20 -17 -26q-6 -5 -14 -6t-15 -1h-180
q-11 0 -18.5 1.5t-12.5 7.5q-13 7 -7 29q5 14 19 24q7 4 11.5 6.5t13.5 2.5q25 0 35 5q8 2 8 16z" />
    <glyph glyph-name="Mu" unicode="&#x39c;" horiz-adv-x="1045" 
d="M331 444q-16 -52 -27 -100t-23 -96l-24 -98l-26 -98q-1 -2 -1.5 -3.5t-0.5 -4.5l-4 -11q0 -3 -1 -7.5t-2 -8.5q-2 -3 8 -3q5 -1 12.5 -1h20.5q42 0 38 -42q-4 -15 -14 -22q-13 -7 -31 -7h-177q-54 0 -39 41q7 30 46 30h16t13 1q3 0 7.5 1t8.5 4q4 0 10 14q0 2 1 5l2 6
q2 4 3 8t3 9l60 229q13 58 27.5 114.5t30.5 116.5q0 -1 2 9l2 9v6q0 2 0.5 4t0.5 4q0 3 -6 5h-30q-19 0 -30 11q-14 10 -9 27q1 16 17 26q5 3 12 5.5t16 2.5h144q20 0 26 -8l7 -30l41 -458q34 58 67.5 116t69.5 118q33 58 66.5 115.5t64.5 118.5q5 9 17 20q8 8 22 8h142
q19 0 32 -10q10 -14 8 -31q-5 -15 -14 -23q-11 -8 -31 -8h-30q-5 -1 -10.5 -1.5t-9.5 -0.5q-10 -4 -12 -10q-4 -5 -7 -18l-121 -474l-3 -9q0 -1 -0.5 -2.5t-0.5 -2.5q-2 -5 -1.5 -8t2.5 -7q0 -7 12 -8q4 -3 12 -3.5t19 -0.5q45 0 39 -42q-5 -17 -14 -22q-13 -7 -31 -7h-212
q-51 0 -39 43q6 28 44 28h18t15 1q11 0 20 5q8 5 14 17q0 4 3 12q1 5 3 9t4 9l12 50q3 13 6.5 23t6.5 23q5 21 9 41t10 40q5 21 11 41t11 43q4 20 10.5 44t13.5 52q-33 -61 -66 -117.5t-66 -113.5q-18 -29 -35 -58t-32 -57l-67 -116q-12 -17 -19 -23q-10 -10 -20 -10
q-5 0 -11 2t-9 8q-12 7 -12 22z" />
    <glyph glyph-name="Nu" unicode="&#x39d;" horiz-adv-x="1045" 
d="M621 145q6 25 10.5 45.5t11.5 42.5q6 20 10 37.5t8 34.5q8 33 15 60t13 49q2 10 4 19.5t5 17.5q2 9 4 16t3 14q3 11 5 19.5t4 14.5q0 7 2 9l2 6v1q1 1 1 2q0 2 0.5 3t1.5 4q0 2 0.5 3.5t1.5 3.5q0 3 -1 5l-2 4q-3 0 -11 2h-23q-40 0 -40 36q0 17 14 28q8 3 16 5.5t17 2.5
h177q11 0 19 -3t14 -7q8 -14 3 -34q-10 -28 -43 -28h-28q-6 -1 -10.5 -2t-7.5 -2q-8 -6 -9 -15q-4 -5 -5.5 -12t-3.5 -16q-19 -70 -35.5 -140t-35.5 -140l-36 -141l-35 -136q-5 -11 -13 -18q-7 -5 -12 -6.5t-11 -1.5q-12 0 -19 7q-12 8 -13 17l-210 523l-27 -106l-26 -105
q-8 -25 -14.5 -52.5t-12.5 -54.5q-7 -26 -14.5 -51.5t-13.5 -53.5q-2 -6 -2 -9q-1 -2 -1 -5v-2q-1 -12 1 -13q0 -7 9 -7q4 -3 24 -3q45 0 38 -42q-4 -16 -13 -22q-13 -7 -33 -7h-176q-27 0 -33 10q-11 8 -5 31q7 30 45 30h16t13 1q9 0 17 5q4 2 5.5 5.5t3.5 10.5l9 26
l118 460q1 9 6 21q0 2 0.5 4t0.5 4v5q0 2 -7 3h-32q-20 0 -29 11q-13 10 -8 27q1 16 16 26q7 3 13 5.5t15 2.5h119q6 0 11 -2t11 -5q5 -5 8 -9.5l7 -10.5z" />
    <glyph glyph-name="Xi" unicode="&#x39e;" horiz-adv-x="1045" 
d="M182 -56q-22 0 -26 10q-11 11 -7 30q4 21 9.5 44.5t11.5 50.5l20 94q2 12 12 22q5 6 19 14q19 0 30 -12q4 -8 6.5 -15.5t2.5 -14.5q0 -12 -1 -20.5t-2 -18.5q-3 -10 -3.5 -17.5t-0.5 -14.5q0 -22 7 -37q5 -15 15 -19q11 -8 30 -8q9 -2 19.5 -2h24.5h166q21 0 37.5 2
t32.5 7q26 6 46 25q18 18 30 46q7 13 13.5 29.5t14.5 37.5q6 20 18 32q4 2 9.5 4.5t11.5 2.5q10 0 24 -14q8 -17 2 -39l-60 -189q-3 -9 -7 -15t-7 -9q-12 -6 -27 -6h-471zM791 632q11 0 18.5 -2.5t12.5 -6.5q7 -12 3 -33q-6 -24 -11 -47.5t-10 -46.5l-10 -47l-10 -48
q-6 -17 -12 -23q-16 -11 -21 -11q-14 -5 -26 8q-14 12 -10 30q0 4 0.5 8t0.5 9l3 17v15q0 5 0.5 9t0.5 9q0 21 -5 41q-5 11 -15 22l-30 8q-10 0 -21 1t-24 1h-114q-20 0 -37.5 -2.5t-30.5 -5.5q-28 -9 -43 -24q-9 -10 -17 -22t-15 -25q-6 -16 -13.5 -32.5t-15.5 -37.5
q-5 -13 -15 -17q-11 -6 -21 -6q-18 0 -27 9q-11 6 -6 24l64 195q7 31 41 31h416zM400 243q-3 0 -6 -1t-4 -1q-7 -7 -7 -10q-3 -9 -8 -16.5t-9 -15.5q-11 -17 -31 -17q-10 0 -16 1.5t-9 7.5q-7 4 -7 19v7.5t2 10.5q0 2 2 8q0 3 1 4.5t2 4.5q2 9 3.5 16.5t3.5 13.5q4 15 9 25
q2 9 4 15.5t4 11.5q1 5 2 7t2 3v2q5 21 18 37q7 15 23 15q14 0 25 -12q7 -13 7 -27q0 -2 -0.5 -3.5t-0.5 -4.5v-7q-3 -7 5 -7h184q7 0 12 6q0 1 2 7l5 9q5 13 17 28q7 12 27 12q30 0 30 -32q0 -8 -1.5 -15.5t-3.5 -16.5l-28 -91q-6 -26 -14 -40q-9 -16 -30 -16q-11 0 -16 5
q-9 3 -9 12q-5 5 -5 16q-2 4 -2.5 7.5t-0.5 9.5q-3 3 -3 10q-10 2 -18 2h-161z" />
    <glyph glyph-name="Omicron" unicode="&#x39f;" horiz-adv-x="1045" 
d="M578 652q30 0 55.5 -7t50.5 -16q46 -25 74 -61q15 -18 25.5 -39.5t18.5 -44.5q6 -25 9.5 -51t3.5 -50q0 -27 -2.5 -51.5t-8.5 -45.5q-9 -34 -22.5 -65t-32.5 -63q-21 -32 -43 -60t-48 -53q-26 -26 -55.5 -45.5t-59.5 -35.5q-33 -16 -67.5 -23.5t-68.5 -7.5q-67 0 -107 22
q-48 22 -74 58q-30 37 -42 87q-8 24 -11 49t-3 52q0 13 0.5 25t2.5 23q0 13 2 24.5t4 22.5q14 65 54 131q18 32 41.5 60t49.5 53q27 24 56.5 45t62.5 36q61 31 135 31zM570 574q-28 0 -54 -7t-49 -20q-23 -14 -43 -30.5t-38 -35.5q-36 -43 -60 -94q-12 -27 -23 -52.5
t-19 -48.5q-4 -13 -7.5 -25t-4.5 -22q-2 -16 -2 -28.5v-24.5q0 -18 1 -33.5t6 -31.5q3 -17 9.5 -30t16.5 -27q15 -24 45 -40q14 -8 30 -11t35 -3q28 0 55 5t50 21q45 25 83 66q34 40 60 92q13 25 22.5 50.5t17.5 51.5q3 12 4.5 24t4.5 25q1 13 2 25.5t1 26.5q0 16 -2 32
t-5 33q-4 16 -10.5 30.5t-13.5 27.5q-17 22 -44 38q-15 7 -31.5 11.5t-36.5 4.5z" />
    <glyph glyph-name="Pi" unicode="&#x3a0;" horiz-adv-x="1045" 
d="M500 560q-7 0 -14 -1.5t-13 -2.5q-12 -6 -20 -17q-10 -12 -15 -32q-14 -55 -26.5 -107.5t-25.5 -106.5q-15 -54 -28 -107.5t-27 -104.5q-3 -13 -6 -22t-4 -14q-3 -9 -4 -13t-1 -8q0 -10 7 -10q5 -1 36 -1q23 0 34 -12q7 -14 3 -30q-8 -17 -17 -21q-7 -5 -13.5 -6
t-15.5 -1h-206q-49 0 -37 43q5 15 14 20q10 7 30 7h18.5t16.5 1q11 0 22 10q2 4 6 9t7 15q1 2 2 7t3 10q1 6 3 12t4 14l108 426q0 5 2 11l4 9q0 2 -0.5 6t-1.5 9q-4 2 -6.5 3.5t-7.5 2.5q-7 0 -14 1t-16 1q-28 0 -33 11q-11 8 -5 30q7 30 46 30h532q12 0 20.5 -2.5
t13.5 -6.5q9 -14 5 -28q-6 -19 -17 -27q-11 -7 -29 -7h-33q-7 -3 -13 -4t-8 -3q-11 -8 -12 -17q-4 -6 -6.5 -13.5t-4.5 -16.5l-28 -106q-6 -26 -13 -52.5t-13 -54.5q-9 -28 -15.5 -55t-14.5 -53q-8 -27 -14 -53.5t-13 -49.5q-4 -11 -5 -21q-1 -5 -2 -8t-1 -6
q-3 -9 -3.5 -13.5t-0.5 -8.5q0 -11 11 -11q5 -1 14 -1h25q13 0 20.5 -3t13.5 -9q8 -12 2 -31q-12 -27 -43 -27h-206q-52 0 -40 41q8 29 47 29q13 0 22.5 0.5t14.5 4.5q12 2 18 13q4 4 6 9.5t5 13.5q0 7 3 16.5t6 20.5q13 52 26.5 104t28.5 109l51 211q1 18 0 27q-2 4 -5 7.5
t-10 6.5q-8 1 -16 2.5t-18 1.5h-110z" />
    <glyph glyph-name="Rho" unicode="&#x3a1;" horiz-adv-x="1045" 
d="M497 560q-10 0 -16 -1.5t-9 -1.5q-11 -8 -15 -27l-16 -59l-12 -52l-17 -56q-3 -16 -6.5 -29.5t-5.5 -29.5h79q19 0 39 2t41 8q18 5 35.5 13t32.5 19q30 21 48 54q18 31 18 81q0 34 -25 58q-27 21 -76 21h-95zM593 631q19 0 38 -2.5t36 -5.5q18 -5 33.5 -11t30.5 -16
q14 -9 25 -21t21 -24q17 -31 17 -69q0 -27 -6.5 -51t-16.5 -45q-14 -24 -29.5 -44t-33.5 -36q-42 -36 -89 -54q-27 -11 -52 -15t-50 -4h-137l-13 -45l-8 -44l-13 -45q-4 -11 -6.5 -22.5t-4.5 -22.5q-6 -14 -6 -20q-5 -13 1 -14q1 -6 13 -6q5 -1 12.5 -1h19.5q20 0 33 -11
q8 -14 5 -29q-5 -30 -45 -30h-212q-49 0 -39 40q3 15 17 23q10 7 29 7h34q10 0 19 6q7 4 12 17q0 5 4 12l7 17q7 29 15 58t15 59t15 59.5t16 58.5q7 28 13.5 57t15.5 58q7 29 14.5 58.5t16.5 60.5q2 10 2 16l-8 7q-3 0 -7.5 1.5t-7.5 1.5h-17q-58 0 -47 41q4 16 16 23t29 7
h273z" />
    <glyph glyph-name="Sigma" unicode="&#x3a3;" horiz-adv-x="1045" 
d="M209 -57q-13 0 -22.5 1t-16.5 6q-13 4 -13 21q0 3 2 9t8 12q7 14 20 27l248 271q-29 66 -55 137q-16 34 -30 68t-27 69q-4 4 -4 11q-1 2 -2 5t-1 4q-2 3 -2 7v7q0 20 13 27q12 6 36 6h427q26 0 34 -6q7 -8 0 -36q-6 -23 -10 -45.5t-9 -47.5q-5 -23 -9.5 -46t-8.5 -48
q-4 -10 -7 -17t-9 -11q-7 -7 -13.5 -8.5t-11.5 -1.5q-6 0 -12 1.5t-10 7.5q-11 5 -9 26l2 57q0 42 -9 68q-12 19 -37 31q-14 2 -30 4.5t-33 2.5q-21 -1 -44.5 -1h-51.5h-23q-8 -1 -17.5 -1h-21.5h-13q-6 -5 1 -16q10 -29 21 -55.5t23 -54.5l23 -55l24 -54q4 -15 4 -29
q-2 -8 -6.5 -16t-12.5 -17l-236 -250q58 0 105 1t83 5q71 6 101 17q25 9 54 48q14 19 26.5 43.5t25.5 55.5q1 6 5.5 9t10.5 5q13 1 24 0q5 -2 9 -4.5t10 -6.5q7 -10 6 -17l-59 -197q-8 -17 -20 -22q-6 -5 -12 -6t-12 -1h-426z" />
    <glyph glyph-name="Tau" unicode="&#x3a4;" horiz-adv-x="1045" 
d="M772 632q30 0 36 -6q6 -8 0 -36q-4 -8 -5.5 -19.5t-3.5 -24.5q-4 -10 -6 -26q-2 -7 -3 -14t-2 -13q-5 -13 -7 -28l-4 -25q-4 -14 -6 -24.5t-3 -19.5q-8 -23 -19 -34q-15 -12 -26 -12q-10 0 -15 5q-3 4 -5 7.5t-2 8.5q-2 4 -2.5 8.5t-0.5 10.5v8t2 8q0 5 1 10t2 9l3 24
q1 13 2 24.5t1 21.5q0 7 -1 14t-1 15q-2 6 -3.5 9.5t-4.5 8.5q-20 21 -89 21q-10 0 -16.5 -1t-10.5 -1q-10 -4 -14 -19q-16 -60 -31 -119t-29 -119q-9 -30 -16 -60.5t-16 -61.5q-8 -32 -15 -63.5t-14 -63.5q-1 -4 -2.5 -7t-1.5 -5q-2 -10 -2 -9q-4 -12 0 -13q1 -6 14 -6
q4 -2 11.5 -2h21.5q21 0 32 -10q6 -12 4 -29q-7 -30 -45 -30h-213q-48 0 -38 43q1 11 16 21q10 5 27 5h19.5t14.5 1q8 0 20 5q6 4 12 17q2 4 5.5 11.5t6.5 19.5q15 60 31 120t31 123q13 59 30 121q8 31 15 61.5t16 61.5q0 2 -1 3.5t-2 3.5q-3 0 -6.5 1t-10.5 1q-35 0 -63 -5
q-16 -2 -25.5 -7t-17.5 -11q-10 -5 -19 -19t-17 -32q-11 -21 -22.5 -47t-22.5 -56q-8 -12 -14 -16q-9 -5 -19 -5q-9 0 -14 1.5t-11 8.5q-13 7 -7 25l59 200q4 18 17 26q10 6 29 6h466z" />
    <glyph glyph-name="Upsilon" unicode="&#x3a5;" horiz-adv-x="1045" 
d="M499 305q-4 -17 -7.5 -31t-7.5 -27q-4 -11 -6.5 -23.5t-4.5 -21.5l-11 -36q-1 -8 -2 -14.5t-2 -10.5q-4 -14 -6 -22t-3 -14q-1 -2 -2 -5t-1 -6q-3 -5 -3 -8q-5 -12 -5 -17l-5 -13q0 -4 -1 -7.5t-1 -7.5q-4 -19 0 -22q0 -6 31 -6q10 0 19 -2.5t14 -7.5q8 -15 7 -29
q-3 -16 -15 -23t-30 -7h-185q-50 0 -39 41q7 28 46 28h16.5t12.5 1q7 0 13 6q2 2 10 16q0 3 1 6t2 7t2 8.5t2 9.5q3 15 7.5 30t8.5 30l15 62q3 15 7.5 30t8.5 29q3 16 7 31t9 30q1 8 3.5 17t4.5 17q2 10 3.5 20.5t5.5 21.5q4 20 6 40.5t0 41.5q-2 19 -8.5 35t-15.5 31
q-14 11 -32 18t-46 7q-35 0 -35 28q0 13 12 25q13 10 31 12q76 1 123 -29q44 -35 60 -104q9 12 20 25t26 27q11 13 25.5 24.5t29.5 21.5t29 18.5t34 14.5q30 12 61 12q17 0 32.5 -7.5t27.5 -20.5q16 -27 11 -69q-6 -16 -11 -25q-5 -8 -10.5 -13.5t-9.5 -8.5q-10 -10 -26 -15
q-7 -3 -14 -4t-13 -1t-11.5 1t-9.5 4q-13 4 -19 15q-11 6 -12 22q-5 10 -1 29q-15 -9 -28.5 -19.5t-26.5 -24.5q-15 -14 -27.5 -29t-24.5 -30l-22 -34t-19 -33q-9 -18 -15.5 -33.5t-9.5 -31.5z" />
    <glyph glyph-name="Phi" unicode="&#x3a6;" horiz-adv-x="1045" 
d="M489 88q18 3 36.5 9.5t34.5 16.5q16 11 31.5 21t29.5 25q13 13 24.5 28t20.5 32q10 17 17 34t14 37q4 16 6 30.5t2 29.5q0 24 -7.5 45t-19.5 39q-17 18 -38.5 30t-49.5 21zM280 280q-6 -18 -7.5 -31.5t-1.5 -27.5q0 -52 31 -86q13 -19 35.5 -31.5t50.5 -19.5l24 102
l26 99l24 96l28 104q-82 -18 -133 -73q-54 -57 -77 -132zM308 8q8 0 16.5 -0.5t14.5 2.5q16 0 22 9q-23 2 -41.5 8.5t-37.5 17.5q-35 16 -60 48q-14 12 -24 29t-17 34q-13 36 -13 78q0 59 30 112q27 54 74 98q46 42 110 73q30 15 60 24t62 16q-5 5 -13 6h-32q-41 0 -41 33
q0 20 14 28q8 3 15.5 5t15.5 2h216q11 0 19 -3t14 -7q9 -15 3 -33q-6 -15 -15 -17q-7 -4 -13.5 -5t-15.5 -1h-17q-6 -2 -10 -2h-9q-5 -1 -9 -2t-6 -1q-8 -3 -8 -6q40 -6 79 -26q18 -11 33 -23t29 -25q25 -31 41 -66q6 -18 10.5 -38.5t4.5 -39.5q0 -14 -3 -27.5t-6 -27.5
q-7 -27 -18.5 -50.5t-27.5 -45.5q-17 -24 -36 -43t-40 -38q-24 -18 -48 -32.5t-49 -26.5q-55 -23 -105 -29q1 -7 16 -7q5 -1 12 -1h17q20 0 32 -12q6 -9 6 -23q-5 -30 -45 -30h-213q-52 0 -39 40q3 14 15 20q5 1 13 3t18 2z" />
    <glyph glyph-name="Chi" unicode="&#x3a7;" horiz-adv-x="1045" 
d="M444 297q-6 12 -10.5 27t-10.5 31q-5 14 -10 29t-10 31q-12 30 -23.5 58.5t-20.5 56.5q-2 3 -4 5t-3 5l-4 10q-9 7 -12 8q-4 0 -9 1t-9 1h-25q-12 0 -19.5 2t-11.5 9q-13 7 -5 30q7 30 45 30h218q21 0 35 -9q7 -13 4 -28q-6 -19 -17 -27q-13 -7 -30 -7h-44q-11 -5 -6 -17
l59 -159l37 45q8 10 18 20.5t18 21.5l36 43l38 46h-33q-36 0 -36 36q0 20 14 28q8 3 15 5t16 2h191q11 0 19 -2.5t14 -6.5q4 -6 5.5 -12.5t-0.5 -15.5q-6 -20 -18 -27q-10 -7 -25 -7h-29q-6 0 -12 -1.5t-9 -1.5q-6 -3 -10 -6.5t-8 -6.5l-11 -9l-10 -12q-26 -28 -50 -55
t-46 -55q-24 -28 -47.5 -56t-46.5 -55q6 -15 10 -30t10 -31q6 -15 11.5 -29.5t10.5 -29.5l21 -61l23 -58q7 -20 16 -27q4 -11 18 -16q10 -7 19 -7h20q18 0 32 -11q8 -12 6 -29q-6 -30 -44 -30h-229q-20 0 -29 8.5t-9 28.5q0 15 16 22q7 3 13.5 5t14.5 2q4 0 8 -0.5t6 -0.5
h15q10 -3 20 2q7 1 9 11q0 4 -1 11t-5 18l-29 83q-4 10 -7.5 18.5t-7.5 19.5q-10 16 -16 42l-36 -42q-8 -13 -17.5 -22.5t-18.5 -20.5q-21 -22 -38.5 -43.5t-35.5 -41.5l-9 -9t-4 -6q-7 -7 -5 -9q0 -5 8 -5q4 -1 29 -1q19 0 33 -12q8 -13 3 -30q-10 -28 -44 -28h-202
q-23 0 -28 11q-6 5 -7.5 11t-1.5 14q0 19 16 26q8 7 27 8h18.5t16.5 2q5 0 11 2.5t13 6.5q4 4 9 8t11 11q4 5 11.5 12t15.5 18z" />
    <glyph glyph-name="Psi" unicode="&#x3a8;" horiz-adv-x="1045" 
d="M488 209q41 7 71 31q24 14 42 43q7 12 11.5 27t9.5 32q4 16 8.5 34.5t10.5 39.5q4 18 9.5 36t10.5 40q6 17 13.5 34t17.5 34q10 16 21.5 27t27.5 23q28 19 72 19q58 0 68 -40q1 -8 2 -16.5t1 -15.5q-2 -19 -7 -27q-7 -11 -22 -18q-8 -4 -16.5 -5.5t-19.5 0.5q-11 0 -15 6
q-9 2 -14 11q-9 6 -9 16q-4 7 1 20q-15 -4 -25 -34q-11 -33 -13 -83q-11 -139 -80 -217q-71 -82 -196 -86l-10 -45q-4 -11 -5.5 -20.5t-3.5 -19.5q-1 -4 -2 -7t-1 -6q-3 -6 -3 -10q-2 -7 -2.5 -10t-0.5 -4q0 -5 11 -5h38q49 0 38 -35q-8 -24 -17 -28q-7 -5 -14 -6t-16 -1
h-212q-52 0 -40 40q5 16 18 23q10 7 29 7h34q9 0 20 6q6 3 11 16q0 7 5 12q1 7 6 18q1 6 3 11.5t3 7.5q1 5 2 9.5t3 9.5q0 3 0.5 7t0.5 9q2 5 3 10t2 12q-32 1 -60 12q-15 6 -28 13.5t-23 18.5q-22 16 -36 50q-7 11 -9.5 28.5t-2.5 35.5q0 32 11 74q5 21 13 42t20 45
q4 8 7 15.5t7 14.5q2 5 3.5 12.5t5.5 13.5l10 39q0 11 -3 11q-6 -1 -8 -6q-3 -4 -5 -8.5t-4 -7.5q-6 -9 -6 -11q-18 -30 -44 -30q-13 0 -19 7q-7 3 -12.5 6.5t-7.5 9.5q-12 10 -10 34q0 20 12 38q11 17 34 25q19 6 48 6q40 0 69 -18q29 -23 33 -67q0 -14 -1 -32t-5 -40
q-7 -24 -14 -46t-14 -42q-14 -32 -18 -57q-6 -17 -7 -27t-1 -18q0 -18 5.5 -29.5t20.5 -21.5q22 -18 55 -26q10 38 19.5 78t22.5 79q4 18 8.5 37.5t9.5 39.5q6 19 11 38t10 40q3 13 5.5 21.5t2.5 14.5q0 4 -11 7h-36q-41 0 -41 35q0 18 16 28q7 3 14.5 5.5t15.5 2.5h215
q11 0 19 -3t15 -7q3 -7 4 -15.5t-2 -18.5q-2 -7 -6.5 -12t-8.5 -9q-12 -6 -28 -6h-33q-15 -2 -18 -5q-6 -3 -9 -7.5t-6 -10.5q-3 -4 -5 -12.5t-6 -18.5v1z" />
    <glyph glyph-name="uni03A9" unicode="&#x3a9;" horiz-adv-x="1045" 
d="M731 181q-47 -53 -94 -77q-51 -29 -93 -37l-11 -36h28t25 1q21 0 38 6q7 2 14.5 6.5t15.5 9.5q5 5 11 13t13 19q2 7 4.5 12l5.5 11q2 3 5 7t9 8q4 7 15 7q22 -1 31 -12q5 -14 1 -33q-7 -18 -8 -32q-2 -7 -4 -13t-3 -12l-18 -57q-3 -7 -6.5 -12.5t-5.5 -8.5q-5 -5 -12 -6
t-17 -1h-242l48 184q49 1 100 31q22 13 42.5 29.5t37.5 37.5q33 39 55 91q10 25 15.5 51.5t5.5 54.5q0 32 -10.5 60.5t-28.5 50.5q-41 42 -114 42q-52 0 -90 -19q-25 -10 -44 -22t-37 -28q-17 -17 -32 -34.5t-27 -38.5q-14 -21 -23 -43t-14 -43q-5 -18 -5 -35q-2 -9 -2 -17
v-16q0 -16 1.5 -29t4.5 -27q6 -27 24 -48q8 -11 18.5 -19.5t25.5 -13.5q26 -16 68 -16l-46 -183h-219q-21 0 -29 11q-11 11 -6 31q2 19 6 35q1 19 9 40q1 10 2 18.5t3 16.5q0 7 1 15.5t4 18.5q0 12 13 19q10 5 21 5q9 0 21 -5q10 -9 10 -21q0 -15 0.5 -27t4.5 -20
q0 -22 14 -33q5 -6 12.5 -10.5t19.5 -5.5q18 -6 56 -1l11 39q-41 8 -67 32q-16 10 -27 23.5t-20 27.5q-24 32 -30 67q-6 19 -8 36t-2 36q0 8 0.5 16t2.5 18q0 14 7 32q8 30 20.5 57.5t33.5 54.5q19 24 41 47t49 44q24 20 52 35t58 28q30 10 60 17t61 7q25 0 49.5 -5
t48.5 -12q22 -10 41 -21t38 -26q15 -16 28.5 -33.5t22.5 -38.5q20 -45 20 -93q0 -67 -30 -128q-32 -64 -78 -110z" />
    <glyph glyph-name="alpha" unicode="&#x3b1;" horiz-adv-x="1045" 
d="M284 406q30 0 67 -17q44 -26 56 -68q2 9 5 12q0 3 2.5 6.5t5.5 9.5q7 15 18 28q7 13 24 19q12 6 33 -2q26 -14 24 -40q-3 -9 -6 -17.5t-10 -22.5l-14 -27l-17 -28l-19 -35q-4 -8 -9.5 -16.5t-10.5 -16.5q-10 -18 -19 -36.5t-17 -37.5q-4 -9 -6.5 -17t-3.5 -18
q-3 -10 -3 -18v-14q0 -14 9 -20q8 -11 17 -11q15 -3 26 -6.5t21 -9.5q14 -13 4 -32q-14 -20 -31 -27q-22 -13 -46 -6q-43 6 -66 29q-6 4 -8 13l-5 5t-3 5q-24 -24 -55 -43q-34 -22 -69 -22t-60 17q-13 6 -24 15.5t-20 23.5q-9 11 -16 24.5t-11 29.5q-13 27 -8 59q0 24 11 60
q4 17 9.5 34t14.5 35q7 17 16 33t21 34q19 31 48 60q13 12 28 22.5t31 19.5q33 14 66 14zM313 330q-32 9 -75 -34q-13 -10 -21.5 -22t-17.5 -25q-11 -13 -19.5 -27.5t-13.5 -27.5q-10 -16 -15 -30.5t-8 -27.5q-5 -16 -6.5 -30t-1.5 -26q0 -7 0.5 -13t2.5 -12q1 -12 9 -21
q4 -11 15 -18q7 -6 22 -6q27 0 57 30q24 26 40.5 52t28.5 53q10 26 16 54t10 60v24t-3 21q-3 9 -9 15.5t-11 10.5z" />
    <glyph glyph-name="beta" unicode="&#x3b2;" horiz-adv-x="1045" 
d="M142 -1q-3 -12 -5 -24t-4 -22t-4 -19.5t-3 -17.5l-15 -56q-13 -24 -22 -28q-12 -9 -26 -3q-20 2 -26 20q-12 10 -6 35q6 33 13 69t17 78q8 40 17.5 80.5t22.5 83.5q10 42 21 81t24 79q19 74 42 134q23 63 59 102q37 39 99 39q18 0 35 -4t31 -10q17 -9 29.5 -18t24.5 -20
q10 -13 19.5 -27.5t15.5 -29.5q13 -35 13 -72q0 -18 -5 -46q-5 -12 -9 -24t-10 -24l-30 -43q-9 -11 -19.5 -17.5t-21.5 -10.5l9 -13q2 -5 3 -8t5 -7l13 -36q1 -5 2 -9.5t1 -10.5q1 -5 1.5 -9t2.5 -9q0 -11 0.5 -20.5t0.5 -17.5q-3 -17 -6 -33.5t-10 -34.5q-13 -37 -34 -68
q-11 -17 -23.5 -30t-25.5 -23q-32 -24 -67 -24q-47 -5 -82 13q-22 5 -38 20t-29 35zM339 270q-8 0 -16.5 0.5t-17.5 1.5q-21 0 -35 10q-17 6 -29 19q-14 9 -9 30q0 10 4.5 19t12.5 12q15 5 43 -1q1 -1 3.5 -1.5t4.5 -1.5q4 -3 12 -3q4 -2 13.5 -4t21.5 -6q15 -6 26 8
q7 5 12 12t12 16q3 8 7.5 16.5t7.5 19.5q4 16 6 29q1 43 -6 71q-6 15 -17 23.5t-28 14.5q-33 7 -64 -19q-32 -29 -47 -80q-15 -45 -28 -89.5t-25 -92.5q-23 -94 -31 -189q3 -7 6 -13t10 -13q7 -14 24 -21q10 -11 29 -16q7 -3 15 -4.5t16 0.5q23 0 43 18q17 17 28 43
q5 11 9.5 23t7.5 27q2 14 2.5 25.5t2.5 22.5q0 3 -1 6t-1 7v13q-2 6 -3 12.5t-2 14.5q-5 5 -6 11q-3 3 -3 11q-3 6 -6 10t-4 8z" />
    <glyph glyph-name="gamma" unicode="&#x3b3;" horiz-adv-x="1045" 
d="M178 340q-24 6 -36 -5q-9 -6 -14.5 -13.5t-10.5 -14.5q-6 -9 -12 -15t-13 -12q-10 -13 -29 -6q-9 2 -11.5 9t-2.5 20q-1 10 3 24.5t16 36.5q9 18 21.5 30t28.5 22q34 14 72 13q58 -8 87 -50q30 -47 30 -116v-80q1 4 6 10l17 35q4 11 9.5 20.5t13.5 22.5l24 41q3 4 5 9.5
t6 10.5l12 18l9 15q3 4 5 7.5t5 6.5q43 67 91 32q7 -9 11 -16.5t4 -17.5q0 -14 -5 -29q-4 -8 -9.5 -16.5t-12.5 -18.5q-53 -58 -98 -124q-25 -35 -46 -68.5t-40 -69.5q-9 -15 -15.5 -30t-12.5 -31q-8 -17 -13.5 -33.5t-10.5 -32.5l-11 -26l-9 -21q-11 -23 -23 -34
q-6 -8 -12.5 -11.5t-13.5 -4.5q-18 -7 -30 2q-19 6 -27 29q-10 16 -4 40q0 5 14 30l11 23l16 27q6 12 15.5 25.5t18.5 28.5l29 43v45q-1 16 -1 40v54q0 27 -4.5 48t-10.5 39q-15 30 -42 39z" />
    <glyph glyph-name="delta" unicode="&#x3b4;" horiz-adv-x="1045" 
d="M363 223q0 10 -0.5 19.5t-1.5 21.5q-3 10 -6.5 19.5t-7.5 18.5q-7 7 -13 14t-14 13q-17 10 -42 10q-30 0 -53 -23q-24 -24 -39 -55q-9 -20 -14.5 -36t-9.5 -33q-5 -19 -6.5 -34.5t-1.5 -29.5q0 -12 0.5 -22t3.5 -20q2 -22 14 -40q8 -18 28 -29q13 -12 41 -12q29 0 53 25
q21 21 39 57l24 72q6 36 6 64zM401 355l14 -16t14 -18l21 -42q3 -13 6.5 -24.5t6.5 -21.5q0 -7 0.5 -13t0.5 -11q3 -12 3 -21q0 -21 -4 -43t-11 -43q-19 -50 -43 -83q-15 -21 -31 -35.5t-36 -26.5q-39 -24 -86 -24t-84 19q-40 18 -62 48q-30 31 -42 72q-8 18 -11.5 39.5
t-3.5 42.5q0 44 16 86q14 43 41 74q23 35 60 61q17 13 36 20t41 13q-9 12 -17.5 24.5t-13.5 28.5q-8 14 -11 29t-3 34q0 10 1 20t7 20q2 10 8 18t14 19q13 13 34 26q8 4 17.5 6t21.5 2q35 0 78 -19q18 -11 35.5 -22.5t34.5 -28.5q30 -31 50 -68q19 -36 19 -66
q0 -12 -4.5 -21.5t-11.5 -15.5q-16 -16 -37 -16q-7 0 -12.5 1.5t-9.5 6.5q-15 8 -18 17q-6 5 -9 11.5t-7 11.5q-1 4 -2.5 6t-2.5 5q-2 4 -3 6.5t-2 4.5q-3 3 -4.5 7.5t-4.5 7.5l-8 19l-10 14l-9 18l-25 23q-6 4 -14 7t-14 6q-6 0 -11 -1.5t-10 -2.5q-13 -6 -13 -23
q0 -28 13 -48q7 -12 14.5 -23t18.5 -21q17 -23 40 -40z" />
    <glyph glyph-name="epsilon" unicode="&#x3b5;" horiz-adv-x="1045" 
d="M350 325q-2 7 -5 11t-6 9q-7 7 -20 13q-5 1 -12 2.5t-14 2.5h-16q-5 0 -8 0.5t-6 0.5q-38 0 -54 -18q-24 -17 -24 -49q0 -23 12 -33q9 -14 27 -22q9 -1 17.5 -4t20.5 -3q8 -2 18 -2.5t19 -0.5h24q7 0 11.5 -1t11.5 -2q4 -3 8.5 -5.5t7.5 -5.5q1 -5 2.5 -10.5t1.5 -12.5
q0 -20 -15 -26q-15 -7 -40 -7h-8t-9 1h-17q-26 0 -46 -6t-32 -14q-29 -24 -29 -60q0 -41 32 -61q14 -12 35.5 -17t49.5 -5q13 0 25.5 3t25.5 11q10 6 16.5 17t7.5 28q0 14 5 26q1 10 14 23q7 9 21 15q6 2 12.5 2.5t15.5 0.5q23 -6 35 -26q6 -13 6.5 -24t-2.5 -24
q-6 -15 -11.5 -27t-15.5 -23q-11 -12 -21.5 -21.5t-21.5 -16.5q-14 -9 -27 -14t-30 -8q-15 -6 -30.5 -8t-31.5 -2q-17 0 -35.5 1.5t-35.5 7.5q-22 3 -37.5 8.5t-31.5 15.5t-29 20.5t-23 26.5q-19 23 -19 70q0 17 4.5 34.5t14.5 32.5q19 29 58 48q-15 7 -25 17.5t-19 26.5
q-19 22 -19 59q0 33 18 59q8 13 19 23t24 18q12 7 26 13t32 11q16 4 31.5 5.5t29.5 1.5q11 0 26.5 -0.5t30.5 -1.5q16 -4 30.5 -7t30.5 -9q13 -7 25.5 -14.5t24.5 -16.5q21 -26 28 -54q1 -13 -1 -23.5t-8 -17.5q-15 -16 -33 -23q-33 -5 -48 13q-17 19 -19 48z" />
    <glyph glyph-name="zeta" unicode="&#x3b6;" horiz-adv-x="1045" 
d="M264 638q7 -12 9 -21q0 -13 -3 -20q-2 -6 -6.5 -9.5t-9.5 -8.5l-11.5 -11.5t-12.5 -9.5q-9 -8 -15.5 -15t-12.5 -12q-5 -8 -8.5 -14.5t-3.5 -12.5q0 -3 0.5 -6t4.5 -4q1 -2 3.5 -5t6.5 -3q9 -4 24 1l28 9q6 4 11.5 8t13.5 11q5 4 11 8.5t12 9.5t14 13t18 15
q8 7 16.5 12.5t15.5 10.5q7 0 13.5 2t14.5 5q5 1 10 2.5t11 1.5q34 0 45 -27q9 -18 0 -36q-9 -21 -26 -38q-8 -8 -18.5 -16.5t-18.5 -15.5q-13 -8 -21.5 -13t-13.5 -8q-14 -8 -29 -14t-30 -13q-36 -16 -65 -18l-35 -50q-10 -13 -19.5 -27t-16.5 -29q-9 -15 -15.5 -29.5
t-11.5 -28.5q-11 -33 -11 -60q0 -46 27 -68q13 -15 32 -20t44 -5q57 -2 93 -27q15 -12 25 -31t15 -43q4 -31 -7 -60q-9 -16 -18 -27t-23 -19q-12 -11 -26.5 -17.5t-28.5 -11.5q-18 -7 -33 -9.5t-30 -2.5h-14t-17 1q-22 0 -37 7q-21 5 -31 15q-14 8 -14 30q0 18 22 36
q15 12 58 12q1 -1 2 -1h6q2 -2 9 -2q10 -5 26 -5q6 -1 13 -1h16q6 0 13.5 0.5t14.5 3.5q8 1 13 16q2 15 -26 21q-21 1 -38.5 5t-37.5 11q-36 8 -64 29q-15 9 -26.5 22.5t-20.5 27.5q-8 17 -13 35t-5 42q0 17 2 36.5t9 38.5q4 19 11 36.5t15 36.5q8 17 17 34.5t20 34.5
q9 15 19 31t22 33q-27 14 -39 38q-9 12 -11.5 25.5t-2.5 33.5q0 14 3 28t13 28q7 13 17 24.5t24 24.5q63 50 94 19z" />
    <glyph glyph-name="eta" unicode="&#x3b7;" horiz-adv-x="1045" 
d="M176 320q-12 12 -25 6q-9 -3 -17 -4.5t-15 0.5q-11 0 -19 11q-10 3 -10 18q-1 6 0.5 11.5t7.5 14.5q7 18 32 26q19 7 46 6q25 -4 49 -19q10 -10 19 -20t17 -21q20 24 53 42q33 19 64 19q36 0 63 -11t49 -32q35 -46 31 -113q-1 -24 -9 -59q-3 -18 -8 -35t-9 -37l-13 -41
l-12 -38q-4 -11 -7 -21t-7 -20l-13 -37l-13 -34q-3 -8 -6.5 -15.5t-6.5 -14.5l-12 -24t-9 -17q-19 -23 -33 -31q-19 -8 -41 2q-50 21 -23 70q9 19 18 36t19 38q8 18 16.5 38t14.5 40q10 25 20 51.5t20 55.5q7 28 12.5 55.5t9.5 57.5q0 13 -2 23.5t-8 19.5q-12 19 -46 19
q-16 0 -35 -14q-9 -9 -17.5 -17t-15.5 -18q-9 -11 -15 -21.5t-12 -21.5q-6 -10 -10 -20.5t-6 -19.5q-4 -12 -7.5 -23.5t-6.5 -25.5l-13 -51q-4 -8 -5.5 -15t-2.5 -13q-2 -9 -4 -16.5t-4 -14.5q-17 -59 -41 -85q-25 -28 -50 -15q-30 10 -30 48q0 7 2.5 17t9.5 26q5 13 11 27
t15 29q12 21 21.5 45.5t18.5 52.5q13 52 9 101z" />
    <glyph glyph-name="theta" unicode="&#x3b8;" horiz-adv-x="1045" 
d="M363 636q19 -4 35 -11t32 -20q12 -14 22 -28.5t19 -29.5q7 -17 13.5 -35.5t10.5 -37.5q3 -21 4.5 -40.5t1.5 -40.5q0 -24 -1.5 -44.5t-4.5 -42.5q-3 -20 -8 -39.5t-9 -33.5q-8 -24 -16.5 -48t-19.5 -49q-12 -27 -24 -51.5t-28 -44.5q-16 -24 -34 -41.5t-37 -32.5
q-20 -16 -44 -22t-49 -6q-23 0 -43.5 4.5t-36.5 17.5q-33 22 -53 61q-10 19 -17 40t-9 44q-5 22 -6.5 46t-1.5 48q0 20 1 40t5 38q0 18 2.5 35t7.5 31q9 35 21 66.5t26 60.5q13 27 30 52t38 46q27 27 66 51q16 10 36 15.5t41 5.5q6 0 14 -1.5t16 -2.5zM264 515
q-13 -19 -23.5 -38t-20.5 -43q-10 -25 -19.5 -50.5t-16.5 -49.5h205q1 12 2.5 25.5t4.5 26.5v24q0 7 0.5 12.5t0.5 11.5q0 3 -0.5 7.5t-0.5 8.5q0 5 -1 9.5t-1 10.5l-7 42l-15 34q-9 14 -22 18q-12 2 -22.5 -0.5t-20.5 -7.5q-23 -17 -43 -41zM166 264q-4 -19 -6.5 -34
t-2.5 -31q-2 -15 -2 -30v-26v-20t2 -20q0 -11 2.5 -21t6.5 -20q1 -10 4.5 -17.5t7.5 -13.5q9 -18 24 -18q22 -8 43 2q20 9 37 32q9 10 16.5 22t15.5 26q6 13 13.5 28.5t12.5 29.5q6 17 10.5 30.5t10.5 29.5q0 7 1.5 14t2.5 14q1 5 2 11t4 12h-205z" />
    <glyph glyph-name="iota" unicode="&#x3b9;" horiz-adv-x="1045" 
d="M258 423q16 -6 30 -23q7 -18 4 -38q-6 -18 -10.5 -35t-10.5 -32q-6 -17 -13.5 -33.5t-12.5 -30.5q-10 -22 -17.5 -40t-12.5 -41q-9 -20 -14.5 -43.5t-10.5 -47.5q-6 -25 25 -29q6 -8 18 0q10 0 19 10q25 24 44 27q14 0 26 -25q4 -9 2.5 -17t-5.5 -17q-8 -16 -35 -43
q-12 -11 -23.5 -16.5t-21.5 -8.5q-14 -4 -25 -5.5t-23 0.5q-34 1 -54 23q-24 21 -28 47q-6 19 -6 40v18.5t3 15.5q5 32 11.5 64.5t18.5 65.5q4 15 8.5 30.5t9.5 32.5q5 16 9.5 33t9.5 34q0 3 1 7.5t3 8.5q1 3 2 7.5t3 10.5q4 7 7.5 14.5t9.5 13.5q6 12 23 20q6 3 15 3t21 -1
z" />
    <glyph glyph-name="kappa" unicode="&#x3ba;" horiz-adv-x="1045" 
d="M226 408q11 -4 19 -6.5t15 -8.5q11 -13 11 -31q0 -12 -6 -28l-17 -38q-1 -9 -7 -16q-1 -5 -2.5 -9.5l-2.5 -7.5q-6 -10 -9 -18t-5 -17h19q19 0 32 21l17 25q3 8 8 16.5t11 18.5q12 25 28 45.5t33 35.5q16 12 36.5 18t41.5 3q13 -4 24.5 -8.5t22.5 -14.5q19 -20 19 -55
q-2 -32 -19 -42q-19 -11 -41 -11q-16 0 -26 7q-17 6 -21 22q-6 -3 -11 -6t-9 -10q-6 -6 -9.5 -13l-6.5 -13q-6 -13 -11.5 -24.5t-13.5 -23.5q-21 -26 -39 -41q30 -30 30 -68q0 -21 0.5 -36.5t1.5 -23.5q1 -23 12 -25q5 0 8.5 2.5t9.5 6.5q11 6 16 16q10 28 30 40q12 7 36 3
l14 -12q1 -6 2.5 -10.5t1.5 -9.5q0 -6 -1 -10.5t-2 -8.5l-4 -11l-1.5 -6t-0.5 -4q-19 -38 -50 -66q-28 -27 -72 -27q-31 0 -47 12q-22 8 -29 28q-15 19 -15 48q-4 13 -4.5 27.5t-0.5 34.5v20q0 2 -0.5 4t-0.5 6v11l-2 8l-2 8q-6 8 -10 8l-27 1l-14 -50q-9 -32 -9 -46
q-2 -6 -4 -12.5t-3 -14.5l-4 -24q-4 -11 -7.5 -21.5t-8.5 -20.5q-10 -13 -23 -19q-18 -7 -37 4q-25 7 -25 44q0 3 -0.5 7.5t1.5 10.5q0 8 5 21q1 4 2.5 7.5t3.5 8.5q1 5 2.5 10t5.5 12q2 13 7 25l10 31l9 31l9 34l10 33q2 10 4.5 18t5.5 17l8 33q2 7 4 14.5t5 15.5
q1 8 2.5 14.5t2.5 11.5q3 8 4 13t2 12q5 26 20 37q18 8 38 7z" />
    <glyph glyph-name="lambda" unicode="&#x3bb;" horiz-adv-x="1045" 
d="M190 583q0 20 12 34q6 5 12.5 8t15.5 5q9 0 17.5 -0.5t20.5 -2.5q8 -3 16.5 -7.5t18.5 -8.5q12 -12 23.5 -23t21.5 -25q8 -14 13.5 -27t9.5 -28t6.5 -30.5t3.5 -31.5q0 -17 -0.5 -33.5t-0.5 -32.5v-74q0 -18 0.5 -35.5t2.5 -34.5q2 -41 13 -71q6 -35 24 -70q6 -16 15 -28
q2 -10 6 -17l8 -14l2.5 -7.5t1.5 -7.5q1 -8 6 -12q0 -5 1 -8t1 -5t0.5 -3t0.5 -2v-2q0 -8 -2 -18q-4 -9 -11 -18q-5 -6 -9 -8t-9 -4q-3 -4 -8.5 -5t-10.5 -1q-19 0 -31 16q-9 7 -14 16.5t-10 21.5q-13 18 -19 45q-11 18 -12 36q-8 21 -11.5 44.5t-4.5 46.5q-2 22 -3.5 48
t-1.5 55l-3 -3v-1q-2 -2 -2 -4q-1 -1 -1 -2q-16 -25 -31.5 -51t-29.5 -53q-16 -26 -28 -56t-22 -60q-9 -24 -17 -44t-20 -35t-25.5 -22t-26.5 -1q-18 4 -30 18q-11 13 -11 31q0 15 3.5 30.5t13.5 31.5l8 14t8 15l20 30q44 79 95 143q21 35 44.5 69t51.5 71q0 1 0.5 2.5
t0.5 4.5l3 9v13q0 5 0.5 9t1.5 9q0 28 -16 51q-10 9 -21 18t-25 19q-10 4 -18 9t-12 8q-13 7 -16 18q-8 6 -8 13q-2 4 -2 7v8z" />
    <glyph glyph-name="uni03BC" unicode="&#x3bc;" horiz-adv-x="1045" 
d="M95 -4l10 27l10 29l15 59q1 6 2.5 12.5t2.5 14.5q2 5 3 10t3 12q5 25 10 51t15 50q5 24 14.5 49.5t21.5 52.5q14 36 38 47q9 7 20.5 5.5t27.5 -7.5q12 -9 18 -19t6 -25q0 -16 -5 -31q-3 -10 -7.5 -20t-8.5 -20l-16 -29l-13 -27l-15 -31q-5 -7 -7.5 -14.5t-6.5 -14.5
q-7 -16 -12.5 -31t-10.5 -31q-6 -17 -9 -33.5t-6 -31.5q1 -4 3.5 -7t4.5 -7q6 -8 13 -12q6 -8 15 -8q9 -4 20 -1q36 6 59 29q15 14 28 41q6 17 11.5 36t12.5 39q1 19 8 39l13 42q1 12 6 24q2 7 3.5 14t4.5 13q1 11 5 24q1 7 3 13.5t4 12.5q1 12 9 26q2 5 5.5 10.5t8.5 11.5
q10 8 22 13q10 1 27 0q18 -5 29 -17q2 -8 5 -15.5t3 -15.5q0 -9 -2 -16.5t-4 -17.5l-5 -18l-5 -13q-6 -14 -10.5 -28t-9.5 -25l-12 -28q-6 -13 -9 -28q-7 -12 -11.5 -23t-9.5 -22q-7 -12 -10.5 -24.5t-7.5 -25.5q-4 -7 -4 -15q-2 -6 -2.5 -10t-0.5 -8q0 -9 4 -13q1 -7 13 -7
q4 0 7.5 0.5t7.5 2.5q3 2 5.5 4.5t6.5 4.5q3 5 15 13q3 3 9 4.5t12 1.5q13 0 17 -13q1 -7 1 -15.5t-2 -17.5q-2 -10 -6 -17.5t-7 -13.5q-5 -10 -11 -16.5t-12 -12.5q-7 -6 -14 -9.5t-14 -5.5q-18 -6 -35 0q-22 5 -34 17q-9 6 -13.5 11.5t-7.5 14.5q-17 -14 -30 -23t-25 -13
q-29 -10 -55 -10t-44 6q-18 7 -35 24q-1 -8 -1.5 -15.5t-0.5 -12.5q-3 -9 -4 -16.5t-1 -16.5q-4 -41 -26 -63q-24 -21 -42 -16q-37 9 -37 50q0 12 6 30q3 10 5 19t8 21z" />
    <glyph glyph-name="nu" unicode="&#x3bd;" horiz-adv-x="1045" 
d="M163 405q41 15 65 -39l8 -22t6 -24q0 -8 1.5 -14t1.5 -14q1 -5 1.5 -12t0.5 -13t-0.5 -13.5t-1.5 -12.5q0 -7 -1.5 -14.5t-1.5 -14.5q-2 -16 -4.5 -30t-6.5 -28t-8 -27t-7 -26q-6 -15 -11 -25.5t-10 -20.5q15 9 31.5 19.5t34.5 25.5q16 14 30.5 29t28.5 32q26 32 45 73
q17 35 18 77q0 50 17 75q12 24 31 18q28 -9 28 -53q0 -5 -0.5 -8.5t-0.5 -8.5v-19l-5 -22q0 -6 -0.5 -11t-1.5 -11q-19 -103 -79 -187q-30 -42 -69.5 -74t-91.5 -55q-24 -10 -43.5 -16t-37.5 -8q-39 -6 -48 10q-17 17 7 72l11 22l12 25l20 55q3 13 7 27t7 31q2 12 3 25.5
t1 26.5l-6 39q-6 22 -12 79q-4 24 6 40q7 16 25 22z" />
    <glyph glyph-name="xi" unicode="&#x3be;" horiz-adv-x="1045" 
d="M265 259q-37 1 -59 -10q-28 -15 -46 -35q-19 -26 -25 -49q-5 -16 -5 -27t3 -24q3 -11 9.5 -21t17.5 -15q17 -20 58 -15q55 0 93 -23q32 -30 38 -80q1 -15 -1 -27t-8 -25q-5 -12 -14 -22t-17 -20q-26 -19 -46 -26q-16 -7 -28.5 -8.5t-24.5 -1.5q-42 0 -49 33q-6 19 15 36
q17 17 52 17q27 -1 31 19q0 7 -13 14q-8 3 -15.5 4.5t-15.5 4.5q-5 0 -9.5 1t-8.5 2q-6 1 -10 2t-9 2q-6 0 -14 2t-8 3q-32 8 -50 27q-13 9 -20.5 18t-14.5 21q-12 18 -18 46q-2 10 -3 21.5t-1 24.5q0 30 6.5 55t18.5 46q25 38 72 74q-8 6 -14 15t-12 19q-9 18 -9 44
q0 49 20 78q20 27 47 42v9t1 12q0 4 0.5 9t2.5 11q14 48 53 74q37 25 87 25q14 0 23 -2t17 -5q12 -6 14 -30q0 -51 -84 -46q-19 0 -27 -8q-12 -14 -12 -18q12 0 23 0.5t24 2.5q10 0 22.5 0.5t24.5 0.5q3 0 7 -0.5t8 -0.5h18l39 -10q18 -8 32 -21q6 -8 7.5 -16t0.5 -19
q-6 -24 -21 -28q-8 -5 -18 -6.5t-21 -1.5q-19 0 -37 2t-33 7q-18 3 -35.5 5t-34.5 2q-9 0 -15.5 -1.5t-13.5 -2.5q-17 -6 -24 -12q-6 -5 -11 -9t-8 -11q-5 -7 -6.5 -14t-0.5 -14q0 -37 36 -32h10.5t19.5 2h47q12 0 25 -0.5t27 -0.5q13 -2 24.5 -5.5t22.5 -6.5
q9 -5 17.5 -9.5t14.5 -11.5q6 -9 6.5 -18.5t0.5 -20.5q-5 -27 -24 -33q-9 -6 -20 -7t-24 -1q-23 0 -50 8q-15 3 -27.5 5t-20.5 5z" />
    <glyph glyph-name="omicron" unicode="&#x3bf;" horiz-adv-x="1045" 
d="M272 424q23 0 44 -5.5t43 -15.5q36 -22 65 -51q26 -33 43 -75q16 -41 16 -85q0 -47 -17 -92q-9 -23 -20 -43.5t-25 -38.5q-15 -20 -33.5 -35t-36.5 -26q-41 -23 -89 -23q-50 0 -85 19q-21 9 -37 22t-28 28q-16 16 -26 35t-17 41q-16 35 -16 84t16 94q8 22 19 43.5
t27 39.5q25 33 67 60q40 24 90 24zM251 4q33 0 58 25q22 21 39 56q8 17 12.5 34.5t9.5 36.5q4 19 6 35t2 31q0 14 -2 22q0 7 -1.5 13.5t-1.5 12.5q-3 11 -6.5 21.5t-6.5 18.5q-12 18 -30 29q-10 5 -21.5 8.5t-24.5 3.5q-18 0 -31.5 -6t-26.5 -13q-12 -13 -22.5 -24.5
t-18.5 -26.5q-9 -16 -14 -31.5t-9 -34.5q-5 -19 -6.5 -35t-1.5 -32q0 -24 6 -48q5 -27 17 -47q5 -10 13 -19.5t18 -14.5q15 -15 43 -15z" />
    <glyph glyph-name="pi" unicode="&#x3c0;" horiz-adv-x="1045" 
d="M81 263q-22 12 -16 36q1 10 6.5 22t14.5 25q14 25 48 38q30 11 68 13h67q15 -2 31.5 -2h35.5q16 -1 33.5 -1t36.5 2q37 0 71 10q31 8 46 -5q15 -12 15 -47q-8 -49 -40 -53h-9q-6 -1 -11 -1h-9h-17t-20 1q-9 0 -17.5 -1t-16.5 -1q-7 -27 -12.5 -56t-9.5 -58
q-6 -31 -7.5 -60.5t-1.5 -55.5v-15q0 -10 4 -14q2 -9 9 -10q4 -7 12 1q7 3 13 5.5t14 2.5q15 0 23.5 -12.5t5.5 -34.5l-6 -14t-9 -13q-4 -6 -11.5 -11.5t-14.5 -8.5l-16 -6t-18 -3q-18 -5 -32 3q-20 6 -32 18q-14 12 -18 28q-3 6 -5.5 15.5t-2.5 18.5q-2 10 -2 18.5t1 20.5
q0 16 3 31t6 34l2 16t3 16q1 9 2.5 16t3.5 17q1 6 2.5 13t2.5 14q1 15 6 27q1 14 2 29t3 32h-58q-3 -10 -5 -18t-3 -16q-5 -23 -5 -34q-6 -22 -11 -44.5t-9 -45.5q-6 -23 -12 -45.5t-14 -47.5l-12 -29q-3 -6 -5.5 -12t-4.5 -10q-8 -23 -19 -36q-5 -6 -10 -10.5t-12 -7.5
q-15 -7 -27 -7q-20 0 -30 10q-13 10 -13 37q0 25 13 47q11 25 24 41q17 22 31 54q6 13 11.5 25t10.5 26q4 12 8 25.5t7 30.5l12 64l-33 -5q-19 -4 -24 -16q-14 -20 -22 -20q-15 -6 -25 4z" />
    <glyph glyph-name="rho" unicode="&#x3c1;" horiz-adv-x="1045" 
d="M420 203q0 8 -1.5 18t-3.5 23q-5 23 -15 45q-7 8 -14 17t-15 17q-16 13 -41 13q-32 0 -57 -21q-10 -11 -19.5 -23t-16.5 -28q-16 -28 -22 -65q-5 -18 -6 -34t-1 -26q0 -12 0.5 -23t2.5 -21q2 -24 14 -42q7 -17 27 -32q8 -7 18 -9t23 -2q16 0 31 4t28 14q12 9 21.5 20
t17.5 28q8 14 13 29.5t8 34.5q8 35 8 63zM305 -62q-25 0 -45.5 5.5t-39.5 20.5q-41 25 -68 64v-13t1 -14v-14t2 -12v-19.5t2 -24.5v-26.5t-1 -24.5q-5 -24 -15 -40q-14 -17 -40 -17q-25 0 -32 18q-5 9 -6.5 22t-1.5 30q0 64 9 136q6 32 12 66.5t16 69.5q5 19 10.5 40.5
t15.5 42.5q8 22 19 40.5t25 37.5q12 17 28.5 31.5t34.5 26.5q37 22 87 22q44 0 81 -17q16 -10 31.5 -22t30.5 -28q24 -32 41 -70q16 -42 16 -84q0 -43 -16 -84q-8 -23 -18.5 -42.5t-22.5 -38.5q-16 -18 -32.5 -33t-35.5 -26q-38 -23 -88 -23z" />
    <glyph glyph-name="sigma" unicode="&#x3c3;" horiz-adv-x="1045" 
d="M468 361q-4 -7 -6.5 -12t-5.5 -6q-5 -3 -10.5 -3.5t-12.5 -0.5h-11.5t-13.5 1h-28q33 -27 58 -67q22 -41 22 -91q0 -63 -30 -124q-8 -12 -16 -24.5t-17 -21.5q-13 -14 -23 -23t-22 -19q-14 -9 -27 -16t-26 -10q-16 -7 -30.5 -9t-29.5 -2q-22 0 -41.5 4t-34.5 12
q-18 7 -32 18t-25 25q-24 25 -38 66q-8 19 -11.5 37.5t-3.5 39.5q0 41 18 91q7 17 16 34.5t23 35.5q10 15 23 30t31 30q14 13 32.5 25t39.5 21q19 10 39 16.5t43 8.5q25 3 60 3q16 -3 30 -5.5t29 -9.5q20 -11 26 -23q10 -16 5 -31zM195 16q18 -11 44 -3q9 2 20 7t20 15
q18 13 35 37l24 39l23 56q2 12 3.5 26t1.5 29q0 17 -5 29.5t-15 24.5q-24 24 -54 24q-10 0 -18.5 -3t-15.5 -6q-20 -11 -33 -21q-8 -8 -14.5 -16t-12.5 -14q-8 -11 -14 -19.5t-10 -17.5q-6 -11 -10.5 -22.5t-7.5 -25.5q-4 -12 -5.5 -26t-1.5 -26q0 -15 2 -26.5t8 -23.5
q7 -25 36 -37z" />
    <glyph glyph-name="tau" unicode="&#x3c4;" horiz-adv-x="1045" 
d="M314 313q-12 -24 -21 -48t-16 -47q-7 -25 -13 -50t-13 -49l-4 -14q0 -3 -1 -7t-1 -6q-4 -10 -4 -17v-14q0 -15 6 -19q4 -9 15 -11q8 -6 19 -1q12 0 23 6q11 5 22.5 5.5t23.5 -2.5q17 -11 17 -30q-1 -19 -11 -33q-12 -16 -32 -23q-18 -11 -40 -12q-12 -4 -22.5 -5t-20.5 0
q-61 0 -80 39q-24 38 -12 92q0 6 5 21l12 34l12 42q3 13 8 25.5t12 28.5l9 29q3 9 4.5 15t4.5 13q3 13 6 22l5 15q-15 0 -29.5 -0.5t-28.5 -0.5q-31 -4 -43 -21q-12 -18 -24 -23q-15 -6 -30 8q-13 12 -9 34q0 11 5 24.5t17 29.5q6 12 18 20t28 14q15 3 31 6t39 3
q8 0 16 -0.5t19 -0.5h36q19 -2 40.5 -2h48.5q26 0 46 3.5t34 9.5q15 7 25 6.5t21 -7.5q12 -15 12 -51q-3 -25 -12 -39t-24 -15q-3 -2 -7.5 -1.5t-9.5 0.5h-14q-1 0 -3 0.5t-5 0.5h-27t-27 1h-28q-6 0 -14 0.5t-14 1.5z" />
    <glyph glyph-name="upsilon" unicode="&#x3c5;" horiz-adv-x="1045" 
d="M117 337q0 18 2.5 33t11.5 25q13 19 43 19t43 -19q11 -20 11 -45q0 -13 -2 -24t-5 -23q-2 -8 -3.5 -13t-2.5 -11l-6 -17l-21 -44q-7 -13 -11.5 -24.5t-8.5 -22.5q-5 -14 -8.5 -25.5t-6.5 -24.5q-7 -25 -7 -52t15 -45q13 -21 41 -21q27 0 52 16q24 17 56 53
q12 15 23.5 34.5t24.5 39.5q16 40 30 84q12 43 5 74q-2 10 -2.5 19.5t-0.5 17.5q0 26 10 39t33 13q20 -2 30 -10q6 -7 10.5 -13t8.5 -11q4 -8 6 -16t4 -17q1 -10 2 -18.5t1 -17.5v-18q-1 -7 -2 -11.5t-1 -7.5q-7 -21 -15.5 -46t-19.5 -53q-13 -28 -28.5 -54t-32.5 -50
q-40 -53 -84 -85q-24 -18 -49 -26t-51 -8q-76 0 -111 41q-37 38 -32 110q0 27 9 53q1 5 2 11t3 12t3.5 12t3.5 13q5 18 9.5 38t10.5 40q2 18 4.5 37t2.5 39z" />
    <glyph glyph-name="phi" unicode="&#x3c6;" horiz-adv-x="1045" 
d="M47 158q0 46 18 90q16 42 48 80q15 17 34 30.5t40 24.5q42 17 92 16q40 -7 47 -28q2 0 4 0.5t4 0.5t3 0.5t3 0.5q29 0 56 -21q11 -13 22 -24.5t19 -26.5q9 -15 15.5 -33t10.5 -32q11 -39 11 -62q0 -25 -4 -45t-10 -41q-9 -21 -20 -40.5t-27 -34.5q-29 -35 -72 -55
q-42 -22 -95 -24q-1 -3 -2.5 -5t-1.5 -5q-1 -1 -1 -6l-2 -13q0 -2 -0.5 -3t-0.5 -2v-2q-9 -48 -28 -62q-26 -15 -50 -5q-26 7 -28 25q-5 15 4 40q1 6 4 13.5t7 14.5q1 7 6 16q3 4 4 7.5t3 7.5q-13 7 -24 17t-20 21q-22 19 -36 50q-18 25 -24 57q-5 14 -7 28.5t-2 29.5z
M227 247q6 20 19 43q3 11 10 20.5t15 22.5q-40 -14 -68 -43q-18 -18 -29 -41.5t-20 -51.5q-5 -14 -5 -28q-2 -10 -2 -17.5v-15.5q0 -33 7 -55q6 -30 25 -49q4 13 8 27.5t8 29.5q1 5 2 12.5t3 13.5q1 16 6 30q4 30 10 56q4 24 11 46zM260 4q20 7 47 32q9 10 18 22t17 28
q8 13 14 28.5t10 30.5q2 16 4.5 30.5t2.5 28.5t-2.5 27.5t-5.5 29.5q-4 12 -10.5 24t-13.5 24q-7 0 -15 -14q-10 -13 -15 -34q-4 -13 -7 -23t-5 -20q-5 -14 -6 -23q0 -3 -1 -7.5t-1 -7.5q0 -1 -0.5 -1.5t-0.5 -1.5v-2l-1.5 -3t-0.5 -5q-2 -8 -2 -13l-5 -21q-1 -7 -2.5 -14.5
t-2.5 -15.5q-5 -16 -7 -44z" />
    <glyph glyph-name="chi" unicode="&#x3c7;" horiz-adv-x="1045" 
d="M240 176q-3 13 -5 25t-2 25l-4 24q0 7 -1 13t-2 13q0 1 -1 6l-2 10l-4 12l-3 11q-6 6 -6 9q-1 2 -2.5 3.5t-2.5 4.5q-4 1 -8.5 -0.5t-7.5 -7.5q-42 -51 -64 -18q-12 13 -7 33q1 19 18 40q6 9 15 16t21 16q20 13 48 13q38 0 62 -27q12 -16 17.5 -34.5t8.5 -41.5v-29v-5.5
t1 -6.5v-9t2 -9q4 5 8.5 10.5t10.5 12.5q6 5 10 11.5t11 12.5q10 12 18.5 24t17.5 27q7 10 13 19.5t15 20.5q7 10 15.5 16t20.5 6q6 0 18 -6q4 -5 9 -6q4 -6 11 -7l13 -17q2 -6 4 -11t2 -9q0 -8 -3 -13.5t-6 -12.5q-7 -11 -21 -25l-25 -23q-9 -5 -15.5 -11.5t-9.5 -10.5
q-9 -7 -15 -14t-13 -15l-28 -25q-13 -14 -24.5 -28t-20.5 -27q1 -9 2.5 -18t5.5 -19q2 -10 4.5 -19t6.5 -19q3 -8 6 -17t9 -16q5 -17 11 -18q15 -6 26 5q33 47 61 19l4.5 -13.5t3.5 -16.5q0 -10 -4 -21.5t-11 -22.5q-20 -24 -36 -36q-9 -6 -18.5 -10.5t-17.5 -4.5
q-12 -4 -23 4q-9 2 -15.5 5t-13.5 8q-9 4 -14.5 10t-11.5 15q-17 17 -22 34q-4 7 -7 15.5t-3 17.5q-3 7 -5 15t-4 18l-4 -5l-1 -1q-2 -1 -2.5 -2t-1.5 -1l-2 -4q-6 -7 -10.5 -13l-10.5 -14l-19 -23q-11 -16 -22.5 -27.5l-24.5 -24.5q-12 -13 -22.5 -17t-21.5 -4
q-8 0 -16.5 3t-15.5 12q-17 14 -11 36q0 18 16 34z" />
    <glyph glyph-name="psi" unicode="&#x3c8;" horiz-adv-x="1045" 
d="M159 73q0 -21 5 -31q3 -18 18 -24q22 49 34 107q5 26 10 55t12 60q1 10 3 23.5t6 26.5q0 24 11 49q3 15 8.5 25t15.5 18q15 13 41 7q13 -4 21 -11t14 -16q5 -23 0 -47q-6 -20 -12 -38.5t-12 -35.5q-10 -23 -16.5 -43t-12.5 -38l-11 -29l-4 -14t-4 -13q-6 -16 -10.5 -30.5
t-6.5 -28.5q-4 -9 -4.5 -15.5t-0.5 -8.5t-0.5 -2.5t-0.5 -2.5q-1 -1 -1 -3q11 5 31 20q8 5 14.5 11t14.5 14q10 10 16 22.5t13 27.5q5 13 8 29t6 36q1 20 4.5 39t10.5 39q13 39 28 66q3 6 6.5 12t8.5 11q5 7 10 12t11 12q6 4 12 8.5t14 9.5q6 3 14.5 5t16.5 4q7 0 12.5 -1
t9.5 -2l15 -11q1 -4 2.5 -8t1.5 -7q0 -6 -1.5 -8.5t-3.5 -5.5q-6 -7 -10 -10t-6 -5l-18 -10q-29 -17 -35 -114q-8 -64 -19 -102q-10 -25 -21.5 -44.5t-26.5 -38.5q-34 -37 -74 -56q-48 -20 -82 -25v-2l-2 -2v-1q-2 -7 -3 -13.5t-2 -14.5q-2 -6 -3.5 -9t-1.5 -6
q-1 -3 -2 -5.5t-1 -5.5q-6 -15 -12 -25.5t-16 -20.5q-22 -19 -50 -9q-17 1 -31 22q-14 17 -3 41q1 2 4 5l6 6l5 4q3 3 6 4q9 5 15 16q2 5 3 11t3 11q-44 14 -68 54q-24 37 -24 87q0 14 1 29.5t7 32.5q6 36 22 69q6 14 10 25t8 24q2 10 4 19t2 18q0 10 -4 17q-4 1 -6 7
q-1 3 -4 6q-9 5 -13 15q-6 4 -6 17q0 12 13 22q10 6 39 0q30 -10 45 -31q15 -24 17 -48q2 -15 0.5 -31.5t-3.5 -36.5q-3 -8 -5.5 -18.5t-5.5 -20.5q-2 -10 -5 -20l-6 -20q-8 -26 -12 -51q-7 -24 -7 -41z" />
    <glyph glyph-name="omega" unicode="&#x3c9;" horiz-adv-x="1045" 
d="M249 400q8 0 14.5 -2.5t11.5 -6.5q4 -6 7.5 -11.5t4.5 -10.5q0 -15 -15 -30q-7 -6 -16 -15.5t-21 -18.5q-11 -9 -18.5 -18t-14.5 -21q-8 -12 -13.5 -25t-9.5 -26q-11 -32 -12 -56q-3 -15 -3.5 -28.5t0.5 -26.5v-11.5t3 -11.5q0 -19 5 -31q1 -14 10 -26q8 -11 20 -11
q10 0 16.5 5t16.5 17q9 16 14 49q1 21 3.5 41t6.5 38q1 35 11 65q1 6 3.5 13t6.5 18q4 15 18 33q8 17 23 28q17 8 36 7q8 -2 16 -6.5t14 -13.5q5 -9 8.5 -18.5t3.5 -19.5q0 -12 -1.5 -21t-3.5 -19q-6 -23 -12 -39q-4 -11 -8.5 -20.5t-6.5 -19.5q-5 -8 -8 -18.5t-7 -19.5
q-5 -12 -9 -21.5t-6 -20.5q-5 -13 -6.5 -23t-1.5 -19q0 -15 7 -22q5 -11 22 -11q11 0 23 6t21 20q8 14 14.5 29t13.5 33q2 19 6 38t7 39q1 18 2.5 35t1.5 33q0 10 -1.5 19t-1.5 19l-8 33q-6 10 -6 27q-1 7 -1.5 12.5t-0.5 12.5q-2 13 2 22q0 8 6 14q50 44 89 -82
q1 -6 2.5 -11t2.5 -12t2.5 -14t5.5 -15q2 -16 3.5 -33t1.5 -35q0 -7 -0.5 -11t-0.5 -10v-19l-4 -18t-5 -17q-24 -92 -70 -139q-23 -26 -48 -37.5t-53 -11.5q-16 0 -30 3t-23 14q-24 13 -37 40q-14 -19 -36 -31q-13 -7 -26 -10.5t-30 -3.5q-14 0 -28 4.5t-24 12.5
q-23 13 -36 42q-8 13 -12 28t-6 29q-6 30 -6 61q0 77 29 149q14 33 37 63.5t58 54.5q9 5 16.5 9.5t15.5 7.5q12 5 25 5z" />
    <glyph glyph-name="uni0401" unicode="&#x401;" horiz-adv-x="1045" 
d="M238 691h517v-80h-432v-238h416v-82h-416v-267h440v-79h-525v746zM404 854q26 0 45 -19q16 -19 16 -45q0 -27 -16 -44q-19 -19 -45 -19q-22 0 -41 19q-20 18 -20 44q0 27 20 45q19 19 41 19zM588 854q23 0 42 -19q19 -18 19 -45q0 -25 -19 -44t-42 -19q-25 0 -44 19
q-19 18 -19 44q0 27 19 45q19 19 44 19z" />
    <glyph glyph-name="uni0410" unicode="&#x410;" horiz-adv-x="1045" 
d="M667 145h-344q-10 -24 -20.5 -49.5t-21.5 -50.5q-11 -27 -22 -53t-19 -49h-92l311 746h75l310 -746h-91zM360 226h274q-10 20 -18 42t-17 42q-9 22 -18 41.5t-16 40.5q-8 18 -16.5 39t-17.5 42q-5 11 -9 20.5t-9 21.5q-3 10 -8 20.5t-8 22.5z" />
    <glyph glyph-name="uni0411" unicode="&#x411;" horiz-adv-x="1045" 
d="M335 21h227q32 0 59 9t47 29q18 20 28.5 45.5t10.5 58.5q0 13 -2.5 26.5t-7.5 25.5q-7 12 -14.5 21t-18.5 19q-10 8 -21 14t-23 13q-28 7 -55 9h-230v-270zM748 607h-413v-236h220q25 0 48 -4t48 -11q40 -17 74 -42q16 -15 28.5 -32.5t21.5 -39.5q10 -20 14.5 -44.5
t5.5 -53.5q-2 -24 -8.5 -43t-14.5 -39q-22 -40 -52 -64q-33 -29 -77 -43q-24 -8 -50.5 -10.5t-54.5 -2.5h-291v745h501v-80z" />
    <glyph glyph-name="uni0412" unicode="&#x412;" horiz-adv-x="1045" 
d="M247 -57v746h300q38 0 82 -11q19 -5 36.5 -15t33.5 -20q30 -26 49 -59q17 -36 17 -84q0 -59 -16 -97q-9 -20 -22.5 -36.5t-31.5 -30.5q24 -16 43 -36t35 -41q13 -24 19 -52.5t3 -61.5q-1 -24 -6 -43.5t-15 -39.5q-20 -39 -51 -64q-33 -27 -79 -41q-24 -9 -51 -11.5
t-54 -2.5h-292zM335 22h227q32 0 59 9t47 29q18 20 28.5 45.5t10.5 58.5q0 13 -2.5 26.5t-7.5 25.5q-7 12 -14.5 21t-18.5 19q-10 8 -21 14t-23 13q-28 7 -55 9h-230v-270zM335 372h220q27 0 49.5 6.5t41.5 21.5q36 25 36 89q0 27 -9.5 49t-23.5 39q-19 14 -42 21.5t-51 9.5
h-221v-236z" />
    <glyph glyph-name="uni0413" unicode="&#x413;" horiz-adv-x="1045" 
d="M245 708h518v-80h-430v-684h-88v764z" />
    <glyph glyph-name="uni0414" unicode="&#x414;" horiz-adv-x="1045" 
d="M243 96q12 27 20.5 59.5t18.5 72.5q7 38 13.5 76.5t11.5 78.5q0 12 0.5 23t1.5 24l3 47q0 23 1 46t2 48q0 21 0.5 43t1.5 43v78h429v-639h69v-264h-87v183h-466v-183h-86v264h67zM657 96v558h-251q0 -12 -1 -24.5t-1 -25.5q0 -15 -0.5 -30t-0.5 -31l-3 -72l-4 -81
q-7 -88 -20.5 -161t-38.5 -133h320z" />
    <glyph glyph-name="uni0415" unicode="&#x415;" horiz-adv-x="1045" 
d="M238 687h517v-80h-432v-238h416v-80h-416v-268h440v-79h-525v745z" />
    <glyph glyph-name="uni0416" unicode="&#x416;" horiz-adv-x="1045" 
d="M452 708h88v-397q30 48 66 99q15 25 32.5 50t35.5 51l135 197h103l-241 -355l74 -102q17 -24 36 -50t39 -53q38 -54 75 -105t74 -99h-108l-243 329q-11 -15 -20 -29.5t-19 -27.5q-11 -16 -20.5 -29t-18.5 -29v-214h-88v216q-7 8 -12.5 15.5t-9.5 15.5q-7 7 -11.5 14
t-8.5 14q-5 7 -9.5 14t-11.5 14q-11 14 -22 32l-120 -168l-123 -167h-104l295 409q-29 43 -59.5 87t-59.5 92q-33 46 -63.5 89.5t-60.5 86.5h105l275 -397v397z" />
    <glyph glyph-name="uni0417" unicode="&#x417;" horiz-adv-x="1045" 
d="M321 161q2 -40 14 -69t35 -44q43 -35 125 -35q15 0 31 1.5t32 7.5q23 10 50 29q21 19 34 44t13 59q0 14 -2 24.5t-7 22.5q-11 21 -26 40q-9 6 -18.5 13.5t-17.5 12.5q-25 11 -43 15q-13 1 -24 2t-25 2h-69v87h34t32 1q25 0 49 6q35 9 66 41q23 26 28 74q0 31 -11 55
q-6 10 -13 20.5t-17 18.5q-20 14 -46 26q-14 5 -28 7t-26 2q-63 0 -100 -30q-38 -32 -42 -93h-86q6 103 69 154q61 55 163 55q20 0 42 -4.5t43 -11.5q21 -10 38.5 -20t34.5 -22q16 -16 28 -33t22 -35q16 -39 16 -87q-1 -52 -18 -91q-20 -43 -62 -72q21 -16 41 -34t35 -39
q29 -47 29 -108q-1 -51 -21 -95q-11 -23 -24 -40.5t-29 -30.5q-39 -33 -80 -44q-24 -10 -48 -14t-50 -4q-56 0 -100 17q-46 10 -82 43q-18 14 -31.5 32.5t-24.5 40.5q-22 41 -19 103h86z" />
    <glyph glyph-name="uni0418" unicode="&#x418;" horiz-adv-x="1045" 
d="M216 -57v746h86v-594l195 298l95 147q24 39 48.5 75.5t49.5 73.5h85v-746h-86v594l-98 -150q-24 -38 -47.5 -75t-48.5 -71l-194 -298h-85z" />
    <glyph glyph-name="uni0419" unicode="&#x419;" horiz-adv-x="1045" 
d="M210 -55v758h98v-578q48 72 94.5 143t95.5 146q46 73 92.5 144.5t95.5 144.5h95v-758h-98v580q-48 -73 -95 -145.5t-93 -144.5q-49 -75 -96.5 -146.5t-93.5 -143.5h-95zM684 851q-10 -35 -29 -68q-10 -15 -21 -28.5t-23 -23.5q-13 -13 -27 -21.5t-26 -14.5
q-16 -8 -32 -10.5t-31 -2.5q-35 0 -62 13q-31 14 -53 36q-13 10 -24 23.5t-20 28.5q-21 32 -30 68h84q17 -38 43 -61q14 -13 28.5 -19t33.5 -6q17 0 32 7q8 3 15.5 7.5t15.5 10.5l24 28q5 8 8.5 15.5t8.5 17.5h85z" />
    <glyph glyph-name="uni041A" unicode="&#x41a;" horiz-adv-x="1045" 
d="M294 -58h-86v745h86v-366l359 366h109l-280 -310l354 -435h-112l-306 373l-124 -111v-262z" />
    <glyph glyph-name="uni041B" unicode="&#x41b;" horiz-adv-x="1045" 
d="M384 627v-486q0 -45 -6 -81q-4 -18 -9.5 -35t-12.5 -30q-21 -27 -51 -44q-18 -8 -39 -13.5t-48 -5.5v90q13 0 22 2t18 6q7 2 11.5 6t10.5 9q3 5 6.5 12t6.5 17q0 8 1.5 16.5t2.5 20.5v596h475v-764h-88v684h-300z" />
    <glyph glyph-name="uni041C" unicode="&#x41c;" horiz-adv-x="1045" 
d="M744 -58v533l-206 -533h-84l-205 533v-533h-87v745h96l239 -616l238 616h96v-745h-87z" />
    <glyph glyph-name="uni041D" unicode="&#x41d;" horiz-adv-x="1045" 
d="M690 293h-387v-351h-87v745h87v-314h387v314h87v-745h-87v351z" />
    <glyph glyph-name="uni041E" unicode="&#x41e;" horiz-adv-x="1045" 
d="M492 710q39 0 75 -9.5t66 -24.5q58 -33 100 -88q19 -27 33.5 -58.5t26.5 -65.5q9 -36 14 -72.5t5 -74.5q0 -79 -18 -145q-11 -35 -26 -67t-35 -60q-21 -26 -46 -48t-54 -38q-30 -17 -66 -25.5t-75 -8.5q-42 0 -77.5 8t-65.5 25q-61 31 -100 87q-41 53 -59 126
q-12 33 -16 70t-4 76q0 38 4 75t16 73q10 34 24.5 65.5t35.5 58.5q20 28 45 49t56 39q30 15 64.5 24t76.5 9zM492 624q-60 0 -104 -27q-49 -30 -73 -70q-29 -42 -42 -97q-7 -30 -9.5 -58t-2.5 -55q0 -29 2.5 -55.5t9.5 -53.5q14 -57 43 -99q14 -22 32 -40t40 -30
q21 -15 47 -21t57 -6q59 0 103 27q41 24 72 71q29 43 42 99q13 53 13 108q0 26 -3 54.5t-10 57.5q-7 26 -17.5 49.5t-24.5 47.5q-30 44 -73 70q-22 13 -47.5 20.5t-54.5 7.5z" />
    <glyph glyph-name="uni041F" unicode="&#x41f;" horiz-adv-x="1045" 
d="M307 627v-684h-88v764h553v-764h-87v684h-378z" />
    <glyph glyph-name="uni0420" unicode="&#x420;" horiz-adv-x="1045" 
d="M225 687h303q28 0 52 -3.5t48 -10.5q41 -19 79 -48q16 -16 29 -34t23 -39q10 -24 15 -47.5t5 -51.5q0 -27 -5.5 -50.5t-15.5 -43.5q-10 -21 -24.5 -39t-29.5 -31q-36 -30 -80 -46q-23 -7 -46.5 -10.5t-49.5 -3.5h-214v-287h-89v745zM314 309h215q16 0 31.5 2t30.5 8
q16 4 28 10.5t24 15.5q19 18 35 45q11 28 11 63q0 38 -12 66t-32 48q-46 36 -116 40h-215v-298z" />
    <glyph glyph-name="uni0421" unicode="&#x421;" horiz-adv-x="1045" 
d="M812 190q-16 -58 -40 -106q-16 -24 -31 -44.5t-33 -38.5q-42 -36 -88 -54q-27 -11 -55.5 -15.5t-61.5 -4.5q-42 0 -76.5 8.5t-64.5 24.5q-59 30 -99 87q-41 53 -61 126q-11 34 -16 70t-5 76q0 37 5 74.5t16 72.5q10 34 24.5 65.5t35.5 58.5q18 28 44 49t56 39
q30 15 64.5 24t76.5 9q30 0 58.5 -6t55.5 -15q24 -11 46 -24.5t43 -32.5q19 -17 34.5 -37.5t31.5 -44.5q25 -51 42 -103h-91q-7 19 -14.5 34.5t-17.5 33.5q-10 16 -22 30t-25 27q-15 11 -30 20.5t-32 17.5q-19 6 -38.5 10t-40.5 4q-30 0 -56 -7.5t-47 -20.5
q-22 -13 -40.5 -31t-30.5 -39q-29 -44 -41 -97q-9 -30 -12.5 -57.5t-3.5 -53.5q0 -59 15 -111q10 -58 41 -99q12 -22 29.5 -40t42.5 -29q20 -15 46 -21t57 -6q21 0 40.5 2.5t38.5 10.5q31 14 61 38q13 14 24.5 27t20.5 30q10 16 17 33.5t13 35.5h94z" />
    <glyph glyph-name="uni0422" unicode="&#x422;" horiz-adv-x="1045" 
d="M452 617h-242v80h570v-80h-240v-674h-88v674z" />
    <glyph glyph-name="uni0423" unicode="&#x423;" horiz-adv-x="1045" 
d="M495 272l164 425h93l-254 -653l-10 -23l-10 -18q-6 -10 -11.5 -18t-12.5 -15q-8 -7 -16 -12t-17 -8q-11 -5 -23 -6t-25 -1h-46v80h52q10 0 21 12q3 4 6.5 9.5t5.5 13.5l37 93l-213 546h92z" />
    <glyph glyph-name="uni0424" unicode="&#x424;" horiz-adv-x="1045" 
d="M534 96q48 7 89 27q22 9 39.5 21t32.5 29q30 27 48 68q16 39 16 94q0 50 -16 94q-10 19 -21.5 37.5t-26.5 32.5q-29 29 -72 47q-20 10 -42 15.5t-47 11.5v-477zM457 573q-26 -6 -48 -11.5t-42 -15.5q-41 -19 -71 -49q-16 -13 -27.5 -32t-20.5 -36q-17 -42 -17 -94
q0 -55 17 -94q18 -42 48 -69q30 -30 71 -48q20 -10 42 -17t48 -11v477zM457 13q-35 2 -65.5 9.5t-59.5 22.5q-29 12 -53.5 29.5t-45.5 38.5t-38 45.5t-27 53.5q-24 55 -24 123q0 64 24 124q10 27 27 51.5t38 46.5q21 21 45.5 37t53.5 31q59 26 125 30v71h77v-71q32 -2 63 -9
t60 -20q28 -15 54 -31t46 -38q43 -45 66 -98q13 -29 18.5 -60t5.5 -64q0 -66 -24 -124t-65 -99q-42 -45 -100 -69q-28 -15 -59.5 -22t-64.5 -8v-69h-77v69z" />
    <glyph glyph-name="uni0425" unicode="&#x425;" horiz-adv-x="1045" 
d="M495 252l-220 -310h-101l269 385l-252 360h102l201 -290l204 290h101l-255 -360l270 -385h-101z" />
    <glyph glyph-name="uni0426" unicode="&#x426;" horiz-adv-x="1045" 
d="M317 20h363v666h87v-667h71v-189h-89v111h-520v745h88v-666z" />
    <glyph glyph-name="uni0427" unicode="&#x427;" horiz-adv-x="1045" 
d="M788 -57h-87v302q-43 -40 -100 -60q-59 -24 -123 -19q-43 0 -88 17q-51 14 -88 45q-43 27 -67 72q-27 39 -27 99v308h86v-272q0 -50 18 -81q14 -36 45 -55q11 -12 27.5 -19.5t34.5 -12.5t36.5 -8.5t39.5 -3.5q31 -5 67 10q19 7 36 16t31 21q16 10 27 23.5t24 29.5
q8 16 14 30.5t7 34.5v287h87v-764z" />
    <glyph glyph-name="uni0428" unicode="&#x428;" horiz-adv-x="1045" 
d="M743 22v685h87v-764h-669v764h87v-685h204v685h88v-685h203z" />
    <glyph glyph-name="uni0429" unicode="&#x429;" horiz-adv-x="1045" 
d="M163 -59v764h88v-685h203v685h89v-685h203v685h87v-685h71v-198h-89v119h-652z" />
    <glyph glyph-name="uni042A" unicode="&#x42a;" horiz-adv-x="1045" 
d="M402 339v-317h207q32 -4 63 13q28 10 51 36q10 11 18.5 23t15.5 28q13 29 13 59q0 15 -3.5 30t-9.5 30q-7 15 -15.5 27.5t-18.5 24.5q-12 11 -24.5 20t-26.5 17q-30 9 -63 9h-207zM314 627h-194v80h282v-286h207q50 0 99 -19q22 -8 42 -20.5t38 -27.5q16 -18 29.5 -37
t23.5 -40q9 -24 14 -47.5t5 -48.5q0 -53 -19 -97q-10 -24 -23.5 -42t-29.5 -33q-38 -33 -80 -49q-51 -17 -99 -17h-295v684z" />
    <glyph glyph-name="uni042B" unicode="&#x42b;" horiz-adv-x="1045" 
d="M230 22h229q32 0 58 9t46 29q41 38 41 104q0 13 -3 26.5t-10 25.5q-5 13 -13.5 22t-17.5 19q-11 9 -22.5 15t-23.5 13q-27 7 -53 7h-231v-270zM230 372h221q42 0 89 -16q21 -9 42 -19t39 -26q17 -15 30.5 -32.5t26.5 -37.5q8 -23 12 -46.5t1 -49.5q-6 -43 -23 -82
q-11 -18 -23 -34t-28 -30q-18 -13 -37.5 -24t-40.5 -18q-24 -9 -50.5 -11.5t-53.5 -2.5h-292v746h87v-317zM742 689h87v-746h-87v746z" />
    <glyph glyph-name="uni042C" unicode="&#x42c;" horiz-adv-x="1045" 
d="M317 22h228q33 0 59 9t48 29q38 38 38 104q0 29 -10 52q-7 12 -15 21t-16 19q-13 8 -23.5 14t-22.5 13q-28 7 -54 9h-232v-270zM317 372h221q24 0 47.5 -4t47.5 -10q21 -9 40.5 -19t36.5 -24q16 -15 28.5 -32t21.5 -39q19 -39 19 -99q0 -45 -19 -82q-17 -39 -51 -64
q-18 -13 -37 -24t-44 -18q-24 -9 -51 -11.5t-56 -2.5h-292v746h88v-317z" />
    <glyph glyph-name="uni042D" unicode="&#x42d;" horiz-adv-x="1045" 
d="M351 276v83h378q-3 52 -18 102q-7 24 -18.5 45t-24.5 39q-15 18 -32.5 31.5t-37.5 27.5q-21 10 -46 15.5t-52 5.5q-18 0 -34 -2t-33 -7q-17 -6 -32 -12t-28 -15q-29 -17 -47 -45q-21 -25 -29 -62h-95q37 109 111 171q72 60 186 60q42 0 77 -8.5t65 -23.5q60 -35 100 -89
q17 -28 32.5 -59.5t25.5 -66.5q18 -71 18 -147q0 -79 -18 -146q-10 -37 -25.5 -68t-32.5 -58q-22 -28 -46 -50t-53 -38q-59 -34 -142 -34q-117 0 -193 60q-81 55 -115 168h98q18 -69 77 -104q54 -36 132 -36q27 0 50 4.5t44 17.5q19 10 37 25.5t32 33.5t26 38.5t20 45.5
q8 24 13 47.5t8 50.5h-378z" />
    <glyph glyph-name="uni042E" unicode="&#x42e;" horiz-adv-x="1045" 
d="M580 621q-57 0 -94 -29q-22 -14 -37 -33t-26 -39q-12 -25 -21 -49t-13 -49q-6 -29 -8.5 -56t-2.5 -52q0 -26 2.5 -52.5t8.5 -53.5q4 -28 13 -53t21 -46q11 -24 26 -42t37 -31q18 -16 41.5 -21.5t52.5 -5.5q54 0 94 29q38 24 63 73q12 21 20 46t15 52q5 27 7.5 53t2.5 52
q0 25 -2.5 52.5t-7.5 55.5q-6 25 -14.5 49.5t-19.5 49.5q-13 20 -28.5 37.5t-34.5 33.5q-41 29 -95 29zM211 355h78q0 67 22 130q18 63 55 111q18 25 41 44.5t50 35.5q52 30 123 30q38 0 71 -9.5t61 -23.5q55 -38 91 -90q34 -60 51 -128q8 -36 12.5 -71t4.5 -70
q0 -36 -4.5 -70.5t-12.5 -69.5q-17 -71 -51 -125q-37 -60 -91 -91q-56 -35 -132 -35q-72 0 -124 30t-90 80q-18 23 -32.5 51.5t-22.5 60.5q-10 31 -15.5 63.5t-6.5 65.5h-78v-332h-87v745h87v-332z" />
    <glyph glyph-name="uni042F" unicode="&#x42f;" horiz-adv-x="1045" 
d="M338 255q-37 9 -60 31q-27 17 -46 47q-10 12 -17 27.5t-12 33.5q-5 15 -7.5 33.5t-2.5 36.5q0 50 19 92q10 21 22 38.5t30 33.5q14 14 33.5 25.5t43.5 21.5q45 14 96 14h311v-745h-90v296h-228l-195 -296h-101zM658 319v289h-217q-17 -2 -32.5 -4t-28.5 -6
q-16 -5 -28.5 -10t-21.5 -14q-13 -10 -20 -21.5t-13 -22.5q-13 -30 -13 -66q0 -37 14 -63q12 -26 33 -45q19 -19 50 -25q13 -7 28 -9.5t32 -2.5h217z" />
    <glyph glyph-name="uni0430" unicode="&#x430;" horiz-adv-x="1045" 
d="M738 42v-13t2 -13q0 -14 5 -29q1 -9 2.5 -15t2.5 -13q0 -4 2 -12q1 -5 3 -7h-86q-7 12 -10.5 26.5t-5.5 29.5q-22 -15 -42.5 -28.5t-46.5 -22.5q-53 -23 -99 -24q-37 -5 -73 4q-19 4 -36 11.5t-32 15.5q-33 19 -52 47q-21 28 -21 70q-3 27 1.5 51t17.5 42q9 18 24.5 32
t34.5 26q19 11 39.5 19t43.5 13q21 4 44 8.5t47 8.5q5 0 9.5 0.5t9.5 1.5q5 0 11.5 0.5t13.5 1.5q12 1 23.5 4t22.5 7q22 4 39 17q7 4 12 11t5 18q0 21 -14 44q-6 9 -14.5 17.5t-16.5 14.5q-12 7 -23 12.5t-22 8.5q-27 7 -49 7q-32 0 -54 -7q-30 -11 -48 -25
q-21 -15 -31 -40q-13 -27 -10 -59h-87q-6 49 16 92q18 40 52 68q15 13 35 22.5t41 18.5q44 14 86 14q41 0 83 -13q21 -8 39 -16.5t35 -21.5q31 -26 51 -63q9 -17 14.5 -38.5t5.5 -44.5v-279zM649 215q-28 -11 -63 -17q-20 -4 -38.5 -6.5t-33.5 -3.5l-27 -5q-8 -1 -15 -2
t-13 -1q-16 -3 -31 -6.5t-27 -9.5q-15 -7 -25.5 -14t-17.5 -17q-20 -23 -20 -53q0 -41 38 -59q39 -20 94 -16q20 0 53 11q16 4 29.5 11.5t29.5 16.5q28 17 47 39q20 22 20 49v83z" />
    <glyph glyph-name="uni0431" unicode="&#x431;" horiz-adv-x="1045" 
d="M495 436q-42 0 -71 -19q-16 -12 -28.5 -23.5t-23.5 -26.5q-21 -32 -30 -68q-6 -21 -8 -39.5t-2 -36.5q0 -21 2 -38.5t7 -36.5q5 -21 13 -37t17 -30q20 -33 52 -50q29 -19 72 -19q39 0 70 19q31 18 50 51q10 14 18 30t15 37q4 19 6.5 37.5t2.5 36.5t-2.5 36.5t-6.5 39.5
q-14 36 -33 69q-10 16 -22 27t-28 22q-31 19 -70 19zM352 610q31 27 70 42t87 15q1 0 3 -0.5t6 -0.5h10q5 -1 10.5 -1.5t11.5 -0.5q6 -1 10 -1h10q3 -1 20 -1q11 0 21 2.5t21 9.5q18 6 29 44h88q-14 -48 -27 -75q-18 -32 -53 -50q-14 -8 -29.5 -12t-30.5 -7
q-19 -3 -34.5 -4.5t-27.5 2.5q-15 1 -27.5 2t-24.5 1q-29 -5 -51 -12q-13 -6 -23.5 -12.5t-19.5 -15.5q-11 -9 -18.5 -22t-14.5 -27q14 7 29 13.5t32 12.5q15 3 30.5 6t35.5 3q57 0 107 -27q21 -11 40.5 -28t38.5 -36q15 -22 25.5 -46t20.5 -50q17 -57 17 -111
q0 -29 -4.5 -55.5t-12.5 -53.5q-10 -27 -20.5 -51t-25.5 -44q-17 -20 -36.5 -37t-42.5 -30q-50 -25 -107 -25q-64 0 -109 25q-47 25 -77 67q-35 42 -47 95q-10 27 -13 53.5t-3 55.5v50t1 54q0 54 13 105q4 25 11.5 49t20.5 49q20 44 60 80z" />
    <glyph glyph-name="uni0432" unicode="&#x432;" horiz-adv-x="1045" 
d="M280 -59v570h219q16 0 31.5 -3t30.5 -7q16 -7 30.5 -12.5t26.5 -15.5q12 -9 22.5 -20t17.5 -22q17 -29 22 -58q6 -81 -55 -133q34 -21 57 -56q20 -37 20 -83q-5 -38 -18 -65q-20 -32 -42 -50q-15 -12 -30 -20t-30 -14q-19 -6 -38 -8.5t-37 -2.5h-227zM367 275h116
q11 -1 20.5 0t20.5 5q21 2 35 13q16 11 26 24q8 16 8 33q0 38 -30 61q-31 20 -80 20h-116v-156zM367 20h116q27 0 51 5t41 17q18 8 27 25.5t10 41.5q0 19 -9 36q-7 6 -13.5 14t-16.5 14q-17 10 -42 18q-12 2 -23 2.5t-22 0.5h-119v-174z" />
    <glyph glyph-name="uni0433" unicode="&#x433;" horiz-adv-x="1045" 
d="M298 511h395v-80h-309v-490h-86v570z" />
    <glyph glyph-name="uni0434" unicode="&#x434;" horiz-adv-x="1045" 
d="M314 173q9 22 15.5 47.5t11.5 55.5q5 28 8 57.5t7 59.5q1 30 2.5 59.5t2.5 59.5v113h322v-452h54v-230h-88v149h-306v-149h-87v230h58zM597 173v371h-150q0 -10 -0.5 -21t-0.5 -24v-45q-4 -46 -6 -96l-11 -95q-6 -23 -11.5 -46.5t-11.5 -43.5h191z" />
    <glyph glyph-name="uni0435" unicode="&#x435;" horiz-adv-x="1045" 
d="M495 528q61 0 113 -28q48 -30 82 -73q32 -48 49 -102q8 -30 9.5 -58t-0.5 -58h-416q-2 -41 11 -70q7 -19 15 -35t21 -28q10 -16 23 -26t29 -18q30 -18 64 -18q30 0 54.5 7.5t42.5 25.5q19 15 31 35.5t21 44.5h95q-10 -23 -19.5 -43.5t-18.5 -38.5q-14 -18 -26 -34
t-25 -28q-31 -28 -68 -39q-22 -9 -42 -12t-45 -2q-65 0 -108 27q-49 25 -79 67q-36 41 -48 95q-10 26 -13.5 53.5t-3.5 57.5q0 27 4 55t14 55q13 55 48 96q15 21 35 37t44 30q43 25 107 25zM655 287q-2 16 -7.5 31t-12.5 30q-8 13 -16 25.5t-17 25.5q-12 9 -24 17.5
t-24 15.5q-29 12 -59 12q-34 0 -58 -12q-29 -14 -48 -33q-12 -13 -19.5 -25.5t-13.5 -25.5q-17 -29 -19 -61h318z" />
    <glyph glyph-name="uni0436" unicode="&#x436;" horiz-adv-x="1045" 
d="M452 -60v190q-18 16 -28 31l-13 14q-4 4 -7.5 8t-5.5 9q-25 -32 -49.5 -63.5t-47.5 -63.5q-26 -32 -50 -64t-48 -61h-108l245 315q-12 15 -25.5 30t-26.5 32q-32 31 -57 66l-30 32t-27 33q-16 16 -28 31t-25 31h112l219 -247v247h88v-250l110 125q26 30 53 61t55 64h111
l-217 -255q14 -20 28.5 -39t30.5 -38q15 -21 30 -41.5t33 -38.5q16 -20 31 -41t33 -41q14 -20 29 -39.5t31 -36.5h-110l-195 252l-27 -31l-13 -16l-13 -15v-190h-88z" />
    <glyph glyph-name="uni0437" unicode="&#x437;" horiz-adv-x="1045" 
d="M380 143q0 -31 8 -54t23 -40q25 -36 87 -36q24 0 42.5 5.5t34.5 20.5q15 11 22.5 29t10.5 42q0 10 -2.5 20.5t-6.5 18.5q-6 7 -12 14.5t-14 12.5q-9 5 -17.5 10t-18.5 7q-23 6 -46 6h-54l1 88h49q18 0 36.5 4t34.5 14q26 18 32 67q0 34 -26 60q-31 23 -69 23
q-48 0 -69 -26q-26 -31 -26 -79h-86q0 82 49 137q50 50 135 50q32 0 67 -11q16 -7 30 -16t26 -18q25 -24 39 -53q14 -34 14 -67q-2 -24 -5 -43.5t-10 -31.5q-6 -13 -17 -25.5t-27 -26.5q19 -10 32 -25l26 -30q20 -38 20 -82q-2 -44 -15 -75q-10 -18 -21 -32.5t-22 -25.5
q-26 -22 -63 -34q-33 -13 -77 -13q-24 0 -44 3.5t-38 13.5q-38 12 -65 42q-31 25 -42 67q-9 20 -11.5 42t-1.5 47h87z" />
    <glyph glyph-name="uni0438" unicode="&#x438;" horiz-adv-x="1045" 
d="M362 -59h-80v570h86v-403l261 403h79v-570h-87v401z" />
    <glyph glyph-name="uni0439" unicode="&#x439;" horiz-adv-x="1045" 
d="M675 657q-6 -18 -12.5 -34t-16.5 -31q-10 -14 -20 -27t-21 -24q-13 -11 -26 -18.5t-25 -14.5q-16 -6 -30 -9.5t-29 -3.5q-33 0 -58 13q-15 7 -27 14.5t-24 18.5q-13 11 -22 24t-19 27q-9 15 -17.5 31t-12.5 34h81q6 -18 16.5 -31.5t24.5 -25.5q24 -24 58 -24q32 0 60 25
q22 22 39 56h81zM362 -58h-80v570h86v-403l261 403h79v-570h-87v402z" />
    <glyph glyph-name="uni043A" unicode="&#x43a;" horiz-adv-x="1045" 
d="M369 112v-171h-88v570h88v-279l264 279h110l-245 -264l269 -306h-110l-221 241z" />
    <glyph glyph-name="uni043B" unicode="&#x43b;" horiz-adv-x="1045" 
d="M423 431v-342q0 -40 -6 -65q-5 -15 -10.5 -26.5t-12.5 -22.5q-20 -23 -44 -30q-15 -5 -32.5 -8.5t-39.5 -3.5v82q34 0 45 18q11 11 13 43v435h356v-570h-87v490h-182z" />
    <glyph glyph-name="uni043C" unicode="&#x43c;" horiz-adv-x="1045" 
d="M666 511h77v-570h-86v315l-135 -315h-54l-135 315v-315h-85v570h76l171 -420z" />
    <glyph glyph-name="uni043D" unicode="&#x43d;" horiz-adv-x="1045" 
d="M617 198h-244v-258h-86v570h86v-231h244v231h87v-570h-87v258z" />
    <glyph glyph-name="uni043E" unicode="&#x43e;" horiz-adv-x="1045" 
d="M495 526q61 0 108 -25q23 -14 42 -30.5t37 -37.5q31 -44 48 -96q8 -27 13 -55t5 -54q0 -30 -5 -56.5t-13 -53.5q-17 -54 -48 -97q-18 -21 -37 -37.5t-42 -29.5q-24 -14 -51.5 -20t-56.5 -6q-33 0 -59.5 6t-50.5 20q-47 24 -78 67q-35 39 -48 96q-10 27 -13.5 54t-3.5 57
q0 27 3.5 55t13.5 56q13 55 48 96q30 40 78 66q24 13 50.5 19t59.5 6zM495 442q-22 0 -39.5 -5t-32.5 -13q-16 -12 -29 -24t-23 -28q-9 -16 -17 -33.5t-13 -35.5q-10 -40 -10 -75q0 -21 2 -39.5t7 -38.5t13.5 -36.5t17.5 -31.5q19 -31 52 -50q29 -19 72 -19q18 0 36.5 4
t33.5 16q16 9 28.5 21.5t23.5 27.5q9 16 17 32t15 36q4 20 6 38.5t2 39.5q0 17 -2 36t-6 40q-7 18 -15 35t-17 34q-22 30 -52 51q-15 8 -33.5 13t-36.5 5z" />
    <glyph glyph-name="uni043F" unicode="&#x43f;" horiz-adv-x="1045" 
d="M371 431v-490h-87v570h421v-570h-87v490h-247z" />
    <glyph glyph-name="uni0440" unicode="&#x440;" horiz-adv-x="1045" 
d="M504 -59q-24 0 -47 3.5t-44 15.5q-20 9 -38 22t-35 29v-179h-86v689h86v-55q17 16 35 28.5t38 23.5q42 19 91 19q60 0 107 -24q21 -16 39.5 -32t34.5 -37q14 -21 25 -45t19 -51q7 -27 11 -55t4 -53q0 -58 -16 -109q-8 -26 -19 -50t-25 -45q-29 -44 -74 -70
q-23 -14 -49.5 -19.5t-56.5 -5.5zM498 455q-22 0 -38 -5.5t-30 -14.5q-17 -11 -29 -23.5t-21 -27.5q-12 -17 -18 -34t-11 -37q-7 -21 -9 -38.5t-2 -34.5q0 -21 2 -40t8 -37q5 -20 11 -37t17 -32q20 -34 50 -50q27 -21 70 -21q18 0 36.5 5t32.5 16q16 8 27.5 21.5t22.5 28.5
q18 30 28 69q5 18 7 37t2 40q0 17 -2 34.5t-7 38.5q-11 38 -30 71q-23 31 -49 51q-14 9 -32 14.5t-36 5.5z" />
    <glyph glyph-name="uni0441" unicode="&#x441;" horiz-adv-x="1045" 
d="M749 135q-15 -49 -36 -86t-51 -64q-29 -30 -67.5 -43.5t-89.5 -13.5q-32 0 -58.5 6.5t-49.5 18.5q-50 26 -81 67q-17 20 -28.5 44.5t-18.5 52.5q-9 27 -13 54t-4 57q0 27 4 55t13 56q14 57 47 96q30 40 81 66q46 25 108 25q46 0 87 -16q20 -11 38 -21.5t34 -25.5
q30 -29 53 -68q10 -21 17.5 -41.5t13.5 -44.5h-92q-4 14 -9.5 27t-11.5 26q-7 13 -15 23t-16 18q-21 18 -44 29q-12 4 -25.5 7t-29.5 3q-42 0 -73 -18q-15 -10 -28 -22t-22 -27q-22 -34 -31 -70q-7 -19 -9.5 -39.5t-2.5 -37.5q0 -21 2 -40t9 -39q5 -20 12 -36.5t19 -30.5
q9 -17 22 -29t28 -21q31 -19 74 -19q55 0 95 34q18 15 32.5 38t23.5 50h93z" />
    <glyph glyph-name="uni0442" unicode="&#x442;" horiz-adv-x="1045" 
d="M452 431h-180v80h446v-80h-178v-490h-88v490z" />
    <glyph glyph-name="uni0443" unicode="&#x443;" horiz-adv-x="1045" 
d="M497 150l165 421h94l-256 -647l-18 -36q-7 -11 -13 -19t-11 -14q-8 -6 -17 -11.5t-18 -9.5q-24 -8 -47 -8h-47v77h53q8 0 19 12q4 6 6.5 11.5t4.5 14.5l10 22q3 6 5 12.5t4 12.5q4 10 8.5 22t10.5 25l-213 536h94z" />
    <glyph glyph-name="uni0444" unicode="&#x444;" horiz-adv-x="1045" 
d="M314 518q-39 0 -64 -19q-14 -11 -24.5 -22.5t-18.5 -27.5q-20 -32 -27 -66q-4 -18 -5.5 -36.5t-1.5 -35.5q0 -36 7 -70q8 -38 26 -66q16 -31 43 -49q23 -19 65 -19q38 0 64 19q24 19 42 49q15 28 23 66q4 18 6 35t2 35q0 29 -8 72q-4 17 -9.5 34t-13.5 32
q-9 16 -19.5 27.5t-22.5 22.5q-28 19 -64 19zM677 518q-40 0 -65 -19q-14 -11 -24 -22.5t-18 -27.5q-16 -27 -22 -66q-4 -18 -5.5 -36.5t-1.5 -35.5q0 -36 7 -70q6 -40 22 -66q15 -29 42 -49q23 -19 65 -19q37 0 65 19q25 19 43 49q10 15 15 31t11 35q2 18 4.5 35t2.5 35
q0 17 -2.5 35.5t-4.5 36.5q-6 17 -11 34t-15 32q-9 16 -20 27.5t-23 22.5q-29 19 -65 19zM452 802h88v-265q24 27 60 46q15 6 35.5 10t41.5 4q27 0 52 -6.5t46 -17.5q21 -15 38 -31t32 -36q13 -20 24 -44t19 -48q6 -26 10 -52t4 -51t-4 -50t-10 -51q-8 -26 -19 -48.5
t-24 -43.5q-29 -41 -71 -67q-21 -14 -45.5 -20t-51.5 -6q-21 0 -40.5 4t-34.5 13q-18 7 -33.5 18.5t-28.5 25.5v-252h-88v248q-31 -30 -64 -41q-33 -16 -74 -16q-26 0 -49.5 6.5t-45.5 20.5q-42 28 -71 70q-15 21 -26 44t-17 49q-10 26 -13.5 49.5t-3.5 46.5q0 27 3.5 53
t14.5 53q13 52 43 91q29 37 71 66q41 23 94 23q20 0 38 -4t37 -9q16 -10 31 -20.5t32 -23.5v262z" />
    <glyph glyph-name="uni0445" unicode="&#x445;" horiz-adv-x="1045" 
d="M495 154l-160 -213h-107l213 287l-203 272h105l152 -203l153 203h105l-205 -274l215 -285h-108z" />
    <glyph glyph-name="uni0446" unicode="&#x446;" horiz-adv-x="1045" 
d="M380 19h237v491h87v-492h63v-169h-89v89h-387v572h89v-491z" />
    <glyph glyph-name="uni0447" unicode="&#x447;" horiz-adv-x="1045" 
d="M718 -59h-88v198q-31 -25 -70 -39q-20 -8 -42.5 -12t-48.5 -2q-17 0 -36 4t-33 13q-19 6 -34.5 15.5t-27.5 24.5q-30 26 -44 61q-17 34 -17 78v229h89v-211q0 -18 1.5 -34t8.5 -26q4 -14 11.5 -24t16.5 -18q9 -7 19.5 -12.5t24.5 -8.5q12 -4 25.5 -5t28.5 -1
q10 0 20.5 1.5t22.5 7.5q10 4 21 10t22 16q18 15 29 35q11 19 13 41v229h88v-570z" />
    <glyph glyph-name="uni0448" unicode="&#x448;" horiz-adv-x="1045" 
d="M657 19v491h89v-570h-500v570h86v-491h119v491h89v-491h117z" />
    <glyph glyph-name="uni0449" unicode="&#x449;" horiz-adv-x="1045" 
d="M271 -62v570h88v-489h118v489h87v-489h120v489h88v-489h52v-169h-87v88h-466z" />
    <glyph glyph-name="uni044A" unicode="&#x44a;" horiz-adv-x="1045" 
d="M430 20h129q24 0 51 8q24 4 43 17q7 6 14.5 14t13.5 21q4 8 7 21t3 28t-3 26.5t-7 22.5q-7 10 -14.5 18t-14.5 15q-11 7 -21.5 11t-21.5 8q-13 3 -25.5 4.5t-24.5 2.5h-129v-217zM340 -59v490h-139v80h229v-195h133q23 0 44.5 -3.5t43.5 -10.5q17 -10 35 -20t32 -23
q15 -16 25.5 -31.5t19.5 -33.5q15 -41 15 -80q-3 -21 -7 -38.5t-14 -32.5q-16 -32 -47 -55q-15 -13 -31.5 -21t-33.5 -14q-19 -7 -37 -9.5t-38 -2.5h-230z" />
    <glyph glyph-name="uni044B" unicode="&#x44b;" horiz-adv-x="1045" 
d="M288 20h115q15 0 29.5 2t27.5 8q12 3 22 9t18 13q18 15 25 36q4 9 6.5 18.5t2.5 22.5q0 21 -11 45q-6 9 -12.5 17.5t-15.5 17.5l-42 22q-23 6 -49 6h-116v-217zM288 511v-195h120q42 0 87 -14q18 -8 34.5 -19t32.5 -24q15 -16 25.5 -31.5t20.5 -33.5q13 -36 13 -80
q-1 -42 -19 -71q-10 -18 -22.5 -31.5t-23.5 -23.5q-16 -13 -31.5 -21t-33.5 -14q-19 -7 -38 -9.5t-37 -2.5h-214v570h86zM681 511h86v-570h-86v570z" />
    <glyph glyph-name="uni044C" unicode="&#x44c;" horiz-adv-x="1045" 
d="M368 20h136q60 0 97 32q33 31 33 77q0 13 -3 23.5t-8 21.5q-6 9 -12 16.5t-17 17.5l-40 22q-12 3 -24 5t-25 2h-137v-217zM368 511v-195h142q23 0 45 -3.5t43 -9.5q36 -16 69 -41q14 -16 25 -31t18 -34t10 -40t3 -43q-2 -21 -6.5 -39.5t-12.5 -33.5q-17 -35 -47 -55
q-29 -24 -65 -34q-18 -6 -37.5 -8.5t-37.5 -2.5h-237v570h88z" />
    <glyph glyph-name="uni044D" unicode="&#x44d;" horiz-adv-x="1045" 
d="M457 192v80h196q-2 18 -6.5 35.5t-9.5 33.5q-6 16 -14.5 30.5t-17.5 28.5q-23 24 -47 40q-33 15 -68 15q-28 0 -52 -11q-12 -7 -23 -13.5t-21 -15.5q-25 -19 -35 -42q-17 -24 -25 -52h-92q6 23 16 45t22 43q13 19 25 36t31 32q16 13 32.5 24.5t38.5 20.5q18 7 37.5 10.5
t44.5 3.5q63 0 111 -24q23 -16 41.5 -32t38.5 -37q15 -20 26 -45t21 -53q17 -56 17 -112q0 -60 -17 -114q-10 -29 -21.5 -53.5t-25.5 -44.5q-20 -21 -38.5 -37.5t-41.5 -29.5q-24 -14 -52 -20t-59 -6q-46 0 -84 13.5t-69 45.5q-65 54 -93 157h98q4 -16 8.5 -29t12.5 -24
q5 -12 13.5 -22.5t18.5 -18.5q18 -17 43 -25q22 -9 51 -9q18 0 35 3t33 12q25 12 49 37q9 12 17.5 24.5t14.5 30.5q10 29 16 69h-196z" />
    <glyph glyph-name="uni044E" unicode="&#x44e;" horiz-adv-x="1045" 
d="M584 439q-42 0 -72 -18q-15 -13 -28.5 -24t-22.5 -27q-24 -33 -31 -69q-6 -21 -8.5 -40.5t-2.5 -36.5q0 -20 2.5 -39.5t8.5 -38.5q4 -19 12.5 -35.5t18.5 -30.5q9 -17 22.5 -29.5t28.5 -21.5q28 -19 72 -19q19 0 37 4t34 16q29 17 51 51q10 14 17.5 30t14.5 37
q4 19 7 37.5t3 38.5q0 17 -3 36.5t-7 40.5q-7 19 -14.5 36t-17.5 33q-23 30 -51 51q-32 18 -71 18zM267 271h66q3 24 8.5 48t16.5 49q8 21 20.5 42t29.5 38q16 16 34.5 30t41.5 25q21 10 47 15.5t53 5.5q58 0 108 -27q24 -12 43 -29t37 -37q16 -22 27.5 -46t19.5 -50
q17 -56 17 -111q0 -29 -4.5 -55.5t-12.5 -54.5q-17 -53 -47 -95q-18 -22 -37 -38.5t-43 -29.5q-24 -14 -51.5 -20.5t-56.5 -6.5q-27 0 -53 5.5t-47 17.5q-23 10 -41.5 25t-34.5 33q-35 38 -51 86q-20 45 -25 99h-65v-249h-89v570h89v-240z" />
    <glyph glyph-name="uni044F" unicode="&#x44f;" horiz-adv-x="1045" 
d="M376 177q-50 19 -76 64q-16 17 -22.5 41.5t-6.5 53.5q0 40 16 72q13 30 41 55q11 10 26.5 19.5t34.5 13.5q32 14 73 15h219v-570h-88v221h-131l-141 -221h-98zM593 241v190h-110q-60 0 -92 -23q-18 -12 -24.5 -30t-6.5 -42q0 -16 1.5 -26.5t6.5 -19.5q4 -8 11 -16t18 -11
q13 -14 38 -16q19 -6 48 -6h110z" />
    <glyph glyph-name="uni0451" unicode="&#x451;" horiz-adv-x="1045" 
d="M404 678q22 0 44 -20q17 -20 17 -44q0 -15 -4 -24.5t-13 -19.5q-19 -19 -44 -19q-26 0 -42 19q-9 10 -14 19.5t-5 24.5q0 25 19 44q17 20 42 20zM588 678q22 0 42 -20q19 -19 19 -44q0 -15 -5 -24.5t-14 -19.5q-18 -19 -42 -19q-26 0 -44 19q-19 16 -19 44q0 25 19 44
q20 20 44 20zM495 537q62 0 113 -25q50 -29 83 -73q15 -24 28 -50t23 -56q7 -29 9.5 -61t1.5 -66h-415q0 -17 2 -34t9 -31q12 -36 32 -59q20 -29 50 -42q28 -17 64 -17q61 0 95 33q35 33 51 82h104q-9 -25 -18.5 -46.5t-19.5 -40.5q-12 -20 -25 -37.5t-28 -28.5
q-30 -29 -69 -42q-22 -9 -43.5 -12.5t-46.5 -2.5q-32 0 -58.5 6.5t-50.5 20.5q-48 24 -81 69q-18 21 -29.5 45.5t-21.5 52.5q-9 27 -12.5 54.5t-3.5 57.5q0 28 3.5 56t12.5 55q10 28 21.5 53t29.5 46q14 21 35.5 37t44.5 32q24 12 50.5 18t59.5 6zM650 297q-4 15 -8.5 28.5
t-10.5 29.5q-8 12 -15.5 23t-17.5 22q-11 10 -22.5 18t-23.5 14q-15 5 -28.5 8t-28.5 3q-29 0 -54 -11q-14 -6 -25.5 -14.5t-21.5 -17.5q-23 -22 -33 -46q-18 -28 -20 -57h309z" />
    <glyph glyph-name="uni2015" unicode="&#x2015;" horiz-adv-x="1045" 
d="M956 358v-81h-923v81h923z" />
    <glyph glyph-name="quoteleft" unicode="&#x2018;" horiz-adv-x="226" 
d="M154 736q-19 -9 -29 -25q-6 -11 -10.5 -19t-5.5 -12q15 2 26.5 -1t22.5 -9q18 -20 18 -48q0 -15 -4.5 -24t-11.5 -14q-19 -17 -42 -17q-26 -5 -45 18q-23 17 -23 62q0 36 25 76q14 19 32.5 35.5t46.5 30.5v-53z" />
    <glyph glyph-name="quoteright" unicode="&#x2019;" horiz-adv-x="224" 
d="M73 601q16 6 30 26q5 7 7.5 15t6.5 15q-32 -5 -48 11q-19 13 -19 48q0 26 17 38q7 7 18 10t23 6q23 0 46 -19q10 -11 15 -25.5t5 -35.5q0 -39 -24 -75q-12 -22 -32 -38t-45 -30v54z" />
    <glyph glyph-name="quotedblleft" unicode="&#x201c;" horiz-adv-x="371" 
d="M152 736q-19 -10 -28 -25q-6 -11 -10.5 -19t-5.5 -12q15 2 27 -1t22 -9q18 -20 18 -48t-16 -38q-19 -17 -42 -17q-26 -5 -45 18q-22 16 -22 62q0 35 24 76q27 37 78 66v-53zM298 736q-16 -7 -29 -25q-6 -11 -10 -19t-5 -12q13 2 25.5 -1t22.5 -9q19 -19 19 -48
q0 -15 -5 -24t-11 -14q-19 -17 -43 -17q-24 -5 -45 18q-12 9 -16.5 25t-4.5 37q0 37 24 76q13 19 31.5 35.5t46.5 30.5v-53z" />
    <glyph glyph-name="quotedblright" unicode="&#x201d;" horiz-adv-x="372" 
d="M73 601q15 6 28 26q6 7 9.5 15t7.5 15q-33 -5 -49 11q-19 13 -19 48q0 24 17 38q8 7 18 10t23 6q21 0 46 -19q21 -23 21 -61q0 -40 -25 -75q-13 -22 -32.5 -38t-44.5 -30v54zM220 601q14 6 28 26q4 7 7.5 15t6.5 15q-30 -5 -46 11q-20 14 -20 48q0 26 17 38q8 7 18 10
t22 6q13 0 23 -4.5t24 -14.5q10 -11 16 -25.5t6 -35.5q0 -38 -25 -75q-15 -22 -34 -38t-43 -30v54z" />
    <glyph glyph-name="dagger" unicode="&#x2020;" horiz-adv-x="1045" 
d="M553 697q0 -10 -1 -18l-2 -16q-2 -10 -4 -18t-2 -16l-6 -26t-4 -24q16 3 31.5 5t31.5 7q26 6 64 4q52 -10 52 -58q0 -25 -11 -38q-14 -14 -38 -19q-17 -7 -31 -1q-21 0 -32 5q-16 1 -33 8q-5 0 -8 0.5t-8 1.5l-15 3q0 -10 7 -24q0 -8 3.5 -14.5t7.5 -12.5q6 -19 15 -23
q4 -7 9.5 -11t10.5 -7q-11 -10 -18 -22t-13 -25q-5 -16 -10 -31.5t-6 -30.5q-6 -35 -6 -64q-3 -18 -3 -33.5v-27.5v-32q-1 -11 -1 -23v-27v-90v-24t1 -21q0 -10 -1 -19t-1 -14q-4 -32 -13 -46q-11 -17 -24 -17q-20 0 -26 17q-10 10 -10 46q-1 7 -1 19v27v196q0 8 -0.5 15.5
t-0.5 16.5v38q-2 35 -6 71q-6 28 -20 60q-13 25 -35 36q13 10 23 21.5t18 24.5q13 28 19 51q-19 -3 -34 -7t-30 -7q-18 -6 -34 -6.5t-34 3.5q-47 6 -47 57q0 52 50 58q15 2 31.5 1t32.5 -5q16 -5 31.5 -7.5t34.5 -5.5q-4 7 -4 25l-2 6t-1 6q-1 3 -2 6.5t-1 6.5q-2 6 -4 13.5
t-3 16.5q-2 8 -2.5 17t-0.5 19v13.5t2 15.5q0 8 2.5 14.5t6.5 14.5q3 7 7.5 12t9.5 11q11 8 30 8q17 0 29 -6q5 -5 10 -9.5t8 -11.5q2 -8 4.5 -14.5t4.5 -13.5q0 -8 1 -15.5t1 -15.5z" />
    <glyph glyph-name="daggerdbl" unicode="&#x2021;" horiz-adv-x="1045" 
d="M457 507q-5 -1 -9.5 -2t-7.5 -2q-4 -1 -7.5 -2t-6.5 -1q-10 -4 -17.5 -5.5l-12.5 -2.5q-22 -5 -33 -5q-18 -3 -33 3q-49 6 -49 57q0 48 50 57q15 2 30.5 1t31.5 -4q14 -6 28.5 -9t32.5 -6l-2 16q-1 5 -1.5 9.5t-0.5 9.5q-3 8 -5 15t-2 13q-6 18 -6 37q-3 11 -2 20.5
t4 20.5q4 25 20 41q13 15 36 15q45 0 56 -56q6 -42 -6 -79l-3.5 -17.5t-1.5 -13.5l-3.5 -17.5t-1.5 -13.5q15 3 29 5.5t29 8.5q25 6 64 4q52 -12 52 -57q0 -51 -48 -57q-8 -3 -16 -3.5t-15 0.5q-16 0 -31 5q-18 1 -33 8q-5 0 -8.5 1t-7.5 2l-16 4v-51q15 3 29 6t29 8
q16 3 32 4t33 -1q28 -5 41 -18q6 -9 8.5 -17.5t2.5 -20.5q0 -51 -48 -58q-8 -4 -16 -4h-15q-9 0 -16 1t-15 5q-18 1 -33 8l-32 8q0 -25 18 -50q13 -27 27 -37q-19 -23 -27.5 -48t-11.5 -51q-5 -28 -6.5 -55t-1.5 -54v-161q0 -63 -37 -63q-16 0 -24 17q-12 13 -12 47v27
q-1 7 -1 19v27v139q-1 12 -3 25.5t-2 28.5l-15 53q-6 11 -12 23.5t-15 25.5q17 14 29 38q6 9 9.5 21t6.5 27l-16 -4q-4 -1 -7.5 -2t-6.5 -1q-11 -3 -18 -4.5t-14 -2.5q-20 -6 -32 -6q-19 -4 -32 3q-49 7 -49 58q0 48 50 56q28 4 63 -2q15 -5 29.5 -8.5t33.5 -7.5v52z" />
    <glyph glyph-name="twodotenleader" unicode="&#x2025;" horiz-adv-x="1045" 
d="M793 382v-129h-129v129h129zM327 382v-129h-127v129h127z" />
    <glyph glyph-name="ellipsis" unicode="&#x2026;" horiz-adv-x="1045" 
d="M844 382v-129h-124v129h124zM559 382v-129h-127v129h127zM270 382v-129h-124v129h124z" />
    <glyph glyph-name="perthousand" unicode="&#x2030;" horiz-adv-x="1045" 
d="M611 695h83l-536 -756h-81zM318 682q45 0 75 -30q27 -32 27 -88q0 -18 -4 -35t-9 -36q-8 -18 -17.5 -35.5t-22.5 -32.5q-25 -34 -57 -52q-35 -21 -73 -21q-24 0 -43 7.5t-32 24.5q-15 15 -21 36.5t-6 48.5q0 17 3.5 35t11.5 36q7 19 17 35t23 35q12 14 27 27t32 25
q32 20 69 20zM347 583q-1 1 -2.5 5t-1.5 8l-7 12q-7 5 -14 5q-21 0 -40 -16q-11 -8 -19 -17t-16 -20q-9 -13 -15.5 -24.5t-10.5 -22.5q-12 -27 -12 -44q-1 -9 0 -16q0 -11 3 -15q0 -7 7 -11q4 -4 13 -4q10 0 21.5 3t21.5 11q18 12 37 37q6 11 13 23t13 25q3 12 6 23t3 20v18
zM514 285q44 0 76 -32q12 -14 18.5 -37t6.5 -50q0 -19 -3.5 -36t-9.5 -36q-9 -17 -17.5 -34.5t-21.5 -33.5q-21 -33 -58 -52q-35 -21 -74 -21q-23 0 -42.5 7t-29.5 26q-16 14 -22 36t-6 49q0 15 3 33t12 39q7 17 17 34.5t23 34.5q23 29 60 52q15 9 32.5 15t35.5 6zM543 169
q0 1 -0.5 2.5t-0.5 2.5v9q-1 4 -2 7.5t-1 7.5l-2.5 2.5t-2.5 3.5q-3 3 -3 6q-3 1 -6.5 2.5t-5.5 1.5q-22 0 -41 -15q-12 -7 -19.5 -16.5t-15.5 -20.5q-19 -25 -26 -48q-13 -26 -13 -43q-5 -17 3 -30q4 -18 22 -18q9 0 20.5 4t21.5 12q8 6 17.5 15.5t19.5 23.5q7 9 12.5 21
t12.5 25q5 13 7.5 22.5t2.5 22.5zM808 285q41 0 73 -32q27 -33 27 -87q0 -19 -3.5 -36t-10.5 -36q-8 -17 -17 -34.5t-22 -33.5q-12 -17 -27 -29.5t-30 -22.5q-36 -21 -74 -21q-23 0 -42.5 7t-30.5 26q-16 14 -22.5 36t-6.5 49q0 34 16 72q8 18 17 35t25 34q23 28 59 52
q15 9 33 15t36 6zM836 169q0 1 -0.5 2.5t-0.5 2.5v9q-1 4 -2 7.5t-1 7.5l-9 12q-3 1 -6.5 2.5t-5.5 1.5q-21 0 -40 -15q-13 -7 -20.5 -16.5t-15.5 -20.5q-9 -13 -15.5 -24t-10.5 -24q-12 -26 -12 -43q-5 -15 3 -30q4 -18 20 -18q21 0 43 16q9 7 18.5 16t18.5 23q7 9 13 21
t12 25q5 13 8 22.5t3 22.5z" />
    <glyph glyph-name="minute" unicode="&#x2032;" horiz-adv-x="1045" 
d="M271 808l-186 -293l-41 17l94 276h133z" />
    <glyph glyph-name="second" unicode="&#x2033;" horiz-adv-x="1045" 
d="M283 808l-186 -293l-42 17l95 276h133zM471 808l-188 -293l-41 17l95 276h134z" />
    <glyph glyph-name="uni203B" unicode="&#x203b;" horiz-adv-x="1045" 
d="M715 386q26 0 46 -19q10 -12 15 -23t5 -27q0 -29 -18 -47q-10 -12 -22 -16.5t-26 -4.5q-13 0 -24 4.5t-21 16.5q-13 9 -16 20.5t-3 25.5q0 26 17 49q18 21 47 21zM275 386q26 0 46 -19q10 -12 14.5 -23t4.5 -27q0 -29 -18 -47q-8 -12 -20 -16.5t-27 -4.5q-13 0 -24.5 4.5
t-21.5 16.5q-19 16 -19 46q0 23 18 49q19 21 47 21zM495 617q10 0 25 -5q6 -4 10.5 -7.5t11.5 -8.5q4 -7 8 -10.5t8 -10.5q3 -17 3 -27q0 -29 -17 -49q-11 -11 -22.5 -15t-26.5 -4q-13 0 -24 4t-20 15q-21 18 -21 49q0 27 19 47q18 22 46 22zM495 154q13 0 24 -5t23 -14
q19 -24 19 -47q0 -30 -17 -49q-11 -12 -22.5 -16t-26.5 -4q-13 0 -24 4t-20 16q-21 16 -21 47q0 26 19 48q18 20 46 20zM789 564l-234 -245q28 -32 56.5 -63t59.5 -62q29 -32 58.5 -63t59.5 -60l-60 -61l-234 245l-56 -60q-15 -15 -29.5 -31t-30.5 -31q-9 -9 -16 -17
t-15 -16l-31 -30l-29 -31q-8 -8 -14 -15t-12 -13l-60 61l234 245q-29 29 -58 60.5t-60 64.5q-30 32 -59.5 62.5t-56.5 59.5l60 62l233 -246q28 30 58 60.5t59 62.5q31 32 60.5 62.5t57.5 61.5z" />
    <glyph glyph-name="uni2074" unicode="&#x2074;" horiz-adv-x="1045" 
d="M133 531v66l143 200h69v-191h43v-75h-43v-51h-78v51h-134zM267 652q-8 -13 -16 -21q-3 -3 -4.5 -6t-4.5 -6l-7 -13h32v46z" />
    <glyph glyph-name="uni207F" unicode="&#x207f;" horiz-adv-x="1066" 
d="M126 804h73v-27q13 17 36 25q9 2 19.5 2.5t22.5 0.5q22 -5 39 -12q10 -6 17 -12t16 -14q7 -9 11 -17l9 -18q3 -12 6 -21.5t3 -19.5v-210h-73v191q0 11 -2.5 22.5t-6.5 21.5q-11 17 -40 17q-24 0 -39 -18q-16 -22 -16 -48v-186h-75v323z" />
    <glyph glyph-name="uni2081" unicode="&#x2081;" horiz-adv-x="1045" 
d="M213 -131v195h-60v75q28 0 48 6q15 8 21 41h70v-317h-79z" />
    <glyph glyph-name="uni2082" unicode="&#x2082;" horiz-adv-x="1045" 
d="M283 -30l-12 -7q-2 -2 -4.5 -3.5t-4.5 -4.5q-2 -1 -3 -1h-1l-1 -1q-5 -3 -6 -3h-2l-4 -5h123v-76h-235q-2 18 0.5 33t8.5 29q4 14 11.5 24t16.5 20q8 11 18.5 19t21.5 18q10 7 21 15.5t23 17.5q7 4 12 9t10 11q4 6 7 11.5t3 11.5q0 29 -30 29q-17 0 -25 -17q-5 -9 -7 -19
t-2 -21h-82q0 14 2 26.5t7 25.5q6 25 22 41q12 18 37 30q17 10 49 10q23 0 49 -8q9 -5 18 -10.5t16 -12.5q7 -9 12.5 -16.5t9.5 -17.5q2 -10 3.5 -19.5t1.5 -20.5q0 -22 -5 -37q-3 -8 -7.5 -14.5t-8.5 -13.5q-7 -7 -11.5 -13t-10.5 -10q-6 -6 -11.5 -9.5t-9.5 -6.5z" />
    <glyph glyph-name="uni2083" unicode="&#x2083;" horiz-adv-x="1045" 
d="M143 73q0 57 34 91q16 15 35 24t44 9q10 0 20 -2.5t22 -4.5q9 -6 17.5 -11t17.5 -10q6 -10 12.5 -17t12.5 -14q4 -11 6 -20t2 -18q0 -19 -5 -37q-8 -18 -18 -25q13 -13 23 -30q2 -11 4.5 -19.5t2.5 -18.5q0 -45 -31 -75q-35 -30 -85 -30q-29 0 -48 11q-13 4 -22 11.5
t-16 15.5q-8 10 -14.5 20.5t-10.5 22.5q-6 12 -8 25t-2 26h72q0 -23 10 -37q8 -17 33 -17q41 0 41 35q0 10 -6 18q-4 3 -8 4.5t-7 3.5q-8 0 -20 4h-24v55h24h9.5t6.5 2t11 11q5 7 5 18q0 27 -35 27q-21 0 -27 -16q-9 -17 -9 -32h-69z" />
    <glyph glyph-name="uni2084" unicode="&#x2084;" horiz-adv-x="1045" 
d="M134 -80v67l143 199h69v-191h43v-75h-43v-51h-78v51h-134zM268 41l-32 -46h32v46z" />
    <glyph glyph-name="Euro" unicode="&#x20ac;" horiz-adv-x="661" 
d="M136 326v56h87q0 83 13.5 143.5t37 99.5t56 57.5t70.5 18.5q33 0 64 -10.5t55 -27.5q-2 -14 -4.5 -22.5t-5.5 -20.5v-1q-38 26 -84 26q-64 0 -93.5 -62t-29.5 -201h178v-55l-177 -1v-258h-80v258h-87zM450 14q26 0 53.5 14t47.5 37q11 -22 24 -41q-23 -29 -52.5 -47
t-69.5 -18q-32 0 -60.5 11.5t-56 26t-56 26t-59.5 11.5q-15 0 -29 -7t-27 -18t-23.5 -25t-19.5 -27q-8 11 -15 20t-13 23q8 19 22 35.5t31 28.5t36.5 19t38.5 7q35 0 65.5 -12t58 -26t53 -26t51.5 -12z" />
    <glyph glyph-name="uni2103" unicode="&#x2103;" horiz-adv-x="1045" 
d="M872 174q-8 -29 -17.5 -54.5t-21.5 -49.5q-16 -24 -30.5 -45t-32.5 -36q-20 -19 -41.5 -31t-42.5 -22q-25 -11 -49.5 -14.5t-51.5 -3.5q-76 0 -129 29q-58 28 -94 78q-22 25 -34.5 52.5t-21.5 62.5q-10 31 -14.5 64.5t-4.5 67.5q0 70 19 133q9 32 21.5 60.5t34.5 54.5
q18 23 41.5 43.5t52.5 34.5q54 30 129 30q55 0 103 -18q22 -10 43 -22t40 -28q18 -19 32 -37.5t30 -38.5q12 -24 21 -48t18 -49h-90q-28 69 -75 112q-52 43 -126 43q-56 0 -91 -22q-40 -25 -64 -60q-13 -20 -22.5 -42t-14.5 -45q-12 -50 -12 -101q0 -54 12 -99
q10 -50 37 -88q23 -39 63 -61q37 -23 92 -23q18 0 35 3t35 11q28 12 58 37q12 12 24 25.5t21 29.5q10 16 15.5 32t10.5 35h92zM225 747q26 0 47 -10q25 -13 40 -27q7 -11 14 -20t12 -20q4 -14 7.5 -26t3.5 -23q0 -27 -10 -48q-5 -13 -12 -23t-13 -18q-17 -16 -41 -30
q-10 -7 -22.5 -8.5t-25.5 -1.5q-31 0 -48 10q-12 4 -21.5 11.5t-16.5 17.5q-20 17 -26 40q-10 19 -10 50q0 24 9 47q8 23 25 42q14 15 40 27q17 10 48 10zM225 666q-18 0 -29 -14q-14 -14 -14 -31q0 -13 3.5 -20.5t10.5 -13.5q10 -12 29 -12q20 0 32 12q6 6 9 13.5t3 20.5
q0 17 -12 31q-14 14 -32 14z" />
    <glyph glyph-name="uni2109" unicode="&#x2109;" horiz-adv-x="1045" 
d="M370 619h452v-82h-362v-217h320v-79h-320v-296h-90v674zM225 747q26 0 47 -10q25 -13 40 -27q7 -11 14 -20t12 -20q4 -14 7.5 -26t3.5 -23q0 -27 -10 -48q-5 -13 -12 -23t-13 -18q-17 -16 -41 -30q-10 -7 -22.5 -8.5t-25.5 -1.5q-31 0 -48 10q-12 4 -21.5 11.5
t-16.5 17.5q-20 17 -26 40q-10 19 -10 50q0 24 9 47q8 23 25 42q14 15 40 27q17 10 48 10zM225 666q-18 0 -29 -14q-14 -14 -14 -31q0 -13 3.5 -20.5t10.5 -13.5q10 -12 29 -12q20 0 32 12q6 6 9 13.5t3 20.5q0 17 -12 31q-14 14 -32 14z" />
    <glyph glyph-name="uni2113" unicode="&#x2113;" horiz-adv-x="1045" 
d="M302 647q-19 0 -31 -17q-6 -9 -12 -20t-10 -24q-6 -14 -9 -29.5t-7 -30.5q-4 -17 -7 -33t-4 -31q-3 -18 -4 -33t-1 -29q-1 -14 -1 -25v-20q0 -36 2 -69t7 -61q3 -30 9 -55t13 -46q13 16 24 33.5t22 37.5q9 22 16.5 43.5t13.5 45.5q7 21 11 44.5t7 47.5q6 43 6 87v23
q-1 7 -1.5 16.5t-0.5 21.5l-4 19q-1 6 -1.5 11t-0.5 11l-8 41q-3 9 -6.5 16l-6.5 13q-8 12 -16 12zM308 737q24 0 49 -17q15 -17 33 -44q7 -16 11.5 -31t9.5 -30q1 -9 2.5 -17.5t2.5 -15.5q2 -9 3 -17.5t3 -16.5q0 -10 1 -17t1 -15l4 -29v-26q0 -6 0.5 -11t0.5 -8
q0 -23 -3 -49t-6 -53q-6 -28 -11 -55t-13 -53q-11 -29 -22 -55.5t-24 -49.5q-14 -25 -29.5 -47t-34.5 -36q10 -21 24 -29q10 -7 22 -7q15 0 29 11q12 12 23 30l19 37l14 39q5 -8 10 -13.5t12 -10.5q8 -14 22 -21q6 -7 11.5 -13t11.5 -9q-12 -29 -26.5 -51t-29.5 -39
q-37 -34 -76 -43q-82 -16 -142 79q-2 -1 -4.5 -1h-3.5t-3 -1t-3 -1q-13 -3 -22.5 -5t-19.5 -2q-12 -2 -25 -3t-28 -1l-23 84h21t27 2q13 0 25 2.5t23 3.5q-11 31 -19 61.5t-12 61.5q-6 31 -8 63t-2 65v34t3 39q1 22 3.5 42.5t7.5 44.5q3 22 8.5 44t12.5 45q7 20 14 38.5
t19 36.5q16 32 45 58q24 18 61 22h1z" />
    <glyph glyph-name="uni2116" unicode="&#x2116;" horiz-adv-x="1045" 
d="M370 -30l-239 523v-523h-73v695h74l239 -523v523h75v-695h-76zM669 456q24 0 44.5 -6t38.5 -16q36 -23 59 -57q24 -36 36 -80q5 -24 8 -45t3 -43q0 -24 -3 -45t-8 -43q-11 -45 -36 -79q-26 -38 -59 -57q-35 -23 -83 -23q-49 0 -83 23q-36 19 -60 57q-23 33 -33 79
q-13 39 -13 88q0 22 2.5 43t9.5 45q5 21 13.5 42t20.5 39t26 32t34 25q34 21 83 21zM669 379q-15 0 -28 -4.5t-23 -11.5q-12 -9 -20.5 -18t-15.5 -22q-9 -14 -13.5 -27t-7.5 -29q-6 -33 -6 -58q0 -29 6 -60q3 -14 7.5 -28t13.5 -27q7 -12 15.5 -22.5t20.5 -17.5
q10 -9 23 -12t28 -3q16 0 27.5 3t24.5 12q10 7 18.5 17.5t16.5 23.5q6 13 11 26.5t10 27.5q2 16 3.5 31t1.5 29q0 15 -1.5 29.5t-3.5 28.5q-10 29 -21 56q-8 12 -16.5 22.5t-18.5 18.5q-13 7 -24.5 11t-27.5 4zM890 79q7 0 11.5 -2t10.5 -4q6 -3 11 -7.5t10 -7.5l13 -20
q5 -15 5 -24q0 -23 -19 -42t-42 -19q-26 0 -42 19q-19 16 -19 42q0 12 5 24q3 5 6 9.5t8 10.5q3 3 8 7.5t11 7.5q5 2 11 4t12 2z" />
    <glyph glyph-name="uni2121" unicode="&#x2121;" horiz-adv-x="1045" 
d="M254 584h-198v77h475v-77h-196v-614h-81v614zM579 456q25 0 48 -6t43 -16q18 -11 35.5 -27t33.5 -34q12 -21 22.5 -43t17.5 -45q12 -52 10 -108h-329q0 -14 1.5 -25.5t8.5 -24.5q5 -13 10.5 -23.5t14.5 -20.5q13 -18 38 -31q22 -11 46 -11q42 0 72 27q27 25 37 64h95
q-29 -86 -74 -131q-50 -48 -130 -48q-54 0 -89 22q-41 19 -66 57q-14 17 -24.5 36.5t-16.5 43.5q-9 22 -12 45.5t-3 47.5t3.5 46t12.5 46q12 42 42 81q24 33 66 57q34 21 87 21zM695 263l-14 41l-28 33q-10 6 -18.5 12t-17.5 12q-9 4 -18.5 6.5t-19.5 2.5q-13 0 -22 -2.5
t-18 -5.5q-11 -6 -19.5 -12t-15.5 -11q-18 -18 -25 -35q-13 -22 -16 -41h232zM820 662h84v-691h-84v691z" />
    <glyph glyph-name="trademark" unicode="&#x2122;" horiz-adv-x="594" 
d="M448 693h96v-378h-80v119l-4 -10q-1 -4 -1.5 -7t-0.5 -7q-5 -17 -7 -36q-4 -9 -4 -19q-1 -5 -1.5 -9.5t-0.5 -6.5q-3 -5 -3 -8.5t-1 -6.5t-1 -5.5v-3.5h-72l-23 120v-120h-83v302h-45v-296h-96v296h-71v76h309l45 -158z" />
    <glyph glyph-name="Omega" unicode="&#x2126;" horiz-adv-x="1045" 
d="M412 94q0 23 11 37q10 12 24 13q35 8 65 33q13 12 24 25t22 31q7 14 12.5 31t11.5 38q3 18 5.5 38t2.5 41q0 41 -12 89q-8 22 -17 40.5t-21 36.5q-14 15 -28.5 29t-33.5 27q-17 9 -38 14.5t-44 5.5q-25 0 -44 -5.5t-38 -15.5q-35 -23 -60 -57q-26 -37 -38 -78
q-13 -42 -13 -87q0 -42 8 -80q7 -42 26 -69q8 -16 19 -30t26 -24q29 -26 71 -33q0 -1 5 -1q2 -2 5 -2q2 -2 5.5 -4.5t7.5 -5.5q3 -3 5 -7t5 -9q2 -10 2 -22v-91q0 -12 -2.5 -21.5t-6.5 -17.5q-12 -18 -41 -18h-146v79h118v45q-50 13 -84 48q-39 33 -59 73q-25 40 -35 90
q-6 24 -9.5 48.5t-3.5 50.5q0 29 5 58t16 58q9 30 23 56t33 50q34 43 86 74q24 11 52.5 19t61.5 8q31 0 60 -7.5t55 -19.5q25 -15 47.5 -32.5t40.5 -38.5q18 -23 31.5 -49.5t23.5 -54.5q19 -58 19 -119q0 -51 -13 -94q-10 -47 -35 -92q-12 -20 -26.5 -39t-31.5 -35
q-17 -17 -37 -29t-40 -20v-48h116v-79h-144q-34 0 -41 16q-6 7 -7.5 17t-1.5 22v94z" />
    <glyph glyph-name="uni212B" unicode="&#x212b;" horiz-adv-x="1045" 
d="M495 720q-15 0 -26 -10q-11 -14 -11 -30q0 -20 11 -31q6 -6 12 -9.5t14 -3.5q9 0 15.5 3.5t12.5 9.5q11 11 11 31q0 16 -11 30q-11 10 -28 10zM495 804q13 0 24 -3.5t24 -7.5q10 -6 18.5 -12t18.5 -15q7 -10 13.5 -19.5t11.5 -20.5q8 -27 8 -46q0 -26 -8 -47
q-5 -12 -10.5 -22t-13.5 -19q-10 -8 -19 -15.5t-19 -12.5q-13 -6 -24 -7.5t-24 -1.5q-14 0 -25 1.5t-21 7.5q-14 5 -22.5 12.5t-15.5 15.5q-17 16 -25 41q-5 10 -7 22t-2 25q0 11 2 23t7 23q7 20 25 40q7 9 16 15t23 12q10 4 21 7.5t24 3.5zM628 100h-262l-32 -81
q-10 -21 -18 -42t-15 -38h-91l253 593h66l254 -593h-90zM400 182h191l-47 108q-12 23 -23.5 50.5t-23.5 58.5z" />
    <glyph glyph-name="onethird" unicode="&#x2153;" horiz-adv-x="1045" 
d="M157 355h677v-74h-677v74zM463 387v246h-84v82q13 0 24.5 0.5t25.5 4.5q19 0 30 7h-1q3 3 6.5 7.5t6.5 12.5q5 13 5 35h76v-395h-89zM420 -16q0 -13 0.5 -23t3.5 -16q3 -18 14 -29q13 -21 57 -21q31 0 52 18q17 17 17 45q0 8 -2.5 13.5t-3.5 12.5q-6 4 -11 8t-12 7
t-13.5 4.5t-13.5 4.5q-10 0 -17 0.5t-14 0.5h-35l2 75h18h8.5t11.5 1q7 0 18 3q3 0 6.5 -0.5t5.5 2.5q15 4 29 22q11 13 11 28t-15 33q-10 6 -20 10.5t-24 4.5q-62 0 -62 -79h-88q0 35 14 68q5 15 12 26.5t19 22.5q15 15 48 29q14 5 28 7t31 2q22 0 54 -8q11 -5 23.5 -10.5
t22.5 -13.5q11 -10 19 -19t16 -21q13 -25 13 -54q0 -27 -10.5 -48t-27.5 -39q12 -8 21 -18.5t17 -20.5q13 -25 13 -55t-11 -57q-6 -13 -15 -23.5t-18 -20.5q-11 -8 -23.5 -16t-27.5 -11q-15 -5 -31.5 -7t-34.5 -2q-35 0 -65 10t-52 30q-45 40 -45 124h87z" />
    <glyph glyph-name="twothirds" unicode="&#x2154;" horiz-adv-x="1045" 
d="M157 355h677v-74h-677v74zM420 -16q0 -13 0.5 -23t3.5 -16q3 -18 14 -29q13 -21 57 -21q31 0 52 18q17 17 17 45q0 8 -2.5 13.5t-3.5 12.5q-6 4 -11 8t-12 7t-13.5 4.5t-13.5 4.5q-10 0 -17 0.5t-14 0.5h-35l2 75h18h8.5t11.5 1q7 0 18 3q3 0 6.5 -0.5t5.5 2.5
q15 4 29 22q11 13 11 28t-15 33q-10 6 -20 10.5t-24 4.5q-62 0 -62 -79h-88q0 35 14 68q5 15 12 26.5t19 22.5q15 15 48 29q14 5 28 7t31 2q22 0 54 -8q11 -5 23.5 -10.5t22.5 -13.5q11 -10 19 -19t16 -21q13 -25 13 -54q0 -27 -10.5 -48t-27.5 -39q12 -8 21 -18.5t17 -20.5
q13 -25 13 -55t-11 -57q-6 -13 -15 -23.5t-18 -20.5q-11 -8 -23.5 -16t-27.5 -11q-15 -5 -31.5 -7t-34.5 -2q-35 0 -65 10t-52 30q-45 40 -45 124h87zM559 542q-5 -6 -14 -8q-3 -2 -7 -4.5t-7 -3.5l-30 -21l-14 -12l-14 -10q-12 -12 -21 -24h200v-78h-322q0 16 2.5 31
t6.5 30q6 25 23 50q6 12 17 24t24 24q12 11 31 23t44 25q7 3 13.5 7t15.5 10q12 7 26 20q7 5 11.5 10.5t9.5 15.5q7 11 7 31q0 11 -4 22t-12 18q-16 15 -47 15q-41 0 -54 -19q-4 -4 -7.5 -11t-4.5 -16q-2 -9 -3 -19.5t-1 -19.5h-88q0 18 2.5 33.5t9.5 31.5q9 30 25 49
q9 12 22 20t31 17q29 13 69 13t67 -10q14 -7 26 -14t21 -15q19 -20 29 -44q5 -13 7.5 -26.5t2.5 -25.5q0 -49 -27 -80q-23 -35 -66 -59z" />
    <glyph glyph-name="oneeighth" unicode="&#x215b;" horiz-adv-x="1045" 
d="M655 126q0 -50 -37 -81q22 -17 39 -41q5 -12 9 -27t4 -31q0 -18 -4 -32t-9 -24q-12 -25 -36 -41q-27 -20 -56 -26q-33 -10 -68 -10q-19 0 -35.5 3.5t-31.5 7.5q-34 6 -57 25q-11 9 -20.5 19t-15.5 24q-14 25 -14 54q0 62 53 97q-21 14 -28 39q-7 10 -8.5 21t-1.5 23
q0 28 10.5 51t33.5 41q21 17 50 24.5t65 7.5q33 0 62 -7.5t52 -24.5q44 -36 44 -92zM497 5q-22 0 -36 -4.5t-25 -10.5q-12 -9 -17.5 -20.5t-5.5 -23.5q0 -24 23 -41q18 -15 61 -15q38 0 61 15q21 19 21 41q0 24 -21 44q-12 6 -27.5 10.5t-33.5 4.5zM497 173q-38 0 -51 -13
q-11 -8 -13.5 -15.5t-2.5 -17.5q0 -12 2.5 -19.5t13.5 -13.5q12 -12 51 -12q31 0 51 12q16 10 16 33q0 20 -16 33q-20 13 -51 13zM157 355h677v-74h-677v74zM463 387v246h-84v82q13 0 24.5 0.5t25.5 4.5q19 0 30 7h-1q3 3 6.5 7.5t6.5 12.5q5 13 5 35h76v-395h-89z" />
    <glyph glyph-name="threeeighths" unicode="&#x215c;" horiz-adv-x="1045" 
d="M655 126q0 -50 -37 -81q22 -17 39 -41q5 -12 9 -27t4 -31q0 -18 -4 -32t-9 -24q-12 -25 -36 -41q-27 -20 -56 -26q-33 -10 -68 -10q-19 0 -35.5 3.5t-31.5 7.5q-34 6 -57 25q-11 9 -20.5 19t-15.5 24q-14 25 -14 54q0 62 53 97q-21 14 -28 39q-7 10 -8.5 21t-1.5 23
q0 28 10.5 51t33.5 41q21 17 50 24.5t65 7.5q33 0 62 -7.5t52 -24.5q44 -36 44 -92zM497 5q-22 0 -36 -4.5t-25 -10.5q-12 -9 -17.5 -20.5t-5.5 -23.5q0 -24 23 -41q18 -15 61 -15q38 0 61 15q21 19 21 41q0 24 -21 44q-12 6 -27.5 10.5t-33.5 4.5zM497 173q-38 0 -51 -13
q-11 -8 -13.5 -15.5t-2.5 -17.5q0 -12 2.5 -19.5t13.5 -13.5q12 -12 51 -12q31 0 51 12q16 10 16 33q0 20 -16 33q-20 13 -51 13zM157 355h677v-74h-677v74zM420 544q0 -12 0.5 -21.5t3.5 -17.5q3 -17 14 -28q13 -21 57 -21q31 0 52 18q17 19 17 46q0 6 -2.5 11.5t-3.5 12.5
q-6 5 -11 9t-12 7t-13.5 4.5t-13.5 3.5q-10 0 -17 1t-14 1h-35l2 76h18h8.5t11.5 1q5 0 9 0.5t9 1.5h6.5t5.5 3q16 5 29 22q11 11 11 26q0 10 -4 18t-11 16q-10 7 -20 10t-24 3q-62 0 -62 -76h-88q0 34 14 67q5 14 12 26.5t19 22.5q19 19 48 29q27 10 59 10q12 0 25.5 -2.5
t28.5 -6.5q11 -5 23.5 -11t22.5 -14q11 -9 19 -18t16 -22q13 -25 13 -55q0 -25 -10.5 -46t-27.5 -38q12 -9 21 -19t17 -21q13 -25 13 -55q0 -29 -11 -56q-6 -15 -15 -24.5t-18 -18.5q-23 -23 -51 -30q-15 -6 -31.5 -8t-34.5 -2q-35 0 -65 10.5t-52 32.5q-45 40 -45 122h87z
" />
    <glyph glyph-name="fiveeighths" unicode="&#x215d;" horiz-adv-x="1045" 
d="M331 573q0 3 0.5 7t1.5 9q1 6 2.5 13t2.5 17l13 72l12 75q3 14 4.5 27t3.5 20h258v-77h-183l-14 -56q11 2 20 3t19 3q9 0 17.5 1.5t16.5 1.5q24 0 54 -11q11 -5 22 -14t22 -17q8 -11 15.5 -22.5t14.5 -24.5q11 -30 11 -59q0 -38 -12 -60q-7 -15 -15.5 -27t-18.5 -22
q-12 -11 -25 -18.5t-26 -13.5q-33 -11 -61 -11q-35 0 -63 8.5t-50 29.5q-20 18 -34 43.5t-20 62.5h97q2 -30 22 -48q18 -22 50 -22q31 0 50 22q20 18 20 51q0 28 -18 54q-19 22 -50 22q-14 0 -23 -3t-18 -7q-10 -7 -17.5 -13t-14.5 -15zM655 126q0 -50 -37 -81
q22 -17 39 -41q5 -12 9 -27t4 -31q0 -18 -4 -32t-9 -24q-12 -25 -36 -41q-27 -20 -56 -26q-33 -10 -68 -10q-19 0 -35.5 3.5t-31.5 7.5q-34 6 -57 25q-11 9 -20.5 19t-15.5 24q-14 25 -14 54q0 62 53 97q-21 14 -28 39q-7 10 -8.5 21t-1.5 23q0 28 10.5 51t33.5 41
q21 17 50 24.5t65 7.5q33 0 62 -7.5t52 -24.5q44 -36 44 -92zM497 5q-22 0 -36 -4.5t-25 -10.5q-12 -9 -17.5 -20.5t-5.5 -23.5q0 -24 23 -41q18 -15 61 -15q38 0 61 15q21 19 21 41q0 24 -21 44q-12 6 -27.5 10.5t-33.5 4.5zM497 173q-38 0 -51 -13q-11 -8 -13.5 -15.5
t-2.5 -17.5q0 -12 2.5 -19.5t13.5 -13.5q12 -12 51 -12q31 0 51 12q16 10 16 33q0 20 -16 33q-20 13 -51 13zM157 355h677v-74h-677v74z" />
    <glyph glyph-name="seveneighths" unicode="&#x215e;" horiz-adv-x="1045" 
d="M338 795h317v-61q-16 -18 -30 -37.5t-26 -38.5q-14 -20 -26.5 -39t-20.5 -38q-11 -22 -18.5 -44.5t-13.5 -44.5q-13 -48 -13 -100h-91q0 18 2.5 37.5t9.5 43.5q9 44 30 89q8 22 18 43.5t22 42.5q24 41 47 72h-207v75zM655 126q0 -50 -37 -81q22 -17 39 -41q5 -12 9 -27
t4 -31q0 -18 -4 -32t-9 -24q-12 -25 -36 -41q-27 -20 -56 -26q-33 -10 -68 -10q-19 0 -35.5 3.5t-31.5 7.5q-34 6 -57 25q-11 9 -20.5 19t-15.5 24q-14 25 -14 54q0 62 53 97q-21 14 -28 39q-7 10 -8.5 21t-1.5 23q0 28 10.5 51t33.5 41q21 17 50 24.5t65 7.5q33 0 62 -7.5
t52 -24.5q44 -36 44 -92zM497 5q-22 0 -36 -4.5t-25 -10.5q-12 -9 -17.5 -20.5t-5.5 -23.5q0 -24 23 -41q18 -15 61 -15q38 0 61 15q21 19 21 41q0 24 -21 44q-12 6 -27.5 10.5t-33.5 4.5zM497 173q-38 0 -51 -13q-11 -8 -13.5 -15.5t-2.5 -17.5q0 -12 2.5 -19.5t13.5 -13.5
q12 -12 51 -12q31 0 51 12q16 10 16 33q0 20 -16 33q-20 13 -51 13zM157 355h677v-74h-677v74z" />
    <glyph glyph-name="uni2160" unicode="&#x2160;" horiz-adv-x="1045" 
d="M452 691h88v-746h-88v746z" />
    <glyph glyph-name="uni2161" unicode="&#x2161;" horiz-adv-x="1045" 
d="M338 691h86v-746h-86v746zM566 691h87v-746h-87v746z" />
    <glyph glyph-name="uni2162" unicode="&#x2162;" horiz-adv-x="1045" 
d="M293 691h89v-746h-89v746zM609 691h90v-746h-90v746zM453 691h88v-746h-88v746z" />
    <glyph glyph-name="uni2163" unicode="&#x2163;" horiz-adv-x="1045" 
d="M208 691h86v-746h-86v746zM601 -55h-78l-229 746h93l175 -590q22 75 43 147.5t46 148.5q8 36 19 72.5t22 73.5l45 148h93z" />
    <glyph glyph-name="uni2164" unicode="&#x2164;" horiz-adv-x="1045" 
d="M538 -55h-77l-283 746h92l229 -613l59 153q12 39 26.5 76.5t29.5 76.5q28 76 57 152t58 155h89z" />
    <glyph glyph-name="uni2165" unicode="&#x2165;" horiz-adv-x="1045" 
d="M775 691v-746h-88v746h88zM381 -55l-229 746h94l173 -590q21 75 43 147.5t46 148.5q10 36 20.5 72.5t22.5 73.5l43 148h93l-228 -746h-78z" />
    <glyph glyph-name="uni2166" unicode="&#x2166;" horiz-adv-x="1045" 
d="M682 691v-746h-89v746h89zM314 -55l-199 746h92l147 -583l75 292l73 291h91l-199 -746h-80zM818 691v-746h-87v746h87z" />
    <glyph glyph-name="uni2167" unicode="&#x2167;" horiz-adv-x="1045" 
d="M270 -55l-191 746h90l141 -579q7 35 16 71t17 72l37 146q16 73 33.5 145.5t36.5 144.5h171v-746h-88v722l-184 -722h-79zM746 691v-746h-89v746h89zM868 691v-746h-88v746h88z" />
    <glyph glyph-name="uni2168" unicode="&#x2168;" horiz-adv-x="1045" 
d="M179 691h90v-731l240 370q-15 20 -29.5 42t-28.5 44l-59 94q-30 48 -60 92t-59 89h98l187 -289q22 36 45.5 72t48.5 73l46 72q10 17 21.5 36t24.5 36h97l-235 -361q29 -51 61 -97.5t64 -94.5q17 -26 32 -51t31 -48l61 -94h-97l-200 308q-27 -39 -52 -77t-48 -77l-51 -79
q-13 -21 -26 -39.5t-23 -35.5h-179v746z" />
    <glyph glyph-name="uni2169" unicode="&#x2169;" horiz-adv-x="1045" 
d="M543 330q29 -51 60.5 -97.5t65.5 -94.5q16 -26 31.5 -51t30.5 -48l63 -94h-99l-200 308q-28 -39 -52.5 -77t-48.5 -77q-13 -20 -25.5 -40t-26.5 -39q-11 -21 -23.5 -39.5t-25.5 -35.5h-97l250 385q-30 42 -58.5 86.5t-59.5 93.5q-31 48 -60.5 92t-57.5 89h99l186 -290
l46 72l49 73l91 145h98z" />
    <glyph glyph-name="uni2170" unicode="&#x2170;" horiz-adv-x="1045" 
d="M539 -55h-88v560h88v-560zM542 596h-98v99h98v-99z" />
    <glyph glyph-name="uni2171" unicode="&#x2171;" horiz-adv-x="1045" 
d="M424 -55h-86v560h86v-560zM429 596h-95v98h95v-98zM654 -55h-87v560h87v-560zM657 596h-94v98h94v-98z" />
    <glyph glyph-name="uni2172" unicode="&#x2172;" horiz-adv-x="1045" 
d="M382 -55h-89v560h89v-560zM385 596h-95v98h95v-98zM700 -55h-90v560h90v-560zM703 596h-95v98h95v-98zM541 -55h-88v560h88v-560zM544 596h-95v98h95v-98z" />
    <glyph glyph-name="uni2173" unicode="&#x2173;" horiz-adv-x="1045" 
d="M305 -55h-88v560h88v-560zM309 596h-97v99h97v-99zM612 -55h-73l-232 560h95l173 -417l87 209l88 208h95z" />
    <glyph glyph-name="uni2174" unicode="&#x2174;" horiz-adv-x="1045" 
d="M532 -62h-73l-233 558h95l174 -415q10 23 20.5 48.5t22.5 52.5q11 27 21.5 54t23.5 54q9 26 20 52t22 53q12 26 22 50.5t22 50.5h95z" />
    <glyph glyph-name="uni2175" unicode="&#x2175;" horiz-adv-x="1045" 
d="M454 -55h-73l-232 560h96l173 -417q11 25 21.5 50.5t21.5 52.5l44 106q10 27 21.5 53.5t21.5 51.5q11 26 21 51.5t21 51.5h97zM785 -55h-87v560h87v-560zM789 596h-97v99h97v-99z" />
    <glyph glyph-name="uni2176" unicode="&#x2176;" horiz-adv-x="1045" 
d="M392 -55h-72l-205 560h93l149 -413l35 102q9 26 18.5 52t19.5 54l36 101q9 28 19 53t18 51h96zM688 -55h-88v560h88v-560zM692 596h-94v98h94v-98zM819 -55h-88v560h88v-560zM821 596h-93v98h93v-98z" />
    <glyph glyph-name="uni2177" unicode="&#x2177;" horiz-adv-x="1045" 
d="M621 -55h-89v548l-192 -548h-73l-196 560h95l138 -411q14 51 32.5 101.5t35.5 105.5q19 52 35.5 102t34.5 102h179v-560zM745 -55h-89v560h89v-560zM868 -55h-88v560h88v-560zM748 596h-95v98h95v-98zM872 596h-94v98h94v-98zM623 596h-94v98h94v-98z" />
    <glyph glyph-name="uni2178" unicode="&#x2178;" horiz-adv-x="1045" 
d="M567 160q-20 -27 -39.5 -53.5t-39.5 -54.5l-41 -54q-11 -13 -21 -27t-19 -26h-174v560h184l151 -202q19 24 36.5 49.5t39.5 50.5l74 102h107l-203 -273q26 -37 53 -71.5t54 -71.5q26 -38 53 -74t54 -70h-108zM514 233q-48 57 -96 128q-26 33 -50.5 65t-46.5 65v-518z
M324 596h-95v99h95v-99z" />
    <glyph glyph-name="uni2179" unicode="&#x2179;" horiz-adv-x="1045" 
d="M495 151l-80 -106l-42 -55q-10 -14 -19.5 -27t-18.5 -25h-107l213 286l-102 138q-26 36 -51.5 69t-49.5 65h105l152 -202l77 102l76 100h105l-205 -273q48 -71 108 -141q27 -39 54 -75.5t53 -68.5h-108z" />
    <glyph glyph-name="arrowleft" unicode="&#x2190;" horiz-adv-x="1045" 
d="M938 277h-627l48 -40l-22 -34l-328 114l326 114l22 -35l-44 -38h625v-81z" />
    <glyph glyph-name="arrowup" unicode="&#x2191;" horiz-adv-x="1045" 
d="M456 -145v655l-35 -47l-38 21l112 358l113 -357l-37 -23l-38 46v-653h-77z" />
    <glyph glyph-name="arrowright" unicode="&#x2192;" horiz-adv-x="1045" 
d="M52 358h625l-14 9l-10 11q-13 8 -21 19l21 34l332 -114l-332 -114l-20 36l45 38h-626v81z" />
    <glyph glyph-name="arrowdown" unicode="&#x2193;" horiz-adv-x="1045" 
d="M571 176l37 -23l-113 -352l-112 352l38 21l35 -45v653h77v-654z" />
    <glyph glyph-name="arrowboth" unicode="&#x2194;" horiz-adv-x="1045" 
d="M356 233l-20 -38l-326 121l328 124l21 -39l-50 -43h375l-26 23l-13 11l-11 9l20 39l329 -123l-327 -122l-19 38l47 44h-377z" />
    <glyph glyph-name="arrowupdn" unicode="&#x2195;" horiz-adv-x="1045" 
d="M415 471l-35 21l115 345l116 -345l-36 -21l-41 49v-406q6 7 11.5 14t12.5 14q2 5 7 10.5t12 12.5l35 -21l-115 -345l-117 344l36 21l41 -50v408z" />
    <glyph glyph-name="uni2196" unicode="&#x2196;" horiz-adv-x="1045" 
d="M882 -147l-666 699v-103l-39 -7l-141 359l335 -150l-5 -44h-93q82 -87 164.5 -173t167.5 -173q42 -45 82 -88t83 -88q42 -45 82.5 -87.5t82.5 -85.5z" />
    <glyph glyph-name="uni2197" unicode="&#x2197;" horiz-adv-x="1045" 
d="M47 -100l664 702h-100l-6 42l344 147l-145 -352l-42 6v94q-84 -88 -165.5 -175t-165.5 -172l-164 -174q-43 -45 -83 -87.5t-82 -85.5z" />
    <glyph glyph-name="uni2198" unicode="&#x2198;" horiz-adv-x="1045" 
d="M106 787l665 -698v102l40 6l141 -358l-338 151l7 43h92q-85 88 -167 173t-164 175q-85 88 -167 174t-164 173z" />
    <glyph glyph-name="uni2199" unicode="&#x2199;" horiz-adv-x="1045" 
d="M935 724l-665 -701h100l7 -41l-342 -148l142 352l42 -6v-94q84 88 164 173t167 175q40 45 81 87.5t83 85.5q42 45 83 87t83 87z" />
    <glyph glyph-name="arrowdblright" unicode="&#x21d2;" horiz-adv-x="1045" 
d="M673 431l-48 38q-6 3 -11.5 8t-12.5 9t-12 7t-10 9l49 64l345 -250l-348 -251l-46 68l98 70h-642v81h750l13 7l11 9l8 6q2 3 5.5 5t8.5 5l-14 9l-10 9q-11 4 -25 18h-747v79h638z" />
    <glyph glyph-name="arrowdblboth" unicode="&#x21d4;" horiz-adv-x="1045" 
d="M673 432q-13 8 -24.5 17.5t-24.5 19.5q-7 3 -12 8t-12 9t-12.5 7t-10.5 9l51 65l344 -250l-347 -250l-47 67l97 70h-360q13 -9 25 -18t26 -17q9 -12 24 -20l25 -15l-50 -65l-345 248l348 254l48 -68l-98 -71h355zM783 284q7 4 13 8l12 8l24 16l-14 9l-9 9q-12 4 -26 18
h-575l-13 -10q-8 -6 -10 -6q-4 -2 -6 -3.5t-6 -5.5l-12 -8q2 -4 5 -6l6 -4l12 -7q12 -14 25 -18h574z" />
    <glyph glyph-name="universal" unicode="&#x2200;" horiz-adv-x="1045" 
d="M343 489h341q10 24 21 49t23 52l21 51q6 12 11 25.5t12 25.5h91l-310 -747h-77l-309 747h91zM652 408h-276q4 -12 8.5 -22t8.5 -22q5 -10 9 -20.5t9 -19.5l16 -42t19 -41q7 -20 15 -40t17 -41q4 -12 8.5 -22t8.5 -21q4 -10 9 -21.5t9 -20.5z" />
    <glyph glyph-name="partialdiff" unicode="&#x2202;" horiz-adv-x="1045" 
d="M447 152q20 10 38.5 23.5t34.5 33.5q14 19 25 40t19 46l-52 -9q-29 -10 -58 -30q-33 -24 -42 -59q-1 -10 0 -17q0 -12 5 -17q1 -11 12 -12q2 -4 18 1zM480 446q-20 -4 -34 -11q-10 -4 -15 -9t-9 -10q-23 -24 -34 -30q-17 -8 -26 8q-8 11 -2 30q3 14 16 27t29.5 25.5
t34.5 24.5q36 20 81 19q16 -3 31 -7t31 -12q12 -8 23 -17.5t21 -19.5q9 -12 16 -24.5t11 -27.5q3 -15 5.5 -30t2.5 -31q0 -20 -2.5 -40.5t-6.5 -35.5q-6 -18 -13.5 -35.5t-18.5 -33.5q-10 -18 -22 -34t-29 -28q-14 -16 -31 -26.5t-35 -18.5q-18 -10 -37.5 -13.5t-39.5 -3.5
q-21 0 -39.5 5.5t-28.5 16.5q-29 22 -36 66q-6 26 7 56q7 29 32 55q23 24 50 43q16 9 30.5 14.5t31.5 11.5q13 3 26 4t27 4q6 0 12 0.5t13 0.5q6 0 10 0.5t10 0.5q-1 4 -1.5 7t-0.5 7t-0.5 7.5t-0.5 7.5l-10 30q-11 19 -32 25q-12 2 -22.5 2h-24.5z" />
    <glyph glyph-name="existential" unicode="&#x2203;" horiz-adv-x="1045" 
d="M753 691v-746h-526v79h440v267h-415v81h415v239h-431v80h517z" />
    <glyph glyph-name="gradient" unicode="&#x2207;" horiz-adv-x="1045" 
d="M495 -35l-370 663h740zM263 547q30 -55 59 -105t58 -101q13 -24 27.5 -49.5t28.5 -50.5q17 -27 31 -53.5t30 -52.5l28 54q7 12 14 25.5t16 26.5q11 24 25 49t30 51q6 14 13 26t14 25l27 51l28 50l30 54h-459z" />
    <glyph glyph-name="element" unicode="&#x2208;" horiz-adv-x="1045" 
d="M232 277q7 -79 61 -116q48 -42 135 -44h396v-79h-387q-30 0 -58.5 4t-54.5 14q-52 19 -92 56q-20 18 -36 39.5t-25 48.5q-12 25 -17.5 55t-5.5 62t4.5 60t16.5 55q19 52 60 88q18 17 41 30.5t50 25.5q54 17 117 21h387v-79h-396q-82 0 -135 -41q-54 -43 -61 -119h591v-81
h-591z" />
    <glyph glyph-name="suchthat" unicode="&#x220b;" horiz-adv-x="1045" 
d="M169 277v81h591q-5 39 -19.5 68.5t-40.5 50.5q-56 41 -135 41h-397v79h387q61 -5 117 -21q27 -12 49.5 -25.5t41.5 -30.5q35 -36 60 -88q11 -27 16 -55t5 -60t-5.5 -62t-16.5 -55q-11 -27 -27 -48.5t-35 -39.5q-44 -37 -91 -56q-27 -10 -55.5 -14t-58.5 -4h-387v79h397
q82 2 136 44q48 36 59 116h-591z" />
    <glyph glyph-name="product" unicode="&#x220f;" horiz-adv-x="1045" 
d="M815 653v-79h-158v-592h-78v592h-167v-592h-79v592h-157v79h639z" />
    <glyph glyph-name="summation" unicode="&#x2211;" horiz-adv-x="1045" 
d="M768 653v-253h-80v174h-364q29 -33 58.5 -65t60.5 -63q30 -34 59 -65q15 -15 29 -31.5t29 -32.5l-236 -256h371v176h80v-255h-529q-19 0 -30 8q-15 6 -15 29q0 7 2 15.5t8 16.5l20 28l109 119q25 28 53 58.5t58 60.5q-30 31 -59 62.5t-57 64.5q-30 32 -59 63.5t-56 62.5
v83h548z" />
    <glyph glyph-name="radical" unicode="&#x221a;" horiz-adv-x="1045" 
d="M111 192l111 82l64 -125q8 56 18 113q5 28 9.5 56.5t9.5 58.5q5 27 9 56t9 58l21 114h496v-81h-428q-14 -69 -25 -136t-21 -136l-23 -137l-24 -132q-5 -12 -9 -15q-10 -7 -16 -7q-12 -1 -19 3q-11 2 -13 14l-88 174q-6 -5 -11.5 -8.5t-12.5 -8.5l-12 -9q-6 -6 -10 -8z
" />
    <glyph glyph-name="proportional" unicode="&#x221d;" horiz-adv-x="1045" 
d="M813 421q-11 9 -22 15t-19 9q-20 6 -44 6q-29 0 -53 -11q-24 -13 -40 -30q-18 -20 -29 -43q-6 -13 -11.5 -25t-10.5 -26q6 -23 20 -46q11 -28 28 -44q17 -18 41 -31q12 -4 24.5 -7.5t30.5 -3.5q45 0 85 31l48 -66q-36 -24 -66 -35q-30 -12 -67 -12q-21 0 -37 1.5t-33 8.5
q-29 8 -54 28q-27 13 -41 36q-8 10 -15 21t-11 23q-30 -52 -74 -84q-23 -19 -50.5 -26.5t-60.5 -7.5q-45 0 -82 18q-41 17 -64 47q-31 29 -44 69q-9 18 -12.5 39t-3.5 42t3.5 41.5t12.5 41.5q7 19 17.5 36.5t26.5 32.5q12 16 29 27t35 20q19 9 38.5 13.5t43.5 4.5
q69 0 115 -37q22 -17 39.5 -39t33.5 -49q7 14 15 25.5t17 25.5l19 19t21 18q10 8 23.5 14.5t27.5 13.5q14 4 30.5 6.5t34.5 2.5q34 0 69 -12q15 -7 31 -16.5t32 -19.5zM225 317q0 -13 2 -25t9 -25q6 -22 26 -42q15 -20 40 -30q24 -11 50 -11q15 0 27.5 3.5t24.5 7.5
q24 14 39 31q9 11 15.5 20.5t13.5 22.5q3 4 5.5 10.5t5.5 11.5l12 25q-5 14 -10.5 25.5t-11.5 23.5q-8 12 -14.5 22t-15.5 21q-10 10 -20.5 17.5t-19.5 13.5q-24 12 -51 12q-15 0 -26.5 -3t-22.5 -8q-12 -6 -22.5 -12.5t-17.5 -16.5q-20 -20 -27 -42q-7 -13 -9 -25.5
t-2 -26.5z" />
    <glyph glyph-name="infinity" unicode="&#x221e;" horiz-adv-x="1045" 
d="M333 506q21 0 41.5 -6t40.5 -15q36 -22 79 -86q25 46 64 76q35 31 99 31q20 0 36.5 -4t34.5 -10q30 -17 59 -43q12 -14 21 -29.5t17 -30.5q7 -18 11.5 -35.5t4.5 -36.5q0 -18 -4.5 -36.5t-11.5 -35.5q-8 -17 -17 -32t-21 -27q-27 -30 -59 -41q-18 -9 -34.5 -12.5
t-36.5 -3.5q-55 0 -92 24q-36 24 -68 81q-26 -46 -67 -75q-44 -30 -97 -30q-20 0 -38.5 3.5t-32.5 11.5q-37 14 -57 41q-13 12 -23.5 27t-15.5 32q-10 17 -12.5 35t-2.5 38q0 19 2.5 37t12.5 36q5 15 15.5 30.5t23.5 29.5q11 12 25 23t32 19q34 14 71 14zM756 317
q0 11 -2 20t-5 19q-4 11 -9 19t-12 16q-6 5 -13.5 11t-16.5 12q-20 10 -41 10q-22 0 -38 -12q-9 -7 -18 -13.5t-13 -13.5q-20 -18 -27 -34q-5 -11 -8.5 -19t-5.5 -16q3 -9 7.5 -17.5t9.5 -16.5q8 -20 26 -34q5 -8 13.5 -14.5t17.5 -11.5q8 -6 17 -8t19 -2q11 0 20.5 2
t20.5 7q18 8 30 23q7 7 12 16t9 19q3 9 5 18t2 20zM236 317q0 -21 7 -38q8 -23 21 -35q9 -15 29 -23q11 -5 19.5 -7t20.5 -2q11 0 20.5 2t18.5 8q19 11 31 23q6 8 11 17t12 19l7 18l11 17l-11 19l-7 20q-7 9 -12 17.5t-11 16.5q-7 8 -14.5 13t-16.5 12q-17 10 -39 10
q-12 0 -20.5 -2.5t-19.5 -7.5q-10 -7 -17 -12.5t-12 -10.5q-15 -17 -21 -35q-7 -18 -7 -39z" />
    <glyph glyph-name="angle" unicode="&#x2220;" horiz-adv-x="1045" 
d="M310 82h524v-82h-627q-31 0 -39 29q-5 10 5 25q5 11 17 22q34 33 68 67.5t69 71.5q34 35 68 71.5t67 74.5l137 146q33 36 66.5 71.5t65.5 70.5l60 -60z" />
    <glyph glyph-name="uni2225" unicode="&#x2225;" horiz-adv-x="1045" 
d="M377 783h79v-930h-79v930zM534 783h78v-930h-78v930z" />
    <glyph glyph-name="logicaland" unicode="&#x2227;" horiz-adv-x="1045" 
d="M749 -27l-254 544q-33 -69 -64 -136.5t-63 -136.5t-64 -136.5t-62 -134.5l-66 41l283 611q2 7 15 20q9 9 21 9q27 0 38 -30l-1 1q34 -76 69.5 -151.5t72.5 -153.5q36 -79 71 -155l70 -152z" />
    <glyph glyph-name="logicalor" unicode="&#x2228;" horiz-adv-x="1045" 
d="M815 624l-283 -611q-6 -16 -13 -23q-11 -7 -24 -7q-11 0 -21 10q-12 9 -15 20q-36 73 -70.5 149.5t-72.5 154.5q-37 81 -72 156t-68 150l66 41l253 -544q30 67 62.5 135t64.5 137l127 272z" />
    <glyph glyph-name="intersection" unicode="&#x2229;" horiz-adv-x="1045" 
d="M500 600q-21 0 -39 -4.5t-35 -10.5q-19 -7 -34.5 -17.5t-28.5 -23.5q-28 -28 -42 -65q-7 -21 -10.5 -43t-3.5 -46v-417h-80v406q0 62 20 116q18 53 54 97q35 43 84 65q46 25 110 25t115 -25q46 -24 84 -65q15 -20 29 -44.5t25 -53.5q15 -54 15 -115v-406h-79v417
q0 41 -12 80q-7 17 -15.5 33.5t-19.5 32.5q-13 15 -27.5 26.5t-29.5 21.5q-19 6 -38.5 11t-41.5 5z" />
    <glyph glyph-name="union" unicode="&#x222a;" horiz-adv-x="1045" 
d="M500 36q45 0 80 16q32 18 57 47q12 15 20 30.5t15 36.5q7 18 9.5 38t2.5 40v418h79v-406q0 -63 -15 -115q-11 -29 -25 -53t-29 -44q-38 -44 -84 -66q-51 -25 -115 -25t-110 25q-50 22 -84 65q-35 40 -54 97q-20 54 -20 116v406h80v-418q0 -26 3.5 -47.5t10.5 -40.5
q15 -38 42 -65q26 -29 63 -41q17 -8 35 -11t39 -3z" />
    <glyph glyph-name="integral" unicode="&#x222b;" horiz-adv-x="1045" 
d="M456 436q5 58 17 105.5t30 89.5q31 77 89 91q18 4 36 0q16 -6 29 -25q21 -32 2 -62q-12 -18 -26 -20q-17 -6 -30 1q-6 2 -11.5 4t-10.5 3q-11 0 -12 -16q-7 -20 -8 -43q-2 -14 -3.5 -27.5t-1.5 -29.5q-1 -10 -2 -17t-1 -15q-1 -8 -1 -15v-14q-2 -15 -2.5 -28.5
t-0.5 -24.5q-1 -6 -1.5 -11.5t-0.5 -9.5v-12q-3 -13 -3 -28.5v-34.5l-4 -45l-5 -52q-3 -28 -7.5 -55.5t-9.5 -50.5q-7 -27 -14 -49t-15 -40q-19 -37 -40 -61q-26 -24 -51 -30q-10 -3 -19.5 -2.5t-15.5 3.5q-19 6 -30 23q-13 10 -13 29q-1 7 0.5 15t5.5 13q2 8 12 17
q7 7 18 11q4 1 7.5 3t8.5 3q7 0 15 -3q26 -17 36 2q4 6 6 18.5t4 33.5q0 9 1.5 20t2.5 23v20.5t1 23.5q2 65 6 134q2 33 4.5 66t7.5 69z" />
    <glyph glyph-name="uni222C" unicode="&#x222c;" horiz-adv-x="1045" 
d="M338 436q6 58 17.5 105.5t30.5 89.5q16 39 39 61.5t50 29.5q19 4 35 0q15 -6 31 -25q18 -32 2 -62q-16 -19 -28 -20q-16 -6 -29 1q-7 4 -12.5 5t-11.5 2q-8 0 -9 -16q-6 -18 -9 -43q-6 -29 -6 -57q-1 -10 -2 -17t-1 -15q-2 -8 -2 -15v-14q-2 -15 -2 -28.5v-24.5
q-1 -6 -1 -11.5v-9.5v-12q-2 -13 -2.5 -28.5t-0.5 -34.5l-5 -45l-4 -52q-4 -28 -7.5 -55.5t-10.5 -50.5q-12 -52 -30 -89q-8 -19 -19 -34.5t-20 -26.5q-25 -24 -52 -30q-19 -6 -33 1q-21 6 -30 23q-13 10 -13 29q-1 7 1 15t5 13q2 9 11 17q4 2 8 5t10 6q3 1 7.5 3t10.5 3
q3 0 7 -0.5t7 -2.5q25 -16 36 2q6 11 10 52q0 9 1 20t2 23v20.5t1 23.5q1 33 2.5 66t4.5 68q1 33 3.5 66t7.5 69zM573 436q13 114 48 195q16 39 39.5 61.5t51.5 29.5q17 5 37 0q13 -7 29 -25q19 -31 2 -62q-14 -18 -28 -20q-16 -6 -30 1q-5 2 -10.5 4t-10.5 3q-11 0 -12 -16
q-5 -16 -7 -43q-3 -14 -5 -27.5t-2 -29.5q-1 -10 -2 -17t-1 -15q-1 -8 -1 -15v-14q-2 -15 -2.5 -28.5t-0.5 -24.5q-1 -6 -2 -11.5t-1 -9.5v-12q-2 -13 -2.5 -28.5t-0.5 -34.5l-4 -45l-4 -52q-2 -28 -7 -55.5t-12 -50.5q-5 -27 -12.5 -49t-14.5 -40q-11 -19 -21 -34.5
t-21 -26.5q-23 -24 -51 -30q-18 -6 -34 1q-18 5 -29 23q-13 10 -13 29q-2 17 5 28q3 10 13 17q4 4 16 11q4 1 8.5 3t10.5 3q3 0 6.5 -0.5t6.5 -2.5q25 -16 37 2q2 6 5 18.5t6 33.5q0 9 1 20t2 23v20.5t2 23.5q0 32 1 65.5t3 68.5q1 32 3.5 66t7.5 69z" />
    <glyph glyph-name="uni222E" unicode="&#x222e;" horiz-adv-x="1045" 
d="M393 105l6 18l2 8t3 10t4 15t4 19q-28 19 -45 53q-17 29 -17 68q0 29 12 58q5 13 12.5 25.5t18.5 23.5q19 22 47 35q25 11 57 11q5 21 12 37t13 31q5 13 9.5 22.5t10.5 17.5q17 37 51 59q32 17 61 14q53 -12 59 -54q2 -25 -4 -37q-6 -16 -20 -24q-8 -6 -18.5 -7t-17.5 5
q-24 4 -35 26q-6 -12 -13 -29t-15 -39l-1 -9q-3 -3 -3 -8q-1 -3 -2 -6.5t-3 -7.5q-1 -6 -6 -19q30 -25 48 -55q18 -36 18 -70q0 -30 -11 -55q-14 -31 -32 -49q-11 -13 -23 -20.5t-24 -13.5q-15 -8 -28.5 -10.5t-28.5 -1.5q-6 -19 -12.5 -35.5t-12.5 -31.5
q-7 -18 -13.5 -30.5t-13.5 -25.5q-12 -21 -24.5 -33t-25.5 -19q-28 -16 -56 -10q-28 4 -43 22q-17 14 -17 31q-6 36 31 61q10 7 35 6q20 -4 33 -22zM428 293q0 -11 2 -21q2 -15 7 -19q3 13 7.5 27t11.5 30l7 30l11 31q-12 -6 -19.5 -14t-14.5 -18q-12 -21 -12 -46zM563 300
q0 5 -1 10.5t-1 11.5l-3 9q0 2 -1 3.5t-2 4.5l-10 -30q-5 -13 -7 -24q-4 -7 -6.5 -14t-4.5 -15q-3 -7 -5 -13.5t-4 -16.5q8 6 17 12.5t16 18.5q12 19 12 43z" />
    <glyph glyph-name="therefore" unicode="&#x2234;" horiz-adv-x="1045" 
d="M724 150q13 0 23 -4.5t23 -14.5q9 -12 14.5 -23.5t5.5 -24.5q0 -14 -5.5 -25.5t-14.5 -21.5q-13 -11 -23 -15.5t-23 -4.5t-24 4.5t-19 15.5q-13 10 -17.5 21.5t-4.5 25.5q0 13 4.5 24.5t17.5 23.5q16 19 43 19zM267 150q23 0 45 -19q8 -12 13.5 -23.5t5.5 -24.5
q0 -27 -19 -47q-20 -20 -45 -20q-13 0 -25 4.5t-21 15.5q-19 16 -19 47q0 13 4 24.5t15 23.5q18 19 46 19zM495 606q13 0 23 -5.5t23 -14.5q19 -21 19 -47q0 -28 -19 -47q-13 -11 -23 -15.5t-23 -4.5t-24 4.5t-20 15.5q-21 16 -21 47q0 27 21 47q20 20 44 20z" />
    <glyph glyph-name="uni2235" unicode="&#x2235;" horiz-adv-x="1045" 
d="M724 484q-13 0 -24 4t-19 15q-13 10 -17.5 21.5t-4.5 26.5q0 12 4.5 23.5t17.5 22.5q18 21 43 21q13 0 23 -5.5t23 -15.5q9 -11 14.5 -22.5t5.5 -23.5q0 -15 -5.5 -26.5t-14.5 -21.5q-13 -11 -23 -15t-23 -4zM267 484q-13 0 -25 4t-21 15q-19 16 -19 48q0 27 19 46
q19 21 46 21q22 0 45 -21q19 -22 19 -46q0 -29 -19 -48t-45 -19zM495 28q-13 0 -24 4t-20 16q-21 16 -21 46q0 28 21 49q9 7 20 13t24 6t23 -6t23 -13q19 -25 19 -49q0 -27 -19 -46q-13 -12 -23 -16t-23 -4z" />
    <glyph glyph-name="similar" unicode="&#x223c;" horiz-adv-x="1045" 
d="M100 248q1 24 6 49t13 48q18 46 48 84q27 32 74 55q21 8 45 11.5t51 0.5q51 -5 93 -33q36 -33 65 -79q48 -84 120 -87q36 -5 62 12q11 6 20.5 16t19.5 21q9 12 16 25.5t13 29.5q3 17 7.5 32t9.5 33h81q-4 -27 -11 -51.5t-16 -48.5q-20 -50 -47 -83q-29 -37 -72 -53
q-43 -20 -103 -12q-49 6 -88 36q-21 15 -38 34.5t-33 44.5q-12 18 -24.5 34t-26.5 28q-16 11 -29.5 17t-28.5 9q-18 0 -34 -2t-27 -9q-26 -11 -44 -35q-17 -25 -25 -55q-7 -18 -10.5 -35.5t-7.5 -36.5h-79z" />
    <glyph glyph-name="uni223D" unicode="&#x223d;" horiz-adv-x="1045" 
d="M697 548q20 -1 40.5 -5.5t39.5 -11.5q36 -19 63 -46q11 -16 20.5 -33.5t17.5 -36.5q12 -42 12 -84q-1 -22 -5 -40.5t-10 -37.5q-9 -17 -19 -33.5t-22 -28.5q-16 -16 -30 -27.5t-32 -18.5q-19 -8 -38.5 -11.5t-40.5 -3.5q-17 0 -33.5 2t-35.5 9q-35 5 -64 32l31 68
q13 -5 24.5 -11t26.5 -9q13 -5 27 -7t30 -2q9 0 19 2t23 7q18 8 34 24q15 17 25 38q3 8 5.5 18.5t3.5 23.5q0 12 -2.5 25.5t-4.5 26.5l-23 46q-8 8 -18 15.5t-19 14.5q-14 7 -25.5 9.5t-24.5 4.5q-33 0 -55 -12q-13 -9 -24 -17t-21 -18q-10 -14 -18.5 -26t-14.5 -25
q-8 -15 -14.5 -27.5t-12.5 -26.5q-8 -17 -17.5 -33.5t-19.5 -34.5q-23 -36 -52 -62q-30 -29 -66 -42q-18 -9 -39 -11.5t-41 0.5q-93 10 -143 69q-54 58 -48 149q0 36 14 75q14 37 42 65q13 12 29 24t33 21q18 6 37 11t41 5q6 0 14 -1.5t18 -2.5q9 -3 18.5 -5t16.5 -5
q5 -2 9.5 -3.5t8.5 -5.5q4 -2 8.5 -3.5l10.5 -3.5q7 -6 15 -11.5t12 -12.5l-34 -65q-14 8 -25 14.5t-24 13.5l-26 6t-26 3t-23 -2.5t-21 -5.5q-24 -13 -36 -25q-16 -16 -25 -36q-5 -12 -7 -22.5t-2 -22.5q0 -64 32 -102q28 -41 87 -43q31 -3 57 13q22 13 42 39q8 9 17 21
t17 27l13 25l12 23q9 16 19 33t20 36q21 35 49 62q26 26 63 44q34 15 85 15z" />
    <glyph glyph-name="uni2252" unicode="&#x2252;" horiz-adv-x="1045" 
d="M157 439h677v-85h-677v85zM157 282h677v-87h-677v87zM310 642q26 0 49 -21q18 -26 18 -49q0 -30 -18 -49q-21 -22 -49 -22q-33 0 -48 22q-20 18 -20 49q0 24 20 49q18 21 48 21zM680 136q25 0 47 -22q21 -21 21 -49t-21 -49t-47 -21q-29 0 -48 21q-21 19 -21 49
q0 29 21 49q19 22 48 22z" />
    <glyph glyph-name="notequal" unicode="&#x2260;" horiz-adv-x="1045" 
d="M488 454q8 28 16.5 55t18.5 57l36 114l82 -23l-61 -203h263v-84h-292q-3 -6 -5 -12.5t-4 -13.5l-9 -27q-7 -15 -10.5 -29.5t-7.5 -25.5h328v-87h-355q-6 -15 -10 -28t-10 -26q-6 -15 -10.5 -28t-7.5 -29q-13 -29 -21 -56q-5 -13 -9.5 -27t-8.5 -26l-84 16l69 204h-229v87
h257q4 10 7.5 23.5t10.5 28.5q3 8 5 15t4 12q2 8 4 15t5 14h-293v84h321z" />
    <glyph glyph-name="equivalence" unicode="&#x2261;" horiz-adv-x="1045" 
d="M157 505h677v-79h-677v79zM157 358h677v-81h-677v81zM157 209h677v-79h-677v79z" />
    <glyph glyph-name="lessequal" unicode="&#x2264;" horiz-adv-x="1045" 
d="M327 414q60 -26 122 -54t128 -56q63 -30 125 -57.5t125 -54.5l-38 -79l-590 261q-12 5 -22 17q-11 9 -11 23q0 7 5 20q4 4 7.5 8t10.5 7l606 268l29 -82zM148 101h694v-87h-694v87z" />
    <glyph glyph-name="greaterequal" unicode="&#x2265;" horiz-adv-x="1045" 
d="M176 635l30 82l605 -268q6 -3 10 -7l8 -8q6 -12 6 -20q0 -13 -12 -23q-6 -6 -11 -10.5t-10 -6.5l-591 -261l-38 79l500 222zM852 14h-694v87h694v-87z" />
    <glyph glyph-name="uni226A" unicode="&#x226a;" horiz-adv-x="1045" 
d="M613 682l47 -61l-413 -304q25 -18 50.5 -37.5t52.5 -38.5q26 -19 52.5 -38t53.5 -37q51 -39 102.5 -77t102.5 -75l-49 -59l-445 328q-12 4 -19 16q-8 5 -8 18q0 12 9 20l8 7l10 10zM828 682l47 -61l-414 -304q25 -18 50.5 -37.5t51.5 -38.5q27 -19 53 -38t53 -37
q52 -39 104 -77t104 -75l-52 -59l-445 328q-12 5 -18 16q-6 4 -6 18q0 13 7 20l7 7l11 10z" />
    <glyph glyph-name="uni226B" unicode="&#x226b;" horiz-adv-x="1045" 
d="M824 354q3 -3 5.5 -5t4.5 -5q3 -2 5 -3.5t4 -3.5q9 -9 9 -20q0 -13 -8 -18q-3 -6 -8 -9.5t-11 -6.5l-445 -328l-50 59l414 303q-54 37 -104 75t-102 77q-55 39 -106.5 77t-100.5 75l47 61zM611 354q5 -11 18 -17q3 -4 5.5 -9t2.5 -11q0 -11 -7 -18q-8 -11 -18 -16
l-445 -328l-52 59l414 303q-27 19 -52.5 37.5t-48.5 37.5q-27 18 -53 37t-53 40q-54 39 -104.5 77t-101.5 75l48 61z" />
    <glyph glyph-name="propersubset" unicode="&#x2282;" horiz-adv-x="1045" 
d="M229 323q0 -24 3 -43t11 -39q6 -17 16 -33t24 -29q25 -29 63 -43q17 -8 37.5 -13t44.5 -6h396v-79h-387q-30 0 -58.5 4t-54.5 14q-52 19 -92 56q-20 18 -36 39.5t-25 48.5q-12 25 -17.5 55t-5.5 62t4.5 60t16.5 56q19 52 60 88q18 17 41 30.5t50 25.5q27 8 56 13.5
t61 6.5h387v-79h-396q-42 0 -78 -14q-18 -9 -33.5 -18t-27.5 -22q-16 -15 -25.5 -29t-16.5 -34q-18 -35 -18 -78z" />
    <glyph glyph-name="propersuperset" unicode="&#x2283;" horiz-adv-x="1045" 
d="M763 323q-5 43 -15 78q-10 20 -20.5 34t-22.5 29q-24 23 -62 40q-19 7 -37.5 10.5t-40.5 3.5h-397v79h387q31 -1 60.5 -6.5t56.5 -13.5q27 -12 49.5 -25.5t41.5 -30.5q35 -36 60 -88q11 -28 16 -56t5 -60t-5.5 -62t-16.5 -55q-11 -27 -27 -48.5t-35 -39.5
q-44 -37 -91 -56q-27 -10 -55.5 -14t-58.5 -4h-387v79h397q47 2 83 19q17 7 32 18t29 25q12 13 22.5 29t17.5 33q6 20 10 39t4 43z" />
    <glyph glyph-name="reflexsubset" unicode="&#x2286;" horiz-adv-x="1045" 
d="M148 81h694v-81h-694v81zM228 392q0 -21 3.5 -38t11.5 -32q15 -33 43 -52q25 -27 62 -31q18 -7 38 -10t42 0h396v-81h-387q-63 -5 -114 13q-26 8 -49.5 19.5t-42.5 28.5q-20 16 -36 35.5t-25 42.5q-13 22 -17.5 48.5t-4.5 56.5q0 29 4.5 55t17.5 49q9 23 25 42.5t36 37.5
q38 29 92 47q26 7 55 9.5t59 1.5h387v-78h-396q-45 0 -79 -9q-19 -6 -35 -13.5t-28 -18.5q-29 -22 -43 -53q-8 -16 -11.5 -34t-3.5 -36z" />
    <glyph glyph-name="reflexsuperset" unicode="&#x2287;" horiz-adv-x="1045" 
d="M842 0h-694v81h694v-81zM761 392q0 18 -4 36t-9 34q-21 32 -43 53q-14 11 -30 18.5t-33 13.5q-38 9 -80 9h-396v78h387q31 1 59.5 -1.5t54.5 -9.5q50 -18 91 -47q38 -35 61 -80q23 -48 23 -104q0 -61 -23 -105q-24 -47 -61 -78q-20 -17 -43 -28.5t-48 -19.5
q-54 -18 -114 -13h-387v81h396q22 -3 41.5 0t38.5 10q35 5 63 31q12 10 22.5 23t20.5 29q5 15 9 32t4 38z" />
    <glyph glyph-name="uni2299" unicode="&#x2299;" horiz-adv-x="1045" 
d="M497 717q40 0 77.5 -8.5t74.5 -24.5q68 -33 120 -88q25 -28 44.5 -60t35.5 -67q29 -75 29 -153q0 -42 -7.5 -79t-21.5 -73q-15 -37 -35.5 -68.5t-45.5 -57.5q-53 -56 -120 -88q-37 -17 -74.5 -24.5t-76.5 -7.5q-42 0 -80 6.5t-72 24.5q-71 31 -122 87q-52 54 -81 128
q-29 72 -29 152t30 154q14 36 34 68t46 59q50 55 122 87q34 16 72 24.5t80 8.5zM497 630q-35 0 -63.5 -6t-55.5 -19q-28 -14 -52 -31t-44 -38q-43 -44 -62 -99q-22 -56 -22 -121q0 -68 22 -119q19 -55 62 -99q40 -46 96 -68q27 -15 55.5 -21t63.5 -6q30 0 60.5 6t56.5 21
q28 12 51 29.5t44 38.5q39 44 63 100q9 27 15.5 57t6.5 61q0 30 -6.5 59.5t-16.5 59.5q-25 57 -63 100q-40 40 -95 69q-25 13 -55.5 19.5t-60.5 6.5zM497 490q15 0 31.5 -4t31.5 -11q32 -17 53 -39q22 -25 37 -55q11 -35 11 -66t-11 -64q-8 -14 -17.5 -28t-19.5 -28
q-11 -11 -23.5 -21t-28.5 -16q-15 -9 -32 -11.5t-32 -2.5q-19 0 -34.5 2.5t-31.5 11.5q-16 6 -29 16t-23 21q-22 22 -36 56q-12 28 -12 64q0 17 2.5 34t9.5 32q7 16 15.5 29.5t21.5 25.5q10 12 23 21.5t28 17.5q17 7 32 11t34 4z" />
    <glyph glyph-name="perpendicular" unicode="&#x22a5;" horiz-adv-x="1045" 
d="M176 81h277v535h85v-535h277v-82h-639v82z" />
    <glyph glyph-name="uni2312" unicode="&#x2312;" horiz-adv-x="1045" 
d="M156 328q5 67 36 128q28 58 75 105q43 43 103 71q60 24 125 24q64 0 126 -24q29 -14 54.5 -31t48.5 -40q46 -47 76 -105q14 -30 23 -62.5t15 -65.5h-87q-11 49 -30 96q-13 22 -26.5 42t-30.5 36t-36 29t-39 24q-23 8 -46 13.5t-48 5.5t-47.5 -5.5t-43.5 -13.5
q-40 -19 -76 -53q-18 -16 -31.5 -36t-25.5 -42q-23 -47 -31 -96h-84z" />
    <glyph glyph-name="uni2460" unicode="&#x2460;" horiz-adv-x="1100" 
d="M63 317q0 92 35 177q17 42 41.5 78t56.5 68q58 61 144 98q81 37 181 37q95 0 179 -37q42 -18 77 -42.5t67 -55.5q31 -33 55.5 -68.5t42.5 -77.5q35 -85 35 -177q0 -93 -35 -177q-18 -45 -43 -81t-56 -66q-62 -61 -144 -97q-86 -36 -178 -36q-96 0 -180 36
q-42 18 -78.5 42t-65.5 55q-33 30 -57 66t-41 81q-36 82 -36 177zM129 317q0 -82 31 -151q31 -73 85 -124q50 -53 123 -85q72 -32 153 -32q78 0 150 32q35 16 67 36t59 48q53 53 84 124q16 35 23 72.5t7 79.5q0 78 -30 152q-32 69 -84 124q-27 28 -58.5 48.5t-66.5 36.5
q-37 15 -75 23.5t-76 8.5q-42 0 -79.5 -8.5t-74.5 -23.5q-35 -16 -66 -36.5t-58 -48.5q-51 -53 -83 -124q-31 -69 -31 -152zM490 19v17q0 5 0.5 9.5t0.5 8.5v442q-12 -10 -22 -19l-20 -18q-14 -11 -23 -19.5t-18 -17.5q-8 8 -14 16t-12 17l-14 16l-11 19l74 58
q9 8 18.5 14.5t17.5 15.5q9 6 18 13.5t19 15.5h85q-1 -5 -1 -11v-11q-1 -5 -1 -11v-13v-520v-12t1 -10h-98z" />
    <glyph glyph-name="uni2461" unicode="&#x2461;" horiz-adv-x="1100" 
d="M63 317q0 92 35 177q17 42 41.5 78t56.5 68q58 61 144 98q81 37 181 37q95 0 179 -37q42 -18 77 -42.5t67 -55.5q31 -33 55.5 -68.5t42.5 -77.5q35 -85 35 -177q0 -93 -35 -177q-18 -45 -43 -81t-56 -66q-62 -61 -144 -97q-86 -36 -178 -36q-96 0 -180 36
q-42 18 -78.5 42t-65.5 55q-33 30 -57 66t-41 81q-36 82 -36 177zM129 317q0 -82 31 -151q31 -73 85 -124q50 -53 123 -85q72 -32 153 -32q78 0 150 32q35 16 67 36t59 48q53 53 84 124q16 35 23 72.5t7 79.5q0 78 -30 152q-32 69 -84 124q-27 28 -58.5 48.5t-66.5 36.5
q-37 15 -75 23.5t-76 8.5q-42 0 -79.5 -8.5t-74.5 -23.5q-35 -16 -66 -36.5t-58 -48.5q-51 -53 -83 -124q-31 -69 -31 -152zM332 115q3 5 13 12l22 17q12 8 26 19.5t31 26.5q31 24 66 57q16 15 31 31.5t31 33.5q12 17 24.5 35t21.5 36q17 36 17 71q0 37 -29 63
q-32 24 -79 24q-91 0 -146 -48l-3 22q-1 7 -1.5 12.5t-0.5 9.5q-6 21 -6 47q20 7 41 14.5t42 12.5q22 3 43 5.5t42 2.5q37 0 75 -11q19 -5 33 -13.5t29 -17.5q23 -20 43 -52q7 -18 10.5 -36.5t3.5 -39.5q0 -15 -3 -30.5t-6 -27.5q-7 -15 -14 -28.5t-14 -26.5
q-10 -14 -18.5 -25.5t-18.5 -23.5q-12 -14 -22 -26t-21 -20q-15 -17 -28 -31.5t-29 -29.5t-33.5 -30.5t-38.5 -31.5l-13 -10q-6 -7 -11 -9h218h14t16 1h15t15 2v-83q-11 0 -21.5 0.5t-18.5 0.5h-348v95z" />
    <glyph glyph-name="uni2462" unicode="&#x2462;" horiz-adv-x="1100" 
d="M63 317q0 92 35 177q17 42 41.5 78t56.5 68q58 61 144 98q81 37 181 37q95 0 179 -37q42 -18 77 -42.5t67 -55.5q31 -33 55.5 -68.5t42.5 -77.5q35 -85 35 -177q0 -93 -35 -177q-18 -45 -43 -81t-56 -66q-62 -61 -144 -97q-86 -36 -178 -36q-96 0 -180 36
q-42 18 -78.5 42t-65.5 55q-33 30 -57 66t-41 81q-36 82 -36 177zM129 317q0 -82 31 -151q31 -73 85 -124q50 -53 123 -85q72 -32 153 -32q78 0 150 32q35 16 67 36t59 48q53 53 84 124q16 35 23 72.5t7 79.5q0 78 -30 152q-32 69 -84 124q-27 28 -58.5 48.5t-66.5 36.5
q-37 15 -75 23.5t-76 8.5q-42 0 -79.5 -8.5t-74.5 -23.5q-35 -16 -66 -36.5t-58 -48.5q-51 -53 -83 -124q-31 -69 -31 -152zM430 291q-4 -1 -7.5 -1h-5.5h-8v81q5 -1 10 -1h11q2 -1 9.5 -1h17.5h16q10 0 22 1t25 4q11 1 23 5t23 10q11 4 19.5 10.5t17.5 16.5q6 8 10 18.5
t4 25.5q0 11 -2.5 21.5t-6.5 18.5q-5 7 -11 13l-13 13q-9 5 -17.5 8t-18.5 6q-12 1 -22.5 2.5t-23.5 1.5q-20 0 -37.5 -3t-35.5 -6q-20 -7 -37.5 -13t-31.5 -12q-1 10 -1.5 20t-0.5 23q-3 8 -4 19t-1 22q14 6 34 10t43 10q23 3 44 5.5t40 2.5t38.5 -2.5t37.5 -6.5
q17 -6 33 -13.5t30 -15.5q12 -12 22 -23.5t20 -26.5q8 -16 11.5 -33.5t3.5 -38.5q0 -35 -10 -52q-14 -23 -29 -35q-20 -17 -39 -24q-13 -7 -23 -12t-19 -8q26 -7 50 -18.5t43 -29.5q36 -41 36 -100q0 -25 -6 -45.5t-15 -35.5q-13 -18 -27 -31t-31 -21q-37 -23 -79 -29
q-23 -5 -44.5 -6.5t-44.5 -1.5q-17 0 -35 1.5t-36 6.5q-21 3 -37.5 7.5t-31.5 9.5q0 5 0.5 10t0.5 10l3 24q0 11 0.5 21.5t1.5 23.5q14 -7 29.5 -13t33.5 -11q34 -12 71 -12q13 0 27 0.5t28 2.5q14 1 25.5 5.5t24.5 10.5q19 6 34 30q12 16 12 46q0 15 -3.5 27.5t-9.5 25.5
q-8 7 -17 16t-20 15q-11 5 -23.5 9.5t-26.5 7.5q-14 2 -28 3t-27 1h-38z" />
    <glyph glyph-name="uni2463" unicode="&#x2463;" horiz-adv-x="1100" 
d="M63 317q0 92 35 177q17 42 41.5 78t56.5 68q58 61 144 98q81 37 181 37q95 0 179 -37q42 -18 77 -42.5t67 -55.5q31 -33 55.5 -68.5t42.5 -77.5q35 -85 35 -177q0 -93 -35 -177q-18 -45 -43 -81t-56 -66q-62 -61 -144 -97q-86 -36 -178 -36q-96 0 -180 36
q-42 18 -78.5 42t-65.5 55q-33 30 -57 66t-41 81q-36 82 -36 177zM129 317q0 -82 31 -151q31 -73 85 -124q50 -53 123 -85q72 -32 153 -32q78 0 150 32q35 16 67 36t59 48q53 53 84 124q16 35 23 72.5t7 79.5q0 78 -30 152q-32 69 -84 124q-27 28 -58.5 48.5t-66.5 36.5
q-37 15 -75 23.5t-76 8.5q-42 0 -79.5 -8.5t-74.5 -23.5q-35 -16 -66 -36.5t-58 -48.5q-51 -53 -83 -124q-31 -69 -31 -152zM277 151v77l61 95l62 96l61 94q14 23 30 47t31 48h134q-1 -5 -1 -11v-11q-1 -5 -1 -10.5v-12.5l1 -332h45q8 0 13 1h6.5t9.5 1v-84q-6 0 -11 0.5
t-10 0.5q-4 0 -9 0.5t-9 0.5h-36v-53v-18.5t1 -18.5v-19t2 -22h-99q0 11 0.5 22t0.5 23v23q0 6 0.5 11t0.5 12v40h-283zM560 517q-2 -3 -4 -7.5t-4 -7.5l-8 -12l-43 -67l-41 -70q-26 -36 -42 -66q-11 -17 -21 -31.5t-19 -24.5h182v286z" />
    <glyph glyph-name="uni2464" unicode="&#x2464;" horiz-adv-x="1100" 
d="M63 317q0 92 35 177q17 42 41.5 78t56.5 68q58 61 144 98q81 37 181 37q95 0 179 -37q42 -18 77 -42.5t67 -55.5q31 -33 55.5 -68.5t42.5 -77.5q35 -85 35 -177q0 -93 -35 -177q-18 -45 -43 -81t-56 -66q-62 -61 -144 -97q-86 -36 -178 -36q-96 0 -180 36
q-42 18 -78.5 42t-65.5 55q-33 30 -57 66t-41 81q-36 82 -36 177zM129 317q0 -82 31 -151q31 -73 85 -124q50 -53 123 -85q72 -32 153 -32q78 0 150 32q35 16 67 36t59 48q53 53 84 124q16 35 23 72.5t7 79.5q0 78 -30 152q-32 69 -84 124q-27 28 -58.5 48.5t-66.5 36.5
q-37 15 -75 23.5t-76 8.5q-42 0 -79.5 -8.5t-74.5 -23.5q-35 -16 -66 -36.5t-58 -48.5q-51 -53 -83 -124q-31 -69 -31 -152zM350 291q0 21 1 41t2 39l5 79q1 39 2.5 77t2.5 80h290h10t12 1h11t12 2v-80q-8 0 -18 2h-228q0 -43 -1.5 -70.5t-2.5 -42.5q-3 -10 -4 -15t-1 -10
q-1 -3 -1 -5t0 -1q4 0 7.5 0.5t7.5 0.5l17 3q10 0 19 1t20 1q42 0 79 -14q19 -8 34.5 -16.5t29.5 -22.5q24 -24 43 -57q14 -39 14 -75q0 -54 -18 -87q-20 -40 -50 -63q-33 -23 -75 -37q-20 -7 -43 -9.5t-47 -2.5q-47 0 -81 6q-20 4 -34 7t-24 7q0 12 0.5 22.5t1.5 23.5v20.5
t3 24.5q16 -10 32.5 -16.5t31.5 -10.5q16 -4 32 -6t33 -2q14 0 26.5 2t26.5 5q13 2 24 6.5t22 13.5q11 6 19 14.5t15 18.5q11 24 11 51q0 16 -3.5 30t-7.5 27q-12 25 -33 37q-18 12 -46 19q-29 6 -58 6q-18 0 -33.5 -1.5t-30.5 -3.5q-16 -4 -30 -8.5t-27 -11.5z" />
    <glyph glyph-name="uni2465" unicode="&#x2465;" horiz-adv-x="1100" 
d="M63 317q0 92 35 177q17 42 41.5 78t56.5 68q58 61 144 98q81 37 181 37q95 0 179 -37q42 -18 77 -42.5t67 -55.5q31 -33 55.5 -68.5t42.5 -77.5q35 -85 35 -177q0 -93 -35 -177q-18 -45 -43 -81t-56 -66q-62 -61 -144 -97q-86 -36 -178 -36q-96 0 -180 36
q-42 18 -78.5 42t-65.5 55q-33 30 -57 66t-41 81q-36 82 -36 177zM129 317q0 -82 31 -151q31 -73 85 -124q50 -53 123 -85q72 -32 153 -32q78 0 150 32q35 16 67 36t59 48q53 53 84 124q16 35 23 72.5t7 79.5q0 78 -30 152q-32 69 -84 124q-27 28 -58.5 48.5t-66.5 36.5
q-37 15 -75 23.5t-76 8.5q-42 0 -79.5 -8.5t-74.5 -23.5q-35 -16 -66 -36.5t-58 -48.5q-51 -53 -83 -124q-31 -69 -31 -152zM693 596q-5 -20 -7 -40q-2 -12 -3.5 -22t-1.5 -20q-17 6 -31 12t-29 10q-15 3 -31 5.5t-29 2.5q-17 0 -33.5 -4.5t-29.5 -11.5q-29 -17 -45 -42
q-11 -16 -18 -31.5t-12 -30.5q-6 -19 -9.5 -35.5t-3.5 -34.5q15 13 30 21t30 14q16 4 30.5 7t31.5 3q22 0 41 -4t38 -10q35 -17 59 -41q13 -11 22 -27t15 -31q6 -19 9.5 -38t3.5 -38q0 -23 -4.5 -44.5t-11.5 -39.5q-9 -19 -19.5 -34t-24.5 -29q-13 -13 -28.5 -21.5
t-33.5 -15.5q-38 -13 -77 -13q-65 0 -103 26q-20 11 -36 27.5t-26 37.5q-26 41 -33 91q-5 25 -7 50.5t-2 51.5q0 59 12 118q10 55 39 105q25 41 74 73q22 13 52 21t67 8q2 0 5 -0.5t9 -0.5h18q16 -5 40 -7q9 -3 18 -5.5t18 -2.5q9 -3 14.5 -6t12.5 -4zM624 209q0 14 -5 39
q-8 19 -19 37q-12 12 -33 25q-9 4 -20.5 7.5t-24.5 3.5q-12 0 -23 -3t-21 -7q-20 -9 -32 -24q-10 -9 -14 -17.5t-8 -18.5q-7 -20 -7 -42q0 -24 7 -42q8 -24 19 -38q13 -19 31 -27q19 -11 43 -11q12 0 24 1.5t22 8.5q17 6 35 27q13 16 20 37q6 19 6 44z" />
    <glyph glyph-name="uni2466" unicode="&#x2466;" horiz-adv-x="1100" 
d="M63 317q0 93 35 177q34 82 99 147q61 61 144 99q84 35 180 35q91 0 179 -35q78 -37 143 -99q31 -33 56 -69t43 -78q35 -85 35 -177q0 -95 -35 -176q-18 -45 -43 -81t-56 -66q-32 -32 -67.5 -56t-75.5 -42q-86 -36 -179 -36q-49 0 -93.5 8.5t-86.5 27.5q-42 18 -78.5 42
t-65.5 56q-65 59 -99 147q-35 79 -35 176zM129 317q0 -85 31 -151q31 -73 85 -124q50 -53 123 -85q35 -15 73 -23.5t80 -8.5q38 0 76 8.5t75 23.5q34 16 66 36.5t59 48.5q27 26 48 57.5t37 66.5q29 70 29 151q0 79 -29 152q-16 34 -37.5 65.5t-47.5 58.5q-27 28 -59 49
t-66 38q-74 30 -151 30q-83 0 -153 -30q-35 -17 -66 -38t-57 -49q-28 -27 -48.5 -58.5t-36.5 -65.5q-31 -69 -31 -152zM723 524l-225 -520h-101l225 513h-260q-9 -1 -16.5 -1.5t-12.5 -0.5v81q5 -2 13.5 -2h16.5q7 -1 14.5 -1h14.5h331v-69z" />
    <glyph glyph-name="uni2467" unicode="&#x2467;" horiz-adv-x="1100" 
d="M63 317q0 92 35 177q17 42 41.5 78t56.5 68q58 61 144 98q81 37 181 37q95 0 179 -37q42 -18 77 -42.5t67 -55.5q31 -33 55.5 -68.5t42.5 -77.5q35 -85 35 -177q0 -93 -35 -177q-18 -45 -43 -81t-56 -66q-62 -61 -144 -97q-86 -36 -178 -36q-96 0 -180 36
q-42 18 -78.5 42t-65.5 55q-33 30 -57 66t-41 81q-36 82 -36 177zM129 317q0 -82 31 -151q31 -73 85 -124q50 -53 123 -85q72 -32 153 -32q78 0 150 32q35 16 67 36t59 48q53 53 84 124q16 35 23 72.5t7 79.5q0 78 -30 152q-32 69 -84 124q-27 28 -58.5 48.5t-66.5 36.5
q-37 15 -75 23.5t-76 8.5q-42 0 -79.5 -8.5t-74.5 -23.5q-35 -16 -66 -36.5t-58 -48.5q-51 -53 -83 -124q-31 -69 -31 -152zM525 14q-38 0 -74 11q-40 10 -67 31q-30 21 -46 52q-19 31 -19 71q0 55 35 93q30 36 84 62q-65 25 -81 66q-14 19 -18.5 39t-4.5 41q0 24 12 54
q7 12 16 23t22 24q25 18 63 30q34 12 81 12q42 0 80 -12q34 -12 59 -30q13 -11 22 -21.5t15 -23.5q13 -24 13 -49q0 -24 -5.5 -45t-15.5 -38q-27 -36 -78 -67q26 -11 47 -26t38 -32q32 -43 32 -96q0 -24 -4.5 -42t-11.5 -34q-9 -18 -21 -30.5t-24 -22.5q-30 -21 -66 -30
q-21 -6 -41.5 -8t-41.5 -2zM640 177q0 26 -11 45q-14 18 -30 30q-9 7 -20 11.5t-20 10.5q-13 5 -24 10t-21 10q-9 -6 -17 -11t-17 -10q-5 -2 -9.5 -5.5t-8.5 -5.5q-3 -4 -6.5 -6.5t-6.5 -5.5q-16 -12 -23 -28q-7 -9 -9 -18.5t-2 -19.5q0 -27 12 -40q9 -18 27 -30
q8 -5 17.5 -9.5t21.5 -6.5q16 -6 40 -6q21 0 38 4q10 3 18 6.5t17 10.5q13 7 24 27q9 14 10 37zM427 469q0 -32 30 -50q15 -14 36 -26t51 -25l19 15l18 16q13 10 24 26q4 6 6.5 12t6.5 13q1 7 2 12.5t1 13.5q0 10 -2 17t-7 17l-23 21l-33 10q-10 1 -18 2t-15 1
q-3 0 -6.5 -0.5t-8.5 -1.5q-4 0 -7.5 -1t-7.5 -1q-10 -3 -18 -6t-14 -8q-8 -6 -14.5 -11.5t-10.5 -12.5q-6 -8 -7.5 -16t-1.5 -17z" />
    <glyph glyph-name="uni2468" unicode="&#x2468;" horiz-adv-x="1100" 
d="M63 317q0 92 35 177q17 42 41.5 78t56.5 68q58 61 144 98q81 37 181 37q95 0 179 -37q42 -18 77 -42.5t67 -55.5q31 -33 55.5 -68.5t42.5 -77.5q35 -85 35 -177q0 -93 -35 -177q-18 -45 -43 -81t-56 -66q-62 -61 -144 -97q-86 -36 -178 -36q-96 0 -180 36
q-42 18 -78.5 42t-65.5 55q-33 30 -57 66t-41 81q-36 82 -36 177zM129 317q0 -82 31 -151q31 -73 85 -124q50 -53 123 -85q72 -32 153 -32q78 0 150 32q35 16 67 36t59 48q53 53 84 124q16 35 23 72.5t7 79.5q0 78 -30 152q-32 69 -84 124q-27 28 -58.5 48.5t-66.5 36.5
q-37 15 -75 23.5t-76 8.5q-42 0 -79.5 -8.5t-74.5 -23.5q-35 -16 -66 -36.5t-58 -48.5q-51 -53 -83 -124q-31 -69 -31 -152zM353 40q1 9 3 19t4 23q0 16 6 40q13 -8 28 -13t32 -8q15 -6 28.5 -7.5t29.5 -1.5q18 0 33.5 3t31.5 12q12 7 24 17t21 24q11 12 17 27.5t12 33.5
q10 30 12 74q-15 -13 -29 -22t-29 -13q-17 -7 -33.5 -8t-31.5 -1q-23 0 -41.5 2t-38.5 11q-34 12 -59 40q-24 27 -35 61q-14 33 -14 73q0 20 4 41.5t11 39.5q8 19 18 34t25 29q13 13 29 21.5t35 16.5q17 7 36.5 11t41.5 4q67 0 108 -25q38 -25 62 -63q10 -21 17 -44t12 -48
q3 -26 5 -51.5t2 -52.5q0 -62 -11 -120q-6 -29 -16 -55t-22 -49q-17 -23 -35.5 -41.5t-39.5 -30.5q-24 -16 -54 -22.5t-63 -6.5q-9 0 -17.5 0.5t-17.5 3.5q-20 0 -38 5q-11 1 -20 3.5t-17 5.5q-16 1 -26 8zM420 427q0 -25 7 -40q5 -22 19 -35q11 -18 32 -26q10 -7 20.5 -9
t24.5 -2q49 0 78 33q12 16 20 35t8 44q0 22 -7 43q-8 22 -18 38q-8 7 -15 13.5t-17 13.5l-20 6t-23 3q-14 0 -25.5 -3t-21.5 -6q-20 -11 -33 -27q-17 -17 -21 -38q-8 -22 -8 -43z" />
    <glyph glyph-name="uni2469" unicode="&#x2469;" horiz-adv-x="1100" 
d="M63 317q0 92 35 177q17 42 41.5 78t56.5 68q58 61 144 98q81 37 181 37q95 0 179 -37q42 -18 77 -42.5t67 -55.5q31 -33 55.5 -68.5t42.5 -77.5q35 -85 35 -177q0 -93 -35 -177q-18 -45 -43 -81t-56 -66q-62 -61 -144 -97q-86 -36 -178 -36q-96 0 -180 36
q-42 18 -78.5 42t-65.5 55q-33 30 -57 66t-41 81q-36 82 -36 177zM129 317q0 -82 31 -151q31 -73 85 -124q50 -53 123 -85q72 -32 153 -32q78 0 150 32q35 16 67 36t59 48q53 53 84 124q16 35 23 72.5t7 79.5q0 78 -30 152q-32 69 -84 124q-27 28 -58.5 48.5t-66.5 36.5
q-37 15 -75 23.5t-76 8.5q-42 0 -79.5 -8.5t-74.5 -23.5q-35 -16 -66 -36.5t-58 -48.5q-51 -53 -83 -124q-31 -69 -31 -152zM452 314q0 24 1 49.5t7 52.5q5 53 29 99q19 45 55 74q36 30 89 30q52 0 88 -30q18 -14 31.5 -33.5t25.5 -40.5q19 -48 30 -99q3 -27 5 -52.5
t2 -49.5t-2 -49t-6 -53q-5 -27 -12.5 -52t-17.5 -46q-22 -45 -57 -74t-87 -29q-54 0 -89 29q-18 14 -32 32t-22 42q-24 40 -29 98q-6 28 -7.5 53t-1.5 49zM533 314q0 -14 0.5 -30t4.5 -35q1 -39 15 -75q7 -35 30 -61q16 -25 50 -25q29 0 51 25q20 24 30 61q5 18 8.5 36
t6.5 38q1 19 2 35t1 31q0 10 -1 23.5t-2 34.5q-2 18 -5.5 36.5t-7.5 37.5q-6 19 -13 34.5t-17 32.5q-24 27 -53 27q-31 0 -50 -25q-12 -16 -18.5 -30.5t-11.5 -32.5q-13 -36 -15 -74q-4 -21 -4.5 -35.5t-0.5 -28.5zM318 22v13q0 3 0.5 6.5t0.5 6.5v452q-8 -11 -17 -20
t-19 -18q-10 -10 -18 -19.5t-16 -18.5q-6 8 -11 16t-11 19q-12 16 -21 33l63 60l30 30q8 6 15.5 13.5t17.5 15.5h71q-2 -10 -2 -20v-23v-524v-12t1 -10h-84z" />
    <glyph glyph-name="uni246A" unicode="&#x246a;" horiz-adv-x="1100" 
d="M63 317q0 92 35 177q17 42 41.5 78t56.5 68q58 61 144 98q81 37 181 37q95 0 179 -37q42 -18 77 -42.5t67 -55.5q31 -33 55.5 -68.5t42.5 -77.5q35 -85 35 -177q0 -93 -35 -177q-18 -45 -43 -81t-56 -66q-62 -61 -144 -97q-86 -36 -178 -36q-96 0 -180 36
q-42 18 -78.5 42t-65.5 55q-33 30 -57 66t-41 81q-36 82 -36 177zM129 317q0 -82 31 -151q31 -73 85 -124q50 -53 123 -85q72 -32 153 -32q78 0 150 32q35 16 67 36t59 48q53 53 84 124q16 35 23 72.5t7 79.5q0 78 -30 152q-32 69 -84 124q-27 28 -58.5 48.5t-66.5 36.5
q-37 15 -75 23.5t-76 8.5q-42 0 -79.5 -8.5t-74.5 -23.5q-35 -16 -66 -36.5t-58 -48.5q-51 -53 -83 -124q-31 -69 -31 -152zM639 21v18q0 4 0.5 8t0.5 9v443l-19 -18l-17 -19q-11 -10 -19.5 -20t-17.5 -18q-6 7 -11.5 15t-11.5 18l-22 35q35 29 67 59t64 59h73
q-2 -10 -2 -20v-23q-1 -11 -1 -22.5v-21.5v-458v-11.5t1 -10.5v-12.5t1 -9.5h-86zM354 21v18q0 4 1 8t1 9v443q-6 -5 -11 -9t-8 -9l-19 -19l-18 -20t-18 -18q-5 7 -11 15t-11 18q-7 9 -12 17.5t-10 17.5q32 29 65 59t64 59h74q-2 -10 -2 -20v-23q-1 -11 -1 -22.5v-21.5v-458
v-11.5t1 -10.5v-12.5t1 -9.5h-86z" />
    <glyph glyph-name="uni246B" unicode="&#x246b;" horiz-adv-x="1100" 
d="M63 317q0 92 35 177q17 42 41.5 78t56.5 68q58 61 144 98q81 37 181 37q95 0 179 -37q42 -18 77 -42.5t67 -55.5q31 -33 55.5 -68.5t42.5 -77.5q35 -85 35 -177q0 -93 -35 -177q-18 -45 -43 -81t-56 -66q-62 -61 -144 -97q-86 -36 -178 -36q-96 0 -180 36
q-42 18 -78.5 42t-65.5 55q-33 30 -57 66t-41 81q-36 82 -36 177zM466 118q2 2 5 5.5t7 6.5l20 19q5 3 10.5 9t12.5 13l27 24q6 6 12 12.5t13 14.5l30 30q12 16 25.5 31.5t25.5 33.5q22 34 38 70q8 17 11.5 33.5t3.5 35.5q0 38 -26 64q-29 23 -67 23q-75 0 -123 -49
q-4 20 -4 46q-6 19 -6 44q17 9 35.5 16t37.5 13q17 3 34.5 5.5t34.5 2.5q36 0 67 -11q27 -11 54 -32q9 -12 18.5 -25t16.5 -27q12 -35 12 -75q0 -15 -2.5 -30t-7.5 -27q-5 -16 -10.5 -29.5t-12.5 -25.5q-8 -14 -15 -26.5t-16 -25.5q-10 -13 -18 -25t-18 -21
q-14 -19 -27.5 -36t-29.5 -32q-32 -36 -75 -72h189h10t14 1h13.5t12.5 2v-61q26 27 47 57.5t37 66.5q29 70 29 150q0 78 -30 152q-32 69 -84 124q-27 28 -58.5 48.5t-66.5 36.5q-37 15 -75 23.5t-76 8.5q-42 0 -79.5 -8.5t-74.5 -23.5q-35 -16 -66 -36.5t-58 -48.5
q-51 -53 -83 -124q-31 -69 -31 -152q0 -82 31 -151q31 -73 85 -124q50 -53 123 -85q72 -32 153 -32q70 0 136 26q32 13 62 29.5t56 40.5h-10q-3 0 -5 0.5t-4 0.5h-290v96zM317 22v13q0 3 0.5 6.5t0.5 6.5v452q-8 -11 -17 -20t-19 -18q-10 -10 -18 -19.5t-16 -18.5
q-6 8 -11.5 16t-10.5 19q-12 16 -21 33l63 60l30 30q8 6 15.5 13.5t17.5 15.5h71q-2 -10 -2 -20v-23v-524v-12t1 -10h-84z" />
    <glyph glyph-name="uni246C" unicode="&#x246c;" horiz-adv-x="1100" 
d="M63 317q0 92 35 177q17 42 41.5 78t56.5 68q58 61 144 98q81 37 181 37q95 0 179 -37q42 -18 77 -42.5t67 -55.5q31 -33 55.5 -68.5t42.5 -77.5q35 -85 35 -177q0 -93 -35 -177q-18 -45 -43 -81t-56 -66q-62 -61 -144 -97q-86 -36 -178 -36q-96 0 -180 36
q-42 18 -78.5 42t-65.5 55q-33 30 -57 66t-41 81q-36 82 -36 177zM129 317q0 -82 31 -151q31 -73 85 -124q50 -53 123 -85q72 -32 153 -32q78 0 150 32q35 16 67 36t59 48q53 53 84 124q16 35 23 72.5t7 79.5q0 78 -30 152q-32 69 -84 124q-27 28 -58.5 48.5t-66.5 36.5
q-37 15 -75 23.5t-76 8.5q-42 0 -79.5 -8.5t-74.5 -23.5q-35 -16 -66 -36.5t-58 -48.5q-51 -53 -83 -124q-31 -69 -31 -152zM551 290q-5 -1 -10 -1h-8v82q8 -2 14 -2h12h31q8 0 17 1t21 4q10 1 19.5 5t19.5 10q10 4 17 10.5t14 16.5q11 17 11 44q0 46 -26 66q-29 17 -70 17
q-17 0 -32 -3l-30 -6q-18 -7 -32.5 -13t-26.5 -14q-1 10 -1.5 20.5t-0.5 24.5q-1 9 -2 20t-1 21q13 7 29.5 11t37.5 10q17 3 35 5.5t34 2.5t33 -2.5t32 -6.5q16 -6 28 -13t26 -16q11 -10 20 -22t17 -27q13 -33 13 -74q0 -31 -10 -51q-5 -11 -10.5 -20t-12.5 -15
q-8 -8 -16 -14.5t-18 -10.5q-19 -13 -38 -19l46 -22q10 -6 18.5 -13.5t17.5 -15.5q7 -10 12 -20t11 -20q3 -14 5.5 -29t2.5 -30q0 -49 -19 -80q-21 -36 -49 -52q-16 -10 -32.5 -17.5t-35.5 -10.5q-19 -5 -37.5 -6.5t-36.5 -1.5q-17 0 -31.5 1.5t-31.5 6.5q-33 6 -59 17
q0 10 1 21.5t2 22.5q0 11 0.5 21.5t2.5 23.5q13 -9 27 -14.5t31 -10.5q16 -7 32.5 -9t37.5 -2q10 0 21 1t22 3q10 1 18.5 5t17.5 11q7 3 14 11t12 18q4 8 6.5 19t2.5 25q0 27 -12 51q-5 7 -12.5 16.5t-17.5 15.5q-20 13 -42 19q-12 2 -24 3t-23 1h-34zM317 22v13
q0 3 0.5 6.5t0.5 6.5v452q-8 -11 -17 -20t-19 -18q-10 -10 -18 -19.5t-16 -18.5q-6 8 -11.5 16t-10.5 19q-12 16 -21 33l63 60l30 30q8 6 15.5 13.5t17.5 15.5h71q-2 -10 -2 -20v-23v-524v-12t1 -10h-84z" />
    <glyph glyph-name="uni246D" unicode="&#x246d;" horiz-adv-x="1100" 
d="M63 317q0 92 35 177q17 42 41.5 78t56.5 68q58 61 144 98q81 37 181 37q95 0 179 -37q42 -18 77 -42.5t67 -55.5q31 -33 55.5 -68.5t42.5 -77.5q35 -85 35 -177q0 -93 -35 -177q-18 -45 -43 -81t-56 -66q-62 -61 -144 -97q-86 -36 -178 -36q-96 0 -180 36
q-42 18 -78.5 42t-65.5 55q-33 30 -57 66t-41 81q-36 82 -36 177zM129 317q0 -82 31 -151q31 -73 85 -124q50 -53 123 -85q72 -32 153 -32q78 0 150 32q35 16 67 36t59 48q53 53 84 124q16 35 23 72.5t7 79.5q0 78 -30 152q-32 69 -84 124q-27 28 -58.5 48.5t-66.5 36.5
q-37 15 -75 23.5t-76 8.5q-42 0 -79.5 -8.5t-74.5 -23.5q-35 -16 -66 -36.5t-58 -48.5q-51 -53 -83 -124q-31 -69 -31 -152zM430 151v77q13 23 27 47t29 48l55 96q13 23 26 46.5t27 47.5q14 23 27.5 47t30.5 48h120q-1 -5 -1 -11v-11q-1 -5 -1 -10.5v-12.5l1 -332h39h5.5
t6.5 1h7t9 1v-84q-6 0 -11 0.5t-9 0.5t-7.5 0.5t-7.5 0.5h-33v-53v-18.5t1 -18.5v-19t1 -22h-90q0 11 1 22t2 23v86h-255zM317 22v13q0 3 0.5 6.5t0.5 6.5v452q-8 -11 -17 -20t-19 -18q-10 -10 -18 -19.5t-16 -18.5q-6 8 -11.5 16t-10.5 19q-12 16 -21 33l63 60l30 30
q8 6 15.5 13.5t17.5 15.5h71q-2 -10 -2 -20v-23v-524v-12t1 -10h-84zM685 517l-4 -7q0 -3 -1 -4.5t-1 -2.5q-8 -9 -9 -13q-11 -19 -20 -35l-18 -32l-20 -37q-5 -8 -9.5 -16.5t-9.5 -16.5q-3 -10 -8.5 -17.5t-10.5 -16.5q-5 -10 -9.5 -17.5t-6.5 -14.5q-10 -17 -19.5 -31
t-17.5 -25h164v286z" />
    <glyph glyph-name="uni246E" unicode="&#x246e;" horiz-adv-x="1100" 
d="M63 317q0 92 35 177q17 42 41.5 78t56.5 68q58 61 144 98q81 37 181 37q95 0 179 -37q42 -18 77 -42.5t67 -55.5q31 -33 55.5 -68.5t42.5 -77.5q35 -85 35 -177q0 -93 -35 -177q-18 -45 -43 -81t-56 -66q-62 -61 -144 -97q-86 -36 -178 -36q-96 0 -180 36
q-42 18 -78.5 42t-65.5 55q-33 30 -57 66t-41 81q-36 82 -36 177zM129 317q0 -82 31 -151q31 -73 85 -124q50 -53 123 -85q72 -32 153 -32q78 0 150 32q35 16 67 36t59 48q53 53 84 124q16 35 23 72.5t7 79.5q0 78 -30 152q-32 69 -84 124q-27 28 -58.5 48.5t-66.5 36.5
q-37 15 -75 23.5t-76 8.5q-42 0 -79.5 -8.5t-74.5 -23.5q-35 -16 -66 -36.5t-58 -48.5q-51 -53 -83 -124q-31 -69 -31 -152zM484 607h244h8t10 1h6.5t9.5 2h13v-80q-8 0 -11 1q-12 0 -15 1h-185q0 -43 -1.5 -70.5t-2.5 -42.5q-1 -8 -1.5 -14.5t-0.5 -10.5q-2 -3 -2 -5t0 -1
q3 0 5.5 0.5t6.5 0.5l17 3q6 0 15.5 1t19.5 1q35 0 71 -14q15 -8 30 -16.5t28 -22.5q11 -11 20 -26.5t18 -30.5q6 -19 9.5 -37.5t3.5 -37.5q0 -26 -4.5 -47t-12.5 -40q-9 -19 -20.5 -34.5t-23.5 -28.5q-30 -24 -67 -37q-20 -7 -40 -9.5t-42 -2.5q-44 0 -75 6q-30 6 -50 14
l4 91q31 -19 58 -27q13 -4 26.5 -6t32.5 -2q12 0 23.5 2t24.5 5q12 2 21.5 6.5t19.5 13.5q19 12 29 33q11 20 11 51q0 16 -3 30t-7 27q-10 22 -28 37q-18 12 -43 19q-24 6 -51 6q-18 0 -32.5 -1.5t-27.5 -3.5q-14 -3 -26 -8t-24 -12zM317 22v13q0 3 0.5 6.5t0.5 6.5v452
q-8 -11 -17 -20t-19 -18q-10 -10 -18 -19.5t-16 -18.5q-6 8 -11.5 16t-10.5 19q-12 16 -21 33l63 60l30 30q8 6 15.5 13.5t17.5 15.5h71q-2 -10 -2 -20v-23v-524v-12t1 -10h-84z" />
    <glyph glyph-name="uni2474" unicode="&#x2474;" horiz-adv-x="1100" 
d="M494 6q0 7 0.5 13.5t0.5 14.5v479q-4 -5 -9 -8.5t-9 -8.5l-15 -12q-9 -10 -16.5 -17t-14.5 -14l-24 -21l-54 72l78 62q21 17 40 31t39 32h89q-1 -7 -1 -14v-13q-1 -9 -1 -15.5v-13.5v-522q0 -12 -0.5 -23.5t2.5 -21.5h-105zM773 -89q13 22 23.5 46.5t22.5 48.5
q11 25 21 50.5t19 50.5q7 25 13.5 51t12.5 53q4 26 7 52.5t3 53.5q0 25 -3 52t-7 55q-6 23 -12.5 49.5t-14.5 53.5q-10 26 -19.5 50.5t-20.5 51.5q-12 23 -22.5 47t-22.5 48h76q13 -24 25.5 -48t26.5 -47q9 -24 20 -49t20 -49q9 -27 15 -52.5t13 -49.5q3 -29 6 -56.5
t3 -55.5q0 -57 -9.5 -111.5t-27.5 -102.5q-19 -54 -42.5 -100.5t-49.5 -91.5h-76zM193 -89q-27 45 -51 91.5t-41 100.5q-19 48 -27.5 102.5t-8.5 111.5q0 114 36 215q17 51 40 97.5t52 94.5h76q-13 -24 -24.5 -48t-21.5 -47q-12 -27 -21 -51.5t-18 -50.5q-9 -27 -16 -53.5
t-11 -49.5q-6 -28 -8 -55t-2 -52q0 -27 2 -52.5t8 -53.5q4 -27 11 -53t16 -51q14 -52 38 -101q10 -24 22 -48.5t25 -46.5h-76z" />
    <glyph glyph-name="uni2475" unicode="&#x2475;" horiz-adv-x="1100" 
d="M318 108l25 21q7 4 14 11l13 10q5 3 9.5 7.5t10.5 9.5t11.5 9t11.5 10q14 9 27 20.5t27 25.5q13 11 26.5 23.5t28.5 28.5q13 12 25 27t24 29q10 14 19 29.5t18 32.5q4 17 8 32t4 31q0 36 -31 67q-20 11 -40 18t-45 7q-47 0 -84 -12q-43 -14 -71 -38l-3 24q-1 5 -2 11
t-1 13q-1 5 -2 11t-1 12q-1 6 -1.5 11.5t-0.5 12.5q22 9 44.5 16t46.5 13q22 3 44 6.5t44 3.5q21 0 40 -3.5t40 -7.5q18 -6 34 -15t30 -19q27 -23 45 -57q7 -17 11.5 -36.5t4.5 -41.5q0 -16 -3 -31t-7 -30q-6 -15 -13 -30t-15 -28q-9 -14 -19.5 -27.5t-20.5 -25.5
q-12 -15 -23 -27t-22 -22q-15 -20 -30.5 -34.5t-31.5 -30.5q-18 -16 -36 -32.5t-39 -32.5l-12 -10l-17 -11h261q5 0 13 2h12t12 1v-88q-14 0 -19 1h-10t-9 1h-375v102zM773 -89q13 22 23.5 46.5t22.5 48.5q11 25 21 50.5t19 50.5q7 25 13.5 51t12.5 53q4 26 7 52.5t3 53.5
q0 25 -3 52t-7 55q-6 23 -12.5 49.5t-14.5 53.5q-10 26 -19.5 50.5t-20.5 51.5q-12 23 -22.5 47t-22.5 48h76q13 -24 25.5 -48t26.5 -47q9 -24 20 -49t20 -49q9 -27 15 -52.5t13 -49.5q3 -29 6 -56.5t3 -55.5q0 -57 -9.5 -111.5t-27.5 -102.5q-19 -54 -42.5 -100.5
t-49.5 -91.5h-76zM193 -89q-27 45 -51 91.5t-41 100.5q-19 48 -27.5 102.5t-8.5 111.5q0 114 36 215q17 51 40 97.5t52 94.5h76q-13 -24 -24.5 -48t-21.5 -47q-12 -27 -21 -51.5t-18 -50.5q-9 -27 -16 -53.5t-11 -49.5q-6 -28 -8 -55t-2 -52q0 -27 2 -52.5t8 -53.5
q4 -27 11 -53t16 -51q14 -52 38 -101q10 -24 22 -48.5t25 -46.5h-76z" />
    <glyph glyph-name="uni2476" unicode="&#x2476;" horiz-adv-x="1100" 
d="M448 291q-5 0 -8.5 -0.5t-8.5 -0.5h-31v85h20q5 -1 12 -1h18h18q10 0 22.5 1t27.5 4q22 1 48 15q12 5 21 12t18 18q7 8 11 19t4 26q0 13 -3 23.5t-6 20.5q-5 8 -12 15t-13 12q-10 4 -19 8.5t-20 7.5q-13 1 -24.5 2.5t-23.5 1.5q-44 0 -80 -12q-20 -6 -38 -12.5t-34 -13.5
q-3 11 -3.5 22t-0.5 22l-2 22t-1 24q34 13 82 21q24 3 46.5 5.5t42.5 2.5q21 0 40 -3t39 -6q17 -5 33 -12t33 -17q12 -13 24 -25.5t22 -27.5q7 -18 11.5 -37.5t4.5 -41.5q0 -34 -11 -54q-12 -24 -28 -37q-21 -18 -42 -25l-25 -13l-22 -9q58 -16 100 -52q18 -21 27.5 -46.5
t9.5 -58.5q0 -27 -6 -48.5t-16 -36.5q-25 -39 -59 -55q-38 -23 -84 -30q-23 -5 -46.5 -7t-48.5 -2q-17 0 -36 1.5t-40 6.5q-42 7 -74 17q0 6 0.5 12t0.5 11l3 25q0 12 0.5 23t2.5 24q14 -9 30.5 -14.5t37.5 -10.5q38 -11 74 -11q16 0 30 0.5t29 1.5t27.5 5.5t25.5 10.5
q18 8 35 30q14 20 14 50q0 16 -4 29.5t-11 26.5q-8 8 -17 17.5t-23 16.5q-26 12 -52 18q-15 2 -29.5 3t-28.5 1h-14zM773 -89q13 22 23.5 46.5t22.5 48.5q11 25 21 50.5t19 50.5q7 25 13.5 51t12.5 53q4 26 7 52.5t3 53.5q0 25 -3 52t-7 55q-6 23 -12.5 49.5t-14.5 53.5
q-10 26 -19.5 50.5t-20.5 51.5q-12 23 -22.5 47t-22.5 48h76q13 -24 25.5 -48t26.5 -47q9 -24 20 -49t20 -49q9 -27 15 -52.5t13 -49.5q3 -29 6 -56.5t3 -55.5q0 -57 -9.5 -111.5t-27.5 -102.5q-19 -54 -42.5 -100.5t-49.5 -91.5h-76zM193 -89q-27 45 -51 91.5t-41 100.5
q-19 48 -27.5 102.5t-8.5 111.5q0 114 36 215q17 51 40 97.5t52 94.5h76q-13 -24 -24.5 -48t-21.5 -47q-12 -27 -21 -51.5t-18 -50.5q-9 -27 -16 -53.5t-11 -49.5q-6 -28 -8 -55t-2 -52q0 -27 2 -52.5t8 -53.5q4 -27 11 -53t16 -51q14 -52 38 -101q10 -24 22 -48.5t25 -46.5
h-76z" />
    </font>
</defs>
</svg>
