<?xml version="1.0" standalone="no"?>
<!DOCTYPE svg PUBLIC "-//W3C//DTD SVG 1.1//EN" "http://www.w3.org/Graphics/SVG/1.1/DTD/svg11.dtd" >
<svg xmlns="http://www.w3.org/2000/svg" xmlns:xlink="http://www.w3.org/1999/xlink" version="1.1">
<metadata>
Created by FontForge 20170812 at Fri Feb 26 03:06:22 2021
 By www-data
Copyright (c) Gwangju All rights reserved.
</metadata>
<defs>
<font id="BitgoeulGwangju_Medium" horiz-adv-x="45" >
  <font-face 
    font-family="BitgoeulGwangju_Medium"
    font-weight="500"
    font-stretch="normal"
    units-per-em="1000"
    panose-1="2 2 6 3 2 1 1 2 1 1"
    ascent="800"
    descent="-200"
    x-height="486"
    cap-height="735"
    bbox="9 -213 1006 882"
    underline-thickness="25"
    underline-position="-212"
    unicode-range="U+000D-FFE6"
  />
<missing-glyph horiz-adv-x="1000" 
d="M100 -100v800h800v-800h-800zM150 -50h700v700h-700v-700z" />
    <glyph glyph-name=".notdef" horiz-adv-x="1000" 
d="M100 -100v800h800v-800h-800zM150 -50h700v700h-700v-700z" />
    <glyph glyph-name="_1" horiz-adv-x="0" 
 />
    <glyph glyph-name="_2" horiz-adv-x="1000" 
 />
    <glyph glyph-name="NULL" horiz-adv-x="0" 
 />
    <glyph glyph-name="NULL" horiz-adv-x="0" 
 />
    <glyph glyph-name="nonmarkingreturn" unicode="&#xd;" horiz-adv-x="1000" 
 />
    <glyph glyph-name="space" unicode=" " horiz-adv-x="300" 
 />
    <glyph glyph-name="exclam" unicode="!" horiz-adv-x="422" 
d="M241 164h-106l58 525h133zM113 92h134l-19 -128h-132z" />
    <glyph glyph-name="quotedbl" unicode="&#x22;" horiz-adv-x="487" 
d="M111 726h112l-17 -249h-78zM265 726h110l-15 -249h-79z" />
    <glyph glyph-name="numbersign" unicode="#" horiz-adv-x="620" 
d="M142 176h-95v90h107l19 121h-99v91h111l28 211h94l-28 -211h106l28 211h94l-29 -211h95v-91h-108l-17 -121h96v-90h-107l-31 -213h-97l32 213h-103l-32 -213h-94zM372 387h-107l-16 -121h105z" />
    <glyph glyph-name="dollar" unicode="$" horiz-adv-x="572" 
d="M237 -45q-6 -2 -9 -2q-10 0 -31 2.5t-45 6.5q-24 5 -48 11t-39 12v6q0 3 2 16t4 28t4.5 28t3.5 17h3q13 -8 36.5 -14t47.5 -10q24 -5 44 -7.5t27 -2.5v234q-31 10 -62 27t-56 41q-25 23 -40.5 52.5t-15.5 64.5q0 51 18 84.5t46 54.5q27 20 59.5 29.5t60.5 12.5v99h89v-95
q38 -5 72 -11t70 -15l-18 -96q-32 8 -60.5 17.5t-63.5 11.5v-200q93 -41 132.5 -94.5t39.5 -115.5q0 -38 -16.5 -68.5t-42.5 -53.5q-27 -23 -59.5 -38.5t-63.5 -23.5v-99h-89v91zM395 153q0 35 -22 55.5t-47 33.5v-181q30 13 49.5 35t19.5 57zM247 550q-11 -2 -24 -7
t-23 -13q-11 -9 -18 -21t-7 -26q0 -18 6.5 -32t16.5 -24q10 -11 23 -19t26 -15v157z" />
    <glyph glyph-name="percent" unicode="%" horiz-adv-x="800" 
d="M559 650h91l-410 -696h-90zM72 486q0 64 38.5 105.5t108.5 41.5q33 0 60.5 -11.5t47.5 -31.5q19 -20 30 -46.5t11 -57.5q0 -30 -10.5 -56.5t-29.5 -45.5q-19 -20 -46.5 -31.5t-61.5 -11.5q-30 0 -57 10.5t-47 29.5t-32 45.5t-12 59.5zM153 487q0 -33 15.5 -54t50.5 -21
q34 0 50 21.5t16 53.5q0 36 -18.5 56t-47.5 20q-34 0 -50 -22t-16 -54zM432 117q0 69 39.5 107.5t108.5 38.5q38 0 66 -13.5t46 -34.5q18 -22 27 -49t9 -53q0 -39 -13.5 -66.5t-34.5 -44.5q-22 -17 -48 -24.5t-51 -7.5q-38 0 -66 12.5t-46 33.5q-19 21 -28 47.5t-9 53.5z
M514 118q0 -33 15 -56.5t51 -23.5q35 0 50.5 24.5t15.5 55.5q0 11 -3.5 24t-10.5 25q-8 11 -20.5 18.5t-31.5 7.5q-34 0 -50 -21.5t-16 -53.5z" />
    <glyph glyph-name="ampersand" unicode="&#x26;" horiz-adv-x="768" 
d="M661 361q-8 -69 -25.5 -131.5t-57.5 -121.5q29 -36 60 -74.5t64 -70.5h-138q-14 16 -27.5 33t-27.5 33q-40 -40 -94 -59.5t-110 -19.5q-50 0 -93.5 12.5t-75.5 38.5q-32 25 -51 64t-19 92q0 40 12 72t34 57q21 25 50.5 45t63.5 37q-16 13 -29.5 32t-23.5 41t-15.5 44.5
t-5.5 43.5q0 45 15 77.5t41 53.5t61.5 31.5t77.5 10.5q37 0 70.5 -11t58.5 -32t40 -52t15 -70q0 -34 -14 -62.5t-36 -51.5q-23 -24 -50.5 -42.5t-54.5 -32.5l132 -161q21 40 29.5 84.5t12.5 89.5h111zM178 163q0 -35 12 -59t33 -39t49 -21.5t59 -6.5q32 0 65.5 19t52.5 44
l-166 201q-19 -12 -38 -26t-34 -30q-15 -17 -24 -37t-9 -45zM259 529q0 -14 5.5 -31.5t14.5 -33.5q9 -17 20 -30.5t22 -19.5q17 9 35.5 20.5t33.5 26.5t24.5 33.5t9.5 39.5q0 38 -22 60.5t-60 22.5q-39 0 -61 -25t-22 -63z" />
    <glyph glyph-name="quotesingle" unicode="'" horiz-adv-x="268" 
d="M78 726h112l-17 -249h-79z" />
    <glyph glyph-name="parenleft" unicode="(" horiz-adv-x="326" 
d="M191 -150q-31 30 -59 85t-49 118q-22 62 -35 124t-13 106q0 51 12.5 110t34.5 118q21 58 49 112t60 93h100q-32 -48 -59 -102t-47 -112t-31.5 -117t-11.5 -117q0 -47 13.5 -104t35.5 -114t48 -109.5t52 -90.5h-100z" />
    <glyph glyph-name="parenright" unicode=")" horiz-adv-x="326" 
d="M35 -150q31 57 57.5 109.5t46.5 105.5t31.5 110t11.5 123q0 60 -14.5 113.5t-35.5 104.5q-22 50 -48 99t-49 101h99q30 -51 58.5 -102t50.5 -104q21 -54 34 -110t13 -117q0 -51 -12.5 -110.5t-33.5 -117.5q-21 -59 -49.5 -112.5t-60.5 -92.5h-99z" />
    <glyph glyph-name="asterisk" unicode="*" horiz-adv-x="528" 
d="M263 406l-76 -126l-82 57l104 114q-1 0 -23 4t-48 9q-27 5 -51 9.5t-28 5.5l30 94l141 -57l-15 146h103l-15 -146l136 57l30 -94l-146 -29l99 -115q-21 -14 -41.5 -29t-43.5 -26z" />
    <glyph glyph-name="plus" unicode="+" horiz-adv-x="564" 
d="M35 324h199v199h96v-199h199v-93h-199v-199h-96v199h-199v93z" />
    <glyph glyph-name="comma" unicode="," horiz-adv-x="209" 
d="M76 71h119l-93 -231h-89z" />
    <glyph glyph-name="hyphen" unicode="-" horiz-adv-x="521" 
d="M36 324h448v-93h-448v93z" />
    <glyph glyph-name="period" unicode="." horiz-adv-x="197" 
d="M161 -45h-126v125h126v-125z" />
    <glyph glyph-name="slash" unicode="/" horiz-adv-x="355" 
d="M248 655h88l-233 -689h-84z" />
    <glyph glyph-name="zero" unicode="0" horiz-adv-x="610" 
d="M46 326q0 64 12 130.5t42 121.5q30 54 80 88.5t127 34.5q75 0 125 -35t81 -89q30 -55 43 -121.5t13 -129.5q0 -62 -13 -128.5t-43 -121.5q-31 -55 -81.5 -90.5t-124.5 -35.5q-76 0 -126 35t-80 90q-30 54 -42.5 121t-12.5 130zM150 301q0 -35 7 -81.5t25 -87.5t48 -69.5
t77 -28.5q33 0 57 15t42 40q17 24 28 55.5t17 64.5q6 32 8.5 62.5t2.5 54.5q0 23 -3 53.5t-10 63.5q-7 32 -18 63.5t-28 56.5q-18 25 -41.5 40.5t-54.5 15.5q-36 0 -61.5 -16.5t-42.5 -43.5q-18 -27 -28.5 -61t-15.5 -69q-6 -36 -7.5 -69.5t-1.5 -58.5z" />
    <glyph glyph-name="one" unicode="1" horiz-adv-x="512" 
d="M241 -37v612l-115 -102l-54 74l180 143h91q-1 -5 -1 -12v-29q-1 -23 -1 -68v-123q0 -79 0.5 -199.5t0.5 -295.5h-101z" />
    <glyph glyph-name="two" unicode="2" horiz-adv-x="584" 
d="M57 -37v108q13 13 44.5 37.5t71.5 56.5t82.5 71.5t77.5 83.5q35 43 58 89.5t24 93.5q0 28 -13.5 50t-34.5 37q-22 14 -48 21.5t-50 7.5q-46 0 -93.5 -12.5t-85.5 -41.5l-15 86q25 13 55 24t61 18q31 6 61 8.5t56 -0.5q45 -5 83.5 -21t67.5 -42q28 -27 44.5 -62.5
t16.5 -80.5q0 -38 -18 -79.5t-47 -83.5q-30 -43 -68 -85t-77 -79q-40 -38 -77.5 -69.5t-67.5 -53.5h367v-82h-475z" />
    <glyph glyph-name="three" unicode="3" horiz-adv-x="578" 
d="M153 386h79q25 -1 57 5.5t60 21.5q28 14 47 36.5t19 54.5q0 36 -13 58.5t-34 35.5q-21 12 -48 16.5t-56 4.5q-18 0 -40 -3t-45 -8q-24 -6 -47 -13.5t-42 -16.5l-7 87q15 5 38.5 12t53.5 13q29 6 62 9.5t66 1.5q100 -6 156.5 -54t56.5 -142q0 -63 -34.5 -104.5
t-103.5 -57.5q33 -11 60.5 -26t47.5 -37q19 -22 30 -52.5t11 -71.5q0 -54 -24.5 -93t-63.5 -64t-87.5 -37t-96.5 -12q-30 0 -60 3t-56 7q-27 5 -48.5 10t-34.5 9l9 94q19 -9 41.5 -16t46.5 -11q23 -4 46 -6t42 -2q30 0 62 4.5t59 18.5q27 13 44.5 36.5t17.5 61.5
q0 53 -27.5 81.5t-68.5 41.5q-41 12 -88 14t-87 2v88z" />
    <glyph glyph-name="four" unicode="4" horiz-adv-x="625" 
d="M38 215l306 475h152v-477h96v-83h-95v-52q0 -19 0.5 -46.5t0.5 -68.5h-102v167h-358v85zM143 213h253v385z" />
    <glyph glyph-name="five" unicode="5" horiz-adv-x="584" 
d="M87 690l414 1v-84l-318 1v-189q24 3 45 3.5t50 0.5q48 0 92 -16.5t78 -46.5q33 -31 53 -73t20 -93q0 -62 -23.5 -108t-62.5 -76t-91 -45t-109 -15q-42 0 -86.5 5t-81.5 19l6 95q26 -14 71 -24.5t111 -10.5q31 0 60.5 10.5t52.5 29.5q22 19 36 46t14 60q0 46 -15.5 75.5
t-41.5 46.5q-27 17 -62 24t-74 7q-30 0 -68 -4t-70 -18v379z" />
    <glyph glyph-name="six" unicode="6" horiz-adv-x="613" 
d="M507 583q-38 16 -70.5 26t-74.5 10q-49 0 -88 -25t-66 -65t-40 -89.5t-8 -98.5q26 39 71.5 61.5t93.5 22.5q51 0 93.5 -17.5t73.5 -48.5t48 -74t17 -95q0 -54 -19 -98t-52 -75q-34 -32 -79.5 -49.5t-97.5 -17.5q-80 0 -128.5 33.5t-74.5 87.5q-27 53 -36 118.5t-9 129.5
q0 80 18 150t57 122q38 51 98.5 80.5t146.5 29.5q29 0 55.5 -5.5t54.5 -13.5q7 -2 17.5 -5.5t14.5 -3.5zM452 188q0 29 -9.5 56t-27.5 48q-18 20 -43 32.5t-56 12.5q-24 0 -49.5 -10.5t-45.5 -29.5q-21 -20 -34 -47t-13 -60q0 -75 38 -115.5t95 -40.5q32 0 58.5 12.5
t46.5 34.5q19 21 29.5 49t10.5 58z" />
    <glyph glyph-name="seven" unicode="7" horiz-adv-x="578" 
d="M248 -37h-110l284 644h-115q-41 0 -102 -0.5t-152 -0.5v85h149q52 -1 129 -1h197v-79l1 1z" />
    <glyph glyph-name="eight" unicode="8" horiz-adv-x="614" 
d="M172 514q0 -25 13.5 -46t34.5 -37q21 -17 47 -28.5t52 -16.5q23 11 44 22t37 26q16 14 25.5 34.5t9.5 50.5q0 44 -37 72t-94 28q-21 0 -44.5 -7t-42.5 -20q-20 -14 -32.5 -33.5t-12.5 -44.5zM307 -50q-47 0 -92.5 12.5t-80.5 36.5q-35 25 -56.5 63t-21.5 89
q0 71 44 118.5t113 76.5q-27 10 -53 27t-45 41q-20 23 -31 52t-8 62q4 49 27 82t57 53t74 29t78 9q39 0 79 -11.5t73 -35.5q32 -25 52.5 -63t19.5 -91q0 -30 -11.5 -53.5t-29.5 -41.5q-18 -19 -41.5 -32.5t-48.5 -23.5q38 -14 67.5 -35t50.5 -47q20 -26 30.5 -54.5
t10.5 -56.5q0 -54 -22 -93t-58 -64t-82.5 -37t-94.5 -12zM457 149q0 29 -14 53t-37 43q-23 18 -52.5 31.5t-60.5 22.5q-21 -11 -44.5 -25t-42.5 -31q-20 -17 -33 -38.5t-13 -47.5q0 -31 14 -54t36 -38q22 -16 50 -23.5t57 -7.5q27 0 52 7t45 21q19 14 31 36t12 51z" />
    <glyph glyph-name="nine" unicode="9" horiz-adv-x="620" 
d="M116 65q29 -17 70 -24t73 -7q55 0 94 23t63 60q24 36 35 81t11 90q-26 -19 -48 -30.5t-43 -17.5q-22 -6 -44 -7.5t-47 -1.5q-44 0 -83 19t-68 52q-29 32 -46 73.5t-17 86.5q0 54 17.5 98.5t49.5 75.5q31 31 76 48t99 17q80 0 129.5 -29.5t76.5 -79.5q27 -51 36.5 -118
t9.5 -142q0 -79 -13.5 -148.5t-48.5 -121.5q-36 -52 -97.5 -82t-157.5 -30q-14 0 -33 2.5t-38 6.5q-20 5 -39 10.5t-33 10.5zM169 468q0 -45 12.5 -74t32.5 -46q20 -18 44 -25t48 -7q30 0 56 10.5t45 31.5q18 20 29 50t11 68q0 30 -12 56.5t-31 45.5q-20 19 -45.5 30
t-52.5 11q-26 0 -51 -10t-44 -29t-30.5 -47.5t-11.5 -64.5z" />
    <glyph glyph-name="colon" unicode=":" horiz-adv-x="300" 
d="M219 373h-126v122h126v-122zM93 153h126v-121h-126v121z" />
    <glyph glyph-name="semicolon" unicode=";" horiz-adv-x="300" 
d="M230 371h-126v123h126v-123zM104 141h121l-84 -232h-92z" />
    <glyph glyph-name="less" unicode="&#x3c;" horiz-adv-x="620" 
d="M557 407l-368 -163l368 -163v-93l-494 218v76l494 218v-93z" />
    <glyph glyph-name="equal" unicode="=" horiz-adv-x="620" 
d="M63 458h494v-95h-494v95zM63 252h494v-96h-494v96z" />
    <glyph glyph-name="greater" unicode="&#x3e;" horiz-adv-x="620" 
d="M63 500l494 -218v-76l-494 -218v93l368 163l-368 163v93z" />
    <glyph glyph-name="question" unicode="?" horiz-adv-x="554" 
d="M206 163v44q0 30 11.5 56t29.5 50q17 24 37.5 46.5t38.5 45.5q17 22 28.5 46.5t11.5 52.5q0 24 -11 42.5t-28 31.5q-17 12 -38.5 18.5t-43.5 6.5q-19 0 -40.5 -4t-42.5 -11t-40.5 -16.5t-34.5 -21.5l-11 115q47 19 87 27.5t91 8.5q48 0 90 -13t73 -38q31 -26 49 -65
t18 -90q0 -44 -25 -81t-55 -74q-31 -38 -56 -80t-25 -97h-114zM195 80h136v-127h-136v127z" />
    <glyph glyph-name="at" unicode="@" horiz-adv-x="785" 
d="M544 201q28 4 49 22.5t35 43.5t21 53.5t7 53.5q0 53 -20 95t-54 71t-79.5 44.5t-95.5 15.5q-57 0 -106.5 -21.5t-85.5 -58.5q-36 -38 -56.5 -87.5t-20.5 -106.5q0 -63 20 -113.5t57 -85.5q37 -36 88 -54.5t114 -18.5q54 0 109 22.5t92 62.5h88q-48 -76 -125 -120
t-167 -44q-79 0 -146.5 24.5t-116.5 70.5q-50 46 -78 111.5t-28 146.5q0 82 30 147.5t82 110.5q51 45 120 69t147 24q59 0 115.5 -22t101.5 -61q44 -39 71 -92t27 -114q0 -46 -18.5 -94.5t-50.5 -87.5q-32 -40 -75.5 -65t-93.5 -25q-20 0 -38.5 12.5t-23.5 31.5
q-20 -18 -46.5 -30.5t-53.5 -12.5q-31 0 -58 13t-47 35t-31.5 50t-11.5 58q0 45 14.5 89t42.5 79q27 34 66.5 55t88.5 21q34 0 60 -16.5t49 -38.5l6 42h88q-8 -29 -21 -66.5t-25 -76.5q-13 -40 -21.5 -78t-6.5 -67zM378 206q4 0 6 2q6 0 11.5 3.5t10.5 7.5q32 24 50.5 61
t18.5 77q0 18 -7.5 29t-11.5 26q-14 11 -25.5 16.5t-29.5 5.5q-21 0 -41.5 -13.5t-36.5 -33.5t-26 -43t-10 -43v-29q0 -18 7.5 -30.5t20.5 -20.5q12 -8 27 -11.5t30 -3.5h6z" />
    <glyph glyph-name="A" unicode="A" horiz-adv-x="763" 
d="M382 608l-150 -393h298zM638 -37l-73 181h-350l-69 -181h-105l281 723h127l291 -723h-102z" />
    <glyph glyph-name="B" unicode="B" horiz-adv-x="674" 
d="M90 686h215q43 0 90 -7.5t87 -26.5q39 -20 64.5 -54t25.5 -87q0 -65 -34 -103.5t-104 -64.5q88 -31 127.5 -76t39.5 -111q0 -57 -23 -94.5t-60 -59.5t-83.5 -31t-93.5 -9h-251v724zM191 41h145q32 0 61 6.5t52 21.5q22 14 35.5 38t13.5 59q0 39 -13 64.5t-39 40.5t-64 21
t-88 6h-103v-257zM191 376h104q33 0 64 4.5t56 17.5t40 35t15 57q0 33 -12.5 55t-32.5 36q-21 13 -47 19t-54 6h-133v-230z" />
    <glyph glyph-name="C" unicode="C" horiz-adv-x="751" 
d="M404 -48q-80 0 -146.5 26t-114.5 75q-48 48 -74.5 118.5t-26.5 159.5q0 74 28 140.5t77 116.5q48 50 114.5 79.5t143.5 29.5q110 0 183 -48t125 -137h-100q-15 20 -33.5 37.5t-43.5 31.5q-25 13 -57 20.5t-75 7.5q-57 0 -105 -22.5t-83 -60.5q-36 -39 -55.5 -89.5
t-19.5 -106.5q0 -68 19.5 -122t54.5 -91q35 -38 83.5 -58t105.5 -20q60 0 112.5 24t91.5 69h108q-52 -83 -132 -131.5t-180 -48.5z" />
    <glyph glyph-name="D" unicode="D" horiz-adv-x="737" 
d="M82 -38q0 185 -1.5 362.5t-1.5 361.5h218q85 0 154.5 -25t119.5 -71q50 -47 77.5 -112t27.5 -144q0 -80 -22 -148t-69 -118q-48 -50 -122 -78t-178 -28h-203zM182 46h115q70 0 121.5 20t86.5 57q34 37 51 90.5t17 120.5q0 62 -18 111.5t-52 84.5q-35 35 -84.5 54
t-112.5 19h-124v-557z" />
    <glyph glyph-name="E" unicode="E" horiz-adv-x="602" 
d="M525 46v-84h-433v724h429v-82h-330v-223h304v-83h-304v-252h334z" />
    <glyph glyph-name="F" unicode="F" horiz-adv-x="558" 
d="M498 685v-85h-320v-220h297v-86l-297 2q0 -79 -0.5 -165.5t-0.5 -167.5h-103v722h424z" />
    <glyph glyph-name="G" unicode="G" horiz-adv-x="775" 
d="M453 311h277v-266q-24 -21 -58.5 -40t-74.5 -34q-40 -14 -84 -22t-88 -8q-86 0 -153 27.5t-113 77.5q-47 50 -71.5 119.5t-24.5 153.5q0 82 24 150t70 117q45 48 111 74.5t149 26.5q44 0 87.5 -9t82.5 -29q38 -21 69.5 -53.5t52.5 -79.5q-29 -5 -48 -8.5t-44 -7.5
q-26 50 -77 77.5t-123 27.5q-68 0 -115.5 -23t-76.5 -61q-30 -39 -43.5 -89.5t-13.5 -105.5q0 -56 13.5 -109.5t43.5 -96.5q29 -43 76.5 -69t115.5 -26q29 0 61.5 5t62.5 15t54.5 23.5t38.5 31.5v144h-181v67z" />
    <glyph glyph-name="H" unicode="H" horiz-adv-x="732" 
d="M555 -38v342h-362q0 -81 -0.5 -170.5t-0.5 -171.5h-103v724h104v-297h362q0 69 0.5 147.5t0.5 149.5h104q0 -186 -0.5 -362t-0.5 -362h-104z" />
    <glyph glyph-name="I" unicode="I" horiz-adv-x="248" 
d="M172 686v-724h-90v724h90z" />
    <glyph glyph-name="J" unicode="J" horiz-adv-x="586" 
d="M522 686v-469q0 -62 -10.5 -112.5t-36.5 -86.5q-27 -36 -71.5 -55.5t-112.5 -19.5q-101 0 -155 52t-59 152l95 13q3 -26 12 -50.5t25 -43.5q15 -19 37 -30.5t51 -11.5q46 0 71 16t36 42q11 25 12.5 57.5t1.5 66.5v480h104z" />
    <glyph glyph-name="K" unicode="K" horiz-adv-x="688" 
d="M602 686l-328 -333q88 -95 181 -195t184 -196h-130l-341 357v-357h-104v724h105l-1 -299l310 299h124z" />
    <glyph glyph-name="L" unicode="L" horiz-adv-x="528" 
d="M481 -38q-109 0 -210 0.5t-210 0.5v723h101v-638h319v-86z" />
    <glyph glyph-name="M" unicode="M" horiz-adv-x="931" 
d="M689 681h163v-725h-96l1 609l-230 -609h-101l-228 609l1 -609h-97v725h162l212 -618z" />
    <glyph glyph-name="N" unicode="N" horiz-adv-x="727" 
d="M89 686h109l368 -590v590h90v-724h-115l-361 581v-581h-91v724z" />
    <glyph glyph-name="O" unicode="O" horiz-adv-x="748" 
d="M141 324q0 -59 15.5 -111.5t46.5 -92.5q30 -41 75.5 -64.5t105.5 -23.5q61 0 106.5 25.5t75.5 66.5t45 93.5t15 106.5t-15 105.5t-45 92.5q-30 40 -75.5 65t-106.5 25t-106.5 -24t-75.5 -64q-31 -41 -46 -93t-15 -107zM38 324q0 76 24 144t69 119t109 80.5t144 29.5
t143.5 -29.5t108.5 -80.5q44 -51 67.5 -119t23.5 -144t-23.5 -144t-67.5 -119q-45 -52 -108.5 -82t-143.5 -30q-83 0 -147 28.5t-108 79.5q-45 50 -68 118.5t-23 148.5z" />
    <glyph glyph-name="P" unicode="P" horiz-adv-x="618" 
d="M277 684q56 0 107.5 -12t90.5 -37q39 -26 62.5 -67t23.5 -99q0 -46 -16.5 -85t-45.5 -67q-29 -29 -68.5 -45t-84.5 -16h-164v-294h-114v362q-1 89 -1 178v182h210zM318 336q31 0 57 9.5t45 27.5q18 17 28.5 41.5t10.5 54.5q0 72 -47.5 103.5t-125.5 31.5h-113v-268h145z
" />
    <glyph glyph-name="Q" unicode="Q" horiz-adv-x="772" 
d="M52 322q0 80 22.5 148.5t66.5 119.5q43 50 107.5 78.5t148.5 28.5q80 0 143.5 -30t107.5 -81q44 -52 67.5 -120t23.5 -144q0 -51 -10.5 -94t-29.5 -80t-46 -69t-61 -62l87 -110h-113l-54 70q-8 -6 -23 -11.5t-31 -9.5q-17 -4 -32 -6t-23 -2q-83 0 -148 25.5t-110 73.5
t-69 117.5t-24 157.5zM533 91q54 48 80 108t26 123q0 52 -16 104t-46 93q-31 41 -76.5 67t-103.5 26q-60 0 -106 -27t-76 -69q-31 -42 -47 -93.5t-16 -100.5t14 -99.5t43 -91.5q28 -42 71.5 -68t101.5 -26q14 0 32.5 1.5t40.5 5.5q-11 14 -24 30.5t-26 33.5t-25 33t-22 29
l-2 2h114z" />
    <glyph glyph-name="R" unicode="R" horiz-adv-x="666" 
d="M310 685q49 0 93.5 -11.5t79.5 -35.5q34 -24 54.5 -61t20.5 -88q0 -30 -10.5 -59t-29.5 -52q-20 -24 -47.5 -40t-61.5 -20q37 -18 64 -60t49 -93q21 -52 40.5 -106t41.5 -97h-114q-21 54 -40.5 113.5t-45.5 109.5q-17 31 -35 49.5t-38 28.5q-20 9 -42.5 11.5t-47.5 2.5
h-73v-315h-100v362q-1 89 -1 179v182h243zM299 363q29 0 57 8.5t51 24.5q22 16 36 39.5t14 53.5q0 32 -15.5 54.5t-38.5 36.5q-23 13 -51 19t-53 6h-135v-242h135z" />
    <glyph glyph-name="S" unicode="S" horiz-adv-x="555" 
d="M450 582q-40 14 -76 21.5t-74 7.5q-20 0 -45 -5t-47 -16q-23 -12 -38.5 -31t-15.5 -46q0 -28 14 -49t38 -38q23 -18 54 -33t65 -30q35 -16 70.5 -33.5t64.5 -41.5t47.5 -55.5t18.5 -75.5q0 -51 -19.5 -90t-52.5 -65q-34 -26 -78 -39.5t-92 -13.5q-45 0 -80.5 3.5
t-64.5 8.5t-52 11t-42 12h-1l15 88q20 -8 49 -14.5t58 -11.5q29 -6 53.5 -9t36.5 -3q29 0 58.5 6.5t53.5 20.5q23 14 37.5 36.5t14.5 54.5q0 37 -27.5 62t-69.5 47q-42 21 -90 41t-90 47q-42 26 -69.5 62.5t-27.5 90.5q0 55 24 92.5t62 60.5q38 22 85.5 32t94.5 10
q33 0 69 -7.5t72 -16.5l12 -3z" />
    <glyph glyph-name="T" unicode="T" horiz-adv-x="496" 
d="M57 606v80h394v-80h-151v-644h-89v644h-154z" />
    <glyph glyph-name="U" unicode="U" horiz-adv-x="731" 
d="M572 686h104v-359q0 -89 -10.5 -158.5t-42.5 -118.5q-32 -50 -91.5 -77t-158.5 -30q-95 1 -153.5 28t-90.5 76q-33 49 -44.5 119t-11.5 159v361h104l-1 -371q2 -56 6.5 -108t23.5 -93t58.5 -65.5t110.5 -24.5q70 0 110 27t60 70q19 42 23.5 94.5t3.5 103.5v367z" />
    <glyph glyph-name="V" unicode="V" horiz-adv-x="711" 
d="M364 42q24 74 50.5 156t53.5 166q27 83 54 165t51 157h107l-246 -724h-137q-63 184 -124.5 362.5t-124.5 361.5h109z" />
    <glyph glyph-name="W" unicode="W" horiz-adv-x="1000" 
d="M194 -43l-173 717h97l142 -611l176 599h142l167 -599l144 611h93q-45 -184 -88.5 -358.5t-88.5 -358.5h-121l-179 626q-45 -162 -93 -314.5t-93 -311.5h-125z" />
    <glyph glyph-name="X" unicode="X" horiz-adv-x="719" 
d="M73 686h117l178 -275q46 69 90 138t90 137h114l-233 -345l250 -379h-119l-198 300l-192 -300h-114l243 379z" />
    <glyph glyph-name="Y" unicode="Y" horiz-adv-x="678" 
d="M301 -38v284l-116 220q-58 110 -117 220h115l166 -329q19 37 40.5 79t43.5 85t43 85l40 80h113l-238 -446v-278h-90z" />
    <glyph glyph-name="Z" unicode="Z" horiz-adv-x="581" 
d="M552 49v-87h-508v80l373 552h-351v92h473v-80l-374 -557h387z" />
    <glyph glyph-name="bracketleft" unicode="[" horiz-adv-x="325" 
d="M75 708h175v-76h-77v-646h77v-76h-175v798z" />
    <glyph glyph-name="backslash" unicode="\" horiz-adv-x="432" 
d="M377 -34h-87q-59 174 -115 344t-115 344h88z" />
    <glyph glyph-name="bracketright" unicode="]" horiz-adv-x="323" 
d="M259 -89h-196v76h97v644h-97v76h196v-796z" />
    <glyph glyph-name="asciicircum" unicode="^" horiz-adv-x="620" 
d="M265 662h90l193 -394h-100l-138 287l-137 -287h-101z" />
    <glyph glyph-name="underscore" unicode="_" horiz-adv-x="510" 
d="M41 -85h428v-58h-428v58z" />
    <glyph glyph-name="grave" unicode="`" horiz-adv-x="266" 
d="M232 558h-73l-126 141h119z" />
    <glyph glyph-name="a" unicode="a" horiz-adv-x="559" 
d="M106 452q45 23 94 39t98 16q111 0 166 -53.5t55 -165.5q0 -81 0.5 -163t0.5 -163h-90v64q-42 -38 -87 -57.5t-86 -19.5q-44 0 -81 8.5t-64 27.5t-42.5 50.5t-15.5 78.5q0 52 27.5 86t70.5 54q42 20 92.5 28t96.5 8q14 0 35 -2t47 -5q-3 39 -14 67t-31 50q-17 17 -41.5 25
t-60.5 8q-46 0 -87.5 -19t-75.5 -42zM353 220q-22 0 -53.5 -4.5t-60.5 -16.5q-30 -12 -53 -32.5t-29 -51.5q0 -17 4.5 -33t16.5 -28q12 -13 32 -20.5t51 -7.5q32 0 61 11t52 32q22 20 35 50t13 69q0 8 -0.5 16t-1.5 16h-67z" />
    <glyph glyph-name="b" unicode="b" horiz-adv-x="628" 
d="M67 700h100v-265q27 32 71 51.5t97 19.5q57 0 103 -22.5t79 -59.5q32 -38 49 -87t17 -101q0 -53 -15.5 -104.5t-45.5 -91.5q-30 -41 -73.5 -66t-99.5 -25q-25 0 -50 3t-48 11t-44 22t-38 36v-59h-102v738zM480 231q0 32 -9 67t-28 64t-47.5 47.5t-67.5 18.5
q-37 0 -66.5 -16t-49.5 -42q-21 -26 -32 -58.5t-11 -65.5q0 -37 7 -75.5t25 -69.5q17 -32 48 -52t79 -20q43 0 72 19t47 49q18 29 25.5 64.5t7.5 69.5z" />
    <glyph glyph-name="c" unicode="c" horiz-adv-x="510" 
d="M448 406q-26 8 -53.5 14t-53.5 6q-97 0 -147 -55.5t-50 -146.5q0 -52 16.5 -90.5t44.5 -63.5t65 -37.5t79 -12.5q29 0 60.5 7t60.5 20q3 -12 4.5 -20.5t2.5 -16.5l2 -16q1 -8 3 -19q-37 -14 -76.5 -21t-77.5 -7q-61 0 -113 20t-90 57q-39 37 -60.5 87.5t-21.5 112.5
q0 70 23 122.5t63 87.5t92.5 52.5t112.5 17.5q38 0 65 -5.5t61 -16.5z" />
    <glyph glyph-name="d" unicode="d" horiz-adv-x="608" 
d="M562 -38h-102v59q-17 -22 -38 -36t-44 -22t-48 -11t-50 -3q-56 0 -99.5 25t-73.5 66q-30 40 -45.5 91.5t-15.5 104.5q0 52 17 101t50 87q32 37 78 59.5t103 22.5q53 0 97 -19.5t71 -51.5v265h100v-738zM149 231q0 -34 7.5 -69.5t25.5 -64.5q18 -30 47 -49t72 -19
q48 0 79 20t49 52q17 31 24 69.5t7 75.5q0 33 -11 65.5t-31 58.5q-21 26 -50.5 42t-66.5 16q-39 0 -67.5 -18.5t-47.5 -47.5t-28 -64t-9 -67z" />
    <glyph glyph-name="e" unicode="e" horiz-adv-x="569" 
d="M524 -3q-45 -24 -102.5 -37t-111.5 -13q-70 0 -120.5 22t-82.5 60q-32 37 -47.5 86.5t-15.5 104.5q0 59 15.5 111t46.5 91q31 38 77.5 60t108.5 22q65 0 112 -25.5t78 -68.5q30 -43 45 -99.5t17 -118.5h-396q0 -38 12 -68.5t34 -51.5q22 -22 52.5 -33.5t67.5 -11.5
q51 0 99.5 13.5t88.5 34.5zM437 259q0 28 -9.5 57t-27.5 53q-19 24 -48 39.5t-68 15.5q-35 0 -60.5 -17t-42.5 -41q-18 -25 -26.5 -54t-8.5 -53h291z" />
    <glyph glyph-name="f" unicode="f" horiz-adv-x="410" 
d="M23 450h130q0 69 3 117t21 83q12 21 31 34t41 20q22 6 46 8.5t48 2.5q14 0 29 -3t28 -8q-2 -19 -3.5 -35t-3.5 -33q-13 2 -27 3.5t-20 1.5q-34 0 -53.5 -11.5t-29.5 -29.5q-10 -19 -12.5 -42.5t-2.5 -47.5v-60h144v-73h-143v-415h-96v415h-130v73z" />
    <glyph glyph-name="g" unicode="g" horiz-adv-x="614" 
d="M276 -199q-51 0 -99 12t-78 24q3 23 6 42t7 40q50 -20 98.5 -26.5t103.5 -5.5q45 1 76.5 15t50.5 39q19 26 27.5 61.5t8.5 79.5q-25 -27 -48 -41t-45 -21q-23 -7 -45 -8t-46 -1q-54 0 -97 19.5t-73 53.5q-30 33 -46 76.5t-16 91.5q0 51 15.5 98t45.5 83q29 36 72 57.5
t99 21.5q22 0 46 -2t48 -8q23 -6 45.5 -17.5t42.5 -30.5v47h99v-434q0 -70 -20.5 -120.5t-58.5 -82.5q-39 -32 -94.5 -47.5t-124.5 -15.5zM315 84q40 0 69.5 13.5t49.5 36.5q19 23 29 55t10 70q0 35 -10.5 67.5t-30.5 57.5t-49.5 40t-67.5 15q-36 0 -65 -15.5t-49 -39.5
q-21 -25 -31.5 -56.5t-10.5 -63.5q0 -37 8 -69.5t26 -56.5q18 -25 48 -39.5t74 -14.5z" />
    <glyph glyph-name="h" unicode="h" horiz-adv-x="585" 
d="M165 414q7 10 20 22.5t31 23.5q18 10 41.5 17.5t52.5 7.5q52 0 95 -16.5t73 -48.5t46.5 -78.5t16.5 -106.5v-273h-94l-2 252q0 30 -5.5 62.5t-19.5 60.5q-15 28 -41 46t-67 18q-42 0 -70.5 -19.5t-44.5 -50.5q-17 -31 -24 -70t-7 -79v-220h-102v738h101v-286z" />
    <glyph glyph-name="i" unicode="i" horiz-adv-x="214" 
d="M58 -38v508h108v-508h-108zM54 593v107h113v-107h-113z" />
    <glyph glyph-name="j" unicode="j" horiz-adv-x="228" 
d="M223 7q0 -38 -6.5 -76.5t-24.5 -69.5q-18 -30 -49.5 -49t-81.5 -19q-14 0 -27.5 1.5t-24.5 5.5q5 23 7.5 42t4.5 39q3 -1 8 -1h8q16 0 31.5 5t28.5 17q12 13 19.5 33.5t7.5 51.5v488h99v-468zM117 593v107h111v-107h-111z" />
    <glyph glyph-name="k" unicode="k" horiz-adv-x="554" 
d="M491 486l-263 -232l281 -292h-120l-247 261l1 -261h-100v738h100l-1 -411l219 197h130z" />
    <glyph glyph-name="l" unicode="l" horiz-adv-x="221" 
d="M63 -38v738h103v-738h-103z" />
    <glyph glyph-name="m" unicode="m" horiz-adv-x="844" 
d="M593 426q-26 0 -45.5 -13.5t-32.5 -36.5q-13 -24 -19.5 -55t-6.5 -66v-293h-106v298q0 29 -6 58.5t-19 53.5t-33.5 39t-49.5 15q-28 0 -48 -13.5t-33 -35.5q-13 -23 -19 -53.5t-6 -64.5q0 -75 0.5 -148.5t0.5 -148.5h-101v532h100v-34q17 17 45.5 31.5t65.5 14.5
q60 0 97.5 -29t59.5 -71q23 45 64 72.5t95 27.5q96 0 151.5 -63.5t55.5 -183.5v-297h-106v291q-2 96 -30 134.5t-74 38.5z" />
    <glyph glyph-name="n" unicode="n" horiz-adv-x="597" 
d="M172 441q18 25 56.5 41.5t81.5 16.5q71 0 117.5 -21.5t73.5 -57.5q27 -37 37.5 -86t10.5 -104v-268h-99v268q0 31 -6 65t-21 63q-15 28 -42 47t-69 19q-36 0 -62.5 -15.5t-43.5 -41.5t-25.5 -61.5t-8.5 -75.5v-268h-103v524h103v-45z" />
    <glyph glyph-name="o" unicode="o" horiz-adv-x="602" 
d="M47 224q0 60 20.5 111t56.5 89q35 37 83.5 58.5t104.5 21.5q59 0 107.5 -22.5t83.5 -60.5t54 -89t19 -108q0 -66 -20.5 -117.5t-55.5 -86.5q-36 -36 -84.5 -54.5t-103.5 -18.5q-58 0 -106.5 20.5t-83.5 57.5q-36 36 -55.5 87t-19.5 112zM147 225q0 -39 10 -76t31 -65
q20 -29 51 -46.5t73 -17.5q45 0 76 17.5t51 46.5q19 29 27.5 66t8.5 75q0 47 -12.5 85t-33.5 65q-22 27 -52 41.5t-65 14.5q-42 0 -73.5 -18.5t-51.5 -48.5t-30 -66.5t-10 -72.5z" />
    <glyph glyph-name="p" unicode="p" horiz-adv-x="606" 
d="M160 490v-47q31 29 69 43.5t87 14.5q65 0 113 -23.5t80 -62.5q31 -39 46 -89t15 -102q0 -59 -18 -106t-51 -81q-34 -34 -81 -52t-104 -18q-25 0 -50 5.5t-46 14.5q-22 10 -38.5 22t-24.5 24v-232h-100v689h103zM470 233q0 34 -8.5 69t-26.5 63q-19 28 -48 46t-69 18
q-42 0 -72 -17t-49 -44q-20 -28 -29 -63t-9 -71q0 -37 8.5 -72.5t27.5 -62.5q19 -28 49.5 -44.5t73.5 -16.5q39 0 67.5 18t47.5 47q19 28 28 62.5t9 67.5z" />
    <glyph glyph-name="q" unicode="q" horiz-adv-x="628" 
d="M570 490v-689h-100v232q-8 -12 -24.5 -24t-37.5 -22q-22 -9 -47 -14.5t-50 -5.5q-57 0 -104 18t-80 52q-34 34 -52 81t-18 106q0 52 15 102t47 89q31 39 79 62.5t113 23.5q49 0 87 -14.5t69 -43.5v47h103zM157 233q0 -33 9 -67.5t28 -62.5q19 -29 47.5 -47t67.5 -18
q43 0 73.5 16.5t49.5 44.5q19 27 27.5 62.5t8.5 72.5q0 36 -9 71t-28 63q-20 27 -50 44t-72 17q-41 0 -69.5 -18t-46.5 -46q-19 -28 -27.5 -63t-8.5 -69z" />
    <glyph glyph-name="r" unicode="r" horiz-adv-x="427" 
d="M145 -38h-98v531h98v-57q12 14 30.5 25.5t40.5 20.5q21 8 43 12.5t41 4.5q29 0 52 -3.5t41 -9.5q-5 -25 -8 -41.5t-7 -39.5q-31 11 -63 11q-60 0 -94 -23.5t-51 -59.5q-17 -37 -21 -81.5t-4 -86.5v-203z" />
    <glyph glyph-name="s" unicode="s" horiz-adv-x="455" 
d="M45 59q41 -20 83.5 -29t88.5 -11q15 0 38.5 3t46.5 11t39.5 22t16.5 35q0 31 -25.5 51.5t-62.5 37.5q-38 17 -81 33t-79 38q-36 21 -58.5 50t-17.5 72t25 71t51 45q30 16 67.5 22.5t78.5 6.5q39 0 84.5 -8t75.5 -24q-2 -22 -4 -38.5t-4 -36.5q-30 11 -65.5 22.5
t-86.5 10.5q-18 0 -39.5 -3t-40.5 -11q-20 -8 -33.5 -22.5t-14.5 -38.5q-1 -19 12 -34.5t36 -28.5q22 -14 51.5 -26t60.5 -25q30 -14 59.5 -29t53.5 -34q23 -19 37.5 -42t14.5 -53q0 -33 -17 -61.5t-46 -49.5q-30 -21 -70.5 -32.5t-86.5 -11.5q-24 0 -52 2.5t-55 7.5
t-51.5 12t-42.5 17z" />
    <glyph glyph-name="t" unicode="t" horiz-adv-x="415" 
d="M257 652v-158h116v-75h-116v-289q0 -54 19.5 -75t57.5 -21q11 0 25.5 1.5t30.5 6.5v-80q-15 -6 -30.5 -9.5t-33.5 -3.5q-78 0 -121.5 34.5t-43.5 115.5v320q-26 0 -59.5 -0.5t-62.5 -0.5v76h122v158h96z" />
    <glyph glyph-name="u" unicode="u" horiz-adv-x="587" 
d="M439 7q-14 -20 -34.5 -32.5t-44.5 -19.5t-50.5 -10t-51.5 -3q-59 0 -97 24t-60 66q-22 41 -30.5 96.5t-8.5 118.5v239h100l1 -203q0 -54 3.5 -101.5t17.5 -82.5q13 -36 40 -57t74 -21q49 0 77 24t42 63t18 89t4 102v187h107v-531h-107v52z" />
    <glyph glyph-name="v" unicode="v" horiz-adv-x="596" 
d="M251 -38q-52 135 -102.5 263t-101.5 263h103l165 -444q17 48 37.5 104.5t42.5 115.5q21 59 42 116.5t39 107.5h94l-200 -526h-119z" />
    <glyph glyph-name="w" unicode="w" horiz-adv-x="861" 
d="M579 -38l-136 456l-126 -456h-118l-158 531h104l113 -440q9 27 20 64t23 77q12 39 23.5 77.5t19.5 67.5l44 154h123l132 -440q12 45 27 102t31 117q15 59 29 116.5t25 104.5h95l-157 -531h-114z" />
    <glyph glyph-name="x" unicode="x" horiz-adv-x="605" 
d="M77 489h112l124 -183q27 42 60.5 91.5t62.5 91.5h110l-174 -250l197 -277h-113l-149 209l-143 -209h-107l193 277z" />
    <glyph glyph-name="y" unicode="y" horiz-adv-x="546" 
d="M95 -194q-20 0 -45 3l10 78q8 -1 15 -1h14q52 0 89.5 26t58.5 83l-201 495h97l153 -387l145 387h97q-56 -136 -109.5 -269.5t-114.5 -274.5q-32 -72 -85 -106t-124 -34z" />
    <glyph glyph-name="z" unicode="z" horiz-adv-x="531" 
d="M74 418v82h410v-85l-329 -377h343v-76h-447v82l326 374h-303z" />
    <glyph glyph-name="braceleft" unicode="{" horiz-adv-x="323" 
d="M297 644q-6 1 -16 1h-20q-11 -1 -20.5 -2.5t-15.5 -4.5q-16 -17 -19 -46t-1 -62q1 -34 3.5 -70t-3.5 -66q-6 -31 -24 -53.5t-56 -29.5q33 -18 49.5 -42.5t23.5 -52.5q6 -29 5.5 -59t-1.5 -57q-1 -28 -0.5 -52t9.5 -40q9 -17 29 -24.5t57 -1.5v-71h-74q-43 0 -66 13.5
t-33 35.5q-10 23 -11 52.5t1 61.5q1 31 1 63t-7 60q-8 27 -26.5 48t-55.5 31v70q45 2 62.5 30.5t21.5 69.5q3 41 1 88t5 88q6 40 29 66.5t77 26.5h75v-71z" />
    <glyph glyph-name="bar" unicode="|" horiz-adv-x="213" 
d="M153 -88h-93v801h93v-801z" />
    <glyph glyph-name="braceright" unicode="}" horiz-adv-x="323" 
d="M26 715h75q54 0 77 -26.5t30 -66.5q6 -41 4 -88t2 -88q3 -41 20.5 -69.5t62.5 -30.5v-70q-37 -10 -55.5 -31t-25.5 -48q-8 -28 -8 -60t2 -63q1 -32 0 -61.5t-11 -52.5q-10 -22 -33 -35.5t-66 -13.5h-74v71q37 -6 57 1.5t29 24.5q9 16 9.5 40t-0.5 52q-1 27 -1.5 57
t6.5 59q6 28 22.5 52.5t49.5 42.5q-39 7 -56.5 29.5t-23.5 53.5q-6 30 -3.5 66t4.5 70q1 33 -2 62t-19 46q-6 3 -15.5 4.5t-19.5 2.5h-21q-10 0 -16 -1v71z" />
    <glyph glyph-name="asciitilde" unicode="~" horiz-adv-x="562" 
d="M483 390q9 -23 20.5 -45.5t25.5 -38.5q-21 -50 -61.5 -71t-91.5 -21q-29 0 -54.5 11t-50.5 24q-25 12 -49.5 23t-50.5 11q-14 0 -28.5 -8t-27.5 -20q-13 -13 -22.5 -27t-13.5 -26q-13 20 -23 41t-24 42q9 24 25 41.5t37 29.5q20 11 43.5 16.5t47.5 5.5q27 0 52.5 -10.5
t50.5 -23.5t50.5 -23.5t52.5 -10.5q13 0 28 8t29 20q13 12 23 26t12 26z" />
    <glyph glyph-name="uni007F" horiz-adv-x="343" 
 />
    <glyph glyph-name="uni00A0" unicode="&#xa0;" horiz-adv-x="343" 
 />
    <glyph glyph-name="exclamdown" unicode="&#xa1;" horiz-adv-x="1045" 
d="M481 571h69l12 -272v-381h-97v381zM570 657h-111v118h111v-118z" />
    <glyph glyph-name="currency" unicode="&#xa4;" horiz-adv-x="1045" 
d="M514 590q-96 0 -163 -70q-37 -37 -53 -80t-16 -95q0 -48 19 -92q16 -45 50 -80q15 -18 35 -30t41 -22q42 -19 87 -19q48 0 89 17t74 54q34 36 52 78.5t18 93.5q0 25 -4.5 47.5t-14.5 45.5q-10 22 -22.5 42t-28.5 40q-19 15 -36.5 27t-37.5 24q-22 10 -44.5 14.5
t-44.5 4.5zM216 -26l-56 60l108 112q-15 22 -27.5 44t-20.5 50q-18 49 -18 105q0 59 17 110q14 50 48 93q-14 13 -27.5 27t-25.5 30q-9 7 -15 14t-14 14t-13 14t-12 14l56 60l107 -115q81 68 191 68q108 0 190 -67q23 24 55 58l29 29l24 27l56 -60l-107 -112
q16 -21 29 -44.5t21 -47.5q6 -26 10.5 -54t4.5 -58q0 -29 -4.5 -55.5t-10.5 -49.5q-18 -53 -50 -96q13 -14 26.5 -27t27.5 -28q14 -16 28 -29l25 -26l-56 -60l-105 111q-84 -66 -193 -66q-27 0 -53.5 4t-49.5 15q-24 7 -47 19t-44 30z" />
    <glyph glyph-name="section" unicode="&#xa7;" horiz-adv-x="1045" 
d="M275 754q73 0 111 -54q4 -9 8.5 -15.5t6.5 -13.5q6 -16 6 -26q0 -13 -6 -21q-2 -6 -6.5 -10t-8.5 -8q-22 -14 -33 -14q-8 0 -13 1.5t-8 7.5q-12 7 -18 22q-10 14 -11 30q-2 7 -2.5 14.5t-0.5 14.5q0 4 -31 4q-18 0 -24 -11q-7 -18 -7 -41q-2 -39 22 -74q23 -38 68 -73
q25 -24 44.5 -47.5t33.5 -47.5q12 -26 17.5 -52t3.5 -52q-6 -35 -20 -50q-16 -20 -35 -27q2 -2 3.5 -5.5t3.5 -5.5q1 -5 7 -11q1 -8 6 -15q2 -8 7 -15q1 -8 2.5 -15t4.5 -14q1 -10 2 -17t1 -15q0 -12 -1.5 -23t-2.5 -23q-3 -10 -6.5 -22t-9.5 -24q-35 -71 -111 -66
q-36 0 -61 12q-32 13 -48 36q-40 47 -21 90q22 42 70 24q10 -7 17 -13t12 -12q7 -22 1 -44v1q-1 -2 -1 -3v-5q0 -2 -1 -3v-1v-1q1 -2 12 -2q5 -5 10 -5q3 0 7.5 0.5t11.5 4.5q3 0 7.5 2.5t7.5 8.5q3 3 4.5 7.5t4.5 10.5q1 4 1.5 9.5t0.5 11.5q0 12 -5 33q-3 12 -8 22.5
t-11 21.5l-30 36q-14 10 -25.5 23.5t-23.5 29.5q-14 14 -25.5 27.5t-21.5 28.5q-9 9 -13 20t-8 24q-5 8 -6.5 19t-1.5 23v12q0 7 2 13q0 6 2 12.5t6 15.5q7 19 24 33q12 13 33 21l-10 13q-16 20 -23 48q-12 25 -12 55q-4 75 30 114q16 18 38 28t48 12h3zM321 349
q-9 13 -19 24.5t-20 21.5q-12 10 -21 14.5t-18 7.5q-25 2 -25 -13q0 -20 7 -35q3 -8 6 -17.5t9 -13.5q23 -32 49 -48q23 -20 36 -20q18 0 18 22q0 6 -2.5 13.5t-4.5 16.5q-7 9 -8 16q-6 6 -7 11z" />
    <glyph glyph-name="dieresis" unicode="&#xa8;" horiz-adv-x="1045" 
d="M811 848v-128h-127v128h127zM346 848v-128h-128v128h128z" />
    <glyph glyph-name="ordfeminine" unicode="&#xaa;" horiz-adv-x="1045" 
d="M728 234q0 -6 2 -12q0 -18 6 -30q1 -15 6 -26q0 -5 2 -12q1 -5 3 -7h-90l-4 15q-1 4 -1.5 8.5t-0.5 8.5l-4 9q0 3 -1.5 5.5t-2.5 6.5q-10 -8 -21 -15q-6 -4 -11 -7.5t-11 -6.5h-1l-1 -1q-1 -1 -3 -1h-1v-1q-15 -9 -28 -15.5t-29 -9.5q-33 -13 -65 -13q-41 -5 -72 6
q-37 6 -64 24q-29 18 -45 46.5t-19 64.5q-3 32 8 64q4 11 11 24t16 25q15 19 41 37q11 7 23 12t29 10q9 4 19.5 6t22.5 4q6 0 11.5 1t8.5 3l26 4h6q1 0 6 1h6l5 2q7 0 15 3q4 0 8.5 1t8.5 2q4 0 8 1l8 2q7 0 17 4q10 1 31 8q10 1 22 7q2 0 8 9q1 3 2 7.5t1 10.5q0 36 -31 66
q-28 30 -95 30q-14 0 -26.5 -1.5t-25.5 -4.5q-13 -5 -24.5 -11t-20.5 -11t-14.5 -15t-10.5 -22q-5 -13 -7.5 -27.5t-2.5 -29.5h-85q-3 50 13.5 89t49.5 67q15 11 33 21t38 16q18 7 39 11t44 4q44 0 81 -13t69 -37q64 -58 64 -139v-278zM811 -28h-579v80h579v-80zM640 406
l-17 -6q-2 -1 -4 -1.5t-5 -0.5q-3 -1 -6 -1q-7 -4 -16 -6.5t-22 -2.5q-12 -4 -25 -5l-26 -2q-15 -3 -26 -5t-22 -2q-4 -1 -7.5 -2t-7.5 -1l-8 -2h-5q-46 -12 -64 -33q-12 -13 -16 -26t-3 -25q0 -38 36 -54q15 -9 35 -14t44 -3q13 0 26 4.5t28 10.5q16 6 29 11.5t28 16.5
q54 35 54 78v71z" />
    <glyph glyph-name="uni00AD" unicode="&#xad;" horiz-adv-x="1045" 
d="M773 387v-82h-518v82h518z" />
    <glyph glyph-name="registered" unicode="&#xae;" horiz-adv-x="1045" 
d="M348 543h159q32 0 61.5 -7.5t51.5 -23.5q23 -16 36 -40.5t13 -58.5q0 -20 -7 -38t-18 -33q-11 -14 -26 -23t-31 -11q21 -13 37 -39.5t30 -59.5q13 -33 26.5 -67t29.5 -61h-99q-14 34 -25.5 71t-29.5 70q-12 22 -25 33t-28 15t-33 3.5t-39 -0.5v-192h-82zM428 346h73
q15 0 30.5 4.5t27.5 12.5t20 21t8 29q0 17 -8.5 28.5t-20.5 18.5q-13 7 -28 10.5t-29 3.5h-73v-128zM52 309q0 93 35 178q34 82 98 146q29 30 65 54.5t80 43.5q82 36 180 36q94 0 178 -36q41 -19 77.5 -43.5t67.5 -54.5q31 -34 55.5 -69.5t42.5 -75.5q36 -86 36 -179
q0 -95 -36 -177q-18 -43 -43 -80t-56 -67q-63 -61 -145 -97q-85 -34 -177 -34q-96 0 -179 34q-43 19 -79.5 43t-65.5 54q-34 30 -57.5 67t-40.5 80q-36 83 -36 177zM118 309q0 -80 30 -151q32 -70 87 -124q49 -53 123 -83q70 -33 152 -33q80 0 150 33q35 14 67 34.5t58 47.5
q53 52 86 124q14 36 22 73.5t8 78.5q0 79 -30 152q-32 69 -86 125q-26 27 -57.5 47.5t-66.5 36.5q-37 16 -74.5 24t-76.5 8q-42 0 -79.5 -8t-73.5 -24t-67 -36.5t-57 -47.5q-53 -54 -85 -125q-30 -70 -30 -152z" />
    <glyph glyph-name="degree" unicode="&#xb0;" horiz-adv-x="1045" 
d="M58 706q0 15 2 28t9 28q4 13 11 23t17 21q10 10 20 16.5t22 12.5q13 5 24.5 7.5t27.5 2.5q28 0 52 -10q13 -6 22.5 -12.5t20.5 -16.5q9 -11 16 -21t12 -23q4 -15 7.5 -28t3.5 -28q0 -16 -3.5 -28.5t-7.5 -25.5q-5 -15 -12 -24.5t-16 -18.5q-11 -11 -20.5 -18t-22.5 -11
q-12 -7 -25.5 -9.5t-26.5 -2.5q-16 0 -27.5 2.5t-24.5 9.5q-12 4 -22 11t-20 18q-10 9 -17 18.5t-11 24.5q-7 13 -9 25.5t-2 28.5zM142 708q0 -25 15 -37q12 -16 34 -16q19 0 34 16q7 8 11 16t4 21q0 18 -15 37q-8 6 -16 10.5t-18 4.5q-20 0 -34 -15q-15 -16 -15 -37z" />
    <glyph glyph-name="plusminus" unicode="&#xb1;" horiz-adv-x="1045" 
d="M195 462h275v229h88v-229h277v-83h-277v-231h-88v231h-275v83zM195 90h640v-82h-640v82z" />
    <glyph glyph-name="twosuperior" unicode="&#xb2;" horiz-adv-x="1045" 
d="M323 621l-17 -14l-15 -9q-8 -6 -14.5 -10t-10.5 -8h123v-79h-239q0 13 1 23t4 20q2 21 14 39q8 16 27 33q14 15 39 34q2 1 4.5 2.5t5.5 3.5t6.5 4t6.5 5q2 1 4 3l5 5l6 4q3 2 6 5q27 21 27 40q0 28 -31 28q-16 0 -24 -17q-9 -17 -9 -39h-82q0 16 2 30t7 26q3 11 7.5 20.5
t11.5 17.5q14 18 37 29q11 4 24 7t27 3q13 0 25.5 -2.5t24.5 -5.5q10 -5 18.5 -11t16.5 -13q6 -8 11 -15.5t8 -17.5q4 -11 5.5 -21t1.5 -19q0 -22 -6 -37q-2 -7 -6.5 -14t-7.5 -13q-5 -6 -10 -11.5t-10 -10.5q-7 -3 -12.5 -8t-11.5 -7z" />
    <glyph glyph-name="threesuperior" unicode="&#xb3;" horiz-adv-x="1045" 
d="M161 703q0 56 35 91q30 33 76 33q11 0 22 -2.5t21 -5.5q10 -5 18.5 -10t17.5 -11q7 -9 12.5 -15.5t11.5 -15.5q4 -10 6.5 -19t2.5 -18q0 -21 -6 -37q-9 -17 -16 -26q10 -11 22 -31q3 -8 5.5 -17t2.5 -19q0 -44 -31 -75q-35 -31 -87 -31q-29 0 -48 11q-12 5 -20.5 12.5
t-16.5 16.5q-17 17 -24 42q-7 13 -9 25t-2 26h71q0 -11 2 -20t8 -18q6 -17 34 -17q9 0 16.5 1.5t14.5 7.5q10 6 10 21q0 12 -6 19q-3 3 -7.5 5t-7.5 5q-5 0 -10 1t-11 1h-27l1 66h36q4 0 7 2q4 1 12 10q5 6 5 19q0 8 -9 15q-9 5 -26 5q-23 0 -28 -15q-4 -9 -6.5 -16.5
t-2.5 -15.5h-69z" />
    <glyph glyph-name="acute" unicode="&#xb4;" horiz-adv-x="335" 
d="M222 702q-8 -14 -16.5 -26t-19.5 -24q-12 -16 -23 -29t-22 -27q-12 -12 -24 -25.5t-23 -26.5q-12 -12 -24 -23t-20 -21q1 7 3 14t4 12l9 32q4 16 9 33t12 35q3 15 9 33t12 35q6 16 10.5 31.5t11.5 29.5l17 35q6 21 19 33v-1q28 41 76 19q43 -26 18 -75q-6 -9 -9 -16
t-6 -15q-3 -4 -5.5 -8t-6.5 -8q-3 -4 -5 -9t-6 -8z" />
    <glyph glyph-name="paragraph" unicode="&#xb6;" horiz-adv-x="1045" 
d="M684 783v-876h-106v796h-47v-796h-105v474q-84 5 -130 57q-54 58 -54 146q0 82 56 141q60 58 137 58h249z" />
    <glyph glyph-name="periodcentered" unicode="&#xb7;" horiz-adv-x="220" 
d="M201 410v-128h-126v128h126z" />
    <glyph glyph-name="cedilla" unicode="&#xb8;" horiz-adv-x="1045" 
d="M567 -25q29 -8 46 -26t17 -43q0 -31 -32.5 -53t-86.5 -22q-36 0 -59 12t-37 27l13 22q17 -9 34 -12.5t33 -3.5q25 0 39.5 8t14.5 24q0 15 -13 22t-26 7q-20 0 -33 -6l-23 24l54 61h89l-30 -41v0z" />
    <glyph glyph-name="onesuperior" unicode="&#xb9;" horiz-adv-x="1045" 
d="M258 508v196h-60v75q9 0 15.5 -0.5t15.5 1.5q12 0 22 6q4 4 7 6.5t5 8.5q0 1 1 3.5t1 6.5l1 15h70v-318h-78z" />
    <glyph glyph-name="ordmasculine" unicode="&#xba;" horiz-adv-x="1045" 
d="M748 421q0 -27 -4 -53t-11 -50q-9 -26 -19 -49t-25 -43q-15 -21 -34.5 -37.5t-40.5 -29.5q-24 -14 -49 -20t-54 -6q-59 0 -101 24q-45 21 -74 64q-15 20 -26 42.5t-18 48.5q-8 25 -11.5 51.5t-3.5 56.5q0 23 3.5 48t11.5 52q7 23 17.5 46t26.5 46q27 39 73 68
q21 10 47 17t56 7q53 0 102 -22q43 -25 74 -63q15 -22 25 -44.5t19 -48.5q8 -27 12 -52.5t4 -52.5zM811 -28h-579v80h579v-80zM664 420q0 15 -2.5 33t-4.5 36q-4 17 -11 33t-16 32q-9 14 -21.5 25.5t-24.5 22.5q-17 10 -34 14.5t-36 4.5q-40 0 -65 -18q-17 -11 -27 -22.5
t-20 -25.5q-10 -16 -17 -32t-11 -33q-7 -18 -8.5 -36.5t-1.5 -33.5q0 -18 1.5 -35t5.5 -34t11 -34t17 -31q8 -15 19 -27.5t27 -20.5q13 -13 30 -17t37 -4q40 0 69 18q12 9 24.5 20.5t22.5 26.5q9 12 16.5 29.5t11.5 35.5q3 19 5.5 36.5t2.5 36.5z" />
    <glyph glyph-name="onequarter" unicode="&#xbc;" horiz-adv-x="1045" 
d="M176 384h677v-75h-677v75zM325 -46v74l208 261h75v-250h64v-85h-64v-75h-90v75h-193zM518 142l-86 -103h86v103zM483 415v246h-84v82q12 0 23.5 1t25.5 4q17 0 29 7h-1q3 3 7.5 8t7.5 13q2 5 3 14t1 21h75v-396h-87z" />
    <glyph glyph-name="onehalf" unicode="&#xbd;" horiz-adv-x="1045" 
d="M579 9q-5 -4 -8.5 -6t-7.5 -4q-3 -2 -6 -3.5t-6 -3.5q-9 -5 -16.5 -10t-14.5 -10q-3 -3 -7 -6.5t-7 -6.5l-13 -10q-15 -13 -23 -25h200v-75h-321q0 14 2.5 29.5t7.5 29.5q3 14 8 26.5t13 22.5q8 14 18.5 26t23.5 24q12 11 30.5 23t44.5 24q7 4 13.5 7.5t15.5 9.5
q6 5 13 9.5t14 10.5q9 9 19 25q9 14 9 31q0 12 -5 22.5t-13 19.5q-7 7 -18.5 10.5t-27.5 3.5q-41 0 -55 -19q-2 -5 -5.5 -11t-4.5 -16q-3 -9 -4 -19t-1 -21h-87q0 19 2 35t8 31q9 30 27 49q8 11 21 20t31 18q14 5 31 9t38 4q39 0 68 -11q13 -6 24.5 -13.5t21.5 -16.5
q19 -18 28 -42q5 -13 7.5 -27t2.5 -27q0 -48 -25 -79q-24 -34 -66 -58zM483 415v246h-84v82q12 0 23.5 1t25.5 4q17 0 29 7h-1q3 3 7.5 8t7.5 13q2 5 3 14t1 21h75v-396h-87zM176 384h677v-75h-677v75z" />
    <glyph glyph-name="threequarters" unicode="&#xbe;" horiz-adv-x="1045" 
d="M439 573q0 -13 0.5 -22.5t3.5 -16.5q3 -17 15 -29q12 -20 55 -20q32 0 52 17q19 19 19 46q0 7 -2.5 12.5t-5.5 12.5q-6 5 -11 9t-10 7q-7 2 -14 3.5t-15 3.5q-9 0 -16 1t-14 1h-35l1 77h28q5 0 11 1q5 0 9 0.5t9 1.5h6q3 0 6 3q16 3 28 21q11 12 11 27q0 9 -4 17t-9 17
q-10 7 -20.5 10.5t-25.5 3.5q-60 0 -60 -78h-88q0 36 12 68q5 13 13 25.5t19 23.5q9 10 21 16.5t28 11.5q12 5 26.5 7.5t30.5 2.5q13 0 27 -2.5t27 -6.5t25 -10t22 -14q10 -9 19 -18.5t17 -22.5q11 -25 11 -54q0 -26 -9.5 -47t-28.5 -38q13 -8 22 -18.5t16 -21.5
q14 -25 14 -55t-12 -55q-6 -15 -14 -25t-18 -19q-11 -10 -23.5 -17.5t-26.5 -11.5q-17 -7 -33 -9t-34 -2q-36 0 -65.5 11.5t-50.5 31.5q-46 42 -46 123h87zM325 -46v74l208 261h75v-250h64v-85h-64v-75h-90v75h-193zM176 384h677v-75h-677v75zM518 142l-86 -103h86v103z" />
    <glyph glyph-name="questiondown" unicode="&#xbf;" horiz-adv-x="1045" 
d="M737 182q0 -27 -2.5 -53t-8.5 -49q-6 -25 -16 -46t-23 -39q-15 -19 -33.5 -33t-39.5 -23q-24 -12 -49.5 -16.5t-55.5 -4.5q-21 0 -41.5 3t-39.5 11q-40 13 -69 41q-33 26 -50 65q-20 35 -20 80q0 18 2 34t9 33q8 32 26 58q13 26 37 48q19 17 44 34q12 7 23.5 16t21.5 24
q18 23 18 65v141h88v-140q0 -61 -26 -103q-15 -24 -31.5 -40.5t-38.5 -28.5q-38 -22 -62 -55q-15 -18 -20.5 -40t-5.5 -50q0 -16 3 -28t11 -22q13 -24 33 -36q9 -9 21 -13t24 -7q22 -8 47 -8q21 0 37 3t32 12q12 5 22 16t19 22q8 13 14 27t10 31q3 16 4 33.5t1 37.5h85z
M570 657h-111v118h111v-118z" />
    <glyph glyph-name="AE" unicode="&#xc6;" horiz-adv-x="1045" 
d="M582 175h-337q-5 -14 -10.5 -26.5t-10.5 -25.5t-9.5 -25t-9.5 -25l-23 -53l-10 -24q-5 -12 -9 -25h-92l306 747h535v-82h-426q11 -30 23 -60t24 -56q12 -31 23.5 -60.5t25.5 -60.5h315v-81h-283q26 -72 55 -134q13 -33 25.5 -65.5t27.5 -68.5h200v-79h-258zM278 254h271
q-9 21 -18.5 42.5t-16.5 42.5q-9 21 -16.5 40.5t-15.5 41.5q-10 17 -17.5 38.5t-15.5 41.5q-5 11 -9 21t-9 21q-3 10 -7.5 21t-8.5 23z" />
    <glyph glyph-name="Eth" unicode="&#xd0;" horiz-adv-x="1045" 
d="M368 301h263v-80h-263v-171h148q62 0 108 24q26 10 45.5 25t37.5 37q15 18 28.5 41.5t22.5 51.5q9 26 13.5 54.5t4.5 59.5q0 29 -4.5 58t-12.5 54q-9 27 -21 50.5t-27 44.5q-17 18 -37 35t-44 29q-48 22 -114 22h-148v-335zM280 221h-150v80h150v417h246q73 0 138 -30
q33 -14 59 -34.5t50 -43.5q21 -26 39 -56t31 -63q12 -36 18 -71.5t6 -76.5q0 -38 -6 -72.5t-18 -69.5q-23 -68 -65 -119q-46 -51 -108 -82q-64 -29 -144 -29h-246v250z" />
    <glyph glyph-name="multiply" unicode="&#xd7;" horiz-adv-x="717" 
d="M608 -30l-255 265l-244 -261l-59 66l249 254l-236 246l56 64l237 -246l233 243l55 -61l-231 -246l254 -257z" />
    <glyph glyph-name="Oslash" unicode="&#xd8;" horiz-adv-x="1045" 
d="M395 77q22 -24 54 -29q14 -5 30 -6t34 -1q60 0 105 26q21 13 38.5 30t32.5 40q13 20 23 44.5t19 52.5q14 56 14 111t-12 102.5t-33 88.5zM647 606q-28 22 -60.5 34t-73.5 12q-30 0 -56 -8t-46 -20q-47 -30 -73 -70q-28 -45 -40 -99q-9 -26 -12 -54t-3 -56q0 -31 3 -60
t12 -53q7 -28 16 -52t22 -41zM283 59q-23 25 -40 56.5t-27 68.5q-24 70 -24 161q0 39 4.5 75.5t15.5 73.5q9 34 24 65t36 60q19 26 44.5 47t55.5 39q31 16 65 24.5t76 8.5q27 0 51.5 -4t47.5 -11q22 -8 43.5 -19t42.5 -24q4 4 9.5 13.5t10.5 17.5l25 36q11 18 21 34.5
t22 32.5l70 -45l-103 -149q36 -54 58 -123q24 -70 24 -152q0 -70 -20 -140q-9 -35 -24 -66t-34 -58q-20 -31 -44.5 -53.5t-55.5 -37.5q-61 -36 -144 -36q-91 0 -168 49l-24 -34l-22 -37q-7 -9 -13 -18.5t-12 -16.5q-6 -10 -11 -18.5t-11 -16.5l-70 47z" />
    <glyph glyph-name="Thorn" unicode="&#xde;" horiz-adv-x="1045" 
d="M519 8q-57 0 -93 18q-22 9 -39.5 18.5t-30.5 24.5v-108h-89v765h89v-178q14 16 33 27.5t41 20.5q41 20 89 20q30 0 56.5 -7t50.5 -20q22 -13 41 -30t37 -38q15 -23 28 -46.5t21 -50.5q7 -28 11.5 -56.5t4.5 -55.5q0 -26 -4 -53t-11 -55q-8 -26 -20 -50.5t-27 -45.5
q-15 -24 -34.5 -41.5t-42.5 -29.5q-23 -17 -51 -23t-60 -6zM514 529q-20 0 -37.5 -5t-31.5 -15q-16 -12 -27.5 -23.5t-19.5 -27.5q-11 -19 -18 -35.5t-12 -34.5q-5 -21 -6.5 -39t-1.5 -37t1.5 -37t5.5 -35q3 -22 10 -39.5t18 -32.5q16 -34 47 -54q27 -20 72 -20q21 0 39 4.5
t34 15.5q28 19 47 50q11 15 16.5 32.5t10.5 38.5q4 18 6.5 37t2.5 40q0 18 -2.5 35.5t-6.5 37.5q-5 18 -10 35t-15 35q-10 16 -21.5 29t-26.5 25q-16 10 -34.5 15t-39.5 5z" />
    <glyph glyph-name="germandbls" unicode="&#xdf;" horiz-adv-x="1045" 
d="M336 -46v557q-2 24 0.5 45t11.5 40q7 19 16.5 34.5t24.5 29.5q24 23 63 41q18 6 37.5 9.5t39.5 3.5q19 0 37.5 -4t36.5 -10l30 -18q15 -9 26 -22q14 -12 22.5 -27t17.5 -31q11 -34 13 -71q0 -48 -13 -91q-18 -44 -57 -70q23 -11 42 -27t33 -40q25 -50 25 -121
q0 -24 -4 -45.5t-11 -39.5q-16 -40 -42 -67q-31 -31 -69 -43q-21 -10 -45 -13t-52 -3h-68v85h56q32 0 57.5 6t46.5 22q42 27 42 97t-40 104q-40 30 -107 30h-54v87h45q13 0 24 1.5t23 6.5q22 6 42 22q18 12 28 36q12 21 12 48q0 113 -109 113q-12 0 -21.5 -3t-19.5 -6
q-15 -10 -29 -25q-15 -16 -19 -33q-4 -10 -5.5 -20t-0.5 -19v-569h-86z" />
    <glyph glyph-name="ae" unicode="&#xe6;" horiz-adv-x="1045" 
d="M653 -32q-34 0 -59 12q-13 6 -25 12.5t-25 18.5q0 -4 1.5 -7.5t2.5 -6.5q0 -8 3 -10h-84q-5 6 -5 9q-1 2 -1.5 4.5t-0.5 6.5q-5 8 -5 17q-29 -24 -62 -37q-34 -18 -68 -18q-18 -2 -33.5 0t-29.5 7q-17 3 -29.5 10t-23.5 15q-13 10 -22.5 21t-15.5 26q-8 13 -11.5 29.5
t-3.5 34.5q-4 48 15 87q13 33 45 54q25 20 63 33q19 5 37 9.5t38 7.5h3h1q0 1 2 1h7q6 0 13 2t16 4q7 0 13.5 2.5t13.5 5.5q6 2 11 5.5t11 10.5q3 4 5 10t2 16q0 21 -6.5 37t-18.5 32q-13 10 -30.5 17t-38.5 7q-41 0 -67 -31q-15 -18 -20.5 -40t-5.5 -49h-88q-3 41 10 82
q12 35 38 66q23 25 58 43q17 7 35 11t40 4q45 0 89 -23q17 -13 34 -28.5t30 -35.5q13 18 29 32.5t33 28.5q18 13 38 19t42 6q47 0 83 -20t64 -56q24 -39 37.5 -98t13.5 -137h-310q0 -16 2 -30t8 -29q6 -32 20 -55q7 -13 14.5 -23t19.5 -18q9 -9 20 -12.5t27 -3.5q20 0 36 6
t28 22q11 12 20 31t14 42h93q-9 -34 -25 -68q-8 -18 -17.5 -32.5t-20.5 -28.5q-25 -30 -54 -44q-33 -17 -73 -16zM453 239q-17 -8 -33 -9q-6 -1 -10.5 -2t-9.5 -2q-6 -2 -11 -2.5t-10 -0.5q-7 -2 -11.5 -3t-9.5 -2q-7 -1 -12.5 -2.5t-9.5 -1.5q-24 -5 -30 -5
q-34 -12 -47 -34q-9 -13 -12.5 -24.5t-2.5 -22.5q0 -18 7.5 -30.5t18.5 -20.5q24 -20 60 -16q14 0 37 12q11 6 21.5 12t20.5 15q17 14 32 34q12 18 12 37v68zM758 312q-4 64 -29 101q-28 37 -76 37q-25 0 -45 -13q-20 -12 -31 -31q-16 -19 -22 -44q-11 -26 -12 -50h215z" />
    <glyph glyph-name="eth" unicode="&#xf0;" horiz-adv-x="1045" 
d="M487 309l-52 62l114 102q-5 0 -10 2q-7 0 -8 2h-8h-4l-2 1q-60 0 -97 -30q-18 -16 -31.5 -37t-21.5 -45h-93q6 21 14 42t20 39q9 18 22 32.5t29 29.5q15 12 32 22.5t38 18.5q40 13 88 13q27 0 54.5 -6.5t51.5 -18.5l12 10q6 5 13 11l25 24l48 42l51 -61l-84 -76
q18 -21 33 -46.5t27 -53.5q9 -29 14.5 -60t5.5 -64q0 -29 -4.5 -56.5t-11.5 -53.5q-8 -26 -21 -50t-28 -46q-18 -20 -36.5 -38t-43.5 -30q-23 -15 -49.5 -21t-56.5 -6q-61 0 -103 24q-24 9 -44 24.5t-36 36.5q-20 18 -32 40.5t-21 49.5q-18 49 -18 108v25q0 5 2 14h414
q-3 20 -7.5 41t-12.5 40q-16 35 -38 64zM358 204q1 -17 5 -32.5t13 -27.5q12 -29 35 -49q9 -11 21 -19t27 -14q22 -13 58 -13q32 0 57 13q13 6 25 14t23 19q9 11 18.5 22.5t16.5 26.5q5 12 10 27.5t8 32.5h-317z" />
    <glyph glyph-name="divide" unicode="&#xf7;" horiz-adv-x="1045" 
d="M184 389h659v-87h-659v87zM513 681q30 0 54 -25q11 -13 17 -27t6 -30q0 -17 -6 -30.5t-17 -24.5q-22 -21 -54 -21q-36 0 -53 21q-13 11 -18 24.5t-5 30.5q0 16 5 30t18 27q18 25 53 25zM514 170q12 0 28 -7l25 -17l18 -25q5 -15 5 -30q0 -17 -5 -29q-4 -9 -9 -14.5
t-9 -10.5q-9 -12 -25 -18q-15 -7 -28 -7q-30 0 -52 21q-24 17 -24 58q0 15 7 30q3 7 6 13.5t10 11.5q3 4 8.5 8.5t15.5 8.5q10 7 29 7z" />
    <glyph glyph-name="oslash" unicode="&#xf8;" horiz-adv-x="1045" 
d="M326 64q-15 21 -27.5 44t-20.5 49q-9 25 -12.5 54.5t-3.5 58.5q0 28 3 56t12 56q14 55 49 96q15 19 34.5 35.5t44.5 30.5q46 26 108 26q18 0 34 -2.5t33 -5.5q31 -12 60 -28l29 45q3 5 6.5 9.5t7.5 10.5l16 22l58 -48l-58 -88q15 -22 28 -46t21 -51t13 -57t5 -61
q0 -29 -5 -56t-12 -54q-17 -52 -48 -96q-17 -21 -36 -38t-44 -30q-23 -13 -50.5 -19t-57.5 -6q-39 0 -71 8.5t-61 29.5l-24 -38q-5 -7 -8.5 -11.5t-7.5 -9.5l-11 -18l-63 47zM431 83q19 -16 40.5 -22.5t41.5 -6.5q19 0 37 5t35 17q15 9 27 21.5t24 27.5q10 16 17 33t14 36
q4 18 7 37t3 39q0 21 -2 39t-5 34q-5 17 -10.5 31t-12.5 28zM590 462q-8 6 -18 10t-18 8q-23 6 -41 6q-20 0 -37 -5.5t-33 -15.5q-16 -11 -28.5 -23t-22.5 -28q-24 -32 -31 -70q-6 -19 -8.5 -37t-2.5 -37q0 -74 29 -127z" />
    <glyph glyph-name="thorn" unicode="&#xfe;" horiz-adv-x="1045" 
d="M285 718h85v-229q19 15 37.5 26t40.5 20q17 8 41.5 12t50.5 4q21 0 41 -4.5t39 -11.5q18 -9 33.5 -21t30.5 -24q26 -31 43 -66q14 -38 14 -84v-369h-87v363q0 61 -35 97q-18 18 -39.5 27t-50.5 9q-28 0 -55 -12q-29 -11 -49 -30q-26 -21 -38 -43q-17 -27 -17 -51v-360
h-85v747z" />
    <glyph glyph-name="dcroat" unicode="&#x111;" horiz-adv-x="1045" 
d="M518 392q-37 0 -63 -14q-16 -10 -28.5 -19t-21.5 -21q-25 -27 -31 -56q-11 -34 -11 -65q0 -38 11 -67q4 -17 11.5 -30t18.5 -26q9 -12 21 -22.5t28 -17.5q14 -8 30.5 -10.5t34.5 -2.5q19 0 34 2.5t32 10.5q12 7 24.5 17.5t23.5 22.5q10 13 17.5 26t13.5 30q12 30 12 67
q0 29 -12 65q-6 15 -13.5 29.5t-17.5 26.5q-11 12 -23 21t-26 19q-32 14 -65 14zM513 479q22 0 45 -4.5t44 -12.5q42 -17 73 -41v105h-317v83h317v120h88v-120h121v-83h-121v-554h-88v38q-36 -32 -72 -43q-21 -8 -43 -11t-47 -3q-27 0 -52.5 5t-46.5 18q-23 11 -41.5 25.5
t-35.5 32.5q-17 17 -28.5 38.5t-19.5 45.5q-18 46 -18 99q0 26 4 52.5t14 50.5q7 23 19 43.5t28 38.5q29 34 76 57q20 9 46 14.5t55 5.5z" />
    <glyph glyph-name="Hbar" unicode="&#x126;" horiz-adv-x="1045" 
d="M236 596v122h85v-122h388v122h87v-122h101v-78h-101v-547h-87v352h-388v-352h-85v547h-105v78h105zM321 518v-116h388v116h-388z" />
    <glyph glyph-name="hbar" unicode="&#x127;" horiz-adv-x="1045" 
d="M289 589v130h88v-130h313v-79h-313v-103q15 16 32 26t39 19q17 8 43 12.5t56 4.5q20 0 40 -4.5t40 -13.5q33 -18 64 -49q13 -15 23 -33t19 -36q14 -43 14 -85v-276h-90v269q0 13 -2 27t-5 27q-6 13 -12.5 24t-13.5 21q-18 21 -37 32q-25 12 -53 12q-16 0 -28.5 -3.5
t-26.5 -10.5q-16 -8 -28 -17t-22 -17q-13 -12 -21 -24t-15 -23q-16 -28 -16 -54v-263h-88v538h-127v79h127z" />
    <glyph glyph-name="dotlessi" unicode="&#x131;" horiz-adv-x="1045" 
d="M559 -29h-89v561h89v-561zM559 627h-89v91h89v-91z" />
    <glyph glyph-name="IJ" unicode="&#x132;" horiz-adv-x="1045" 
d="M235 719h86v-747h-86v747zM480 239v-84q0 -31 12 -48q10 -25 27 -37q8 -8 17.5 -14t22.5 -8q9 -5 19 -6t22 -1q9 0 20 1t22 6q11 2 20 7.5t18 13.5q17 13 28 37q4 9 7 22t3 27v564h88v-559q0 -21 -4 -41.5t-11 -37.5q-17 -41 -43 -67q-29 -30 -65 -44
q-21 -10 -41.5 -13.5t-41.5 -3.5q-22 0 -42.5 3t-39.5 12q-43 13 -67 40q-31 26 -45 66q-18 37 -13 87v78h87z" />
    <glyph glyph-name="ij" unicode="&#x133;" horiz-adv-x="1045" 
d="M419 30h-88v532h88v-532zM419 657h-88v90h88v-90zM700 665h-90v90h90v-90zM700 -24q0 -12 -1.5 -22t-2.5 -21q-4 -11 -7.5 -20t-8.5 -19q-13 -18 -28 -28q-10 -6 -21.5 -8.5t-22.5 -2.5h-57v79h29q17 0 24 13q6 8 6 31v592h90v-594z" />
    <glyph glyph-name="kgreenlandic" unicode="&#x138;" horiz-adv-x="1045" 
d="M367 -31h-86v570h86v-253l242 253h108l-218 -240l271 -330h-108l-223 272l-72 -68v-204z" />
    <glyph glyph-name="Ldot" unicode="&#x13f;" horiz-adv-x="1045" 
d="M692 347q21 0 41 -17q18 -20 18 -44q0 -14 -4 -22q-3 -6 -6.5 -11.5t-7.5 -8.5q-5 -3 -10 -7t-9 -6q-9 -5 -22 -5t-22 5q-14 5 -18 13q-6 3 -9.5 8.5t-5.5 11.5q-4 5 -5 10.5t-1 11.5q0 22 21 44q17 17 40 17zM358 718v-668h413v-79h-500v747h87z" />
    <glyph glyph-name="ldot" unicode="&#x140;" horiz-adv-x="1045" 
d="M676 516q59 0 59 -59q0 -29 -15.5 -44t-43.5 -15q-58 0 -58 59t58 59zM450 718h88v-747h-88v747z" />
    <glyph glyph-name="Lslash" unicode="&#x141;" horiz-adv-x="1045" 
d="M266 388v330h87v-256l103 92l54 -60l-157 -139v-305h414v-79h-501v307l-70 -62l-51 64z" />
    <glyph glyph-name="lslash" unicode="&#x142;" horiz-adv-x="562" 
d="M234 263l-130 -114l-54 69l184 161v339h89v-265l135 120l54 -69l-189 -166v-367h-89v292z" />
    <glyph glyph-name="napostrophe" unicode="&#x149;" horiz-adv-x="1045" 
d="M347 502h86v-43q14 15 34.5 25t42.5 20q21 8 43.5 12.5t48.5 4.5q43 0 80 -17q36 -19 62 -44q14 -16 24 -32.5t19 -34.5q8 -21 11.5 -40.5t3.5 -41.5v-370h-87v362q0 60 -34 97q-36 36 -90 36q-29 0 -54 -11q-32 -13 -50 -31q-26 -20 -39 -43q-15 -26 -15 -51v-359h-86
v561zM266 728q-5 -63 -9.5 -120t-8.5 -120h-66l-17 240h101z" />
    <glyph glyph-name="Eng" unicode="&#x14a;" horiz-adv-x="1045" 
d="M775 -34q0 -36 -8.5 -62t-22.5 -42.5t-32 -24.5t-38 -8h-73v78h33q20 0 33.5 10t18.5 32l-190 292q-25 34 -48.5 71t-47.5 75l-98 150v-594h-86v746h85q25 -37 49.5 -73.5t48.5 -75.5l95 -147l195 -298v594h86v-723z" />
    <glyph glyph-name="eng" unicode="&#x14b;" horiz-adv-x="1045" 
d="M654 330q0 61 -34 100q-36 33 -90 33q-33 0 -61.5 -12.5t-50.5 -36.5q-23 -24 -35 -46t-12 -39v-361h-85v561h85v-45q36 30 78 47q20 7 43 11t49 4q21 0 41.5 -4t38.5 -11q18 -9 34 -20.5t30 -23.5q14 -15 24 -32.5t19 -34.5q8 -21 11 -40.5t3 -41.5v-343q0 -22 -5 -47
q-4 -13 -8 -24t-9 -20q-6 -11 -13.5 -18.5t-17.5 -14.5q-24 -13 -48 -13h-75v78h34q24 0 41 17q13 14 13 44v333z" />
    <glyph glyph-name="OE" unicode="&#x152;" horiz-adv-x="1045" 
d="M913 675h-328q23 -24 41.5 -52t32.5 -57q27 -67 33 -148h205v-80h-205q-3 -46 -10.5 -86t-21.5 -75q-13 -37 -32.5 -68.5t-43.5 -57.5h338v-79h-524q-40 0 -74.5 8t-60.5 26q-30 15 -52.5 38t-40.5 51q-18 27 -31.5 58t-21.5 68q-9 34 -13 70t-4 72q0 34 3.5 68t12.5 70
q7 34 20.5 65t31.5 61q17 27 39.5 51t52.5 42q54 34 138 34h515v-79zM398 670q-60 0 -98 -30q-22 -15 -37.5 -33.5t-26.5 -40.5q-26 -45 -37 -98q-6 -28 -9 -54.5t-3 -50.5t2.5 -48t8.5 -50q9 -56 36 -101q23 -47 64 -76q17 -15 43 -23t57 -8q55 0 96 30q18 15 34.5 33
t29.5 41q11 22 20.5 47.5t14.5 52.5q12 52 12 102q0 21 -3 45.5t-8 52.5q-5 26 -13 51t-21 49q-24 43 -63 77q-21 16 -45.5 24t-53.5 8z" />
    <glyph glyph-name="oe" unicode="&#x153;" horiz-adv-x="1045" 
d="M361 450q-32 0 -53 -19q-12 -12 -20.5 -23.5t-15.5 -25.5q-11 -33 -16 -65q-4 -18 -5 -33t-1 -32q0 -14 1 -31t5 -32q2 -18 6 -34t10 -31q7 -15 15 -26.5t21 -20.5q9 -13 22 -17t31 -4q15 0 28 4t23 17q11 9 19.5 21.5t16.5 28.5q6 15 10 30t7 33q2 15 3.5 31.5t1.5 30.5
t-1.5 29.5t-3.5 33.5q-3 18 -7 34t-10 32q-8 14 -16.5 25.5t-19.5 23.5q-10 8 -23 14t-28 6zM777 312q-3 30 -10 56.5t-19 44.5q-28 37 -76 37q-23 0 -43 -13q-10 -6 -18.5 -13.5t-14.5 -17.5q-9 -11 -14 -21t-9 -23q-5 -13 -8 -25t-3 -25h215zM361 538q26 0 48 -7t43 -20
q18 -15 34 -33t31 -43q11 25 26.5 43t37.5 33q37 27 91 27q46 0 82.5 -20t62.5 -56q26 -39 39 -98t13 -137h-309q0 -16 1 -30t6 -29q6 -32 22 -55q6 -13 14 -23t19 -18q9 -9 21 -12.5t27 -3.5q19 0 35.5 6t28.5 22q13 12 21 31t14 42h92q-5 -17 -10.5 -34.5t-12.5 -33.5
q-9 -18 -18.5 -32.5t-19.5 -28.5q-25 -30 -54 -44q-34 -17 -74 -16q-52 0 -89 28q-42 26 -66 75q-14 -24 -30 -43t-34 -32q-21 -15 -43.5 -21.5t-48.5 -6.5t-49 6.5t-41 21.5q-18 13 -33.5 30.5t-26.5 37.5q-12 22 -21.5 45t-13.5 48q-6 24 -8 48t-2 47q0 22 2 46.5t8 50.5
q10 49 34 92q11 21 26.5 38t33.5 32q19 13 42 20t49 7z" />
    <glyph glyph-name="Tbar" unicode="&#x166;" horiz-adv-x="1045" 
d="M470 350h-241v81h241v215h-241v80h571v-80h-241v-215h241v-81h-241v-378h-89v378z" />
    <glyph glyph-name="tbar" unicode="&#x167;" horiz-adv-x="1045" 
d="M441 360v92h-52v81h52v156h87v-156h62v-81h-62v-92h165v-81h-165v-203q0 -12 3 -14q2 -8 10 -8q4 -2 8.5 -2.5t10.5 -0.5h30v-80h-63q-12 0 -22 2t-16 9q-20 8 -28 27q-6 9 -9.5 18t-4.5 21q-4 10 -5 21t-1 22v188h-153v81h153z" />
    <glyph glyph-name="caron" unicode="&#x2c7;" horiz-adv-x="545" 
d="M277 678l-227 121l49 79l177 -102l176 101l43 -68z" />
    <glyph glyph-name="uni02D0" unicode="&#x2d0;" horiz-adv-x="1045" 
d="M268 415l-105 187h205zM265 277l103 -187h-205z" />
    <glyph glyph-name="breve" unicode="&#x2d8;" horiz-adv-x="570" 
d="M127 875q13 -22 30.5 -40t41.5 -31q21 -16 43.5 -22t42.5 -6q21 0 43 6t46 22q20 13 39 30.5t35 41.5l72 -54q-45 -60 -106 -97q-62 -39 -129 -39q-65 0 -127 39q-64 35 -108 97z" />
    <glyph glyph-name="dotaccent" unicode="&#x2d9;" horiz-adv-x="1045" 
d="M513 596q-53 0 -78.5 27t-25.5 81q0 55 25.5 82t78.5 27q105 0 105 -109q0 -108 -105 -108z" />
    <glyph glyph-name="ring" unicode="&#x2da;" horiz-adv-x="1045" 
d="M514 762q-11 0 -18.5 -4t-14.5 -10q-13 -12 -13 -35q0 -26 13 -36q13 -14 33 -14q21 0 34 14q12 11 12 36q0 21 -12 35q-8 6 -16 10t-18 4zM514 846q27 0 51 -10q25 -12 43 -29q14 -19 25 -43q5 -14 7.5 -26t2.5 -25q0 -15 -2.5 -26t-7.5 -25q-11 -27 -25 -42
q-20 -22 -43 -31q-11 -5 -25 -7.5t-26 -2.5q-14 0 -26.5 2.5t-23.5 7.5q-23 9 -41 31q-10 9 -16.5 19.5t-9.5 22.5q-7 14 -9 25t-2 26q0 13 2 25t9 26q3 13 9.5 22.5t16.5 20.5q16 18 41 29q23 10 50 10z" />
    <glyph glyph-name="ogonek" unicode="&#x2db;" horiz-adv-x="1045" 
d="M496 -57q0 -18 14.5 -29t34.5 -11t34 7.5t27 18.5l20 -18q-19 -29 -50 -47.5t-68 -18.5q-42 0 -66 24t-24 56q0 25 14.5 46.5t30.5 31.5h65q-14 -12 -23 -27t-9 -33z" />
    <glyph glyph-name="hungarumlaut" unicode="&#x2dd;" horiz-adv-x="490" 
d="M224 702q-9 -14 -17.5 -26t-19.5 -24q-13 -16 -23.5 -29t-21.5 -27q-12 -12 -24.5 -25.5t-22.5 -26.5l-45 -44q3 14 6.5 27t9.5 31q4 16 8.5 33t11.5 35q4 15 9.5 33t11.5 35q6 16 11.5 31.5t11.5 29.5q0 3 2.5 6.5t5.5 9.5q0 3 2.5 7t5.5 11l11 20q2 3 4.5 6.5t4.5 6.5
q19 20 34 27q18 4 41 -8q44 -25 19 -75q-4 -9 -8 -16t-7 -15q-6 -9 -10.5 -16.5t-10.5 -16.5zM343 652q-13 -16 -24 -29t-22 -27q-12 -12 -23.5 -25.5t-24.5 -26.5l-43 -44q3 14 6.5 27t8.5 31q5 16 9.5 33t10.5 35q5 15 10.5 33t12.5 35q4 16 9.5 31.5t12.5 29.5q0 3 2 6.5
t5 9.5q2 3 3.5 7t3.5 11l12 20q3 3 5 6.5t5 6.5q17 20 35 27q15 4 39 -8q44 -24 20 -75q-8 -18 -17 -31q-5 -9 -9 -16.5t-11 -16.5z" />
    <glyph glyph-name="Alpha" unicode="&#x391;" horiz-adv-x="1045" 
d="M610 653q5 10 18 19q3 3 8.5 5.5t11.5 2.5q5 0 9 -3t10 -6q5 -10 10 -26l62 -586q0 -14 4 -14q0 -1 9 -1h24q11 0 19 -3t14 -8q3 -7 4.5 -12.5t-0.5 -14.5q-5 -19 -16 -26q-6 -6 -13.5 -7t-15.5 -1h-179q-22 0 -30 9t-8 27q0 10 3.5 16t10.5 11q7 4 14.5 6.5t16.5 2.5h28
q8 0 12 2q1 1 1 17q-3 16 -4.5 31.5t-1.5 30.5q-2 16 -3.5 30.5t-1.5 32.5h-218q-8 -12 -14 -23t-13 -21q-5 -9 -9.5 -17t-8.5 -14l-29 -44q-11 -13 -12 -18q-2 -1 -3 -2.5t-2 -3.5l-1 -1h31q12 0 20.5 -3t13.5 -8q9 -13 5 -27q-7 -20 -18 -26q-5 -6 -12.5 -7t-16.5 -1h-158
q-20 0 -27 7q-8 5 -8 27q0 7 2.5 13.5t10.5 13.5q7 5 13.5 8t16.5 3q8 0 15 0.5t13 2.5q5 1 10 2.5t11 6.5l16 17l16 25zM617 263q-3 15 -4.5 29t-2.5 29q-2 14 -2.5 27t-0.5 27q-3 13 -4.5 26t-2.5 29q-2 11 -4 25.5t-3 32.5q-18 -30 -35.5 -57.5t-33.5 -53.5l-34 -57
l-35 -57h162z" />
    <glyph glyph-name="Beta" unicode="&#x392;" horiz-adv-x="1045" 
d="M192 -29q-50 0 -39 40q6 30 45 30q47 0 59 6q1 0 8 10l1 6l2 9q16 61 31.5 122.5t32.5 124.5q6 30 14 60.5t16 61.5q6 32 14 62.5t19 62.5l3 13q1 2 1.5 3.5t0.5 3.5q-6 1 -18.5 2t-32.5 1q-21 0 -29.5 9t-8.5 27q0 17 15 27q8 3 15 5.5t16 2.5h261q18 0 38 -3.5t41 -6.5
q37 -14 67 -33q26 -24 43 -56q5 -18 5.5 -38.5t-4.5 -43.5q-17 -52 -48 -90q-36 -42 -81 -60q33 -19 61 -46q23 -30 23 -73q0 -66 -31 -111q-32 -47 -81 -76q-28 -15 -55.5 -24t-56.5 -15q-31 -8 -61 -10.5t-59 -2.5h-227zM364 61q-5 -17 -6 -20h31h22q12 0 24 1h25
q12 0 26 1q36 0 69 15q31 13 55 38q13 12 22 25.5t18 28.5q5 16 8.5 32t3.5 34q0 13 -4 23.5t-13 19.5q-11 7 -22 12t-23 9q-14 3 -27.5 5.5t-26.5 3.5h-124zM504 361q20 0 37 2q30 1 55 11h-2q20 9 44 25q10 6 18.5 13.5t18.5 17.5q7 7 13.5 16t12.5 22q5 10 7.5 21.5
t2.5 26.5q0 26 -12 43q-14 14 -38 23q-10 2 -24.5 3.5t-28.5 3.5h-92q-6 -2 -10.5 -3t-6.5 -1q-4 -3 -4 -9q0 -2 -1 -4.5t-2 -6.5q-1 -3 -2 -7.5t-2 -9.5q-5 -13 -9 -27l-9 -38q-7 -24 -14 -54t-17 -68h65z" />
    <glyph glyph-name="Gamma" unicode="&#x393;" horiz-adv-x="1045" 
d="M384 566q4 17 -4 21q-4 0 -10.5 1t-16.5 1q-18 0 -28.5 1.5t-15.5 8.5q-13 8 -7 30q7 30 44 30h458q27 0 35 -6q3 -3 3 -12t-3 -22l-4 -23q-1 -6 -2 -11t-1 -12l-11 -52l-10 -53q-2 -7 -3.5 -13t-3.5 -12l-3 -18q-3 -11 -7 -18t-11 -9q-9 -10 -24 -10q-7 0 -12 1.5
t-8 7.5q-6 2 -7.5 9t-1.5 19q0 11 0.5 21t2.5 22q0 4 0.5 8.5t0.5 9.5q0 4 1 7.5t1 7.5q0 56 -14 65q-15 11 -63 17t-130 6h-20q-6 0 -9 -1t-5 -2q-6 -4 -7 -9q-6 -7 -7 -18q-18 -61 -33.5 -119t-27.5 -119q-16 -60 -30 -119.5t-29 -118.5l-5 -19q-6 -9 -2 -13q0 -6 9 -7
q3 -2 9 -2h30q11 0 19 -3t13 -8q7 -12 6 -30q-7 -30 -45 -30h-214q-50 0 -37 43q2 15 14 21q10 7 29 7h33q10 0 20 4q4 1 11 15q1 2 2.5 5.5t3.5 7.5q2 9 8 20z" />
    <glyph glyph-name="uni0394" unicode="&#x394;" horiz-adv-x="1045" 
d="M745 63q0 -7 1 -11t2 -7v-21q0 -23 -10 -36q-14 -16 -45 -16h-412q-15 0 -25.5 1t-15.5 7q-14 6 -14 30q0 18 25 61l360 583q4 6 8 11.5t11 8.5q8 7 19 7q10 0 17.5 -10.5t10.5 -25.5zM594 488l-265 -430q-6 -8 -7 -11.5t1 -3.5q0 -1 16 -1h281q9 0 13 3q6 1 6 15z" />
    <glyph glyph-name="Epsilon" unicode="&#x395;" horiz-adv-x="1045" 
d="M677 214q4 14 13 19q3 1 7.5 3t10.5 2q7 0 13.5 -3t14.5 -7q11 -13 7 -27l-63 -205q-4 -15 -16 -19q-6 -4 -12 -5t-13 -1h-469q-50 0 -39 43q3 15 18 21q12 7 38 7h21q9 0 17 3q7 1 11.5 8t9.5 20l-1 -1q8 30 15.5 61t15.5 62l33 125q6 30 14 60.5t15 61.5l32 124
q3 10 1 14.5t-5 6.5q-6 0 -15.5 1t-23.5 1q-21 0 -29.5 8.5t-8.5 26.5t15 28q7 3 14 5t16 2h458q27 0 36 -6q3 -3 3 -12t-3 -22q-6 -25 -10.5 -49t-7.5 -47l-11 -50l-9 -44q-3 -16 -8.5 -24.5t-12.5 -15.5q-15 -11 -24 -11q-14 0 -18 6q-7 7 -7 17q-2 5 -2 10t1 12
q0 6 0.5 9.5t2.5 8.5v12q0 7 3 17v18q0 4 0.5 8.5t0.5 11.5q0 10 -1.5 18.5t-2.5 17.5q-4 18 -11 24q-15 11 -63 16t-131 5h-21q-4 0 -7 -1.5t-6 -2.5t-5.5 -3t-3.5 -6q-4 -5 -6 -17l-32 -128q-4 -12 -6 -21t-3 -16q-3 -9 -5 -18t-4 -17q18 0 34.5 1t28.5 2q22 0 35 7
q5 2 12 10t13 20q7 12 12.5 26t12.5 33q3 10 9 19t12 16q9 11 21 11q7 0 11.5 -3.5t10.5 -10.5q2 -8 3.5 -19t-2.5 -26l-63 -246q-7 -26 -18 -33q-9 -7 -14.5 -9t-9.5 -2q-20 0 -23 17q-2 6 -2.5 13.5t-0.5 15.5v5q0 4 2 11q0 9 3 23v21l-7 11q-8 7 -33.5 10t-64.5 4
l-15 -56l-14 -52q-15 -54 -28 -108q-6 -18 0 -23t24 -5q45 0 81.5 1t63.5 5q28 2 45.5 6.5t29.5 9.5q9 6 20 18t24 32q12 19 22 43.5t24 56.5z" />
    <glyph glyph-name="Zeta" unicode="&#x396;" horiz-adv-x="1045" 
d="M645 589q-70 0 -109 -4q-21 -2 -36 -7t-24 -10q-15 -10 -35 -48q-12 -23 -23.5 -49.5t-22.5 -56.5q-7 -15 -19 -16q-12 -7 -23 -1q-14 2 -19 11q-11 8 -4 23q5 15 9.5 32.5t11.5 34.5q6 17 10.5 33.5t9.5 34.5l10 32q1 7 3 14l6 17q4 17 16 24q4 3 11 5t15 2h394
q33 0 33 -24q0 -18 -18 -38l-504 -556h97q34 0 62.5 1.5t49.5 4.5q19 2 33.5 5t24.5 10q10 6 36 50q11 21 22.5 46t23.5 58q2 8 16 13h10q6 0 11 -1l21 -11q6 -11 4 -18l-62 -204q-6 -15 -15 -19q-7 -4 -12.5 -4.5t-11.5 -0.5h-426q-34 0 -34 23q0 18 20 38l499 556h-61z
" />
    <glyph glyph-name="Eta" unicode="&#x397;" horiz-adv-x="1045" 
d="M663 363l14 45q2 13 5 24t7 23l11 45l12 45q0 3 0.5 5t1.5 5l3 9v15l-9 7q-5 1 -11 2t-13 1h-13q-12 0 -18.5 1.5t-12.5 8.5q-14 8 -8 28q4 15 14.5 24t32.5 9h213q20 0 35 -11q7 -15 1 -33q-3 -8 -7 -13t-9 -9q-11 -5 -28 -5h-31q-11 0 -21 -5t-15 -18q-7 -12 -8 -31
l-116 -452q-1 -3 -2 -6.5t-1 -5.5q-2 -7 -2 -9q-2 -6 -2 -9v-4q0 -7 11 -7h36q13 0 20 -3t14 -8q7 -13 6 -30q-5 -17 -15 -22q-7 -6 -14.5 -7t-17.5 -1h-212q-50 0 -38 41v-1q4 15 18 24q9 7 28 7h16q8 0 15 1q6 0 10.5 2t9.5 5q7 3 14 16l3 12q2 8 7 16l11 49l13 49
q6 21 12 45.5t15 51.5h-281l-26 -102l-26 -103q-1 -2 -2 -5t-1 -7q-1 -6 -1 -9q-2 -7 -2 -10v-4q0 -7 10 -7h39q9 0 17 -3t15 -8q8 -12 7 -30q-9 -30 -47 -30h-213q-51 0 -38 41q6 30 46 30h30q12 0 22 5q2 2 6 5.5t7 10.5q0 2 1 5t3 8q2 8 5 18l117 451v6q0 3 1 6l3 9
q0 3 0.5 5t0.5 3q0 2 0.5 4t0.5 4q0 3 -9 7h-38q-46 0 -39 38q3 15 13.5 24t32.5 9h212q12 0 20.5 -3.5t15.5 -7.5q4 -7 5 -14.5t-3 -17.5q-7 -16 -18.5 -22t-26.5 -6h-33l-18 -6q-10 -5 -13 -17q-4 -5 -6 -14l-6 -17q-6 -24 -12 -45.5t-10 -39.5q-6 -20 -11 -42.5
t-11 -44.5h276z" />
    <glyph glyph-name="Theta" unicode="&#x398;" horiz-adv-x="1045" 
d="M597 681q30 0 56.5 -7t50.5 -17q20 -12 39 -27t35 -34q14 -17 24 -39t18 -45q7 -24 11 -49.5t4 -50.5q0 -26 -3 -51t-10 -47q-9 -33 -22 -64.5t-32 -62.5q-20 -33 -42.5 -61t-47.5 -52q-26 -27 -56 -46.5t-61 -34.5q-33 -16 -66.5 -24t-68.5 -8q-29 0 -56.5 5.5
t-49.5 17.5q-23 10 -40.5 25t-34.5 34q-15 18 -26 40t-19 46q-8 23 -11.5 47.5t-3.5 51.5q0 13 0.5 25.5t3.5 24.5q0 12 4 23q2 6 3.5 12t2.5 12q10 34 23 66t34 63q34 60 90 114q24 23 53.5 44.5t62.5 37.5q61 31 135 31zM590 602q-30 0 -55.5 -6.5t-47.5 -19.5
q-25 -15 -44.5 -31t-37.5 -36q-37 -41 -60 -94q-12 -27 -23 -52t-18 -49q-9 -24 -12 -48.5t-3 -49.5q0 -18 1.5 -34.5t7.5 -32.5q3 -16 8.5 -29.5t14.5 -26.5q9 -12 20 -22.5t26 -18.5q13 -7 29 -10t36 -3q29 0 55 5t50 20q22 13 43 29.5t40 37.5q35 41 61 92q25 50 38 102
q3 13 5 24.5t5 25.5q1 13 2.5 25t1.5 28q0 14 -2 30.5t-5 33.5q-11 32 -24 56q-9 12 -20 21.5t-25 17.5q-14 6 -31.5 10.5t-35.5 4.5zM431 283q-12 0 -12 -7q-1 -4 -2 -5t-2 -3q-1 -4 -2 -6t-1 -4q-5 -9 -6 -11t-2.5 -4t-2.5 -2q-2 -6 -7 -9l-7 -5q-10 -6 -20 -6
q-28 0 -29 18q-2 6 -1.5 16.5t4.5 24.5l28 98q2 9 6 17.5t10 17.5q4 8 11 12.5t16 4.5q8 0 13.5 -4t11.5 -11q8 -17 8 -27q0 -3 -1 -4t-1 -2t-0.5 -2.5t-0.5 -2.5q-5 -10 5 -10h152q9 0 13 8q3 4 5 8t4 9q2 7 6 13.5t9 13.5q6 12 26 12q30 0 30 -32q0 -14 -5 -35
q-4 -12 -7 -23.5t-7 -25.5q-4 -13 -8.5 -25t-7.5 -22q-3 -13 -6 -20t-7 -14q-5 -9 -11.5 -11.5t-15.5 -2.5q-12 0 -18 6q-5 3 -7 6.5t-3 8.5q-2 4 -2.5 8.5t-0.5 11.5q-1 6 -1 10v12h-154z" />
    <glyph glyph-name="Iota" unicode="&#x399;" horiz-adv-x="1045" 
d="M632 559q-21 -79 -37 -142.5t-29 -112.5q-13 -52 -22.5 -90.5t-16.5 -66.5q-8 -29 -12.5 -47t-4.5 -26q-5 -15 -3 -12q-1 -3 -1 -6v-6q0 -6 4 -7q0 -1 13 -1h29q47 0 38 -36q-15 -35 -46 -35h-213q-52 0 -40 41q8 30 47 30h38q13 0 20 5q4 3 10 16q0 2 1 5.5t2 7.5l2 8
q1 4 3 10q16 55 29.5 112t27.5 114t28 112.5t29 112.5q0 3 0.5 5.5t1.5 5.5l3 10q0 3 0.5 5t0.5 3q0 2 1 4t1 4t-3.5 3.5t-6.5 3.5h-37q-52 0 -40 41q9 29 46 29h214q13 0 21 -3t14 -7q8 -15 3 -32q-6 -16 -18.5 -22t-27.5 -6h-33q-8 0 -11.5 -1.5t-6.5 -2.5q-10 -4 -11 -9
q-5 -7 -7 -17zM508 64l-1 -2z" />
    <glyph glyph-name="Kappa" unicode="&#x39a;" horiz-adv-x="1045" 
d="M351 185l-4 -12l-5 -17l-10 -38q-3 -11 -6 -20t-4 -17q-3 -11 -3.5 -18.5t-0.5 -12.5q0 -7 12 -7q5 -1 14 -1h23q10 0 18 -2.5t15 -7.5q6 -13 5 -30q-5 -30 -45 -30h-213q-52 0 -39 43q1 6 5.5 12t10.5 10q9 5 29 5h17q7 0 15 1q6 0 11 2t11 5q3 1 6.5 5.5t6.5 10.5l4 12
q2 8 6 17l115 451q0 12 4 23q0 2 0.5 4t0.5 3q0 3 0.5 4t0.5 2q0 6 -11 7h-36q-38 0 -38 36q0 17 15 27q7 3 14.5 5.5t15.5 2.5h212q51 0 38 -43q-2 -8 -6 -13t-9 -9q-13 -6 -29 -6h-32q-14 0 -23 -5q-7 -4 -12 -16q-6 -13 -10 -32q-6 -15 -9 -29.5t-5 -27.5q-6 -15 -8 -27
q-2 -8 -4 -14.5t-2 -11.5l-12 -54q-4 -14 -8.5 -28t-7.5 -30q40 34 77.5 68t77.5 68q37 33 75.5 66.5t77.5 68.5q3 3 -1 4h-29q-17 0 -29 2t-17 9q-10 7 -6 31q9 29 44 29h226q13 0 20.5 -2.5t13.5 -5.5q9 -14 5 -28q-7 -21 -17 -28q-6 -4 -13.5 -5.5t-14.5 -1.5
q-31 0 -51 -4q-11 -2 -21.5 -9.5t-21.5 -16.5q-31 -27 -60.5 -52.5t-57.5 -49.5q-29 -26 -57.5 -51t-58.5 -52l72 -143q17 -36 34.5 -72t38.5 -70q9 -18 25 -21q13 -6 39 -6q12 0 19 -2.5t13 -7.5q5 -12 4 -30q-5 -17 -14 -22q-7 -6 -14.5 -7t-14.5 -1h-235q-38 0 -38 37
q0 20 16 28q13 5 30 5q18 0 29.5 0.5t18.5 3.5q14 2 2 26q-17 31 -30 61q-7 12 -13 24l-11 25q-7 13 -13.5 25t-11.5 25l-14 26q-8 12 -14 30z" />
    <glyph glyph-name="Lambda" unicode="&#x39b;" horiz-adv-x="1045" 
d="M592 488q-17 -27 -33.5 -54.5t-32.5 -53.5q-17 -27 -33.5 -53.5t-31.5 -53.5q-35 -53 -65 -106q-16 -27 -33.5 -54t-32.5 -54q-4 -7 -6 -9.5t1 -4.5q0 -2 22 -2q12 0 20.5 -3t13.5 -8q9 -13 5 -28q-7 -20 -18 -25q-5 -6 -12.5 -7t-16.5 -1h-158q-20 0 -30 11q-12 9 -5 30
q0 6 3 10t10 11q14 10 30 10q9 0 15.5 0.5t12.5 1.5q5 2 10 3.5t11 5.5l16 18q3 5 7 11t8 14l341 555q5 10 18 19q8 7 20 7q5 0 9 -2.5t10 -5.5q5 -10 10 -26l62 -586q0 -13 8 -13q3 -2 29 -2q11 0 19 -3t14 -8q3 -7 4.5 -12.5t-0.5 -15.5q-5 -18 -16 -25q-6 -6 -13.5 -7
t-15.5 -1h-179q-12 0 -20 1.5t-11 8.5q-14 8 -7 28q4 14 17 25q7 4 12.5 6.5t13.5 2.5q26 0 35 5q8 2 8 15z" />
    <glyph glyph-name="Mu" unicode="&#x39c;" horiz-adv-x="1045" 
d="M350 473q-15 -52 -26.5 -100t-22.5 -96l-26 -98l-25 -97q-1 -2 -1.5 -4t-0.5 -6l-4 -11q0 -3 -1 -7t-2 -9q0 -2 8 -2q5 -1 12 -1h20q44 0 38 -43q-5 -15 -13 -21q-6 -5 -14 -6.5t-18 -1.5h-176q-53 0 -39 41q8 31 47 31h15q6 0 12 1q4 0 8.5 1t8.5 3q4 1 10 14q0 2 1 5
l2 6q2 5 3 9t3 9l60 229q13 58 27.5 115t30.5 115q0 2 2 9l2 10q0 1 0.5 3t0.5 3q0 2 0.5 4t0.5 4q0 3 -7 5h-30q-18 0 -31 10q-12 11 -9 28q1 15 18 26q6 2 12.5 4.5t16.5 2.5h143q10 0 17 -2.5t9 -4.5l7 -30l41 -459q33 59 67.5 117.5t69.5 117.5q34 57 66.5 115t64.5 119
q5 8 16 20q4 2 10 4.5t13 2.5h143q18 0 31 -10q9 -14 8 -30q-5 -16 -15 -24q-9 -7 -30 -7h-29q-6 -1 -11.5 -2t-8.5 -1q-12 -4 -13 -9q-5 -6 -8 -18l-120 -474l-3 -9q0 -2 -0.5 -3.5t-0.5 -2.5q-2 -5 -1.5 -8t2.5 -7q0 -6 13 -8q4 -2 11 -2.5t19 -0.5q44 0 38 -43
q-4 -16 -13 -21q-7 -5 -14.5 -6.5t-16.5 -1.5h-211q-52 0 -40 43q6 29 43 29h19q9 0 15 1q7 0 11 1t9 4q7 4 14 16q0 5 3 13q2 9 7 17l13 51q2 12 5 22.5t6 23.5l10 40q5 20 11 41q4 20 10 41t11 42q4 21 10 45t14 51q-33 -61 -66 -117.5t-66 -112.5q-18 -29 -35 -58
t-33 -58l-66 -115q-9 -16 -19 -24q-6 -6 -11 -8t-9 -2q-6 0 -11.5 2t-8.5 8q-11 7 -11 23z" />
    <glyph glyph-name="Nu" unicode="&#x39d;" horiz-adv-x="1045" 
d="M640 175q7 23 11 44.5t10 41.5q6 21 10.5 38t9.5 36q7 32 14 59t13 48l4 20q2 10 4 18t4 15t3 14q4 12 6 20t4 14q0 7 3 9q0 3 2 6v1q1 1 1 2v3l2 5q0 2 0.5 3.5t1.5 3.5q0 3 -1 5t-2 3q-2 0 -5.5 1t-6.5 2h-22q-42 0 -42 36q0 17 16 28q7 2 15 4.5t17 2.5h177
q12 0 19 -3t14 -7q9 -14 3 -33q-12 -28 -43 -28h-29q-5 -1 -9 -2t-7 -2q-8 -6 -10 -15q-4 -6 -6 -13t-4 -16q-17 -69 -34.5 -139t-34.5 -141l-37 -141l-34 -135q-5 -11 -15 -19q-6 -5 -10.5 -6.5t-11.5 -1.5q-12 0 -19 7q-11 7 -13 18l-209 522l-29 -105l-25 -106
q-8 -25 -14.5 -52.5t-13.5 -53.5q-6 -27 -13 -52.5t-14 -51.5q-1 -3 -1.5 -6t-0.5 -5q-1 -2 -1 -5v-2q-2 -12 1 -13q0 -6 10 -6q3 -2 8.5 -2.5t13.5 -0.5q46 0 40 -43q-4 -15 -14 -21q-7 -5 -15 -6.5t-18 -1.5h-176q-26 0 -32 11q-12 7 -6 30q8 31 46 31h15q7 0 13 1
q4 0 8.5 1t8.5 4q4 2 6 5t4 10l9 27l117 459q1 9 6 22q0 2 0.5 4t0.5 4t0.5 3t0.5 2t-8 3h-31q-22 0 -30 10q-13 10 -8 28q1 15 15 26q7 2 14 4.5t16 2.5h118q6 0 11 -2t11 -4q5 -6 8.5 -10.5t7.5 -9.5z" />
    <glyph glyph-name="Xi" unicode="&#x39e;" horiz-adv-x="1045" 
d="M202 -28q-24 0 -27 11q-11 11 -7 29q4 22 9 46t12 49l21 94q0 11 10 23q6 7 21 14q19 1 29 -12l5 -17q3 -7 3 -14q0 -11 -1 -20t-2 -19q-3 -10 -3 -17v-14q0 -22 6 -37q5 -14 17 -20q10 -8 28 -8q11 -2 21 -2h190q22 0 38.5 2t31.5 7q12 3 24 10t23 16q16 17 30 46
q6 12 12.5 29t14.5 37q6 21 18 33q4 3 10 4.5t12 1.5q9 0 23 -13q9 -17 2 -39l-60 -190q-3 -8 -7 -14t-7 -9q-12 -7 -28 -7h-469zM810 660q10 0 18.5 -2.5t13.5 -5.5q7 -13 2 -32q-5 -26 -10.5 -49.5t-10.5 -44.5l-11 -48l-8 -47q-7 -19 -13 -25q-14 -11 -21 -11
q-15 -4 -25 8q-6 5 -9.5 13t-1.5 18q0 3 1 7t1 9l3 18v15q0 4 0.5 8t0.5 9q0 25 -6 41q-6 12 -16 22q-11 4 -29 9q-9 0 -20.5 1t-23.5 1h-115q-20 0 -38 -2.5t-30 -5.5q-28 -9 -43 -25q-9 -9 -16.5 -21.5t-14.5 -25.5q-8 -15 -15 -32t-14 -37q-5 -13 -16 -18q-9 -6 -22 -6
q-16 0 -25 9q-12 7 -7 25l64 195q8 30 42 30h415zM418 272q-3 0 -5.5 -1t-3.5 -1q-3 -4 -5 -6.5t-2 -4.5q-2 -9 -7 -16t-10 -15q-12 -18 -31 -18q-10 0 -16 1.5t-9 7.5q-8 5 -8 21v5q0 5 2 11q0 1 1 3.5t2 4.5q0 3 1 5.5t2 4.5q2 9 4 16t3 14q2 7 4 13t5 12q2 9 4 15t4 11
q1 5 2.5 7t2.5 4v2q5 20 16 36q7 16 25 16q13 0 24 -13q7 -14 7 -26q0 -2 -0.5 -3.5t-0.5 -4.5v-7q-3 -8 5 -8h184q7 0 12 7q0 1 0.5 3t1.5 4l5 9q7 15 17 27q7 13 28 13q29 0 29 -33q0 -7 -2 -15l-3 -17l-27 -91q-4 -13 -8 -22.5t-8 -16.5q-5 -10 -11.5 -13.5t-17.5 -3.5
q-12 0 -16 5q-9 3 -10 13q-4 5 -4 15q-2 4 -2.5 7.5t-0.5 9.5q-3 3 -3 10q-7 3 -17 3h-163z" />
    <glyph glyph-name="Omicron" unicode="&#x39f;" horiz-adv-x="1045" 
d="M597 681q30 0 56 -7t50 -17q45 -24 75 -61q14 -17 24 -39t18 -45q7 -25 11 -50.5t4 -50.5q0 -26 -3 -50.5t-10 -46.5q-9 -33 -22 -64.5t-32 -62.5q-20 -33 -42.5 -61t-47.5 -52q-26 -27 -56 -46.5t-61 -34.5q-33 -16 -66.5 -24t-68.5 -8q-32 0 -59.5 5.5t-48.5 17.5
q-46 20 -73 58q-30 39 -41 87q-9 23 -12 48t-3 53q0 12 0.5 24t2.5 24q0 12 2.5 23.5t4.5 23.5q13 64 53 130q18 32 41 60t50 54q26 23 56 44t63 37q61 31 135 31zM590 602q-30 0 -55.5 -6.5t-47.5 -19.5q-25 -15 -44.5 -31t-37.5 -36q-37 -41 -60 -94q-12 -27 -23 -52
t-18 -49q-4 -12 -7.5 -24t-4.5 -23q-3 -16 -3 -28v-25q0 -18 1 -33.5t7 -31.5q3 -16 9 -29.5t15 -26.5q9 -12 20 -22.5t26 -18.5q13 -7 29 -10t36 -3q29 0 55 5t50 20q22 13 43 29.5t40 37.5q35 41 61 92q25 50 38 102q3 12 5 23.5t5 25.5q1 13 2 25t1 27t-2 31.5t-5 33.5
q-5 15 -11 29.5t-13 27.5q-9 12 -20 21.5t-24 17.5q-14 6 -31.5 10.5t-35.5 4.5z" />
    <glyph glyph-name="Pi" unicode="&#x3a0;" horiz-adv-x="1045" 
d="M629 589h-110q-8 0 -14.5 -2t-11.5 -3q-6 -2 -12 -6.5t-10 -9.5q-10 -12 -13 -33q-15 -54 -28 -106.5t-25 -106.5q-14 -54 -27.5 -108t-27.5 -105q-3 -13 -6 -21t-4 -15q-3 -9 -3.5 -13t-0.5 -8q0 -9 6 -9q4 -1 12 -1h23q25 0 35 -12q7 -13 2 -31q-6 -15 -15 -20
q-7 -6 -14.5 -7t-16.5 -1h-205q-48 0 -38 43q4 15 16 21q5 4 12 5.5t17 1.5h18q10 0 18 1q6 0 10 2.5t10 6.5q3 4 7.5 9t7.5 16q0 3 1 7.5t3 9.5q1 5 3 11.5t4 13.5l109 426q0 4 0.5 6.5t1.5 5.5l3 9q0 5 -2 15q-3 2 -6 3t-8 3q-7 0 -14 1t-17 1q-12 0 -20.5 1.5t-11.5 8.5
q-12 7 -6 31q8 29 47 29h531q14 0 22 -2.5t14 -5.5q8 -14 5 -28q-7 -21 -18 -28q-12 -6 -29 -6h-34q-7 -3 -12 -4t-8 -3q-11 -7 -12 -17q-4 -7 -6 -14.5t-4 -15.5l-29 -105q-5 -28 -12.5 -54.5t-14.5 -53.5q-8 -29 -14.5 -55t-14.5 -54q-7 -26 -14 -52.5t-14 -50.5
q-2 -7 -3 -11.5t-2 -8.5q-1 -5 -1.5 -8t-0.5 -6q-3 -10 -3.5 -14.5t-0.5 -8.5q0 -10 10 -10q5 -1 14 -1h26q13 0 20.5 -3t14.5 -9q8 -12 2 -32q-13 -27 -44 -27h-205q-53 0 -41 41q8 30 47 30q13 0 22 0.5t15 3.5q13 2 19 13q4 4 5 10t4 14q0 7 3 16t6 20q15 53 28 105.5
t28 108.5q12 51 24.5 103.5t27.5 106.5q1 18 0 28q-3 4 -6.5 7.5t-10.5 5.5q-7 1 -15 3t-18 2z" />
    <glyph glyph-name="Rho" unicode="&#x3a1;" horiz-adv-x="1045" 
d="M612 659q19 0 37.5 -2.5t36.5 -4.5q19 -6 34 -12t30 -15q13 -9 24.5 -21.5t21.5 -23.5q16 -31 16 -70q0 -26 -5.5 -50t-16.5 -46q-13 -24 -28.5 -44t-34.5 -34q-42 -38 -89 -55q-27 -11 -52.5 -15.5t-49.5 -4.5h-136l-13 -45l-10 -43l-12 -45q-6 -23 -11 -45
q-6 -14 -6 -21q-5 -12 1 -13q1 -6 14 -6q4 -1 11 -1h21q10 0 18 -3t14 -8q8 -13 5 -30q-5 -30 -44 -30h-213q-51 0 -39 40q4 16 17 24q10 7 28 7h35q9 0 20 6q6 4 11 16q0 5 4 13l7 17q7 29 14.5 58t15.5 58q8 31 15.5 60t14.5 59q8 27 14.5 56t15.5 58q8 30 14.5 59.5
t15.5 59.5q2 9 2 17l-8 7q-3 0 -6.5 1.5t-6.5 1.5h-18q-58 0 -46 41q4 15 15 22t29 7h273zM516 589q-10 0 -15.5 -1.5t-8.5 -2.5q-11 -6 -17 -27q-4 -15 -8 -29t-6 -30l-13 -52l-17 -56q-3 -15 -6.5 -29t-6.5 -28h80q19 0 39.5 1.5t40.5 6.5q18 5 35.5 13t33.5 20
q29 20 47 55q18 30 18 79q0 34 -25 59q-14 11 -33 16t-43 5h-95z" />
    <glyph glyph-name="Sigma" unicode="&#x3a3;" horiz-adv-x="1045" 
d="M227 -29q-12 0 -21.5 1t-16.5 7q-13 6 -13 20q0 3 1.5 9t7.5 12q4 7 9.5 14t12.5 14l248 270q-16 34 -29.5 68.5t-25.5 68.5q-17 34 -30.5 68t-27.5 69q-4 4 -4 11q-1 2 -1.5 5t-0.5 5q-2 3 -2.5 7t-0.5 7q0 19 13 26q13 6 35 6h428q28 0 34 -6q4 -3 4 -12t-4 -22
l-10 -48q-4 -22 -9 -45q-6 -25 -10 -48t-8 -47q-3 -10 -6.5 -17.5t-9.5 -11.5q-7 -6 -13.5 -8t-12.5 -2t-11 2t-9 7q-12 5 -10 28l3 56q0 43 -10 67q-12 20 -37 32q-13 2 -29 4t-35 2q-20 -1 -44 -1h-125q-6 -5 1 -16q8 -30 20 -56.5t23 -54.5l23 -55l25 -54q4 -15 4 -28
q-2 -9 -7 -17t-13 -17l-235 -249q58 0 104.5 1t83.5 5q72 5 101 16q24 9 54 49q13 19 26 43.5t25 54.5q1 6 5.5 9.5t10.5 5.5q12 1 24 0q6 -2 10 -5t9 -7q7 -10 5 -17l-58 -197q-8 -16 -19 -21q-7 -6 -13.5 -7t-11.5 -1h-427z" />
    <glyph glyph-name="Tau" unicode="&#x3a4;" horiz-adv-x="1045" 
d="M791 660q29 0 36 -6q3 -3 3 -12t-3 -22q-4 -10 -6 -21t-4 -24q-4 -12 -6 -27q-1 -7 -2 -13.5t-2 -12.5q-5 -16 -6 -28q-2 -8 -3 -13.5t-2 -11.5q-4 -15 -6 -25t-3 -19q-7 -23 -19 -35q-15 -11 -25 -11q-12 0 -16 5q-4 4 -6 7t-2 8q-2 4 -2.5 8.5t-0.5 11.5v8q0 4 2 8
q0 4 1 9t2 9l4 25q1 12 2 23.5t1 23.5q0 6 -1 12.5t-1 14.5q-3 6 -4.5 10t-4.5 9q-18 20 -88 20q-10 0 -16.5 -1t-10.5 -1q-10 -3 -13 -18q-18 -60 -32.5 -120t-29.5 -117q-8 -31 -15 -62t-16 -62q-16 -63 -30 -126q-1 -3 -2.5 -7t-1.5 -6q-1 -7 -1 -9q-3 -12 0 -12
q1 -6 13 -6q4 -2 12 -2h22q10 0 18 -2.5t14 -7.5q7 -13 4 -30q-4 -15 -15.5 -22.5t-29.5 -7.5h-213q-48 0 -38 43q2 13 17 22q7 5 27 5h18q8 0 15 1q11 0 20 5q6 4 13 16q2 4 5 12t5 19q16 60 31.5 120.5t31.5 123.5q14 60 30 121q7 30 15 60.5t17 62.5q0 1 -1 3t-2 3
q-3 0 -7.5 1t-11.5 1q-37 0 -62 -4q-15 -3 -25.5 -7.5t-17.5 -10.5q-9 -6 -18.5 -20t-17.5 -31q-12 -22 -22.5 -48t-22.5 -56q-8 -12 -14 -15q-5 -4 -9 -5t-10 -1q-9 0 -14 2t-12 8q-12 8 -7 27l59 199q6 18 19 25q9 6 28 6h466z" />
    <glyph glyph-name="Upsilon" unicode="&#x3a5;" horiz-adv-x="1045" 
d="M518 335q-5 -19 -8 -32.5t-7 -26.5q-4 -12 -6 -23.5t-4 -21.5l-11 -37q-2 -7 -3.5 -13.5t-2.5 -11.5q-4 -14 -6 -21.5t-3 -13.5q-1 -2 -2 -5t-1 -6q-2 -5 -2 -9q-4 -10 -4 -17l-5 -12q0 -3 -1 -7.5t-2 -8.5q-5 -19 0 -22q1 -5 31 -5q11 0 19.5 -2.5t13.5 -7.5
q8 -13 7 -30q-3 -15 -14.5 -22.5t-31.5 -7.5h-183q-51 0 -40 41q8 29 47 29h15q6 0 13 1q8 0 13 6q3 2 10 15q0 3 1 6t2 8q2 7 5 17q3 15 6.5 30.5t7.5 29.5l17 62q3 16 7 30.5t8 29.5q3 15 6.5 30.5t9.5 30.5q1 7 3.5 16t4.5 18q2 10 3.5 20t5.5 21q4 21 6 41.5t0 40.5
q-2 19 -8.5 35t-16.5 31q-13 12 -31.5 19t-45.5 7q-35 0 -35 28q0 13 11 24q15 12 32 13q77 0 122 -29q44 -34 61 -104q9 12 19.5 25t26.5 27q12 13 26 24t29 22q16 10 30 18t33 15q15 5 30.5 8t29.5 3q19 0 34 -7.5t26 -20.5q18 -28 12 -68q-3 -8 -6 -14.5t-6 -11.5
q-5 -7 -9.5 -12.5t-9.5 -8.5q-11 -11 -26 -16q-8 -3 -14.5 -4t-11.5 -1q-6 0 -12 1t-11 4q-12 5 -18 16q-10 7 -12 21q-6 10 -1 30q-15 -10 -28 -20.5t-27 -22.5q-15 -16 -27.5 -30.5t-23.5 -30.5q-13 -17 -23 -34t-19 -32q-9 -18 -15.5 -34t-9.5 -30z" />
    <glyph glyph-name="Phi" unicode="&#x3a6;" horiz-adv-x="1045" 
d="M327 37q9 0 17 -0.5t15 2.5q14 0 20 8q-21 3 -40.5 9t-36.5 17q-36 17 -61 48q-15 13 -24 29.5t-16 34.5q-8 18 -11 37t-3 40q0 61 29 113q28 55 76 98q47 43 109 72q30 15 60.5 24.5t61.5 15.5q-4 5 -13 6h-33q-40 0 -40 34q0 20 15 27q8 3 14.5 5t16.5 2h215
q11 0 18.5 -3t14.5 -7q10 -15 3 -32q-6 -17 -16 -18q-6 -4 -12.5 -5t-15.5 -1h-17q-3 -1 -5.5 -1.5t-5.5 -0.5h-8q-4 -1 -8 -1.5t-7 -0.5q-8 -4 -8 -6q42 -6 79 -26q18 -12 32.5 -23.5t29.5 -25.5q24 -29 40 -66q6 -17 10.5 -37.5t4.5 -39.5q0 -15 -3 -28t-6 -28
q-7 -26 -18 -49.5t-27 -46.5q-18 -23 -37 -42.5t-39 -37.5q-24 -19 -48.5 -33t-48.5 -26q-28 -12 -54 -19t-51 -10q2 -7 15 -7q6 -1 13 -1h17q19 0 31 -13q8 -9 8 -23q-7 -30 -46 -30h-214q-51 0 -39 40q4 15 17 21q5 1 12 3t18 2zM300 308q-6 -18 -8 -31.5t-2 -27.5
q0 -25 7.5 -46.5t22.5 -39.5t36.5 -31t50.5 -19l24 101l27 99l23 96l28 104q-82 -18 -134 -73q-27 -29 -46 -62t-29 -70zM508 116q18 3 36 10t36 17q15 10 30 21t30 25q13 12 24.5 27.5t20.5 31.5q10 17 17 34t14 38q3 16 5 30t2 30q0 23 -7 44t-19 39q-16 19 -38 30.5
t-51 21.5z" />
    <glyph glyph-name="Chi" unicode="&#x3a7;" horiz-adv-x="1045" 
d="M462 326q-4 12 -9 26.5t-11 31.5q-5 14 -10 29.5t-10 29.5q-12 31 -23 59.5t-22 55.5q-2 3 -4 5.5t-3 5.5l-3 10q-4 3 -6.5 4.5t-4.5 3.5q-5 0 -10 1t-9 1h-25q-11 0 -19 1.5t-13 8.5q-12 7 -5 31q4 15 16 22t29 7h219q12 0 20 -2.5t14 -5.5q9 -14 5 -28q-7 -21 -18 -28
q-11 -6 -29 -6h-43q-13 -5 -7 -17l59 -160l37 45q9 11 18.5 21t17.5 21l37 43l37 47h-33q-36 0 -36 36q0 20 14 27q8 3 15 5t15 2h191q12 0 20 -2.5t14 -5.5q4 -7 5.5 -13t-0.5 -15q-3 -11 -7.5 -17.5t-9.5 -10.5q-11 -6 -26 -6h-30q-6 0 -11 -1.5t-9 -2.5q-6 -2 -10 -5.5
t-8 -6.5l-11 -10l-11 -12q-52 -55 -96 -110q-23 -28 -46.5 -56t-47.5 -54q6 -16 11 -30.5t10 -30.5q6 -16 11.5 -30t10.5 -30l21 -61l12 -28q6 -14 11 -29q2 -9 6 -16.5t10 -11.5q6 -12 18 -15q10 -7 19 -7h20q11 0 18 -3t13 -8q8 -12 7 -30q-7 -30 -45 -30h-227
q-22 0 -30 9t-8 28q0 8 2.5 13.5t11.5 9.5q7 3 14.5 5t14.5 2q4 0 7.5 -0.5t6.5 -0.5h15q11 -3 21 2q8 2 8 11q0 3 -0.5 10t-4.5 20q-9 21 -16 42t-14 39q-4 10 -8 19t-7 19q-5 10 -9 20.5t-6 21.5l-36 -42q-9 -12 -18.5 -22t-18.5 -21q-20 -21 -38 -42.5t-36 -42.5
q-6 -6 -8.5 -9t-4.5 -6q-7 -7 -5 -9q0 -4 8 -4q3 -1 10 -1h19q20 0 34 -12q3 -7 4 -14t-2 -17q-9 -28 -43 -28h-203q-24 0 -29 12q-6 5 -7 10.5t-1 13.5q0 20 15 27q10 6 28 8h18q9 0 17 2q6 0 11.5 2.5t11.5 5.5q4 4 9.5 8t12.5 11q3 6 10.5 13t15.5 17z" />
    <glyph glyph-name="Psi" unicode="&#x3a8;" horiz-adv-x="1045" 
d="M507 239q21 2 38.5 10t33.5 19q11 8 21.5 18t19.5 25q6 13 11 27.5t11 32.5q4 16 8 34.5t9 38.5q4 18 10 36t12 41q11 35 30 68q9 15 21.5 26.5t26.5 22.5q15 10 32.5 14.5t41.5 4.5q56 0 68 -38q1 -10 1.5 -18.5t0.5 -14.5q-1 -18 -6 -28q-9 -12 -22 -18q-9 -4 -17.5 -5
t-18.5 0q-11 0 -17 6q-8 1 -13 11q-8 6 -8 17q-5 8 1 20q-16 -5 -25 -34q-7 -18 -10.5 -38.5t-4.5 -44.5q-9 -136 -78 -218q-71 -80 -196 -86l-12 -44q-4 -11 -5.5 -20.5t-3.5 -19.5q-1 -3 -2 -7t-1 -7q-2 -6 -2 -10q-1 -7 -1.5 -10t-0.5 -4q0 -4 9 -4h39q50 0 39 -36
q-8 -21 -19 -27q-6 -6 -13 -7t-16 -1h-212q-51 0 -40 40q4 16 18 24q9 7 30 7h33q10 0 20 5q8 5 12 16q0 7 4 13q2 8 5 18q1 5 3 10.5t3 8.5q1 9 5 19q0 3 0.5 7t1.5 8q2 5 3 10t3 12q-31 1 -61 13q-15 6 -28 13t-24 18q-22 18 -34 50q-8 12 -11 29t-3 36q0 33 13 73
q4 22 12.5 42.5t19.5 44.5q6 16 14 31q2 6 4 12.5t6 12.5l9 40q0 10 -2 10q-7 -2 -8 -5q-4 -5 -6 -9t-4 -7q-7 -10 -7 -12q-16 -29 -42 -29q-15 0 -20 6q-6 3 -11.5 6.5t-8.5 10.5q-13 11 -11 34q0 19 14 38q11 16 33 25q20 5 47 5q40 0 70 -18q27 -21 32 -66
q1 -15 -0.5 -32.5t-5.5 -40.5q-7 -23 -13 -45t-14 -43q-13 -30 -18 -57q-6 -16 -7.5 -26.5t-1.5 -18.5q0 -18 6.5 -29.5t20.5 -21.5q23 -18 55 -25q9 38 19 77.5t23 78.5q4 18 9 37.5t8 40.5q6 18 11 38t12 39q3 13 5.5 22t2.5 15q0 3 -11 7h-37q-41 0 -41 35q0 17 16 28
q7 2 14.5 4.5t16.5 2.5h213q13 0 20.5 -3t14.5 -7q3 -7 4.5 -15t-2.5 -18q-2 -8 -6.5 -13t-8.5 -9q-12 -5 -29 -5h-33q-12 -1 -17 -5q-6 -3 -9 -7.5t-6 -10.5q-2 -5 -4 -13.5t-6 -17.5z" />
    <glyph glyph-name="uni03A9" unicode="&#x3a9;" horiz-adv-x="1045" 
d="M750 209q-24 -26 -47 -45t-47 -31q-26 -16 -49 -25t-45 -13l-9 -36h26q13 0 26 1q22 0 39 6q13 5 29 17q12 10 24 31q2 7 4.5 12.5t5.5 11.5q2 3 5 6.5t8 7.5q5 7 17 7q20 -1 30 -12q5 -11 1 -33q-7 -17 -9 -31q-2 -7 -3.5 -13.5t-2.5 -12.5q-4 -12 -8 -26t-9 -31
q-4 -6 -7.5 -11.5t-6.5 -8.5q-5 -6 -11.5 -7t-16.5 -1h-241l47 184q51 2 100 32q21 12 41.5 29t39.5 37q31 38 55 91q10 26 14.5 52.5t4.5 53.5q0 33 -10 61t-29 50q-40 42 -113 42q-50 0 -91 -18q-23 -10 -42 -22.5t-38 -28.5q-18 -16 -32.5 -33.5t-27.5 -39.5
q-12 -21 -21.5 -42.5t-14.5 -42.5q-5 -18 -5 -36q-2 -7 -2 -16v-17q0 -16 1.5 -29t5.5 -27q5 -26 24 -48q7 -11 18 -19t25 -14q27 -16 67 -16l-45 -183h-218q-23 0 -30 12q-10 11 -6 30q1 9 2.5 18.5t3.5 17.5q0 18 8 40q2 19 6 35q0 7 1 15t5 18q0 12 13 20q7 5 20 5
q11 0 21 -5q11 -10 11 -22q0 -14 0.5 -26.5t3.5 -20.5q0 -22 13 -32q6 -7 14 -11.5t19 -5.5q19 -6 55 -1l11 39q-40 8 -66 33q-15 10 -27 23t-20 28q-24 30 -30 66q-7 19 -9 36.5t-2 36.5q0 8 0.5 15.5t2.5 17.5q0 13 8 33q8 29 20.5 57t33.5 54q19 26 41 48.5t48 42.5
q25 20 53.5 35t58.5 28q29 11 59.5 18t60.5 7q25 0 50 -5t48 -13q22 -9 41 -20t38 -27q16 -16 29 -33.5t23 -38.5q18 -44 18 -93q0 -65 -29 -127q-31 -64 -78 -111z" />
    <glyph glyph-name="alpha" unicode="&#x3b1;" horiz-adv-x="1045" 
d="M304 435q31 0 65 -17q44 -26 57 -69q1 7 5 12q0 4 2.5 7.5t5.5 9.5q7 15 19 27q6 14 23 20q7 4 15 3t17 -5q27 -15 25 -40q-3 -9 -6.5 -18t-9.5 -23l-14 -27l-16 -27l-21 -36q-4 -8 -8.5 -16t-9.5 -17q-11 -18 -20 -36.5t-18 -37.5q-3 -8 -5.5 -16.5t-3.5 -17.5
q-3 -11 -3 -19v-13q0 -15 9 -21q7 -10 17 -10q15 -3 25.5 -6.5t20.5 -9.5q17 -13 4 -33q-13 -19 -30 -27q-22 -14 -46 -6q-42 6 -66 30q-7 4 -8 12l-6 5q-2 3 -3 6q-11 -13 -25 -22.5t-29 -20.5q-34 -22 -68 -22q-37 0 -60 16q-15 7 -25 16.5t-20 22.5q-10 11 -17 24.5
t-10 29.5q-13 30 -8 60q0 24 11 60q4 16 9 33.5t15 34.5q7 17 16 33.5t20 34.5q21 31 48 60q14 11 28.5 21.5t32.5 20.5q31 14 66 14zM332 358q-31 10 -75 -33q-13 -11 -22 -23l-18 -24l-18 -28q-9 -14 -15 -27q-9 -16 -13.5 -30.5t-8.5 -28.5q-5 -16 -6.5 -30t-1.5 -26
q0 -7 0.5 -12.5t2.5 -11.5q2 -13 10 -22q4 -11 13 -17q8 -6 24 -6q26 0 56 29q23 26 39.5 52t29.5 54q19 51 27 114q0 12 -0.5 23.5t-3.5 22.5q-3 7 -9 13.5t-11 10.5z" />
    <glyph glyph-name="beta" unicode="&#x3b2;" horiz-adv-x="1045" 
d="M161 28q-3 -12 -5 -24t-4 -22q-2 -11 -4 -20t-2 -17l-17 -55q-11 -25 -20 -30q-13 -10 -27 -2q-20 1 -26 19q-11 11 -5 35q5 34 12 70t17 77q8 40 18 81t21 84q10 41 21.5 80t24.5 80q10 38 20.5 71t22.5 63q21 61 58 103q18 17 42.5 27t56.5 10q18 0 34.5 -3.5
t31.5 -10.5q17 -9 29 -17t26 -21q9 -13 18 -27t16 -30q13 -36 13 -71q0 -21 -6 -46l-8 -24q-4 -12 -10 -24q-8 -12 -15 -23t-16 -21t-19 -17t-21 -11l9 -13q2 -5 3.5 -7.5t5.5 -6.5l11 -37q1 -5 2 -9t1 -10q1 -5 1.5 -9.5t2.5 -9.5q0 -11 0.5 -20t0.5 -17q-3 -18 -6 -34.5
t-8 -34.5q-14 -37 -35 -67q-12 -18 -23.5 -30.5t-26.5 -22.5q-31 -25 -66 -25q-45 -4 -83 13q-20 6 -36.5 20.5t-29.5 35.5zM359 298q-9 0 -17 0.5t-19 2.5q-18 0 -34 9q-10 3 -16.5 8t-11.5 12q-14 9 -10 29q0 11 5 20t12 11q13 5 43 -1q1 -1 3 -1t4 -1q6 -3 13 -3
q5 -2 14 -4t21 -6q14 -6 27 8q7 5 11.5 11.5t10.5 15.5q4 9 8.5 17.5t7.5 18.5q4 17 6 30q2 43 -6 70q-6 15 -17 24t-27 15q-35 6 -66 -19q-31 -30 -47 -80q-14 -46 -27 -91t-26 -91q-11 -49 -18.5 -96t-11.5 -93q3 -8 6.5 -14t10.5 -12q7 -15 23 -22q11 -12 30 -16
q6 -2 13.5 -3.5t16.5 -0.5q23 0 44 18q17 19 28 43q4 11 8 23.5t7 26.5q2 14 3 25.5t3 22.5q0 4 -1 6.5t-1 6.5q0 3 -0.5 6.5t-0.5 7.5q-3 11 -5 26q-5 4 -6 12q-1 2 -2 5t-1 6q-2 6 -4.5 9.5t-3.5 7.5z" />
    <glyph glyph-name="gamma" unicode="&#x3b3;" horiz-adv-x="1045" 
d="M198 369q-25 6 -37 -6q-9 -6 -14 -13.5t-11 -13.5q-7 -9 -12.5 -15.5t-11.5 -12.5q-11 -13 -30 -5q-9 1 -11.5 8t-2.5 21q-1 9 3 24t15 36q10 18 22 30.5t30 21.5q31 14 72 13q56 -7 87 -50q29 -46 29 -116v-80q2 4 6 11l17 34q4 11 9.5 21t12.5 22l26 41q3 4 4.5 9.5
t5.5 10.5l12 19l9 14q3 5 5 8t5 6q44 68 90 32q8 -8 12 -16t4 -18q0 -6 -1.5 -13.5t-3.5 -14.5q-8 -17 -22 -36q-55 -58 -99 -124q-23 -34 -44.5 -68t-39.5 -68q-10 -17 -16.5 -31.5t-12.5 -30.5q-7 -18 -13 -34.5t-12 -32.5l-10 -25l-8 -22q-12 -22 -23 -34q-7 -8 -14 -12
t-13 -5q-18 -6 -31 4q-19 5 -26 29q-9 16 -4 40q0 2 3.5 10t10.5 19q2 5 5 11t6 13t7 12.5t9 13.5q7 13 15.5 26t17.5 28l30 43v45q-1 16 -1 40v54q0 28 -4.5 48.5t-9.5 39.5q-17 29 -42 39z" />
    <glyph glyph-name="delta" unicode="&#x3b4;" horiz-adv-x="1045" 
d="M420 384q7 -8 14 -16.5t14 -18.5l20 -42q3 -13 6.5 -24t6.5 -22q0 -7 1 -13t1 -10q3 -12 3 -22q0 -21 -4.5 -43t-11.5 -42q-16 -48 -42 -83q-16 -21 -32 -36t-34 -25q-41 -26 -88 -26t-83 20q-39 17 -63 48q-29 31 -42 71q-7 18 -10.5 39.5t-3.5 43.5q0 21 4 42t11 43
q14 41 41 74q25 37 61 61q18 13 36.5 20.5t40.5 13.5q-9 11 -17 24t-14 28q-9 14 -12 29.5t-3 33.5q0 10 1 20.5t7 19.5q3 10 9 19t14 19q7 6 15 12.5t19 12.5q9 4 18 6.5t20 2.5q19 0 38.5 -5.5t40.5 -14.5q18 -11 36 -22.5t33 -28.5q16 -14 27.5 -31.5t22.5 -35.5
q9 -18 14 -34.5t5 -32.5q0 -12 -4.5 -20.5t-11.5 -15.5q-9 -10 -18 -13.5t-18 -3.5q-7 0 -13 1.5t-10 6.5q-13 8 -17 18q-6 5 -9 11t-7 11q-1 4 -2.5 6t-2.5 5q-4 8 -5 12q-3 3 -5 7t-5 8q-1 4 -3 8t-4 10q-3 4 -5 8l-4 8l-10 16l-24 24q-7 4 -15 7t-14 6q-6 0 -11.5 -1.5
t-9.5 -2.5q-12 -6 -12 -24q0 -25 12 -48q6 -11 14.5 -22t18.5 -21q18 -23 40 -40q10 -11 18.5 -20t16.5 -16zM381 251q0 10 -0.5 20t-1.5 21q-6 20 -13 39q-6 7 -12.5 13.5t-14.5 12.5q-19 11 -41 11q-32 0 -54 -24q-25 -23 -38 -54q-10 -19 -16 -35t-10 -35t-5.5 -34.5
t-1.5 -29.5q0 -11 0.5 -21t3.5 -21q0 -20 14 -39q8 -18 27 -30q15 -11 42 -11q29 0 53 24q22 23 39 57q7 18 12 36t11 37q3 18 4.5 34t1.5 29z" />
    <glyph glyph-name="epsilon" unicode="&#x3b5;" horiz-adv-x="1045" 
d="M368 353q-1 7 -3.5 11.5t-5.5 9.5q-5 4 -9.5 7t-11.5 6q-5 1 -12.5 2t-13.5 2h-15q-5 0 -8.5 0.5t-7.5 0.5q-36 0 -54 -17q-12 -9 -17 -22t-5 -27q0 -23 11 -34q8 -14 27 -20q9 -3 17.5 -6t19.5 -3q9 -2 19 -2.5t18 -0.5h25q7 0 12 -1t11 -2q3 -3 7.5 -5.5t7.5 -5.5
q1 -5 3 -10t2 -12q0 -21 -16 -27q-15 -6 -39 -6h-9q-4 0 -8 1h-16q-27 0 -47 -6t-33 -15q-28 -24 -28 -59q0 -42 31 -62q16 -11 36.5 -16t49.5 -5q12 0 25 3t27 11q9 6 15 16.5t7 28.5q0 14 7 26q1 10 13 23q3 4 8 7.5t13 6.5q6 2 12.5 2.5t15.5 0.5q22 -6 36 -25
q6 -14 6.5 -24.5t-2.5 -22.5q-6 -17 -12.5 -28.5t-15.5 -22.5q-10 -12 -21 -22t-23 -16q-13 -8 -26.5 -14t-28.5 -9q-16 -6 -32 -8t-30 -2q-19 0 -37 1.5t-36 7.5q-20 3 -36 9.5t-32 15.5q-15 9 -28.5 19.5t-22.5 27.5q-11 11 -16 29t-5 40q0 18 5 35t16 33q9 14 23.5 26
t33.5 22q-15 7 -25.5 17t-19.5 26q-17 23 -17 60q0 33 16 59q18 24 44 42q12 6 26.5 11.5t30.5 10.5q33 8 61 8q13 0 28 -1l30 -2q17 -4 31 -7t30 -9q26 -11 50 -31q11 -11 17 -24.5t10 -29.5q1 -13 -1 -23t-8 -18q-7 -9 -14.5 -14t-17.5 -9q-33 -4 -47 13q-20 20 -21 48z
" />
    <glyph glyph-name="zeta" unicode="&#x3b6;" horiz-adv-x="1045" 
d="M282 667q9 -13 11 -22q0 -12 -4 -19q-2 -5 -7 -9.5t-10 -9.5q-5 -6 -10.5 -11.5t-12.5 -8.5q-8 -8 -15.5 -15t-13.5 -13q-4 -8 -7 -14.5t-3 -11.5v-6q0 -2 4 -4q1 -2 3 -5t6 -3q13 -5 25 1q7 2 13 4t14 6q6 3 12.5 6.5t14.5 10.5q10 7 21 18q7 6 15 14t19 14q7 7 15 12.5
t17 10.5q7 1 13 3t13 6q6 0 11 1.5t11 1.5q34 0 46 -28q9 -17 0 -36q-11 -21 -26 -37q-9 -9 -19.5 -17.5t-19.5 -14.5q-12 -8 -20 -13t-14 -8q-15 -8 -29.5 -14.5t-29.5 -13.5q-36 -16 -64 -17l-37 -50q-9 -14 -18 -27t-17 -29q-10 -15 -16 -29.5t-11 -29.5q-11 -30 -11 -60
q0 -45 26 -67q14 -16 33 -21t44 -5q57 -1 93 -25q16 -14 25.5 -32.5t15.5 -43.5q4 -33 -9 -59q-9 -16 -17.5 -27.5t-22.5 -19.5q-12 -9 -26 -16.5t-30 -12.5q-17 -7 -31.5 -9t-31.5 -2h-30q-20 0 -37 7q-21 5 -32 16q-12 8 -12 29q0 19 20 36q17 12 59 12q1 -1 2 -1h7
q1 -1 3 -1.5t6 -0.5q8 -4 25 -4q7 -2 13 -2h16q6 0 13 0.5t15 3.5q6 1 9 5t5 11q2 16 -28 22q-20 1 -38 4.5t-36 10.5q-19 4 -34.5 11.5t-30.5 18.5q-16 8 -27 21.5t-20 28.5q-8 16 -13 34.5t-5 41.5q0 18 2 37.5t9 39.5q3 17 10.5 34.5t16.5 36.5q13 34 37 70q8 15 18 31.5
t21 31.5q-12 7 -22 17t-16 22q-8 11 -11.5 25.5t-3.5 32.5q0 15 4 28.5t13 27.5q7 13 17 24.5t24 24.5q63 50 93 20z" />
    <glyph glyph-name="eta" unicode="&#x3b7;" horiz-adv-x="1045" 
d="M205 320l-5 15q-2 6 -5 13q-13 12 -25 6q-9 -3 -16.5 -4.5t-14.5 0.5q-14 0 -21 11q-8 4 -8 19q-1 6 0.5 11.5t6.5 13.5q3 10 11.5 16.5t20.5 10.5q19 7 46 5q25 -4 49 -18q21 -20 35 -41q21 22 55 42q15 10 30.5 14t33.5 4q35 0 62.5 -11t48.5 -32q35 -45 31 -112
q-1 -12 -3 -27t-6 -32q-4 -18 -8.5 -35.5t-9.5 -37.5l-12 -40l-11 -39q-4 -11 -8 -20.5t-8 -19.5l-12 -37l-13 -35q-3 -8 -6.5 -15t-6.5 -14q-7 -15 -12.5 -24.5t-9.5 -15.5q-17 -26 -33 -32q-17 -10 -40 1q-49 22 -24 71q10 18 19 36t20 37q7 18 15 38t16 41q10 24 19 50.5
t20 56.5q7 27 12.5 55t9.5 58q0 12 -2 23t-8 19q-12 19 -45 19q-10 0 -18.5 -3.5t-16.5 -10.5q-10 -9 -18.5 -16.5t-16.5 -18.5q-9 -11 -14 -21t-11 -21q-7 -11 -11.5 -21.5t-6.5 -18.5q-4 -12 -7 -24t-6 -25l-13 -51q-4 -8 -5.5 -15t-2.5 -14q-4 -17 -7 -30
q-19 -60 -41 -85q-26 -30 -51 -16q-30 12 -30 48q0 8 2 18t9 25q5 14 11.5 27.5t15.5 28.5q12 22 21 46.5t19 51.5q14 54 10 102z" />
    <glyph glyph-name="theta" unicode="&#x3b8;" horiz-adv-x="1045" 
d="M381 665q20 -5 36 -12t32 -20q12 -12 22 -27.5t20 -29.5q6 -18 12.5 -36t9.5 -38q4 -20 5.5 -40t1.5 -40q0 -24 -1.5 -45t-4.5 -41q-4 -22 -8.5 -41t-8.5 -34q-7 -23 -16.5 -47t-19.5 -50q-12 -26 -24 -50.5t-28 -45.5q-15 -23 -33 -41t-38 -32q-21 -16 -44.5 -22.5
t-48.5 -6.5q-24 0 -44.5 5t-34.5 18q-36 21 -53 61q-10 18 -17.5 39t-10.5 45q-4 21 -5.5 45t-1.5 49q0 19 1 39.5t4 37.5q0 19 3 35.5t8 31.5q19 68 48 126q12 28 29 53t39 45q27 28 64 51q18 10 37.5 16t40.5 6q7 0 14 -1.5t15 -2.5zM185 292q-4 -18 -6 -33.5t-2 -30.5
q-2 -16 -2 -31v-46q0 -9 2 -19q0 -12 2 -22t6 -19q2 -9 5.5 -17.5t8.5 -14.5q9 -17 22 -17q22 -8 44 2q20 8 38 32q8 10 15.5 21.5t16.5 26.5q5 13 12.5 28t13.5 30q5 16 9 30t10 29q0 7 2 14t3 15q2 5 3 11t3 11h-206zM282 543q-12 -17 -22.5 -37t-19.5 -44
q-12 -25 -21 -50t-15 -50h204q1 13 2.5 26t3.5 26v24q0 7 0.5 12.5t0.5 11.5q0 4 -0.5 8.5t-0.5 8.5q0 5 -1 9.5t-1 9.5q-1 11 -2.5 20.5t-3.5 21.5q-6 18 -14 35q-11 14 -24 17q-10 2 -21 -0.5t-21 -7.5q-24 -17 -44 -41z" />
    <glyph glyph-name="iota" unicode="&#x3b9;" horiz-adv-x="1045" 
d="M276 451q19 -6 31 -21q7 -21 4 -40q-6 -17 -10 -34t-11 -32q-7 -18 -14 -34t-11 -31q-11 -20 -18 -39t-13 -41q-10 -21 -15 -44t-9 -47q-6 -26 24 -30q7 -7 18 0q11 0 19 10q27 25 43 27q15 0 27 -25q4 -9 2.5 -17t-5.5 -16q-9 -18 -34 -43q-13 -11 -24.5 -17t-21.5 -9
q-14 -4 -25.5 -5.5t-22.5 0.5q-35 2 -54 24q-24 18 -29 47q-6 18 -6 40v18q0 8 3 15q5 33 12.5 65t18.5 66q4 14 8.5 30t9.5 33q4 15 9 32t10 35q0 3 1 7.5t4 8.5q1 5 5 17q4 7 7 15t8 15q6 10 24 18q6 3 15 3t20 -1z" />
    <glyph glyph-name="kappa" unicode="&#x3ba;" horiz-adv-x="1045" 
d="M245 437q11 -4 19 -6.5t14 -8.5q12 -13 12 -32q0 -10 -7 -28l-16 -37q-1 -5 -2 -9t-4 -8q-2 -4 -3.5 -9t-2.5 -8q-6 -9 -9 -17.5t-5 -17.5h19q8 0 16.5 5t16.5 17l16 25q3 7 7.5 16t11.5 19q12 24 27.5 44.5t34.5 36.5q15 12 35.5 17.5t40.5 2.5q13 -3 25 -7.5t23 -14.5
q19 -21 19 -56q-1 -30 -19 -41q-18 -12 -42 -12q-8 0 -13.5 1.5t-11.5 5.5q-16 7 -21 23q-6 -2 -11 -5.5t-9 -10.5q-6 -7 -9 -13.5t-6 -13.5q-7 -12 -13 -24t-13 -24q-19 -23 -39 -40q31 -30 31 -68q0 -22 0.5 -37t1.5 -23q2 -25 10 -26q5 0 9 2.5t11 6.5q5 3 8.5 6.5
t6.5 10.5q10 27 30 39q12 9 35 3l16 -12q1 -6 2.5 -10.5t1.5 -8.5q0 -6 -1 -10.5t-2 -9.5l-5 -11q-1 -4 -2 -6t-1 -3q-18 -40 -49 -66q-16 -15 -33.5 -21.5t-37.5 -6.5q-17 0 -28.5 2.5t-19.5 9.5q-21 7 -30 28q-14 21 -14 49q-3 12 -3.5 27t-0.5 34v21q0 2 -0.5 4t-0.5 6
v10l-3 8q-2 6 -2 8q-6 8 -10 8l-28 2q-7 -27 -12 -50q-9 -31 -10 -46q-5 -13 -7 -27q-1 -6 -2.5 -12t-2.5 -12q-4 -12 -7 -22t-8 -19q-10 -15 -23 -21q-20 -7 -36 4q-27 9 -27 44q0 4 -0.5 8t1.5 11q0 9 6 20q1 4 2.5 7.5t3.5 8.5q1 10 9 23q1 11 7 24q3 8 4.5 15.5
t3.5 15.5l9 32l11 33l9 33q2 10 4.5 18.5t5.5 17.5l12 48q2 8 5 14q1 8 2 14.5t2 12.5q3 8 4 13t3 11q5 27 21 39q14 6 37 6z" />
    <glyph glyph-name="lambda" unicode="&#x3bb;" horiz-adv-x="1045" 
d="M210 611q0 21 10 34q6 6 13.5 8.5t15.5 4.5q9 0 17 -0.5t21 -2.5q9 -3 17 -7.5t17 -8.5q14 -11 25.5 -22.5t20.5 -25.5q7 -13 13 -26.5t11 -28.5q4 -14 6.5 -30t2.5 -31v-176q0 -17 2 -35q1 -38 12 -71q3 -17 9.5 -34.5t15.5 -34.5q6 -17 16 -29q1 -8 6 -15
q1 -5 2.5 -8.5t3.5 -7.5l2 -8q2 -4 2 -6q1 -7 6 -12q0 -5 1 -8t1 -6l2 -6q0 -6 -1 -10.5t-2 -8.5q-5 -9 -11 -17q-5 -6 -8 -8.5t-8 -4.5q-4 -4 -9.5 -5t-10.5 -1q-8 0 -16.5 4t-14.5 13q-8 7 -14 16t-11 22q-12 19 -17 44q-11 20 -13 36q-8 21 -11.5 44.5t-4.5 47.5
q-6 44 -6 102l-3 -2v-1q-2 -2 -2 -4l-1 -2q-31 -50 -60 -104q-16 -27 -28.5 -56.5t-20.5 -60.5q-9 -23 -18 -43.5t-20 -34.5q-12 -16 -26 -22.5t-26 -1.5q-18 5 -30 19q-11 12 -11 30q0 15 3 30.5t14 31.5q4 8 8.5 15t8.5 14l18 31q23 38 47 74t48 69q22 34 46 68.5t50 70.5
q0 1 0.5 3t0.5 5l4 10v11q0 5 0.5 9t1.5 10q0 26 -16 50q-9 10 -21 18.5t-25 18.5q-10 4 -17.5 9t-12.5 9q-14 8 -17 18q-7 5 -7 12q-1 4 -1 7v8z" />
    <glyph glyph-name="uni03BC" unicode="&#x3bc;" horiz-adv-x="1045" 
d="M94 -21q4 9 9 19.5t12 25.5l8 27l10 31l16 58q1 5 2.5 11.5t2.5 14.5q2 6 3 11t3 12q5 24 10 50t14 51q6 23 16 48.5t20 52.5q16 37 39 47q9 7 21 5.5t27 -6.5q11 -8 17.5 -19t6.5 -26q0 -8 -1.5 -15.5t-3.5 -15.5q-4 -10 -8 -19.5t-8 -19.5l-15 -30l-15 -27l-14 -30
q-4 -7 -7 -15t-7 -15q-7 -15 -12.5 -30.5t-10.5 -30.5q-7 -17 -10 -33.5t-5 -31.5q1 -4 3 -7.5t4 -7.5q6 -7 14 -12q3 -2 6.5 -4.5t8.5 -2.5q10 -4 20 -1q36 6 59 28q16 16 29 42q5 17 10 35.5t12 39.5q1 9 4 19l6 20l12 42q1 6 2.5 12t3.5 11q2 8 3 14.5t4 13.5q2 14 6 23
q1 7 3 13.5t4 13.5q1 7 3 12.5t6 13.5q5 9 15 22q9 9 20 13q13 1 28 0q17 -4 28 -18q3 -8 6 -15.5t3 -14.5q0 -9 -2 -17t-4 -18q-4 -10 -5 -17l-5 -13q-6 -15 -10.5 -28.5t-9.5 -25.5l-11 -27q-6 -14 -11 -29q-7 -12 -11.5 -22t-7.5 -23q-7 -12 -11 -24t-8 -26q-4 -7 -4 -15
q-2 -5 -2.5 -9t-0.5 -8q0 -10 4 -14q1 -7 14 -7q4 0 7 0.5t6 2.5t5.5 4.5t6.5 5.5q5 7 17 13q2 3 8 4.5t11 1.5q13 0 18 -12q1 -9 1 -17.5t-2 -17.5q-3 -9 -6.5 -17t-6.5 -14q-6 -10 -11.5 -16t-10.5 -12q-7 -6 -15 -10t-15 -6q-17 -6 -34 0q-21 5 -33 18q-9 6 -14.5 11
t-8.5 14q-15 -14 -28 -22.5t-27 -12.5q-14 -6 -28 -8.5t-26 -2.5q-25 0 -45 6q-17 8 -34 24q-2 -7 -2.5 -14.5t-0.5 -13.5q-3 -9 -4 -16t-1 -16q-4 -42 -25 -64q-25 -22 -41 -15q-38 8 -38 49q0 12 6 31q2 9 4.5 18t8.5 22z" />
    <glyph glyph-name="nu" unicode="&#x3bd;" horiz-adv-x="1045" 
d="M181 434q41 14 66 -40q4 -10 8 -21.5t7 -24.5q0 -8 1.5 -13.5t1.5 -13.5q0 -6 0.5 -12.5t0.5 -13.5q0 -5 -0.5 -12.5t-0.5 -13.5q0 -7 -1.5 -14.5t-1.5 -13.5q-3 -16 -5.5 -30.5t-6.5 -27.5q-4 -15 -7.5 -27.5t-7.5 -25.5q-7 -16 -12 -26t-9 -20q15 9 32 19.5t33 25.5
q33 26 60 61q26 31 45 72q16 34 18 77q0 51 16 75q13 24 33 19q26 -9 26 -53q0 -5 -0.5 -9t-0.5 -9v-19l-5 -21q0 -7 -0.5 -12t-1.5 -11q-18 -104 -77 -186q-30 -42 -70.5 -74.5t-91.5 -53.5q-23 -12 -43 -18t-38 -8q-38 -5 -48 10q-18 18 8 73l9 21l12 26q6 13 11 26.5
t10 28.5q3 12 7 26.5t8 30.5q1 12 2 26t1 26l-6 39q-6 23 -12 80q-4 23 6 39q7 17 24 23z" />
    <glyph glyph-name="xi" unicode="&#x3be;" horiz-adv-x="1045" 
d="M283 288q-36 2 -59 -10q-14 -7 -25 -16.5t-21 -19.5q-8 -11 -14.5 -23.5t-9.5 -25.5q-5 -15 -5 -26.5t3 -23.5q3 -11 9.5 -21t16.5 -16q19 -18 60 -14q55 0 92 -24q33 -29 37 -79q1 -16 -0.5 -28t-6.5 -24q-6 -13 -15 -23t-17 -19q-13 -9 -23.5 -16t-23.5 -11
q-15 -7 -27.5 -8t-25.5 -1q-40 0 -49 33q-5 18 16 36q16 17 52 17q26 -2 30 18q0 7 -12 15q-8 3 -15.5 5t-15.5 4q-6 0 -10.5 1t-7.5 2q-6 1 -9.5 2t-8.5 2q-9 0 -16 2q-7 1 -7 2q-31 8 -51 28q-11 9 -19 17.5t-15 20.5q-7 10 -11 21t-7 25q-3 10 -3.5 22t-0.5 24
q0 31 6.5 56t18.5 45q24 38 73 75q-9 6 -14.5 14.5t-11.5 19.5q-11 18 -11 43q0 51 21 78q19 25 48 43v8q0 5 1 12q0 5 0.5 10t2.5 11q12 48 52 73q38 26 87 26q14 0 22.5 -2t16.5 -5q15 -7 16 -30q0 -50 -85 -46q-18 0 -28 -8q-11 -13 -11 -19q12 0 23 0.5t23 2.5
q11 0 23.5 1t24.5 1q2 0 6 -0.5t8 -0.5t8.5 -0.5t11.5 -0.5l18 -5q10 -2 20 -5q18 -8 31 -20q6 -7 7.5 -16t0.5 -20q-6 -22 -19 -27q-9 -6 -19 -7t-22 -1q-17 0 -35.5 1.5t-33.5 7.5q-18 3 -35 5t-36 2q-8 0 -14.5 -1.5t-13.5 -2.5q-8 -3 -14 -6.5t-11 -5.5l-10 -10
q-4 -4 -7 -11q-5 -6 -6.5 -13t-0.5 -15q0 -35 35 -31h11q7 0 19 2h47q12 0 25 -0.5t27 -0.5q12 -2 24 -5.5t23 -6.5q9 -5 17.5 -10t14.5 -12q6 -9 7 -18t0 -21q-5 -26 -24 -32q-10 -6 -20 -7t-24 0q-24 0 -50 7q-16 3 -27.5 5t-21.5 5z" />
    <glyph glyph-name="omicron" unicode="&#x3bf;" horiz-adv-x="1045" 
d="M292 452q22 0 43.5 -5.5t41.5 -14.5q35 -22 66 -51q26 -36 44 -76q8 -20 11 -42t3 -42q0 -24 -3.5 -47.5t-11.5 -44.5q-11 -24 -21 -44.5t-25 -38.5q-15 -19 -33 -34.5t-38 -24.5q-40 -25 -89 -25q-48 0 -83 20q-22 9 -37.5 22t-29.5 28q-15 15 -25 34.5t-18 40.5
q-15 37 -15 85q0 23 4 46.5t12 47.5q8 21 19 42.5t26 40.5q27 34 69 61q40 22 90 22zM270 33q34 0 58 24q23 23 39 57q7 17 12 34t11 37q4 18 6 34.5t2 30.5q0 7 -0.5 13t-1.5 10q0 7 -1.5 13t-1.5 12q-3 11 -7.5 22t-7.5 19q-12 18 -29 29q-10 5 -22 8.5t-23 3.5
q-19 0 -32.5 -6t-26.5 -14q-12 -13 -22.5 -24t-17.5 -27q-10 -16 -15.5 -31.5t-9.5 -34.5q-4 -18 -5.5 -34.5t-1.5 -31.5q0 -13 1.5 -24.5t3.5 -23.5q2 -14 7 -25.5t12 -21.5q5 -11 12 -20.5t17 -14.5q10 -7 20 -10.5t24 -3.5z" />
    <glyph glyph-name="pi" unicode="&#x3c0;" horiz-adv-x="1045" 
d="M100 291q-22 13 -17 37q1 10 7 21.5t16 25.5q12 24 47 37q16 7 33 10t34 4h68q16 -2 32 -2h36q14 -1 32 -1t37 2q17 0 34.5 3t36.5 7q30 7 46 -4q16 -13 16 -48q-7 -47 -41 -53h-9q-6 -1 -11 -1h-27q-8 0 -18 1q-10 0 -18.5 -1t-17.5 -1q-6 -28 -11 -57t-9 -58
q-6 -30 -8 -59.5t-2 -56.5v-7q0 -3 1 -7q0 -10 4 -15q2 -8 9 -10q3 -7 11 1q6 3 12.5 5.5t14.5 2.5q16 0 23.5 -12t4.5 -35q-3 -7 -5 -14t-8 -12q-5 -6 -12.5 -11.5t-14.5 -9.5q-9 -3 -16.5 -6t-16.5 -3q-20 -5 -32 3q-11 3 -18.5 8t-14.5 12q-14 10 -18 26q-3 6 -5 16
t-2 19q-2 9 -2 18t1 21q0 15 2.5 30.5t5.5 33.5q1 8 2 17t2 16q1 8 2.5 15.5t3.5 16.5q1 7 3 14t3 13q2 15 6 29q1 13 2.5 27.5t2.5 32.5h-59q-3 -10 -4.5 -18.5t-2.5 -16.5q-5 -20 -5 -34q-12 -43 -20 -88q-5 -25 -12 -47.5t-15 -45.5l-10 -31q-3 -6 -5.5 -11.5t-4.5 -9.5
q-5 -11 -10 -20.5t-11 -15.5q-4 -6 -9 -10.5t-12 -7.5q-8 -5 -15 -6.5t-13 -1.5q-18 0 -29 11q-14 10 -14 36t14 47q12 25 23 41q9 12 17 26t15 28q6 13 11.5 25t10.5 27q3 12 7.5 25t7.5 30l13 65l-34 -5q-19 -6 -24 -17q-13 -19 -23 -19q-12 -6 -24 3z" />
    <glyph glyph-name="rho" unicode="&#x3c1;" horiz-adv-x="1045" 
d="M325 -34q-24 0 -45 6t-39 21q-39 24 -69 63v-12q0 -6 1 -14v-15q0 -6 2 -12v-19q0 -11 2 -25v-25q0 -13 -1 -26q-2 -11 -5.5 -21t-9.5 -19q-14 -18 -41 -18q-23 0 -32 19q-5 10 -6.5 22.5t-1.5 30.5q0 65 10 135q6 33 12.5 67t15.5 69q4 19 10 40.5t17 43.5q7 21 18 40
t25 37q13 18 29 32t34 26q37 23 87 23q45 0 80 -17q34 -19 63 -51q24 -31 41 -70q7 -21 11.5 -41.5t4.5 -42.5q0 -21 -4.5 -42t-11.5 -41q-8 -24 -18 -43.5t-24 -37.5q-16 -18 -32.5 -33.5t-35.5 -25.5q-38 -24 -87 -24zM439 232q0 15 -5 41q-3 13 -6.5 22.5t-8.5 21.5
q-13 19 -28 34q-10 7 -19.5 10.5t-22.5 3.5q-33 0 -56 -22q-12 -9 -20.5 -22t-16.5 -29q-15 -30 -22 -64q-5 -19 -6.5 -34.5t-1.5 -26.5q0 -12 0.5 -22.5t3.5 -20.5q1 -23 14 -42q4 -10 11.5 -18t15.5 -14q7 -7 18 -9t23 -2q16 0 31.5 3.5t26.5 13.5q13 9 22.5 20.5
t17.5 27.5q7 14 12.5 29.5t8.5 34.5q8 33 8 64z" />
    <glyph glyph-name="sigma" unicode="&#x3c3;" horiz-adv-x="1045" 
d="M488 389q-4 -6 -7.5 -11t-6.5 -6q-5 -3 -9.5 -3.5t-11.5 -0.5h-13q-7 0 -13 1h-27q32 -28 58 -67q9 -21 14.5 -43.5t5.5 -48.5q0 -62 -29 -123q-8 -12 -16 -24.5t-18 -21.5q-12 -14 -22 -23.5t-23 -19.5q-12 -8 -25.5 -15t-27.5 -11q-14 -7 -29.5 -9t-29.5 -2
q-21 0 -40.5 4t-36.5 13q-17 8 -31 18t-26 24q-24 27 -38 67q-7 18 -10.5 37t-3.5 39q0 42 18 91q7 18 16 35t22 36q12 14 25 29.5t29 30.5q16 13 34 25t39 21q38 19 82 24q26 3 61 3q14 -3 28.5 -5.5t30.5 -9.5q7 -5 13.5 -10t12.5 -12q5 -9 6.5 -16t-1.5 -16zM214 45
q18 -11 44 -3q9 2 20 6.5t21 14.5q15 13 34 37q6 10 12.5 20.5t12.5 19.5l21 55q2 13 4 27t2 28q0 17 -5.5 29.5t-14.5 24.5q-24 25 -54 25q-9 0 -18 -3t-17 -6q-19 -12 -32 -22q-7 -8 -14.5 -15.5t-13.5 -14.5q-6 -11 -12 -19t-11 -17q-6 -11 -11 -23t-7 -25
q-4 -13 -5.5 -26.5t-1.5 -25.5q0 -16 2 -27t7 -23q8 -26 37 -37z" />
    <glyph glyph-name="tau" unicode="&#x3c4;" horiz-adv-x="1045" 
d="M333 341q-24 -48 -36 -95q-8 -24 -14.5 -49t-12.5 -50l-4 -13q0 -3 -0.5 -7t-0.5 -7q-4 -9 -4.5 -16.5t-0.5 -13.5q0 -14 6 -20q4 -10 14 -11q10 -6 21 -1q11 0 21 6q13 5 24.5 5.5t21.5 -2.5q18 -11 18 -29q-2 -19 -12 -34q-7 -8 -13.5 -12.5t-17.5 -9.5
q-18 -11 -39 -13q-13 -4 -23.5 -5t-19.5 0q-61 0 -82 39q-23 39 -11 92q0 8 5 21l11 34l14 42q3 13 7.5 26t10.5 28l9 30q3 9 5 14.5t6 13.5l5 22q3 10 5 14q-15 0 -29 -0.5t-29 -0.5q-31 -3 -42 -21q-7 -10 -13 -15t-13 -8q-13 -5 -29 9q-13 11 -9 34q0 10 5 24t18 29
q6 12 17.5 20.5t27.5 14.5q15 4 31.5 6.5t37.5 2.5q8 0 16.5 -0.5t19.5 -0.5h36q19 -2 40 -2h48q27 0 47 3t35 9q13 7 23.5 6.5t21.5 -7.5q12 -13 12 -51q-3 -25 -12 -39t-23 -14q-5 -2 -9.5 -1.5t-9.5 0.5h-12q-2 0 -4 0.5t-5 0.5h-81q-7 0 -15 0.5t-14 1.5z" />
    <glyph glyph-name="upsilon" unicode="&#x3c5;" horiz-adv-x="1045" 
d="M136 366q0 18 3 32.5t11 25.5q14 18 43 18t44 -18q10 -20 10 -45q0 -13 -2 -24.5t-4 -22.5q-2 -8 -4 -13.5t-3 -11.5l-7 -17l-19 -44q-7 -12 -12 -24t-9 -23q-6 -13 -9 -25t-6 -25q-6 -26 -6 -52q0 -12 3 -23.5t10 -21.5q14 -20 41 -20t52 16q26 16 57 52
q12 15 23.5 34.5t23.5 41.5q19 39 31 82q11 42 5 76q-2 8 -2.5 17.5t-0.5 18.5q0 25 10 38.5t34 13.5q18 -1 30 -11q12 -12 18 -23q4 -8 6 -16.5t3 -17.5q1 -10 2 -18t1 -18v-18q-1 -7 -2 -11t-1 -7q-6 -22 -14 -47t-21 -52q-13 -29 -28 -55t-33 -49q-18 -28 -39.5 -49
t-43.5 -36q-24 -19 -49 -27t-51 -8q-76 0 -112 41q-37 40 -32 110q0 28 10 53q2 13 6 24q2 5 3.5 11t3.5 13q5 19 8.5 38.5t9.5 40.5q2 17 5 36t3 40z" />
    <glyph glyph-name="phi" unicode="&#x3c6;" horiz-adv-x="1045" 
d="M66 187q0 46 17 90q9 21 21 41t27 38q16 18 34.5 31t41.5 24q20 10 42.5 14.5t49.5 2.5q39 -7 46 -29q2 0 4 0.5t4 0.5q3 0 4 0.5t3 0.5q14 0 28 -5.5t26 -14.5q12 -13 23 -25t20 -26q7 -16 13.5 -33.5t12.5 -32.5q5 -19 8 -34t3 -28q0 -24 -4 -44t-12 -42
q-9 -21 -19.5 -40.5t-26.5 -33.5q-30 -37 -71 -55q-44 -24 -96 -25q0 -3 -1.5 -5t-1.5 -4q-1 -3 -1 -6l-3 -13q0 -2 -0.5 -4.5t-0.5 -3.5q-9 -46 -29 -62q-23 -15 -50 -4q-26 7 -27 25q-5 13 4 39q1 7 4 14.5t8 14.5q0 6 5 15q3 4 4 8t2 9q-11 6 -22 15.5t-21 20.5
q-12 11 -20 23t-16 27q-18 26 -24 58q-6 14 -7.5 28.5t-1.5 29.5zM278 33q24 8 48 31q18 20 36 50q6 14 12 29t11 32q3 15 5.5 29t2.5 29q0 13 -2.5 27t-6.5 30q-5 12 -11 24l-12 24q-9 0 -16 -14q-10 -15 -15 -34q-4 -13 -7.5 -23.5t-5.5 -20.5q-4 -12 -5 -22q0 -4 -1 -8.5
t-1 -6.5l-1 -2v-2v-2l-2 -3v-5q-2 -5 -2 -12l-4 -22q-1 -7 -2.5 -14t-2.5 -15q-3 -10 -5 -21t-3 -23zM246 276q6 18 19 43q3 11 9.5 20t15.5 22q-39 -13 -69 -43q-16 -18 -28 -41.5t-20 -50.5q-3 -9 -4 -16t-1 -13q-1 -9 -1 -17v-16q0 -16 1 -29.5t5 -25.5q3 -15 9 -27
t17 -22q4 13 7.5 27.5t7.5 29.5q1 6 1.5 13.5t2.5 13.5q2 15 6 31q2 14 5 27t7 28q2 12 4.5 23.5t5.5 22.5z" />
    <glyph glyph-name="chi" unicode="&#x3c7;" horiz-adv-x="1045" 
d="M259 204q-3 13 -5 25t-2 25l-4 25q0 7 -1 12.5t-2 12.5q0 1 -1 6t-2 11l-3 12l-4 10q-6 6 -7 9q-1 2 -2.5 3.5t-2.5 4.5q-4 1 -8 -0.5t-6 -7.5q-42 -50 -64 -16q-14 11 -8 32q2 19 18 39q6 10 14.5 17t21.5 15q21 13 49 13q36 0 62 -26q11 -17 16.5 -35t8.5 -42v-35
q0 -3 1 -6v-9q0 -4 2 -9q5 5 9 10.5t10 12.5q6 6 10 12.5t10 12.5q10 11 19.5 23.5t17.5 26.5q6 11 12.5 20.5t15.5 21.5q7 8 16 14t19 6q6 0 20 -6q4 -4 8 -6q4 -5 11 -6q2 -4 6 -8.5t7 -9.5l3 -11q2 -4 2 -9q0 -7 -2.5 -12.5t-5.5 -12.5q-5 -7 -9.5 -13t-11.5 -13
q-5 -5 -12.5 -10.5t-13.5 -11.5q-9 -6 -14.5 -12t-9.5 -11q-9 -7 -15 -13.5t-14 -13.5l-26 -27q-15 -13 -25.5 -27.5t-20.5 -26.5q1 -18 8 -38q3 -9 5.5 -18t5.5 -20q2 -8 5 -16.5t9 -15.5q5 -18 13 -19q14 -6 24 5q34 48 61 20q3 -6 6 -14t4 -17q0 -10 -5 -21t-12 -23
q-17 -23 -35 -35q-9 -7 -18.5 -11.5t-16.5 -4.5q-13 -4 -25 4q-8 2 -14.5 5t-13.5 9q-9 4 -14.5 10t-12.5 14t-12 16.5t-8 18.5q-4 6 -7.5 14.5t-3.5 17.5q-3 8 -5.5 15.5t-4.5 17.5q-2 -2 -2.5 -3t-1.5 -2l-1 -1q-2 -1 -2 -2l-1 -1l-2 -3q-5 -7 -10 -13.5t-11 -14.5
l-20 -22q-11 -16 -22 -28t-25 -24q-11 -13 -21.5 -17.5t-20.5 -4.5t-17.5 3t-14.5 13q-18 12 -12 35q0 19 17 34z" />
    <glyph glyph-name="psi" unicode="&#x3c8;" horiz-adv-x="1045" 
d="M177 101q0 -9 1 -16.5t4 -14.5q3 -18 20 -24q10 25 18 51.5t15 55.5q6 27 10.5 56t11.5 59q1 11 3.5 24t5.5 26q0 13 3 25t7 24q3 16 9.5 25.5t16.5 17.5q13 14 40 8q14 -5 21 -12t13 -16q5 -23 0 -47q-6 -19 -11 -37.5t-12 -36.5q-10 -23 -16.5 -42.5t-13.5 -37.5
l-10 -30q-2 -7 -4 -13.5t-4 -12.5q-5 -17 -10 -31t-7 -29q-4 -9 -5 -15.5t-1 -7.5q0 -2 -0.5 -3t-0.5 -2q-1 -2 -1 -3q15 6 32 19q7 5 14.5 11.5t14.5 14.5q10 9 16 21.5t12 28.5q5 12 8 28.5t7 35.5q1 21 5 39.5t11 39.5q11 37 27 65q3 6 6.5 12t8.5 12q5 7 10.5 12t9.5 11
q6 5 12.5 9t15.5 9q5 3 13 5.5t17 4.5q6 0 12 -1t10 -2q5 -4 8.5 -6.5t7.5 -5.5q0 -4 1 -8t1 -7q0 -5 -1 -7.5t-2 -5.5q-6 -7 -10.5 -10.5t-6.5 -5.5l-18 -10q-28 -15 -34 -113q-8 -61 -21 -102q-8 -25 -20 -45t-27 -39q-33 -37 -74 -56q-48 -20 -81 -25v-2l-2 -2v-1
q-4 -12 -6 -27q-2 -6 -3.5 -9t-1.5 -6q-1 -4 -2 -6.5t-1 -5.5q-6 -14 -12 -25t-17 -21q-20 -20 -49 -9q-18 3 -30 23q-15 17 -3 40q1 3 4 6t5 6q-1 0 5 4q1 1 2.5 2t3.5 2q9 4 15 15q2 5 3 11l2 12q-43 14 -66 54q-26 36 -26 86q0 15 1.5 30t7.5 33q6 34 22 68q5 14 9 25.5
t9 23.5q3 10 5 19.5t2 18.5q0 8 -5 16q-6 2 -7 7q-1 2 -2 3.5t-2 3.5q-5 3 -7.5 6t-3.5 9q-6 4 -6 17q0 10 11 22q10 6 40 0q15 -6 26.5 -13.5t19.5 -18.5q7 -12 10.5 -24t4.5 -24q2 -14 0.5 -31t-3.5 -36q-2 -9 -4.5 -19.5t-4.5 -19.5q-2 -10 -5 -20.5t-6 -20.5
q-5 -12 -8 -25t-6 -25q-7 -27 -7 -42z" />
    <glyph glyph-name="omega" unicode="&#x3c9;" horiz-adv-x="1045" 
d="M268 430q7 0 14 -3t13 -7q4 -7 7 -12.5t4 -9.5q0 -15 -14 -30q-8 -7 -17 -16.5t-21 -16.5q-11 -10 -19 -19.5t-15 -21.5q-7 -11 -12 -24.5t-9 -26.5q-12 -31 -13 -55q-4 -15 -4.5 -29t0.5 -26v-12q0 -6 3 -12q0 -19 6 -30q1 -9 4 -15.5t7 -11.5q7 -10 18 -10t17.5 4.5
t16.5 16.5q11 19 14 50q1 21 3 41t6 38q2 36 12 64q1 6 4 13.5t7 18.5q5 15 16 33q8 16 24 27q15 8 35 7q9 -2 17 -6.5t14 -12.5q5 -9 8 -19t3 -20q0 -11 -1.5 -20.5t-3.5 -19.5q-5 -21 -11 -39q-3 -10 -7.5 -19.5t-7.5 -19.5q-6 -9 -9 -19.5t-7 -18.5q-4 -12 -7.5 -22
t-5.5 -21q-6 -12 -7.5 -22.5t-1.5 -19.5q0 -14 8 -21q5 -12 20 -12q13 0 24.5 6.5t20.5 20.5q8 13 14.5 28.5t13.5 33.5q3 19 7 37.5t6 39.5q0 18 1.5 35t1.5 32q0 10 -1.5 19.5t-1.5 18.5l-6 34q-7 10 -7 26q-1 7 -1.5 13t-0.5 13q-2 11 2 21q0 8 7 14q49 44 88 -80
q2 -7 3.5 -12.5t2.5 -12.5q1 -6 2.5 -13t4.5 -15q1 -17 2 -33.5t1 -35.5q0 -6 -0.5 -10.5t-0.5 -10.5v-17q-1 -11 -2 -20t-4 -16q-13 -46 -30.5 -81t-39.5 -59q-23 -26 -48.5 -37.5t-54.5 -11.5q-15 0 -29 3t-23 14q-14 7 -22 17.5t-15 22.5q-16 -18 -36 -30
q-13 -8 -26 -11.5t-29 -3.5t-29.5 4.5t-23.5 13.5q-23 13 -35 41q-8 14 -12.5 28.5t-6.5 30.5q-7 28 -7 60q0 78 30 149q13 33 36.5 63.5t58.5 53.5l16 10q8 5 16 8q11 6 25 6z" />
    <glyph glyph-name="uni0401" unicode="&#x401;" horiz-adv-x="1045" 
d="M257 720h517v-81h-432v-238h415v-81h-415v-268h440v-79h-525v747zM423 882q26 0 44 -18q18 -20 18 -45q0 -14 -5 -25t-13 -19q-18 -20 -44 -20q-22 0 -42 20q-18 17 -18 44q0 26 18 45q21 18 42 18zM607 882q22 0 43 -18q17 -19 17 -45t-17 -44q-20 -20 -43 -20
q-24 0 -45 20q-18 17 -18 44q0 26 18 45q22 18 45 18z" />
    <glyph glyph-name="uni0410" unicode="&#x410;" horiz-adv-x="1045" 
d="M686 175h-344q-10 -26 -20.5 -51.5t-20.5 -50.5q-12 -27 -23 -52.5t-19 -49.5h-92l310 747h77l309 -747h-91zM378 254h275q-9 21 -18 42.5t-17 42.5q-10 21 -18.5 40.5t-14.5 41.5q-10 17 -18 38.5t-16 41.5q-6 11 -10 21t-9 21q-4 10 -8.5 21t-7.5 23z" />
    <glyph glyph-name="uni0411" unicode="&#x411;" horiz-adv-x="1045" 
d="M354 50h228q31 0 57.5 8.5t47.5 29.5q19 19 29 44.5t10 59.5q0 12 -3 26t-7 25q-7 12 -14.5 21.5t-17.5 19.5q-11 7 -21.5 13.5t-23.5 12.5q-15 4 -28.5 6.5t-25.5 3.5h-231v-270zM767 635h-413v-236h219q26 0 49.5 -4t46.5 -10q40 -16 76 -43q14 -14 27 -32t22 -38
q10 -22 14 -46.5t5 -52.5q-2 -25 -7.5 -44t-14.5 -38q-21 -39 -51 -64q-36 -31 -79 -42q-23 -9 -49 -12t-54 -3h-292v746h501v-81z" />
    <glyph glyph-name="uni0412" unicode="&#x412;" horiz-adv-x="1045" 
d="M266 -29v747h299q22 0 42 -3t42 -9q17 -5 35 -14.5t33 -19.5q16 -14 27.5 -28t22.5 -32q17 -34 17 -83q0 -58 -16 -97q-10 -21 -23 -37t-31 -31q25 -16 44 -36t34 -40q13 -25 18.5 -53t2.5 -61q-1 -25 -5 -44.5t-15 -38.5q-20 -39 -50 -64q-35 -29 -81 -40
q-23 -10 -49.5 -13t-54.5 -3h-292zM354 50h228q31 0 57.5 9t47.5 30q19 19 29 44.5t10 58.5q0 13 -3 27t-7 25q-7 12 -14.5 21.5t-17.5 19.5q-11 7 -21.5 13t-23.5 13q-15 4 -28.5 6.5t-25.5 3.5h-231v-271zM354 400h219q28 0 51 6.5t40 23.5q37 23 37 88q0 26 -9 48.5
t-25 38.5q-17 16 -40.5 22.5t-52.5 8.5h-220v-236z" />
    <glyph glyph-name="uni0413" unicode="&#x413;" horiz-adv-x="1045" 
d="M265 736h517v-80h-430v-684h-87v764z" />
    <glyph glyph-name="uni0414" unicode="&#x414;" horiz-adv-x="1045" 
d="M263 125q10 26 19.5 58.5t19.5 72.5q12 76 24 155q0 13 0.5 23.5t1.5 23.5l3 47q0 24 1 47t3 47q0 22 0.5 44t0.5 42v79h428v-639h71v-265h-87v184h-468v-184h-85v265h68zM677 125v558h-252q0 -12 -1 -25t-1 -25q0 -15 -0.5 -30t-0.5 -31l-4 -73l-4 -80q-6 -88 -20 -161
t-37 -133h320z" />
    <glyph glyph-name="uni0415" unicode="&#x415;" horiz-adv-x="1045" 
d="M257 716h517v-81h-432v-237h415v-81h-415v-267h440v-80h-525v746z" />
    <glyph glyph-name="uni0416" unicode="&#x416;" horiz-adv-x="1045" 
d="M470 736h89v-397q31 49 65 99l34 50q17 25 35 51l135 197h104l-242 -354l73 -102q18 -25 36.5 -51t40.5 -52q37 -55 74 -106t74 -99h-108l-243 330q-12 -15 -20.5 -30t-18.5 -28q-10 -15 -20.5 -28.5t-18.5 -28.5v-215h-89v217q-7 7 -11.5 14.5t-9.5 15.5q-7 8 -11.5 15
t-8.5 13l-10 14q-5 7 -11 15l-10 14q-5 7 -11 17l-121 -167l-122 -168h-107l298 410q-30 43 -60.5 87t-59.5 91q-34 46 -64.5 89.5t-59.5 86.5h105l274 -397v397z" />
    <glyph glyph-name="uni0417" unicode="&#x417;" horiz-adv-x="1045" 
d="M340 190q2 -41 14 -69.5t36 -43.5q41 -35 124 -35q15 0 30.5 1.5t31.5 6.5q14 5 26 12.5t25 18.5q10 8 18.5 18.5t14.5 24.5q14 25 14 59q0 13 -2.5 23.5t-7.5 23.5q-10 19 -25 39q-9 7 -18.5 14t-17.5 12q-12 6 -23 9.5t-21 5.5q-11 1 -22.5 2t-26.5 2h-68v87h35
q16 0 31 1q12 0 24.5 1.5t25.5 4.5q35 10 64 41q26 28 30 76q0 31 -11 54l-14 20q-7 10 -17 20q-10 6 -21.5 12t-25.5 12q-12 5 -26.5 7t-26.5 2q-62 0 -100 -29q-38 -32 -43 -93h-86q4 51 20.5 89t49.5 65q61 54 162 54q21 0 43 -4t43 -11q21 -9 38.5 -20t33.5 -22
q32 -33 50 -69q18 -40 18 -86q-2 -52 -20 -91q-18 -43 -62 -73q23 -16 42 -34t35 -38q28 -47 28 -108q-1 -52 -19 -95q-24 -45 -54 -72q-36 -31 -80 -44q-23 -10 -47.5 -13.5t-51.5 -3.5q-26 0 -51 3.5t-48 12.5q-48 12 -82 43q-18 15 -32 33t-25 41q-21 42 -18 103h86z" />
    <glyph glyph-name="uni0418" unicode="&#x418;" horiz-adv-x="1045" 
d="M235 -29v747h85v-594l196 298q24 36 48 73t47 74q24 38 49 75t49 74h85v-747h-86v595l-98 -151q-23 -37 -47 -74t-49 -72l-195 -298h-84z" />
    <glyph glyph-name="uni0419" unicode="&#x419;" horiz-adv-x="1045" 
d="M228 -27v758h99v-578q46 72 93 143.5t97 145.5q45 74 92 145t97 144h95v-758h-99v580q-48 -72 -95.5 -144.5t-93.5 -145.5q-49 -73 -96.5 -145.5t-93.5 -144.5h-95zM703 879q-5 -17 -12 -34t-17 -33q-11 -16 -21 -29t-23 -24q-13 -12 -26.5 -20.5t-27.5 -14.5
q-16 -8 -31.5 -10.5t-30.5 -2.5q-35 0 -61 13q-31 12 -53 35q-14 11 -25 24t-19 29q-21 30 -31 67h84q17 -37 44 -60q12 -14 27 -20t34 -6q15 0 33 7q8 3 14.5 8t15.5 11q6 6 11.5 12.5t12.5 14.5q5 8 8.5 16t8.5 17h85z" />
    <glyph glyph-name="uni041A" unicode="&#x41a;" horiz-adv-x="1045" 
d="M313 -30h-87v746h87v-367l358 367h110l-280 -311l353 -435h-110l-307 373l-124 -110v-263z" />
    <glyph glyph-name="uni041B" unicode="&#x41b;" horiz-adv-x="1045" 
d="M403 655v-486q0 -44 -5 -80q-4 -19 -10 -35.5t-14 -30.5q-10 -14 -23 -24.5t-28 -18.5q-17 -9 -37.5 -14.5t-47.5 -5.5v90q12 0 21 2t17 6q8 2 13 6t11 10q3 6 6 12.5t6 15.5q0 8 1 17t2 21v595h476v-764h-88v684h-300z" />
    <glyph glyph-name="uni041C" unicode="&#x41c;" horiz-adv-x="1045" 
d="M762 -30v533l-204 -533h-86l-204 533v-533h-88v746h96l240 -617l238 617h96v-746h-88z" />
    <glyph glyph-name="uni041D" unicode="&#x41d;" horiz-adv-x="1045" 
d="M709 322h-388v-352h-85v746h85v-315h388v315h87v-746h-87v352z" />
    <glyph glyph-name="uni041E" unicode="&#x41e;" horiz-adv-x="1045" 
d="M510 738q41 0 76 -9t67 -25q57 -32 99 -87q19 -28 34 -59t25 -65q9 -37 15 -73t6 -75t-5.5 -75t-14.5 -70q-21 -70 -60 -126q-21 -27 -45.5 -49t-53.5 -37q-32 -18 -67 -26t-76 -8q-42 0 -76.5 7.5t-66.5 25.5q-60 32 -99 86q-42 54 -58 126q-12 34 -16.5 70.5t-4.5 75.5
t4.5 75.5t16.5 73.5q8 34 23 65t36 60q20 26 45 47t55 39q31 16 65.5 24.5t75.5 8.5zM510 652q-30 0 -56 -7t-47 -19q-48 -31 -72 -70q-29 -43 -42 -98q-8 -28 -11 -56.5t-3 -56.5q0 -29 3 -55.5t11 -52.5q12 -56 43 -99q13 -23 31 -40t40 -31q21 -15 47 -20.5t56 -5.5
q59 0 104 26q42 25 72 72q14 20 24 45t18 54q14 54 14 107q0 54 -14 112q-8 27 -18 50.5t-24 47.5q-15 21 -33.5 38.5t-39.5 31.5q-22 12 -47.5 19.5t-55.5 7.5z" />
    <glyph glyph-name="uni041F" unicode="&#x41f;" horiz-adv-x="1045" 
d="M326 655v-684h-87v764h552v-764h-87v684h-378z" />
    <glyph glyph-name="uni0420" unicode="&#x420;" horiz-adv-x="1045" 
d="M244 716h304q26 0 50 -4t50 -11q41 -18 78 -48q17 -16 29.5 -34t23.5 -38q9 -24 14 -48t5 -51q0 -28 -5.5 -51.5t-14.5 -42.5q-12 -21 -25.5 -39t-30.5 -32q-17 -15 -37 -26t-41 -19q-24 -8 -48 -11.5t-48 -3.5h-215v-287h-89v746zM333 338h216q14 0 30 1.5t31 7.5
q15 4 28 11t23 16q11 9 19.5 19.5t16.5 25.5q11 26 11 63q0 38 -11.5 66t-33.5 47q-45 37 -114 40h-216v-297z" />
    <glyph glyph-name="uni0421" unicode="&#x421;" horiz-adv-x="1045" 
d="M832 218q-10 -29 -19 -55t-22 -50q-15 -24 -30 -45t-34 -38q-42 -36 -88 -54q-27 -12 -55 -16.5t-62 -4.5q-41 0 -76 8.5t-66 25.5q-59 30 -99 87q-40 54 -61 125q-10 35 -14.5 70.5t-4.5 75.5q0 38 4.5 75t14.5 72q11 35 25.5 66t34.5 60q20 26 45.5 47t54.5 39
q31 16 66 24.5t76 8.5q31 0 59 -5.5t55 -14.5q23 -12 46 -25t43 -32q20 -18 35.5 -38.5t30.5 -43.5q13 -25 23 -51l20 -52h-91q-8 18 -16 34t-17 33q-10 16 -22 30.5t-26 26.5q-13 12 -28.5 21.5t-32.5 16.5q-18 6 -38 10t-41 4q-29 0 -55.5 -7.5t-47.5 -19.5
q-21 -14 -39.5 -31.5t-31.5 -38.5q-30 -45 -41 -98q-8 -28 -11.5 -56t-3.5 -55q0 -57 14 -110q10 -58 41 -99q13 -23 30.5 -40t40.5 -30q21 -15 47.5 -20.5t56.5 -5.5q21 0 41 2t38 10q15 7 31 17.5t29 21.5q14 13 25.5 26.5t20.5 29.5t16.5 33.5t14.5 35.5h94z" />
    <glyph glyph-name="uni0422" unicode="&#x422;" horiz-adv-x="1045" 
d="M470 645h-241v81h571v-81h-241v-674h-89v674z" />
    <glyph glyph-name="uni0423" unicode="&#x423;" horiz-adv-x="1045" 
d="M514 301l165 425h92l-254 -654l-10 -22l-10 -18q-5 -11 -11.5 -19t-13.5 -15q-8 -6 -15.5 -11t-16.5 -8q-11 -6 -23 -7t-24 -1h-47v80h53q9 0 19 12q4 4 7.5 10.5t5.5 13.5l36 93l-212 546h92z" />
    <glyph glyph-name="uni0424" unicode="&#x424;" horiz-adv-x="1045" 
d="M554 125q24 4 45.5 10.5t43.5 15.5q20 9 38 21.5t33 28.5q31 28 47 70q18 39 18 92q0 49 -18 94q-9 20 -20.5 38t-26.5 33q-15 14 -33 26t-38 21q-22 9 -43.5 14.5t-45.5 11.5v-476zM475 601q-24 -6 -46.5 -11.5t-42.5 -14.5q-21 -10 -38 -22t-34 -27
q-14 -14 -26.5 -32.5t-20.5 -36.5q-17 -41 -17 -94q0 -26 4.5 -50t12.5 -43q8 -22 20.5 -39t26.5 -31q31 -30 72 -48q20 -9 42.5 -16t46.5 -11v476zM475 42q-34 2 -65 9t-59 22q-30 13 -54.5 30t-44.5 39q-21 20 -37.5 44.5t-27.5 54.5q-24 54 -24 122q0 66 24 124
q11 27 27.5 52t37.5 46q20 21 44.5 37t54.5 31q58 27 124 31v70h79v-70q64 -4 123 -30q28 -15 53 -31t47 -37q42 -46 66 -99q11 -29 17 -59.5t6 -64.5q0 -66 -23 -122q-12 -31 -28.5 -55.5t-36.5 -44.5q-43 -46 -100 -70q-28 -15 -59.5 -21.5t-64.5 -7.5v-70h-79v70z" />
    <glyph glyph-name="uni0425" unicode="&#x425;" horiz-adv-x="1045" 
d="M513 281l-218 -311h-102l269 385l-252 361h102l200 -290l204 290h101l-255 -361l272 -385h-102z" />
    <glyph glyph-name="uni0426" unicode="&#x426;" horiz-adv-x="1045" 
d="M336 49h363v667h87v-668h70v-189h-88v110h-520v747h88v-667z" />
    <glyph glyph-name="uni0427" unicode="&#x427;" horiz-adv-x="1045" 
d="M807 -29h-88v303q-43 -40 -99 -61q-61 -23 -123 -19q-43 0 -88 17q-49 15 -89 45q-43 28 -66 73q-28 38 -28 99v307h87v-272q0 -50 18 -80q13 -36 44 -55q13 -13 29 -20.5t34 -12.5q19 -5 37.5 -8t37.5 -3q31 -5 69 9q37 13 67 38q14 9 25.5 23t24.5 30q8 15 13.5 30.5
t6.5 33.5v287h88v-764z" />
    <glyph glyph-name="uni0428" unicode="&#x428;" horiz-adv-x="1045" 
d="M761 50v685h88v-764h-670v764h88v-685h203v685h89v-685h202z" />
    <glyph glyph-name="uni0429" unicode="&#x429;" horiz-adv-x="1045" 
d="M181 -31v764h89v-684h202v684h89v-684h203v684h88v-684h71v-200h-88v120h-654z" />
    <glyph glyph-name="uni042A" unicode="&#x42a;" horiz-adv-x="1045" 
d="M421 368v-318h207q32 -4 63 13q28 12 52 36q9 11 17.5 23.5t16.5 27.5q12 31 12 59q0 16 -3.5 30.5t-8.5 30.5q-8 15 -16.5 27t-17.5 25q-13 11 -25 19.5t-27 16.5q-31 10 -63 10h-207zM334 655h-194v80h281v-286h207q26 0 51 -5t48 -13q22 -8 42 -20.5t38 -27.5
q15 -18 29 -37t23 -41q10 -23 15 -46.5t5 -49.5q0 -27 -5 -51t-15 -45q-9 -24 -23 -42.5t-29 -32.5q-18 -17 -38 -29.5t-42 -19.5q-49 -18 -99 -18h-294v684z" />
    <glyph glyph-name="uni042B" unicode="&#x42b;" horiz-adv-x="1045" 
d="M249 50h228q33 0 58.5 9t47.5 30q39 38 39 103q0 13 -2.5 27t-9.5 25q-5 13 -13 22.5t-17 19.5q-13 8 -23.5 14t-23.5 13q-29 8 -54 8h-230v-271zM249 400h220q22 0 44 -4t46 -11q22 -9 42 -19.5t39 -26.5q17 -14 31 -31.5t26 -38.5q9 -23 12.5 -46.5t0.5 -48.5
q-5 -45 -23 -82q-10 -18 -22 -34t-29 -30q-18 -14 -37 -24.5t-41 -16.5q-24 -10 -50 -13t-53 -3h-293v747h87v-318zM760 718h88v-747h-88v747z" />
    <glyph glyph-name="uni042C" unicode="&#x42c;" horiz-adv-x="1045" 
d="M336 50h227q34 0 60.5 9t46.5 30q39 37 39 103q0 29 -10 52q-7 12 -14.5 21.5t-17.5 19.5q-12 7 -22.5 13t-23.5 13q-13 4 -26.5 6.5t-27.5 3.5h-231v-271zM336 400h222q24 0 47 -4t48 -9q20 -9 39.5 -19.5t36.5 -24.5t29 -31.5t22 -38.5q18 -41 18 -98q0 -25 -4.5 -45
t-13.5 -38q-19 -39 -52 -64q-18 -14 -37.5 -24.5t-42.5 -16.5q-26 -10 -53 -13t-55 -3h-292v747h88v-318z" />
    <glyph glyph-name="uni042D" unicode="&#x42d;" horiz-adv-x="1045" 
d="M369 304v84h379q-2 51 -18 101q-8 24 -19 45.5t-24 39.5q-15 17 -32.5 31.5t-37.5 27.5q-21 9 -45.5 14.5t-52.5 5.5q-18 0 -34.5 -2t-31.5 -7q-18 -6 -33 -11.5t-27 -13.5q-30 -19 -48 -46q-23 -28 -30 -63h-95q39 111 112 172q35 29 82 44t104 15q41 0 76.5 -8
t64.5 -24q59 -34 100 -88q19 -29 34 -60t24 -67q10 -35 15 -72t5 -75q0 -40 -5 -75.5t-15 -70.5q-9 -37 -24 -68t-34 -57q-20 -29 -44.5 -51t-54.5 -37q-29 -18 -65 -26t-76 -8q-58 0 -106 14.5t-87 44.5q-80 54 -115 169h98q18 -70 78 -104q53 -36 131 -36q27 0 50 4t44 17
q19 10 36.5 25.5t33.5 33.5q13 19 24.5 39.5t20.5 45.5q8 24 13.5 47.5t7.5 49.5h-379z" />
    <glyph glyph-name="uni042E" unicode="&#x42e;" horiz-adv-x="1045" 
d="M599 650q-30 0 -53 -8t-41 -21q-21 -15 -36 -33.5t-27 -39.5q-12 -23 -21 -47.5t-13 -50.5q-6 -28 -8 -55t-2 -53t2 -52.5t8 -52.5q4 -28 13 -53.5t21 -45.5q12 -24 27 -42t36 -32q18 -15 41 -20.5t53 -5.5q55 0 94 28q37 25 62 74q13 20 21 45t15 54q11 52 11 103
q0 26 -3 53.5t-8 54.5q-6 26 -14.5 51t-20.5 48q-24 40 -62 72q-20 13 -44.5 21t-50.5 8zM230 384h78q0 64 22 129q18 62 55 112q18 24 41 43.5t49 35.5q52 30 124 30q38 0 71 -9t61 -24q55 -38 90 -90q35 -60 53 -127q7 -37 11.5 -71.5t4.5 -70.5t-4.5 -70t-11.5 -70
q-18 -70 -53 -124q-35 -59 -90 -91q-28 -18 -61 -27t-71 -9q-73 0 -125 31q-52 29 -89 79q-18 24 -32.5 52.5t-22.5 60.5q-11 30 -16 63t-6 66h-78v-333h-86v746h86v-332z" />
    <glyph glyph-name="uni042F" unicode="&#x42f;" horiz-adv-x="1045" 
d="M358 284q-38 8 -60 30q-15 9 -25.5 20.5t-21.5 26.5q-10 13 -17.5 28t-12.5 34q-5 14 -7 33t-2 37q0 48 19 91q10 21 22 38.5t29 33.5q30 28 79 47q20 8 44.5 11.5t51.5 3.5h309v-746h-88v296h-229l-195 -296h-101zM678 347v289h-217q-18 -2 -33.5 -3.5t-27.5 -5.5
q-17 -5 -29 -10.5t-22 -14.5q-13 -10 -20.5 -21t-13.5 -23q-11 -30 -11 -65q0 -38 12 -62q13 -28 34 -46q10 -9 22 -16t28 -10q12 -7 27.5 -9.5t33.5 -2.5h217z" />
    <glyph glyph-name="uni0430" unicode="&#x430;" horiz-adv-x="1045" 
d="M756 57q0 -7 2 -12q0 -15 5 -30q1 -9 3 -14.5t3 -12.5q0 -6 2 -12q1 -7 3 -8h-86q-6 13 -10 27t-7 29q-20 -15 -41.5 -28t-45.5 -23q-53 -23 -99 -24q-37 -4 -74 5q-18 3 -35 10.5t-33 16.5q-32 17 -51 47q-22 28 -22 69q-3 28 1 52t18 42q10 18 25 32t34 25q37 22 83 33
q22 4 44.5 8t46.5 8q4 0 9 0.5t10 1.5q6 0 12 1l12 2q13 1 24.5 3.5t22.5 6.5q22 5 40 18q5 5 10 11t5 17q0 22 -13 44q-5 9 -14 18.5t-18 14.5q-11 6 -21.5 11.5t-22.5 8.5q-27 7 -50 7q-29 0 -54 -7q-28 -10 -47 -24q-12 -8 -19 -18t-11 -23q-14 -28 -10 -58h-87
q-6 49 14 92q20 39 53 68q15 12 35 22.5t41 18.5q20 6 42 9.5t43 3.5q40 0 84 -12q21 -8 38.5 -17t35.5 -22q30 -24 52 -62q9 -18 13.5 -39t4.5 -45v-292zM667 243q-14 -4 -29.5 -8.5t-32.5 -7.5q-19 -4 -37.5 -7t-34.5 -4l-27 -5q-8 -1 -14.5 -1.5t-14.5 -0.5
q-15 -4 -30 -7.5t-27 -9.5q-15 -6 -25.5 -13.5t-18.5 -17.5q-18 -22 -18 -53q0 -41 38 -58q36 -20 94 -16q20 0 52 11q16 4 30 11t29 16q27 17 48 40q18 21 18 48v83z" />
    <glyph glyph-name="uni0431" unicode="&#x431;" horiz-adv-x="1045" 
d="M370 638q32 28 71 42.5t86 14.5q2 0 4 -0.5t6 -0.5h11q5 -1 9.5 -1.5t10.5 -0.5q6 -1 11 -1h11q4 -1 18 -1q12 0 22.5 2.5t21.5 9.5q7 3 15 14.5t14 30.5h87q-13 -49 -26 -75q-20 -33 -54 -50q-14 -8 -29 -12.5t-31 -7.5q-19 -3 -34 -4.5t-29 2.5l-26 2q-13 1 -26 1
q-26 -4 -51 -12q-11 -5 -22 -11.5t-20 -15.5q-11 -10 -18 -22.5t-14 -27.5q13 8 28 14.5t32 11.5q14 3 30.5 6t34.5 3q58 0 108 -25q22 -13 41.5 -29.5t37.5 -36.5q15 -21 26 -45.5t21 -50.5q7 -26 11 -54.5t4 -56.5t-4 -55t-11 -53q-10 -28 -21 -52t-26 -44
q-34 -41 -79 -66q-24 -13 -51 -19.5t-57 -6.5q-32 0 -59 6.5t-49 19.5q-25 13 -43.5 29.5t-33.5 37.5q-34 40 -48 95q-9 26 -12 53t-3 55v51q0 27 1 53q0 52 12 106q4 25 12.5 49t20.5 48q20 44 59 80zM513 464q-41 0 -70 -19q-16 -11 -28.5 -23t-22.5 -27q-23 -31 -30 -67
q-6 -22 -8.5 -40t-2.5 -37q0 -20 2 -38t8 -36q4 -22 11.5 -37.5t18.5 -30.5q18 -31 51 -50q29 -18 71 -18q40 0 72 18q15 9 26.5 22t22.5 29q11 15 18 30.5t14 37.5q4 18 7.5 37t3.5 36q0 19 -3.5 37t-7.5 40q-12 35 -32 69q-11 15 -22.5 26.5t-26.5 21.5q-32 19 -72 19z
" />
    <glyph glyph-name="uni0432" unicode="&#x432;" horiz-adv-x="1045" 
d="M300 -31v570h218q16 0 31 -2.5t32 -6.5q15 -6 29 -12.5t27 -16.5q13 -8 22.5 -19t18.5 -23q17 -28 21 -58q7 -80 -54 -133q35 -21 56 -56q19 -35 19 -82q-4 -38 -17 -66q-19 -31 -43 -50q-13 -12 -28.5 -19.5t-30.5 -13.5q-18 -7 -37.5 -9.5t-37.5 -2.5h-226zM386 304
h116q10 -1 20 -0.5t21 4.5q19 1 36 14q14 10 25 23q8 15 8 34q0 37 -29 60q-17 10 -37 15t-44 5h-116v-155zM386 49h116q27 0 50.5 4.5t41.5 16.5q18 10 27 27t10 41q0 18 -10 36q-6 6 -12.5 13.5t-16.5 13.5q-18 10 -41 18q-13 3 -24 3.5t-22 0.5h-119v-174z" />
    <glyph glyph-name="uni0433" unicode="&#x433;" horiz-adv-x="1045" 
d="M316 539h396v-80h-309v-490h-87v570z" />
    <glyph glyph-name="uni0434" unicode="&#x434;" horiz-adv-x="1045" 
d="M333 201q9 23 15.5 48.5t12.5 54.5q4 29 6.5 58t6.5 60q1 29 2.5 58.5t2.5 59.5v113h323v-452h53v-230h-88v149h-304v-149h-89v230h59zM616 201v372h-151q0 -11 -0.5 -22t-0.5 -23v-45q-2 -24 -2.5 -48.5t-1.5 -47.5l-12 -96q-6 -23 -11.5 -46t-11.5 -44h191z" />
    <glyph glyph-name="uni0435" unicode="&#x435;" horiz-adv-x="1045" 
d="M514 557q30 0 58.5 -7.5t54.5 -20.5q48 -31 82 -74q34 -49 48 -102q8 -29 10 -57.5t0 -57.5h-416q-2 -40 12 -71q5 -19 13.5 -35t22.5 -28q9 -15 22 -25.5t29 -18.5q29 -17 64 -17q30 0 54.5 7t42.5 26q19 15 31 35.5t20 43.5h95q-9 -22 -18.5 -42.5t-19.5 -38.5
q-13 -19 -24.5 -35t-26.5 -28q-31 -26 -67 -39q-21 -9 -41.5 -12t-45.5 -2q-65 0 -108 29q-48 23 -79 65q-35 41 -49 95q-9 28 -12 55t-3 56q0 28 3.5 55.5t12.5 55.5q15 55 49 95q15 22 35 38t44 30q44 25 107 25zM674 315q-3 17 -8.5 31.5t-11.5 30.5q-7 12 -15.5 24.5
t-17.5 26.5q-12 9 -23.5 17t-25.5 16q-27 12 -58 12q-34 0 -57 -12q-29 -14 -49 -33q-11 -14 -19.5 -26.5t-14.5 -24.5q-16 -31 -17 -62h317z" />
    <glyph glyph-name="uni0436" unicode="&#x436;" horiz-adv-x="1045" 
d="M470 -32v190q-16 18 -27 32l-13 13q-4 5 -7.5 8.5t-6.5 9.5q-23 -32 -48 -63.5t-49 -63.5q-24 -33 -48.5 -65t-49.5 -61h-106l245 316q-13 14 -27 29.5t-26 31.5q-16 16 -29.5 32.5t-27.5 33.5q-15 17 -29.5 32.5t-27.5 33.5q-16 16 -28 31l-24 30h111l218 -247v247h89
v-249l109 124q27 30 54 61t56 64h110l-218 -254q29 -41 60 -77q16 -21 31 -41.5t32 -38.5q16 -21 31.5 -42t31.5 -40q30 -42 60 -77h-109l-195 253l-26 -31l-15 -16l-12 -16v-190h-89z" />
    <glyph glyph-name="uni0437" unicode="&#x437;" horiz-adv-x="1045" 
d="M400 171q0 -30 7 -53.5t23 -39.5q26 -36 87 -36q24 0 43 5t34 20q14 13 21.5 30t10.5 42q0 9 -2.5 19.5t-5.5 19.5l-12 14q-6 7 -14 12t-17.5 10t-17.5 8q-24 6 -47 6h-53l1 87h48q18 0 36 4.5t34 15.5q27 16 32 65q0 36 -24 61q-30 23 -71 23q-48 0 -68 -27
q-26 -29 -26 -78h-85q0 82 48 137q49 50 135 50q35 0 68 -11q15 -8 29 -16.5t27 -17.5q23 -25 39 -53q13 -33 13 -68q-2 -23 -5 -42.5t-9 -31.5q-7 -14 -17.5 -26t-27.5 -26q19 -11 32.5 -25.5t25.5 -30.5q20 -37 20 -81q-2 -43 -15 -76q-19 -35 -43 -58q-28 -21 -63 -34
q-33 -13 -77 -13q-23 0 -43 3.5t-39 13.5q-37 14 -65 42q-31 27 -42 68q-10 19 -12 41t-1 47h88z" />
    <glyph glyph-name="uni0438" unicode="&#x438;" horiz-adv-x="1045" 
d="M380 -31h-78v570h86v-402l261 402h78v-570h-86v402z" />
    <glyph glyph-name="uni0439" unicode="&#x439;" horiz-adv-x="1045" 
d="M694 685q-6 -17 -12.5 -33.5t-17.5 -30.5q-9 -15 -19 -27.5t-22 -23.5q-12 -12 -24.5 -19.5t-26.5 -14.5q-14 -5 -28.5 -8t-29.5 -3q-31 0 -57 11q-16 7 -28.5 14.5t-23.5 19.5q-12 11 -22 23.5t-19 27.5q-9 14 -17.5 30.5t-11.5 33.5h79q7 -17 17.5 -31t25.5 -25
q22 -25 57 -25q31 0 59 26q24 22 40 55h81zM380 -30h-78v570h86v-402l261 402h78v-570h-86v403z" />
    <glyph glyph-name="uni043A" unicode="&#x43a;" horiz-adv-x="1045" 
d="M389 141v-172h-88v570h88v-279l264 279h108l-244 -263l269 -307h-109l-221 241z" />
    <glyph glyph-name="uni043B" unicode="&#x43b;" horiz-adv-x="1045" 
d="M442 459v-342q0 -38 -6 -65q-5 -14 -10.5 -26t-13.5 -23q-17 -21 -44 -30q-14 -5 -32 -8.5t-38 -3.5v83q33 0 44 17q11 11 14 43v435h355v-570h-88v490h-181z" />
    <glyph glyph-name="uni043C" unicode="&#x43c;" horiz-adv-x="1045" 
d="M685 539h76v-570h-84v316l-136 -316h-53l-136 316v-316h-85v570h76l171 -420z" />
    <glyph glyph-name="uni043D" unicode="&#x43d;" horiz-adv-x="1045" 
d="M636 227h-243v-259h-87v570h87v-231h243v231h86v-570h-86v259z" />
    <glyph glyph-name="uni043E" unicode="&#x43e;" horiz-adv-x="1045" 
d="M513 555q30 0 57.5 -6.5t50.5 -18.5q25 -14 44 -30.5t36 -37.5q31 -44 48 -96q7 -27 12 -55t5 -55q0 -29 -5 -55.5t-12 -54.5q-17 -52 -48 -96q-17 -21 -36 -37.5t-44 -29.5q-23 -15 -50.5 -21t-57.5 -6q-32 0 -58.5 6t-50.5 21q-46 23 -78 67q-35 39 -49 95
q-9 28 -12 55t-3 56q0 28 3 55.5t12 55.5q14 56 49 96q31 41 78 67q24 12 50.5 18.5t58.5 6.5zM513 471q-20 0 -37.5 -5t-33.5 -14q-16 -12 -29 -24t-22 -28q-11 -15 -18.5 -33t-11.5 -35q-6 -22 -8.5 -40t-2.5 -36q0 -20 2 -39t8 -38q4 -21 12 -37t19 -32q9 -16 22 -28.5
t29 -21.5q29 -18 71 -18q19 0 37 4t35 15q15 9 27 21.5t24 28.5q10 16 17 31.5t14 36.5q4 19 7 38t3 39q0 18 -3 36.5t-7 40.5q-13 36 -31 68q-12 16 -24 28t-27 23q-17 9 -35 14t-37 5z" />
    <glyph glyph-name="uni043F" unicode="&#x43f;" horiz-adv-x="1045" 
d="M391 459v-490h-87v570h419v-570h-86v490h-246z" />
    <glyph glyph-name="uni0440" unicode="&#x440;" horiz-adv-x="1045" 
d="M523 -31q-24 0 -46.5 4t-44.5 16q-20 8 -38.5 21t-33.5 30v-180h-88v689h88v-55q15 16 33.5 28.5t38.5 23.5q43 20 91 20q31 0 57.5 -6.5t49.5 -18.5q22 -15 40 -31t34 -37q28 -42 44 -96q7 -28 10.5 -56t3.5 -53q0 -27 -3.5 -54.5t-10.5 -54.5q-17 -53 -45 -95
q-30 -45 -74 -69q-23 -14 -49 -20t-57 -6zM517 484q-22 0 -38.5 -5.5t-29.5 -15.5q-17 -11 -29 -22.5t-20 -28.5q-12 -17 -19 -34t-12 -37q-6 -20 -7.5 -37.5t-1.5 -35.5q0 -21 1.5 -40t6.5 -36q5 -21 12 -37.5t18 -32.5q17 -32 49 -50q14 -11 31 -16t39 -5q18 0 36 5t34 16
q15 10 26 22.5t23 27.5q10 16 16 32.5t11 37.5q5 17 7.5 36t2.5 40q0 18 -2.5 35.5t-7.5 37.5q-6 20 -12 37t-17 34q-22 30 -48 51q-16 10 -33.5 15.5t-35.5 5.5z" />
    <glyph glyph-name="uni0441" unicode="&#x441;" horiz-adv-x="1045" 
d="M768 163q-15 -49 -36 -85.5t-50 -64.5q-29 -29 -69 -43t-89 -14q-31 0 -58 6.5t-51 19.5q-48 24 -79 67q-34 41 -48 96q-10 28 -13.5 55t-3.5 56q0 28 3.5 55.5t13.5 55.5q14 56 48 96q29 40 79 67q24 12 51 18.5t58 6.5q44 0 87 -17q20 -10 37.5 -21t35.5 -25
q29 -30 53 -68q10 -22 16.5 -42.5t12.5 -43.5h-91q-5 13 -10.5 26.5t-10.5 25.5q-14 25 -32 42q-10 9 -20 15.5t-22 13.5q-14 3 -27 6.5t-29 3.5q-41 0 -72 -19q-16 -10 -29 -21.5t-22 -27.5q-23 -33 -32 -68q-6 -21 -8 -41t-2 -38q0 -20 2 -39.5t7 -38.5q5 -21 13 -37
t19 -31q9 -16 22 -28.5t29 -21.5q30 -18 73 -18q28 0 51 7.5t44 26.5q18 15 32 38t24 49h93z" />
    <glyph glyph-name="uni0442" unicode="&#x442;" horiz-adv-x="1045" 
d="M470 459h-178v80h446v-80h-179v-490h-89v490z" />
    <glyph glyph-name="uni0443" unicode="&#x443;" horiz-adv-x="1045" 
d="M516 179l166 420h94l-257 -647l-18 -36q-6 -11 -12 -18t-13 -14q-8 -7 -16 -12.5t-18 -9.5q-23 -9 -46 -9h-48v79h53q5 0 9 3t10 9q4 5 6.5 10.5t4.5 14.5q3 6 5 11.5t5 11.5q3 5 5 11.5t4 13.5q5 10 8.5 21.5t9.5 24.5l-212 536h94z" />
    <glyph glyph-name="uni0444" unicode="&#x444;" horiz-adv-x="1045" 
d="M334 546q-39 0 -65 -18q-14 -11 -24.5 -22.5t-19.5 -27.5q-18 -32 -25 -67q-5 -18 -6.5 -36.5t-1.5 -35.5t1.5 -34t6.5 -35q4 -20 9.5 -36t14.5 -31t19.5 -27t24.5 -22q25 -18 66 -18q35 0 64 18q24 22 41 49q8 15 14 31t9 36q3 18 5 35t2 34q0 33 -7 72q-3 19 -9 35
t-14 32q-9 16 -19.5 27.5t-21.5 22.5q-31 18 -64 18zM696 546q-39 0 -65 -18q-14 -11 -24 -22.5t-17 -27.5q-18 -29 -24 -67q-4 -18 -5.5 -36.5t-1.5 -35.5t1.5 -34t5.5 -35q6 -39 24 -67q14 -29 41 -49q24 -18 65 -18q37 0 64 18q26 20 44 49q9 15 14.5 31t11.5 36
q3 18 5.5 35t2.5 34t-2.5 35.5t-5.5 36.5q-6 19 -11.5 35t-14.5 32t-20 27.5t-24 22.5q-29 18 -64 18zM470 830h89v-264q23 25 60 45q15 7 35.5 11t41.5 4q26 0 51.5 -6.5t46.5 -18.5q20 -14 37.5 -30.5t32.5 -35.5q13 -21 24.5 -44.5t17.5 -48.5q6 -26 10.5 -51.5
t4.5 -51.5q0 -25 -4.5 -50t-10.5 -49q-6 -28 -17.5 -50.5t-24.5 -43.5q-29 -42 -71 -65q-21 -16 -46 -22t-51 -6q-21 0 -40.5 4t-34.5 13q-18 8 -34 19t-28 25v-252h-89v248q-29 -28 -63 -41q-35 -16 -73 -16q-27 0 -50.5 6.5t-44.5 22.5q-41 25 -72 68q-15 22 -26.5 44.5
t-17.5 48.5q-8 26 -11.5 49.5t-3.5 46.5q0 28 3.5 54t12.5 52q14 50 44 91q14 20 32 36.5t40 29.5q38 24 94 24q19 0 37.5 -3.5t36.5 -10.5q16 -10 31.5 -20t30.5 -23v261z" />
    <glyph glyph-name="uni0445" unicode="&#x445;" horiz-adv-x="1045" 
d="M514 183l-160 -214h-107l214 287l-204 273h106l151 -203l152 203h106l-206 -275l216 -285h-108z" />
    <glyph glyph-name="uni0446" unicode="&#x446;" horiz-adv-x="1045" 
d="M400 47h236v491h86v-492h64v-169h-89v89h-387v572h90v-491z" />
    <glyph glyph-name="uni0447" unicode="&#x447;" horiz-adv-x="1045" 
d="M738 -31h-88v198q-17 -13 -34.5 -22t-35.5 -16q-21 -9 -44 -12.5t-47 -2.5q-19 0 -37.5 4.5t-33.5 13.5q-18 6 -34 15t-26 25q-31 25 -45 61q-8 17 -12 37t-4 40v229h88v-210q0 -19 2 -34.5t9 -26.5q4 -14 10.5 -23.5t16.5 -17.5q9 -8 20 -13t23 -9t26 -5t29 -1
q10 0 21 1.5t21 8.5q22 6 44 26q8 6 15.5 14.5t13.5 20.5q13 20 14 40v229h88v-570z" />
    <glyph glyph-name="uni0448" unicode="&#x448;" horiz-adv-x="1045" 
d="M677 48v490h87v-570h-499v570h86v-490h118v490h90v-490h118z" />
    <glyph glyph-name="uni0449" unicode="&#x449;" horiz-adv-x="1045" 
d="M290 -34v570h87v-489h119v489h88v-489h119v489h88v-489h52v-168h-88v87h-465z" />
    <glyph glyph-name="uni044A" unicode="&#x44a;" horiz-adv-x="1045" 
d="M449 49h129q25 0 51 7q25 5 42 18q9 7 16 14t13 20q5 8 7.5 21.5t2.5 27.5q0 16 -2.5 27t-7.5 23q-7 9 -14 17.5t-16 16.5q-11 5 -21 9t-21 8q-13 3 -25.5 4.5t-23.5 2.5h-130v-216zM360 -31v490h-141v80h230v-195h134q22 0 44 -3t42 -10q18 -10 35.5 -20.5t33.5 -22.5
q14 -16 24.5 -31.5t19.5 -33.5q15 -40 15 -80q-3 -22 -7 -39t-13 -33q-19 -32 -48 -54q-15 -14 -31 -21.5t-35 -13.5q-17 -8 -36 -10.5t-37 -2.5h-230z" />
    <glyph glyph-name="uni044B" unicode="&#x44b;" horiz-adv-x="1045" 
d="M307 539v-195h120q22 0 44 -3t42 -10q38 -18 69 -43q14 -16 24.5 -31.5t20.5 -33.5q14 -38 14 -80q-2 -22 -6.5 -39t-13.5 -33q-10 -18 -22 -31t-25 -23q-15 -14 -31 -21.5t-33 -13.5q-18 -8 -37 -10.5t-38 -2.5h-215v570h87zM700 539h86v-570h-86v570zM307 49h115
q15 0 29 1.5t27 7.5q14 3 23 9t18 15q7 6 14 14.5t11 19.5q5 10 7.5 19.5t2.5 21.5q0 23 -12 45q-6 9 -12.5 18t-16.5 18l-42 21q-22 6 -48 6h-116v-216z" />
    <glyph glyph-name="uni044C" unicode="&#x44c;" horiz-adv-x="1045" 
d="M388 49h135q31 0 55 7.5t42 25.5q33 30 33 75q0 13 -2.5 24t-7.5 21q-7 9 -13.5 17t-16.5 18q-18 9 -41 21q-12 3 -23.5 5t-24.5 2h-136v-216zM388 539v-195h140q25 0 46.5 -3t42.5 -9q38 -18 69 -42q14 -15 24.5 -30.5t18.5 -33.5q8 -19 11 -40.5t3 -42.5q-2 -22 -7 -40
t-14 -34q-8 -18 -20 -31t-25 -24q-27 -22 -66 -33q-18 -7 -37 -9.5t-38 -2.5h-236v570h88z" />
    <glyph glyph-name="uni044D" unicode="&#x44d;" horiz-adv-x="1045" 
d="M475 221v80h197q-3 18 -7.5 35t-8.5 34q-5 16 -14 30t-19 30q-21 22 -47 39q-32 15 -67 15q-29 0 -51 -11q-13 -7 -24 -14t-22 -16q-22 -17 -35 -42q-9 -13 -14 -26l-10 -26h-91q5 24 15 46t23 42q12 19 24 36t32 32q14 14 31 25t39 20q18 7 38 11t44 4q31 0 59 -6.5
t52 -18.5q24 -14 42.5 -30.5t37.5 -37.5q15 -21 26.5 -46t21.5 -52q7 -28 11 -56t4 -57q0 -30 -4 -58t-11 -56q-20 -56 -48 -97q-19 -21 -37.5 -37.5t-42.5 -29.5q-24 -15 -52 -21t-59 -6q-46 0 -84 14.5t-68 44.5q-65 54 -93 158h98q3 -17 7 -29.5t12 -24.5q7 -12 15 -22
t17 -17q21 -20 45 -27q21 -8 50 -8q18 0 35 2.5t32 11.5q15 6 26.5 15.5t22.5 21.5q10 12 19 25t14 30q4 16 8 33t7 37h-196z" />
    <glyph glyph-name="uni044E" unicode="&#x44e;" horiz-adv-x="1045" 
d="M603 468q-21 0 -38.5 -5t-33.5 -14q-15 -12 -28 -23.5t-23 -26.5q-22 -32 -31 -69q-6 -22 -8.5 -40.5t-2.5 -37.5t2.5 -39t8.5 -37q5 -21 12.5 -37t18.5 -31q10 -16 23 -29t28 -22q28 -18 72 -18q18 0 36 3.5t35 15.5q15 9 27.5 22t23.5 29q10 15 17.5 30.5t13.5 37.5
q4 18 7.5 37t3.5 38t-3.5 37.5t-7.5 40.5q-11 37 -31 69q-23 31 -51 50q-17 9 -35 14t-36 5zM286 299h66q3 25 8.5 49t15.5 49q9 21 21.5 41.5t29.5 38.5q16 16 34 30t42 25q21 9 46.5 14.5t53.5 5.5q58 0 108 -26q24 -13 43 -29.5t37 -37.5q30 -44 48 -96q7 -26 11 -54.5
t4 -56.5t-4 -55t-11 -54q-18 -52 -48 -96q-18 -21 -37 -37.5t-43 -29.5q-24 -15 -51.5 -21t-56.5 -6q-28 0 -53.5 5t-46.5 18q-24 11 -42 25.5t-34 32.5q-33 36 -52 85q-20 47 -24 99h-65v-249h-88v570h88v-240z" />
    <glyph glyph-name="uni044F" unicode="&#x44f;" horiz-adv-x="1045" 
d="M396 205q-52 21 -78 64q-14 18 -21 42.5t-7 53.5q0 38 16 72q7 15 17 28.5t24 26.5q12 9 27.5 19t33.5 15q31 11 73 13h219v-570h-88v222h-130l-142 -222h-98zM612 270v189h-110q-31 0 -53.5 -6t-38.5 -16q-17 -12 -24.5 -30.5t-7.5 -42.5q0 -16 1.5 -26t8.5 -19
q4 -9 10.5 -17t16.5 -11q15 -14 40 -15q17 -6 47 -6h110z" />
    <glyph glyph-name="uni0451" unicode="&#x451;" horiz-adv-x="1045" 
d="M514 566q30 0 58.5 -6.5t54.5 -19.5q48 -28 83 -72q15 -25 28 -51t22 -56q14 -58 12 -126h-414q0 -18 2 -34.5t7 -31.5q12 -35 33 -59q18 -27 50 -42q14 -9 29.5 -13t34.5 -4q29 0 53 8t42 26q35 32 50 81h104q-8 -24 -17 -46t-20 -39q-12 -22 -25 -39t-28 -29
q-29 -27 -69 -42q-21 -9 -43 -12.5t-47 -2.5q-31 0 -58 6.5t-51 21.5q-47 23 -82 68q-17 22 -29 46t-22 52q-7 28 -11 55.5t-4 56.5q0 28 4 56t11 56q10 27 22 52t29 47q15 21 36 37t45 31q24 12 51 18.5t59 6.5zM668 326l-8 28q-4 14 -9 30q-8 12 -16.5 23t-17.5 23l-22 16
q-11 8 -25 15q-13 5 -27 8t-29 3q-29 0 -53 -11q-15 -7 -26.5 -15.5t-22.5 -15.5q-22 -25 -33 -47q-17 -31 -18 -57h307zM607 706q23 0 43 -20q17 -19 17 -44q0 -14 -5 -24t-12 -20q-19 -18 -43 -18q-25 0 -45 18q-18 18 -18 44t18 44q21 20 45 20zM423 706q23 0 43 -20
q19 -19 19 -44q0 -14 -5 -24t-14 -20q-18 -18 -43 -18t-43 18q-9 10 -13 20t-4 24q0 25 17 44q19 20 43 20z" />
    <glyph glyph-name="uni2015" unicode="&#x2015;" horiz-adv-x="1045" 
d="M975 387v-82h-923v82h923z" />
    <glyph glyph-name="quoteleft" unicode="&#x2018;" horiz-adv-x="225" 
d="M152 765q-18 -10 -29 -26q-7 -10 -11 -17.5t-5 -13.5q14 2 26.5 -1t21.5 -9q20 -18 20 -47q0 -16 -5 -24.5t-13 -14.5q-8 -8 -18 -12.5t-24 -4.5q-24 -5 -44 19q-21 17 -21 62q0 36 24 75q13 20 31.5 36t46.5 31v-53z" />
    <glyph glyph-name="quoteright" unicode="&#x2019;" horiz-adv-x="226" 
d="M73 630q16 5 29 25q5 8 8.5 16t7.5 14q-31 -4 -49 11q-19 13 -19 48q0 27 17 38q7 7 17.5 10t23.5 6q22 0 45 -18q11 -11 17 -26t6 -35q0 -21 -7 -39.5t-19 -36.5q-12 -21 -32.5 -37.5t-44.5 -29.5v54z" />
    <glyph glyph-name="quotedblleft" unicode="&#x201c;" horiz-adv-x="371" 
d="M298 765q-17 -9 -28 -26q-7 -10 -11.5 -17.5t-5.5 -13.5q15 2 26.5 -1t22.5 -9q19 -18 19 -47q0 -16 -5 -24.5t-11 -14.5q-10 -8 -19.5 -12.5t-23.5 -4.5q-24 -5 -45 19q-12 9 -17 24.5t-5 37.5q0 37 25 75q14 20 32.5 36t45.5 31v-53zM151 765q-16 -10 -27 -26l-11 -18
q-4 -7 -5 -13q15 2 27 -1t21 -9q20 -18 20 -47q0 -16 -4.5 -24.5t-12.5 -14.5q-10 -8 -20 -12.5t-21 -4.5q-27 -5 -46 19q-22 17 -22 62q0 35 25 75q25 38 76 67v-53z" />
    <glyph glyph-name="quotedblright" unicode="&#x201d;" horiz-adv-x="372" 
d="M73 630q16 5 29 25q5 8 8 16t7 14q-31 -4 -48 11q-19 14 -19 48q0 26 17 38q7 7 18 10t23 6q22 0 46 -18q21 -24 21 -61q0 -39 -25 -76q-12 -21 -31.5 -37.5t-45.5 -29.5v54zM219 630q15 5 29 25q5 8 8 16t6 14q-29 -4 -47 11q-18 13 -18 48q0 27 15 38q8 7 18.5 10
t23.5 6q11 0 22 -4.5t24 -13.5q9 -11 15.5 -26t6.5 -35q0 -21 -7 -39.5t-18 -36.5q-15 -21 -34 -37.5t-44 -29.5v54z" />
    <glyph glyph-name="dagger" unicode="&#x2020;" horiz-adv-x="1045" 
d="M571 726q0 -10 -1 -18.5t-2 -16.5q-2 -9 -4 -17t-2 -17q-3 -13 -5 -25t-3 -25q14 3 30 5.5t32 8.5q29 5 65 3q51 -11 51 -58q0 -12 -3 -22t-9 -16q-14 -16 -36 -20q-20 -7 -31 -1q-10 0 -18 1t-15 4q-18 2 -32 9q-5 0 -9 0.5t-9 1.5l-13 3q0 -9 5 -25q0 -7 3.5 -13.5
t7.5 -12.5q8 -19 17 -24q3 -7 8.5 -10.5t10.5 -6.5q-11 -10 -17.5 -22.5t-12.5 -24.5q-7 -16 -12 -32t-6 -30q-4 -35 -4 -65q-3 -18 -3 -34v-59q-1 -11 -1 -23v-140q0 -12 1 -21q0 -11 -1 -19.5t-1 -14.5q-2 -16 -6 -28t-8 -18q-12 -16 -24 -16q-19 0 -25 16q-6 6 -9 18
t-3 28q-1 7 -1 20v223q0 7 -0.5 14.5t-0.5 17.5v37q-1 18 -2.5 35.5t-3.5 36.5q-6 29 -18 59q-15 26 -37 38q26 18 43 45q5 13 9.5 25.5t7.5 25.5q-17 -3 -32.5 -7t-30.5 -8q-17 -6 -33 -6.5t-35 3.5q-46 7 -46 58q0 52 49 58q16 2 32.5 1t31.5 -4q16 -6 32 -9t33 -6
q-4 9 -4 26q-1 2 -2 5t-1 6q-1 3 -2 6.5t-1 6.5q-4 13 -5 30q-2 8 -2.5 17.5t-0.5 19.5v13q0 7 2 15q0 8 1.5 15t5.5 14q3 7 7.5 12t11.5 11q10 9 29 9q17 0 29 -7q6 -5 10.5 -9.5t6.5 -11.5q2 -6 4.5 -13t4.5 -15q0 -8 1 -15.5t1 -14.5z" />
    <glyph glyph-name="daggerdbl" unicode="&#x2021;" horiz-adv-x="1045" 
d="M475 535q-5 0 -9 -1t-6 -2l-8 -2q-4 -1 -7 -1q-19 -7 -31 -8q-18 -5 -33 -5q-17 -4 -32 3q-48 7 -48 57q0 48 49 57q15 1 31 0.5t31 -3.5q14 -6 29 -8.5t31 -6.5l-2 16q-2 8 -2 18q-3 8 -4.5 15.5t-1.5 13.5q-2 8 -3.5 17t-1.5 21q-3 10 -2 19.5t4 19.5q3 26 18 41
q15 16 37 16q45 0 55 -57q6 -40 -6 -78q-4 -20 -4 -32q-4 -18 -4 -30q13 3 27.5 5.5t29.5 8.5q27 5 65 4q51 -12 51 -57q0 -50 -47 -57q-9 -3 -17 -3.5t-14 0.5q-19 0 -32 5q-20 2 -32 8q-5 0 -9.5 1t-8.5 2l-14 3v-50q13 2 27.5 5.5t29.5 7.5q15 3 31 4t35 -1q26 -4 39 -17
q6 -9 9 -18t3 -21q0 -50 -47 -57q-9 -4 -17 -4h-14q-10 0 -17.5 1t-14.5 4q-20 2 -32 9q-10 1 -18 3t-14 4q0 -24 16 -50q14 -25 28 -36q-18 -24 -27.5 -49t-11.5 -51q-4 -27 -5.5 -54t-1.5 -55v-161q0 -62 -38 -62q-17 0 -23 16q-14 14 -14 47v28q-1 8 -1 19v165
q-1 14 -3 26.5t-2 27.5l-13 54q-6 11 -12.5 23t-15.5 25q17 15 30 38q4 10 7.5 21.5t6.5 26.5l-14 -4q-4 -1 -8 -1.5t-7 -0.5q-11 -4 -18 -5.5t-15 -2.5q-17 -5 -32 -5q-17 -4 -31 3q-48 7 -48 57q0 49 49 56q29 4 62 -2q16 -5 31 -8.5t32 -6.5v51z" />
    <glyph glyph-name="twodotenleader" unicode="&#x2025;" horiz-adv-x="1045" 
d="M811 410v-128h-127v128h127zM346 410v-128h-128v128h128z" />
    <glyph glyph-name="ellipsis" unicode="&#x2026;" horiz-adv-x="1045" 
d="M863 410v-128h-123v128h123zM577 410v-128h-125v128h125zM289 410v-128h-123v128h123z" />
    <glyph glyph-name="perthousand" unicode="&#x2030;" horiz-adv-x="1045" 
d="M630 724h83l-536 -757h-81zM337 711q44 0 75 -30q27 -33 27 -89q0 -17 -4 -34.5t-9 -35.5q-9 -19 -17.5 -36t-21.5 -33q-25 -33 -58 -52q-34 -20 -73 -20q-24 0 -43 7t-33 24q-13 17 -19.5 38t-6.5 47q0 17 3.5 35t11.5 37q7 19 17.5 35.5t23.5 33.5q23 29 58 52
q16 10 33.5 15.5t35.5 5.5zM366 611q-1 2 -2 6t-1 8l-7 11q-4 2 -7.5 3.5t-7.5 1.5q-10 0 -20 -4t-19 -11q-12 -8 -20.5 -17.5t-15.5 -19.5q-18 -25 -25 -48q-14 -27 -14 -44q-2 -9 0 -15q0 -10 4 -15q0 -8 8 -12q3 -4 12 -4q11 0 21.5 3t22.5 11q17 13 36 37q6 11 13 23
t14 25q3 12 5.5 23t2.5 20v18zM533 313q44 0 75 -31q13 -15 19.5 -37.5t6.5 -50.5q0 -17 -3.5 -34.5t-9.5 -36.5q-9 -18 -17.5 -35.5t-20.5 -33.5q-24 -34 -59 -52q-33 -20 -73 -20q-24 0 -43 7t-31 25q-14 15 -20.5 36.5t-6.5 48.5q0 15 3.5 33t11.5 40q13 33 40 69
q24 31 59 51q16 10 33.5 15.5t35.5 5.5zM561 197q0 1 -0.5 2.5t-0.5 2.5v9q-1 4 -1.5 8t-0.5 8q0 1 -1.5 2.5t-2.5 3.5q-3 3 -3 7q-3 1 -7 1.5t-6 0.5q-21 0 -41 -14q-11 -8 -19.5 -17.5t-15.5 -19.5q-9 -13 -15.5 -24.5t-10.5 -23.5q-6 -12 -9.5 -23t-3.5 -21q-4 -15 3 -30
q4 -18 22 -18q10 0 20.5 4t22.5 12q16 14 35 39q8 9 14 21.5t13 24.5q5 13 6.5 23t1.5 22zM827 313q42 0 74 -31q27 -34 27 -88q0 -17 -4.5 -34.5t-11.5 -36.5q-7 -18 -16 -35.5t-21 -33.5q-14 -16 -28 -29t-31 -23q-35 -20 -72 -20q-25 0 -43.5 7t-31.5 25q-15 15 -21 36.5
t-6 48.5q0 34 15 73q7 18 17 35t25 34q23 31 58 51q16 10 34 15.5t36 5.5zM854 197q0 1 -0.5 2.5t-0.5 2.5v9q0 4 -1 8t-1 8l-8 13q-3 1 -6.5 1.5t-6.5 0.5q-21 0 -40 -14q-12 -8 -20.5 -17.5t-15.5 -19.5q-8 -13 -15 -24.5t-11 -23.5q-12 -26 -12 -44q-5 -14 2 -30
q4 -18 22 -18q9 0 20 4t22 12q9 8 18.5 17t17.5 22q8 9 14.5 21.5t11.5 24.5q5 13 7.5 23t2.5 22z" />
    <glyph glyph-name="minute" unicode="&#x2032;" horiz-adv-x="1045" 
d="M290 836l-185 -293l-42 17l94 276h133z" />
    <glyph glyph-name="second" unicode="&#x2033;" horiz-adv-x="1045" 
d="M303 836l-187 -293l-42 17l95 276h134zM491 836l-188 -293l-41 17l95 276h134z" />
    <glyph glyph-name="uni203B" unicode="&#x203b;" horiz-adv-x="1045" 
d="M734 414q24 0 46 -19q10 -11 15.5 -22.5t5.5 -27.5q0 -29 -19 -47q-10 -11 -22 -15.5t-26 -4.5t-24.5 4.5t-20.5 15.5q-12 9 -16 21t-4 25q0 27 18 49q19 21 47 21zM295 414q23 0 45 -19q10 -11 15 -22.5t5 -27.5q0 -29 -19 -47q-8 -11 -20 -15.5t-26 -4.5q-15 0 -26 4.5
t-21 15.5q-20 17 -20 46q0 25 19 49q19 21 48 21zM514 645q11 0 25 -5q6 -4 11 -7t10 -8q4 -6 8 -10.5t8 -11.5q5 -15 5 -26q0 -31 -19 -49q-9 -11 -21.5 -15.5t-26.5 -4.5q-13 0 -24.5 4.5t-20.5 15.5q-20 17 -20 49q0 25 18 47q20 21 47 21zM514 183q12 0 24 -5t22 -15
q9 -11 15 -22t6 -25q0 -30 -19 -49q-9 -12 -21.5 -16t-26.5 -4q-13 0 -24.5 4t-20.5 16q-20 18 -20 47q0 27 18 48q20 21 47 21zM808 592l-235 -245q56 -62 117 -124q58 -66 118 -124l-60 -60l-234 245l-55 -60q-16 -15 -31 -31t-29 -32q-9 -9 -17 -16.5t-15 -15.5l-31 -31
l-29 -31q-7 -8 -13.5 -15t-13.5 -12l-60 60l236 245q-30 30 -59.5 61t-59.5 65q-30 31 -59.5 62t-57.5 59l60 62l234 -246q28 30 58 60.5t59 63.5q30 31 59.5 62t58.5 61z" />
    <glyph glyph-name="uni2074" unicode="&#x2074;" horiz-adv-x="1045" 
d="M152 559v67l144 200h68v-192h43v-75h-43v-51h-78v51h-134zM286 681q-5 -6 -9 -11.5t-7 -10.5q-3 -3 -4 -5.5t-4 -6.5l-8 -13h32v47z" />
    <glyph glyph-name="uni207F" unicode="&#x207f;" horiz-adv-x="1066" 
d="M146 832h71v-27q15 19 37 25q10 2 20 2.5t23 0.5q20 -4 39 -11q9 -6 16.5 -12.5t14.5 -14.5q7 -9 11 -17l11 -17q3 -13 6 -22t3 -19v-211h-75v191q0 12 -2.5 23t-6.5 21q-9 18 -40 18q-23 0 -37 -19q-18 -21 -18 -48v-186h-73v323z" />
    <glyph glyph-name="uni2081" unicode="&#x2081;" horiz-adv-x="1045" 
d="M232 -102v195h-60v74q14 0 26 1.5t21 6.5q17 6 22 39h70v-316h-79z" />
    <glyph glyph-name="uni2082" unicode="&#x2082;" horiz-adv-x="1045" 
d="M321 12l-18 -14q-4 -2 -7.5 -3.5t-5.5 -2.5q-2 -2 -5 -3.5t-5 -3.5l-4 -2l-1 -1q-4 -3 -5 -3h-2l-3 -6h123v-75h-236q-2 17 0.5 32.5t8.5 28.5q5 14 11.5 24.5t16.5 19.5q9 11 18.5 19.5t21.5 18.5q11 6 22 14.5t21 17.5q7 5 12.5 10t11.5 11q4 5 6.5 10.5t2.5 11.5
q0 29 -31 29q-16 0 -24 -16q-5 -10 -7 -20t-2 -20h-82q0 13 2 26t7 26q6 23 22 41q13 17 36 29q11 5 23 8t26 3t26 -2.5t24 -6.5q10 -4 18.5 -10t16.5 -12q6 -9 11 -17t9 -18q6 -18 6 -40q0 -23 -6 -35q-3 -10 -7.5 -16.5t-7.5 -13.5q-6 -6 -11 -12t-11 -10q-6 -7 -11.5 -10
t-10.5 -7z" />
    <glyph glyph-name="uni2083" unicode="&#x2083;" horiz-adv-x="1045" 
d="M162 101q0 56 35 91q15 16 34 25t43 9q11 0 21 -2.5t21 -5.5q10 -6 18.5 -11t17.5 -10q7 -9 12.5 -15.5t11.5 -15.5q4 -11 6.5 -19.5t2.5 -17.5q0 -21 -6 -37q-7 -17 -16 -26q10 -12 22 -29q3 -11 5.5 -20t2.5 -19q0 -44 -31 -74q-35 -30 -87 -30q-29 0 -48 10
q-12 4 -20.5 12t-16.5 16q-17 18 -24 42q-7 13 -9 25.5t-2 26.5h71q0 -23 12 -37q6 -18 32 -18q41 0 41 35q0 12 -6 18q-3 4 -7 5.5t-8 3.5q-5 0 -9.5 1t-10.5 3h-24v55h32q4 0 8 2q3 1 12 10q5 7 5 19q0 26 -36 26q-11 0 -17.5 -3.5t-8.5 -11.5q-10 -18 -10 -33h-69z" />
    <glyph glyph-name="uni2084" unicode="&#x2084;" horiz-adv-x="1045" 
d="M153 -52v67l144 199h68v-191h43v-75h-43v-50h-78v50h-134zM287 69l-32 -46h32v46z" />
    <glyph glyph-name="Euro" unicode="&#x20ac;" horiz-adv-x="661" 
d="M125 310v87h83q0 79 14 136.5t38.5 95t58.5 55t74 17.5q37 0 72 -13t60 -33q-4 -22 -8 -40t-9 -39q-23 18 -44 28t-47 10q-52 0 -76 -51.5t-24 -165.5h169v-86l-167 -1v-245h-111v245h-83zM468 52q17 7 37 21.5t37 36.5q8 -17 18 -36t22 -34q-29 -37 -60 -58t-79 -21
q-32 0 -60 11.5t-55 25.5q-26 14 -52 24t-53 10q-15 0 -29 -8.5t-25.5 -21.5t-21 -27.5t-15.5 -27.5q-17 18 -27.5 33.5t-18.5 35.5q16 43 55.5 69.5t82.5 26.5q27 0 56 -11t58 -23q37 -16 70.5 -26.5t60.5 0.5h-1z" />
    <glyph glyph-name="uni2103" unicode="&#x2103;" horiz-adv-x="1045" 
d="M891 202q-8 -28 -17.5 -54t-21.5 -50q-15 -23 -30 -44t-33 -36q-20 -20 -41.5 -32t-41.5 -22q-25 -10 -50 -13.5t-52 -3.5q-77 0 -130 29q-28 14 -51 33.5t-43 43.5q-20 26 -32.5 53.5t-22.5 61.5q-11 31 -15 64.5t-4 68.5t4 67.5t15 65.5q10 31 22.5 60t32.5 54
q20 24 43 44t51 35q54 29 130 29q54 0 103 -18q22 -9 43 -21.5t40 -27.5q18 -19 32.5 -37.5t29.5 -39.5q12 -24 21 -48t18 -49h-89q-27 69 -76 113q-26 21 -57.5 32t-68.5 11q-54 0 -91 -23q-41 -24 -64 -60q-27 -41 -37 -87q-6 -24 -8.5 -49.5t-2.5 -50.5q0 -55 11 -100
q11 -52 37 -87q21 -38 63 -62q18 -10 41 -16t51 -6q18 0 35.5 3t33.5 11q16 6 30.5 15t28.5 23q13 11 24 24t21 30q10 15 15.5 31.5t10.5 34.5h92zM244 776q13 0 24 -2.5t23 -7.5q23 -13 40 -28q7 -10 14 -19.5t13 -20.5q4 -14 6.5 -26t2.5 -23q0 -14 -2 -25.5t-6 -22.5
q-6 -12 -13 -22t-13 -19q-19 -17 -40 -29q-12 -6 -24 -8t-25 -2q-30 0 -47 10q-14 4 -22.5 11t-16.5 17q-19 18 -27 40q-10 21 -10 50q0 26 9 47q9 24 26 42q13 15 40 28q10 5 22 7.5t26 2.5zM244 694q-19 0 -29 -12q-13 -15 -13 -33q0 -13 3.5 -20t9.5 -13q9 -13 29 -13
q21 0 31 13q6 6 9.5 13t3.5 20q0 18 -13 33q-11 12 -31 12z" />
    <glyph glyph-name="uni2109" unicode="&#x2109;" horiz-adv-x="1045" 
d="M390 647h452v-81h-364v-218h322v-77h-322v-298h-88v674zM244 776q13 0 24 -2.5t23 -7.5q23 -13 40 -28q7 -10 14 -19.5t13 -20.5q4 -14 6.5 -26t2.5 -23q0 -14 -2 -25.5t-6 -22.5q-6 -12 -13 -22t-13 -19q-19 -17 -40 -29q-12 -6 -24 -8t-25 -2q-30 0 -47 10
q-14 4 -22.5 11t-16.5 17q-19 18 -27 40q-10 21 -10 50q0 26 9 47q9 24 26 42q13 15 40 28q10 5 22 7.5t26 2.5zM244 694q-19 0 -29 -12q-13 -15 -13 -33q0 -13 3.5 -20t9.5 -13q9 -13 29 -13q21 0 31 13q6 6 9.5 13t3.5 20q0 18 -13 33q-11 12 -31 12z" />
    <glyph glyph-name="uni2113" unicode="&#x2113;" horiz-adv-x="1045" 
d="M327 766q25 0 48 -18q18 -17 34 -44q6 -16 11 -31l10 -30q1 -9 2.5 -17t2.5 -16q2 -9 3 -17.5t3 -15.5q0 -10 1 -17.5t1 -15.5l4 -28v-27q0 -5 0.5 -10t0.5 -8q0 -24 -3 -49.5t-6 -52.5q-6 -29 -11 -55.5t-14 -53.5q-10 -28 -21.5 -54.5t-24.5 -50.5t-29 -46t-34 -37
q9 -22 24 -28q6 -4 10.5 -5.5t11.5 -1.5q15 0 28 11q13 10 24 30l19 36l14 39q5 -8 10.5 -13t12.5 -10q3 -7 8.5 -12.5t12.5 -9.5q7 -7 12 -12.5t11 -8.5q-11 -30 -26 -52t-30 -39q-37 -34 -77 -42q-81 -17 -141 79q-3 -1 -6 -1h-3q-1 0 -2.5 -1t-2.5 -1q-12 -3 -22.5 -5.5
t-19.5 -2.5q-12 -2 -25 -2.5t-29 -0.5l-22 83h21q11 0 28 2q12 0 23.5 2.5t23.5 4.5q-23 60 -31 123q-6 30 -8 62.5t-2 64.5v34q0 19 3 40q1 21 3.5 41.5t8.5 45.5q2 21 7 43.5t13 44.5q7 21 14.5 39.5t17.5 35.5q18 34 46 58q23 18 61 23h1zM320 676q-17 0 -30 -18
q-7 -9 -12.5 -19.5t-9.5 -23.5q-5 -15 -8.5 -30t-7.5 -30q-4 -18 -7 -34t-4 -31q-2 -17 -3 -32.5t-1 -27.5q-2 -16 -2 -27t1 -19q0 -37 2 -69.5t6 -61.5q3 -29 9 -54t13 -47q12 16 24 33.5t22 38.5q8 21 16 43t14 45q7 23 11.5 46t7.5 46q5 44 5 88v23q-1 7 -1.5 16t-0.5 21
l-3 20q-1 6 -1.5 11t-0.5 10q-2 11 -4.5 21t-4.5 20q-3 9 -6.5 16t-6.5 14q-7 12 -17 12z" />
    <glyph glyph-name="uni2116" unicode="&#x2116;" horiz-adv-x="1045" 
d="M688 485q24 0 44.5 -6t38.5 -17t32 -24.5t28 -32.5q22 -35 35 -79q5 -24 8 -45.5t3 -42.5q0 -25 -3 -46t-8 -43q-12 -44 -35 -79q-26 -37 -60 -57q-33 -22 -83 -22t-83 22q-37 21 -59 57q-24 33 -35 79q-12 42 -12 89q0 21 2.5 42.5t8.5 45.5q6 20 14.5 41t21.5 39
q12 19 26 32.5t33 24.5q36 22 83 22zM390 -2l-240 524v-524h-73v695h74l240 -523v523h73v-695h-74zM688 407q-15 0 -27.5 -4t-23.5 -12q-13 -8 -21 -17.5t-15 -22.5q-9 -13 -13 -26.5t-7 -29.5q-8 -33 -8 -57q0 -16 2 -30.5t6 -29.5q3 -15 7 -28.5t13 -26.5q7 -13 15 -23
t21 -17q11 -9 23.5 -12.5t27.5 -3.5q16 0 27.5 3.5t25.5 12.5q9 7 17.5 17.5t17.5 23.5l10 26q5 13 10 28q6 31 6 60t-6 57q-5 16 -10 29.5t-10 26.5q-18 25 -35 41q-14 7 -25.5 11t-27.5 4zM908 107q7 0 12.5 -2t11.5 -4q6 -3 10.5 -7t8.5 -7l14 -21q5 -13 5 -23
q0 -24 -19 -43q-19 -18 -43 -18t-41 18q-19 18 -19 43q0 13 5 23q2 5 5 10.5t9 10.5q3 3 8 7t11 7q5 2 11 4t11 2z" />
    <glyph glyph-name="uni2121" unicode="&#x2121;" horiz-adv-x="1045" 
d="M598 485q24 0 47 -6t44 -17q18 -11 36 -26.5t32 -34.5q13 -20 23.5 -42t17.5 -46q6 -26 8.5 -53t1.5 -55h-330q0 -13 2.5 -25t9.5 -25q5 -12 10 -23t14 -20q7 -11 16.5 -18t22.5 -12q19 -13 45 -13q43 0 71 27q27 24 38 64h96q-29 -83 -75 -130q-48 -48 -130 -48
q-53 0 -89 21q-41 20 -66 57q-14 18 -24.5 37t-16.5 44q-8 21 -11 44.5t-3 48.5q0 23 3.5 45.5t11.5 46.5q11 42 42 80q23 33 65 57q37 22 88 22zM272 612h-197v77h476v-77h-197v-614h-82v614zM840 690h83v-691h-83v691zM714 291l-6 20q-3 10 -8 22q-7 7 -14.5 16t-14.5 17
q-10 6 -17.5 12t-17.5 11q-10 4 -19 7t-19 3q-12 0 -22 -3t-18 -6q-10 -5 -19 -11t-16 -12q-8 -8 -14.5 -17t-10.5 -16q-12 -24 -15 -43h231z" />
    <glyph glyph-name="trademark" unicode="&#x2122;" horiz-adv-x="595" 
d="M449 722h96v-379h-80v119l-4 -10q-2 -7 -2 -14q-6 -18 -7 -36q-4 -10 -4 -18q-1 -5 -1.5 -9.5t-0.5 -7.5q-3 -5 -3.5 -8.5t-1.5 -6.5t-1 -6v-3h-71l-24 120v-120h-81v302h-47v-296h-95v296h-72v77h310l44 -159z" />
    <glyph glyph-name="Omega" unicode="&#x2126;" horiz-adv-x="1045" 
d="M431 122q0 24 11 37q5 6 11 9t12 5q19 4 35.5 12t30.5 20q13 12 23.5 25t21.5 31q9 15 14 31.5t11 38.5q3 17 5 37t2 41q0 22 -2.5 44t-8.5 45q-7 23 -17 41t-21 37q-13 14 -28 29t-34 27q-18 8 -38.5 14t-44.5 6q-23 0 -42.5 -6t-37.5 -15q-35 -24 -62 -57
q-25 -37 -36 -79q-15 -43 -15 -87q0 -20 2 -41t7 -38q4 -22 10 -38.5t16 -31.5q9 -16 19.5 -30t26.5 -24q27 -25 69 -32q0 -2 5 -2q2 -2 6 -2q6 -4 14 -10q3 -3 4.5 -7t4.5 -8q1 -4 1.5 -10t0.5 -13v-90q0 -12 -2.5 -22t-5.5 -17q-12 -19 -41 -19h-147v79h118v45
q-51 15 -84 48q-37 32 -59 73q-24 39 -35 90q-5 25 -8.5 49.5t-3.5 49.5q0 30 4.5 58.5t15.5 59.5q9 28 23.5 54t32.5 51q34 43 87 73q23 13 51 20.5t61 7.5q32 0 61 -7.5t55 -20.5q26 -15 48 -32.5t40 -37.5q18 -24 31 -50t24 -54q19 -60 19 -120q0 -49 -12 -94
q-13 -48 -35 -91q-13 -21 -27.5 -40t-30.5 -35q-19 -16 -38.5 -28.5t-39.5 -20.5v-48h115v-79h-143q-33 0 -41 17q-6 6 -7.5 16.5t-1.5 22.5v93z" />
    <glyph glyph-name="uni212B" unicode="&#x212b;" horiz-adv-x="1045" 
d="M514 748q-8 0 -13.5 -2.5t-11.5 -7.5q-13 -12 -13 -30q0 -20 13 -30q6 -6 11.5 -9.5t13.5 -3.5q9 0 15.5 3.5t12.5 9.5q12 10 12 30q0 18 -12 30q-6 5 -12.5 7.5t-15.5 2.5zM514 832q12 0 24 -3t23 -7q10 -6 19.5 -12.5t18.5 -15.5q14 -18 24 -40q9 -25 9 -46
q0 -26 -9 -47q-4 -12 -9.5 -21.5t-13.5 -18.5q-10 -9 -19.5 -16.5t-19.5 -12.5q-11 -5 -23 -6.5t-24 -1.5q-14 0 -25.5 1.5t-21.5 6.5q-12 5 -21 12.5t-16 16.5q-18 16 -25 40q-5 11 -6.5 22.5t-1.5 24.5q0 12 1.5 23.5t6.5 22.5q7 24 25 40q7 9 16.5 15.5t21.5 12.5
q10 4 21.5 7t24.5 3zM648 129h-263l-32 -81q-10 -21 -18 -41.5t-16 -39.5h-91l255 593h66l254 -593h-91zM418 210h192q-12 29 -24.5 55.5t-23.5 52.5q-10 23 -22.5 51t-23.5 59z" />
    <glyph glyph-name="onethird" unicode="&#x2153;" horiz-adv-x="1045" 
d="M439 12q0 -13 0.5 -22.5t3.5 -16.5q3 -18 15 -28q12 -21 55 -21q32 0 52 18q19 16 19 45q0 8 -2.5 13t-5.5 12q-6 5 -11 8.5t-10 7.5q-7 3 -14 4.5t-15 4.5q-9 0 -16 0.5t-14 0.5h-35l1 75h28q5 0 11 1q8 0 18 2q3 0 6 -0.5t6 2.5q16 6 28 23q11 11 11 27q0 9 -4 17
t-9 16q-10 7 -20.5 11t-25.5 4q-60 0 -60 -78h-88q0 37 12 67q5 15 13 26.5t19 22.5q17 18 49 30q12 5 26.5 6.5t30.5 1.5q13 0 27 -1.5t27 -5.5q13 -5 25 -11t22 -14q10 -10 19 -18.5t17 -21.5q11 -26 11 -54q0 -26 -9.5 -47.5t-28.5 -37.5q13 -10 22 -20.5t16 -19.5
q14 -26 14 -54q0 -33 -12 -58q-6 -14 -14 -24t-18 -20q-11 -9 -23.5 -17t-26.5 -10q-17 -7 -33 -8.5t-34 -1.5q-36 0 -65.5 10t-50.5 32q-46 40 -46 122h87zM176 384h677v-75h-677v75zM483 415v246h-84v82q12 0 23.5 1t25.5 4q17 0 29 7h-1q3 3 7.5 8t7.5 13q2 5 3 14t1 21
h75v-396h-87z" />
    <glyph glyph-name="twothirds" unicode="&#x2154;" horiz-adv-x="1045" 
d="M439 12q0 -13 0.5 -22.5t3.5 -16.5q3 -18 15 -28q12 -21 55 -21q32 0 52 18q19 16 19 45q0 8 -2.5 13t-5.5 12q-6 5 -11 8.5t-10 7.5q-7 3 -14 4.5t-15 4.5q-9 0 -16 0.5t-14 0.5h-35l1 75h28q5 0 11 1q8 0 18 2q3 0 6 -0.5t6 2.5q16 6 28 23q11 11 11 27q0 9 -4 17
t-9 16q-10 7 -20.5 11t-25.5 4q-60 0 -60 -78h-88q0 37 12 67q5 15 13 26.5t19 22.5q17 18 49 30q12 5 26.5 6.5t30.5 1.5q13 0 27 -1.5t27 -5.5q13 -5 25 -11t22 -14q10 -10 19 -18.5t17 -21.5q11 -26 11 -54q0 -26 -9.5 -47.5t-28.5 -37.5q13 -10 22 -20.5t16 -19.5
q14 -26 14 -54q0 -33 -12 -58q-6 -14 -14 -24t-18 -20q-11 -9 -23.5 -17t-26.5 -10q-17 -7 -33 -8.5t-34 -1.5q-36 0 -65.5 10t-50.5 32q-46 40 -46 122h87zM579 571q-5 -4 -8.5 -5.5t-7.5 -3.5l-12 -8q-9 -6 -16.5 -10.5t-14.5 -9.5q-3 -3 -7 -6t-7 -6l-13 -11
q-14 -12 -23 -24h200v-78h-321q0 17 2.5 31.5t7.5 30.5q3 13 8 25t13 25q8 12 18.5 24t23.5 24q12 11 30.5 22.5t44.5 25.5q7 4 13.5 7.5t15.5 8.5q6 4 13 9t14 11q6 5 10 11t9 16q9 11 9 30q0 12 -5 22.5t-13 17.5q-7 8 -18.5 12t-27.5 4q-41 0 -55 -19q-2 -5 -5.5 -11.5
t-4.5 -15.5q-3 -9 -4 -20t-1 -19h-87q0 17 2 33t8 32q9 30 27 48q8 12 21 20.5t31 16.5q14 7 31 10t38 3q39 0 68 -10q13 -6 24.5 -13t21.5 -16q19 -20 28 -43q5 -14 7.5 -27t2.5 -26q0 -49 -25 -79q-24 -36 -66 -59zM176 384h677v-75h-677v75z" />
    <glyph glyph-name="oneeighth" unicode="&#x215b;" horiz-adv-x="1045" 
d="M674 154q0 -49 -37 -81q13 -9 21.5 -18.5t18.5 -21.5q5 -13 8.5 -27.5t3.5 -31.5q0 -18 -3.5 -31.5t-8.5 -24.5q-14 -23 -37 -41q-25 -19 -55 -27q-19 -4 -35 -6.5t-34 -2.5q-19 0 -36 3.5t-31 6.5q-34 8 -56 27q-13 9 -21.5 18.5t-14.5 23.5q-15 25 -15 54q0 63 54 97
q-11 9 -18.5 17.5t-10.5 21.5q-6 10 -7.5 21.5t-1.5 22.5q0 29 9.5 52t33.5 40q21 17 49.5 25t65.5 8q34 0 62.5 -8t51.5 -25q44 -36 44 -92zM516 34q-21 0 -36 -4.5t-24 -10.5q-13 -10 -18.5 -21t-5.5 -24q0 -24 24 -40q16 -16 60 -16q40 0 61 16q21 19 21 40q0 24 -21 45
q-13 6 -28 10.5t-33 4.5zM516 201q-39 0 -52 -12q-9 -8 -12 -16t-3 -18q0 -11 3 -18.5t12 -14.5q12 -12 52 -12q33 0 50 12q18 12 18 33t-18 34q-19 12 -50 12zM176 384h677v-75h-677v75zM483 415v246h-84v82q12 0 23.5 1t25.5 4q17 0 29 7h-1q3 3 7.5 8t7.5 13q2 5 3 14
t1 21h75v-396h-87z" />
    <glyph glyph-name="threeeighths" unicode="&#x215c;" horiz-adv-x="1045" 
d="M674 154q0 -49 -37 -81q13 -9 21.5 -18.5t18.5 -21.5q5 -13 8.5 -27.5t3.5 -31.5q0 -18 -3.5 -31.5t-8.5 -24.5q-14 -23 -37 -41q-25 -19 -55 -27q-19 -4 -35 -6.5t-34 -2.5q-19 0 -36 3.5t-31 6.5q-34 8 -56 27q-13 9 -21.5 18.5t-14.5 23.5q-15 25 -15 54q0 63 54 97
q-11 9 -18.5 17.5t-10.5 21.5q-6 10 -7.5 21.5t-1.5 22.5q0 29 9.5 52t33.5 40q21 17 49.5 25t65.5 8q34 0 62.5 -8t51.5 -25q44 -36 44 -92zM439 573q0 -13 0.5 -22.5t3.5 -16.5q3 -17 15 -29q12 -20 55 -20q32 0 52 17q19 19 19 46q0 7 -2.5 12.5t-5.5 12.5q-6 5 -11 9
t-10 7q-7 2 -14 3.5t-15 3.5q-9 0 -16 1t-14 1h-35l1 77h28q5 0 11 1q5 0 9 0.5t9 1.5h6q3 0 6 3q16 3 28 21q11 12 11 27q0 9 -4 17t-9 17q-10 7 -20.5 10.5t-25.5 3.5q-60 0 -60 -78h-88q0 36 12 68q5 13 13 25.5t19 23.5q9 10 21 16.5t28 11.5q12 5 26.5 7.5t30.5 2.5
q13 0 27 -2.5t27 -6.5t25 -10t22 -14q10 -9 19 -18.5t17 -22.5q11 -25 11 -54q0 -26 -9.5 -47t-28.5 -38q13 -8 22 -18.5t16 -21.5q14 -25 14 -55t-12 -55q-6 -15 -14 -25t-18 -19q-11 -10 -23.5 -17.5t-26.5 -11.5q-17 -7 -33 -9t-34 -2q-36 0 -65.5 11.5t-50.5 31.5
q-46 42 -46 123h87zM176 384h677v-75h-677v75zM516 34q-21 0 -36 -4.5t-24 -10.5q-13 -10 -18.5 -21t-5.5 -24q0 -24 24 -40q16 -16 60 -16q40 0 61 16q21 19 21 40q0 24 -21 45q-13 6 -28 10.5t-33 4.5zM516 201q-39 0 -52 -12q-9 -8 -12 -16t-3 -18q0 -11 3 -18.5
t12 -14.5q12 -12 52 -12q33 0 50 12q18 12 18 33t-18 34q-19 12 -50 12z" />
    <glyph glyph-name="fiveeighths" unicode="&#x215d;" horiz-adv-x="1045" 
d="M350 601q0 3 0.5 7t1.5 11q1 5 3 11.5t3 16.5l11 73l12 74q4 16 6 28t4 20h258v-77h-185l-12 -57q10 3 18.5 4.5t20.5 3.5q8 0 16.5 1t16.5 1q26 0 54 -12q12 -5 22.5 -13.5t20.5 -16.5q18 -23 32 -47q9 -30 9 -59q0 -37 -10 -61q-15 -29 -35 -48q-12 -12 -24.5 -19
t-27.5 -12q-14 -6 -30 -9t-30 -3q-36 0 -64 8.5t-48 28.5q-22 19 -35.5 45t-19.5 61h97q1 -29 23 -48q16 -21 49 -21q30 0 51 21q18 19 18 52q0 27 -17 55q-19 20 -50 20q-14 0 -23.5 -3t-18.5 -6q-8 -7 -16 -13.5t-15 -15.5zM674 154q0 -49 -37 -81q13 -9 21.5 -18.5
t18.5 -21.5q5 -13 8.5 -27.5t3.5 -31.5q0 -18 -3.5 -31.5t-8.5 -24.5q-14 -23 -37 -41q-25 -19 -55 -27q-19 -4 -35 -6.5t-34 -2.5q-19 0 -36 3.5t-31 6.5q-34 8 -56 27q-13 9 -21.5 18.5t-14.5 23.5q-15 25 -15 54q0 63 54 97q-11 9 -18.5 17.5t-10.5 21.5q-6 10 -7.5 21.5
t-1.5 22.5q0 29 9.5 52t33.5 40q21 17 49.5 25t65.5 8q34 0 62.5 -8t51.5 -25q44 -36 44 -92zM516 34q-21 0 -36 -4.5t-24 -10.5q-13 -10 -18.5 -21t-5.5 -24q0 -24 24 -40q16 -16 60 -16q40 0 61 16q21 19 21 40q0 24 -21 45q-13 6 -28 10.5t-33 4.5zM516 201
q-39 0 -52 -12q-9 -8 -12 -16t-3 -18q0 -11 3 -18.5t12 -14.5q12 -12 52 -12q33 0 50 12q18 12 18 33t-18 34q-19 12 -50 12zM176 384h677v-75h-677v75z" />
    <glyph glyph-name="seveneighths" unicode="&#x215e;" horiz-adv-x="1045" 
d="M358 824h316v-61q-17 -18 -30.5 -38t-25.5 -39q-14 -19 -26 -38t-22 -39q-11 -21 -18 -44t-13 -44q-13 -50 -13 -100h-91q0 17 2.5 37t9.5 43q10 44 29 89q10 22 19.5 43.5t21.5 43.5q11 20 23.5 37.5t22.5 33.5h-205v76zM674 154q0 -49 -37 -81q13 -9 21.5 -18.5
t18.5 -21.5q5 -13 8.5 -27.5t3.5 -31.5q0 -18 -3.5 -31.5t-8.5 -24.5q-14 -23 -37 -41q-25 -19 -55 -27q-19 -4 -35 -6.5t-34 -2.5q-19 0 -36 3.5t-31 6.5q-34 8 -56 27q-13 9 -21.5 18.5t-14.5 23.5q-15 25 -15 54q0 63 54 97q-11 9 -18.5 17.5t-10.5 21.5q-6 10 -7.5 21.5
t-1.5 22.5q0 29 9.5 52t33.5 40q21 17 49.5 25t65.5 8q34 0 62.5 -8t51.5 -25q44 -36 44 -92zM516 34q-21 0 -36 -4.5t-24 -10.5q-13 -10 -18.5 -21t-5.5 -24q0 -24 24 -40q16 -16 60 -16q40 0 61 16q21 19 21 40q0 24 -21 45q-13 6 -28 10.5t-33 4.5zM516 201
q-39 0 -52 -12q-9 -8 -12 -16t-3 -18q0 -11 3 -18.5t12 -14.5q12 -12 52 -12q33 0 50 12q18 12 18 33t-18 34q-19 12 -50 12zM176 384h677v-75h-677v75z" />
    <glyph glyph-name="uni2160" unicode="&#x2160;" horiz-adv-x="1045" 
d="M470 720h89v-747h-89v747z" />
    <glyph glyph-name="uni2161" unicode="&#x2161;" horiz-adv-x="1045" 
d="M358 720h85v-747h-85v747zM586 720h86v-747h-86v747z" />
    <glyph glyph-name="uni2162" unicode="&#x2162;" horiz-adv-x="1045" 
d="M312 720h89v-747h-89v747zM628 720h89v-747h-89v747zM471 720h88v-747h-88v747z" />
    <glyph glyph-name="uni2163" unicode="&#x2163;" horiz-adv-x="1045" 
d="M226 720h87v-747h-87v747zM620 -27h-78l-229 747h93l176 -590q21 73 42.5 146t44.5 150q10 36 20.5 72.5t21.5 73.5l44 148h94z" />
    <glyph glyph-name="uni2164" unicode="&#x2164;" horiz-adv-x="1045" 
d="M558 -27h-78l-282 747h91l229 -614l58 153q14 39 28 77t29 76q27 76 56 152t59 156h90z" />
    <glyph glyph-name="uni2165" unicode="&#x2165;" horiz-adv-x="1045" 
d="M794 720v-747h-88v747h88zM400 -27l-229 747h94l173 -590q22 73 43.5 146t44.5 150q11 36 21.5 72.5t21.5 73.5l44 148h93l-229 -747h-77z" />
    <glyph glyph-name="uni2166" unicode="&#x2166;" horiz-adv-x="1045" 
d="M701 720v-747h-89v747h89zM333 -27l-199 747h91l147 -583l76 293l73 290h91l-200 -747h-79zM838 720v-747h-88v747h88z" />
    <glyph glyph-name="uni2167" unicode="&#x2167;" horiz-adv-x="1045" 
d="M289 -27l-191 747h90l141 -579q7 36 16 71t18 72l37 147q14 71 32 143.5t36 145.5h172v-747h-87v722l-186 -722h-78zM764 720v-747h-87v747h87zM887 720v-747h-87v747h87z" />
    <glyph glyph-name="uni2168" unicode="&#x2168;" horiz-adv-x="1045" 
d="M199 720h89v-731l239 369q-15 21 -28.5 43t-29.5 43l-58 94q-31 47 -61 92.5t-57 89.5h98l186 -289q22 36 46 71.5t47 73.5l46 71q11 18 22.5 36.5t23.5 36.5h97l-235 -362q30 -50 61.5 -97t64.5 -95q16 -25 31.5 -50t30.5 -49l63 -94h-97l-201 309q-26 -40 -51.5 -78
t-49.5 -76q-13 -21 -25.5 -41t-24.5 -38q-14 -21 -26 -39.5t-24 -36.5h-177v747z" />
    <glyph glyph-name="uni2169" unicode="&#x2169;" horiz-adv-x="1045" 
d="M561 358q30 -50 61.5 -97t65.5 -95q16 -25 31.5 -50t30.5 -49l62 -94h-98l-201 309q-26 -40 -51 -78l-50 -76q-23 -41 -50 -79q-12 -21 -24.5 -39.5t-25.5 -36.5h-97l249 385q-29 41 -58 86t-59 94q-32 47 -61 92.5t-57 89.5h99l185 -289l46 70l49 74l92 145h98z" />
    <glyph glyph-name="uni2170" unicode="&#x2170;" horiz-adv-x="1045" 
d="M558 -27h-89v561h89v-561zM560 625h-98v99h98v-99z" />
    <glyph glyph-name="uni2171" unicode="&#x2171;" horiz-adv-x="1045" 
d="M443 -27h-85v561h85v-561zM448 625h-95v98h95v-98zM673 -27h-86v561h86v-561zM677 625h-94v98h94v-98z" />
    <glyph glyph-name="uni2172" unicode="&#x2172;" horiz-adv-x="1045" 
d="M401 -27h-89v561h89v-561zM404 625h-95v98h95v-98zM718 -27h-89v561h89v-561zM721 625h-95v98h95v-98zM559 -27h-88v561h88v-561zM562 625h-95v98h95v-98z" />
    <glyph glyph-name="uni2173" unicode="&#x2173;" horiz-adv-x="1045" 
d="M323 -27h-86v561h86v-561zM328 625h-97v99h97v-99zM631 -27h-73l-232 561h95l173 -418q21 50 42 102.5t46 107.5q22 55 44 106.5t43 101.5h95z" />
    <glyph glyph-name="uni2174" unicode="&#x2174;" horiz-adv-x="1045" 
d="M552 -34h-75l-232 560h95l174 -417q10 24 20.5 49.5t23.5 51.5q9 28 20.5 54.5t23.5 53.5q9 26 20 52.5t23 53.5q11 25 21.5 49.5t21.5 52.5h95z" />
    <glyph glyph-name="uni2175" unicode="&#x2175;" horiz-adv-x="1045" 
d="M472 -27h-72l-232 561h97l172 -418q11 26 21 51t21 52q13 26 23 53t22 54q10 26 22 52.5t20 52.5q12 25 22 50.5t21 52.5h97zM804 -27h-88v561h88v-561zM808 625h-97v99h97v-99z" />
    <glyph glyph-name="uni2176" unicode="&#x2176;" horiz-adv-x="1045" 
d="M411 -27h-72l-206 561h93l149 -414l36 103q9 25 18.5 51.5t19.5 54.5l37 102q9 26 18 51t18 52h96zM707 -27h-88v561h88v-561zM711 625h-94v98h94v-98zM839 -27h-89v561h89v-561zM841 625h-93v98h93v-98z" />
    <glyph glyph-name="uni2177" unicode="&#x2177;" horiz-adv-x="1045" 
d="M640 -27h-88v549l-192 -549h-74l-196 561h94l138 -412q15 53 33 103t37 105q18 52 34.5 102t34.5 102h179v-561zM763 -27h-88v561h88v-561zM887 -27h-87v561h87v-561zM767 625h-95v98h95v-98zM891 625h-94v98h94v-98zM643 625h-94v98h94v-98z" />
    <glyph glyph-name="uni2178" unicode="&#x2178;" horiz-adv-x="1045" 
d="M587 189q-22 -28 -41.5 -54.5t-38.5 -52.5l-42 -55q-9 -14 -19.5 -27t-19.5 -27h-174v561h184l152 -202q18 23 36 48.5t38 51.5l76 102h106l-202 -274q24 -36 51 -71t55 -72q54 -75 106 -144h-106zM533 261q-48 60 -96 128q-26 34 -50 65.5t-47 65.5v-519zM343 625h-95
v99h95v-99z" />
    <glyph glyph-name="uni2179" unicode="&#x2179;" horiz-adv-x="1045" 
d="M514 180q-19 -27 -39 -54t-41 -53l-41 -54q-11 -15 -20.5 -27.5t-18.5 -25.5h-107l214 286l-102 138q-27 37 -53 70t-49 66h106l151 -203l77 102l38 50l37 51h106l-206 -275q25 -35 52.5 -70.5t56.5 -70.5q27 -39 53.5 -75.5t53.5 -68.5h-108z" />
    <glyph glyph-name="arrowleft" unicode="&#x2190;" horiz-adv-x="1045" 
d="M956 305h-626l47 -40l-20 -33l-332 113l329 114l21 -34l-43 -38h624v-82z" />
    <glyph glyph-name="arrowup" unicode="&#x2191;" horiz-adv-x="1045" 
d="M474 -116v654l-34 -46l-38 20l111 359l113 -358l-36 -22l-37 45v-652h-79z" />
    <glyph glyph-name="arrowright" unicode="&#x2192;" horiz-adv-x="1045" 
d="M71 387h625l-13 8l-11 11q-7 4 -12 9.5t-8 10.5l19 34l332 -115l-331 -113l-19 35l44 38h-626v82z" />
    <glyph glyph-name="arrowdown" unicode="&#x2193;" horiz-adv-x="1045" 
d="M590 204l37 -22l-114 -353l-111 353l38 20l34 -45v654h79v-655z" />
    <glyph glyph-name="arrowboth" unicode="&#x2194;" horiz-adv-x="1045" 
d="M374 261l-18 -37l-330 120l332 125l19 -38l-49 -44h375l-25 22q-4 3 -7.5 6t-7.5 6t-10 10l20 38l328 -124l-326 -121l-19 37l47 44h-377z" />
    <glyph glyph-name="arrowupdn" unicode="&#x2195;" horiz-adv-x="1045" 
d="M434 499l-34 22l114 345l116 -345l-36 -22l-40 49v-405q5 6 10 13t12 14q4 7 9 12l11 11l35 -20l-115 -347l-116 346l35 20l40 -49v407z" />
    <glyph glyph-name="uni2196" unicode="&#x2196;" horiz-adv-x="1045" 
d="M902 -118l-666 699v-103l-40 -7l-141 358l336 -149l-6 -45h-92q163 -173 330 -345q42 -46 83 -89.5t83 -86.5q41 -45 81.5 -87t82.5 -86z" />
    <glyph glyph-name="uni2197" unicode="&#x2197;" horiz-adv-x="1045" 
d="M66 -71l664 702h-100l-7 42l345 147l-145 -352l-42 6v94q-83 -88 -165.5 -175.5t-164.5 -172.5l-165 -174q-43 -44 -83 -87t-83 -86z" />
    <glyph glyph-name="uni2198" unicode="&#x2198;" horiz-adv-x="1045" 
d="M124 816l666 -699v102l40 7l141 -359l-338 152l7 42h92q-83 87 -165.5 173.5t-165.5 174.5q-168 175 -331 347z" />
    <glyph glyph-name="uni2199" unicode="&#x2199;" horiz-adv-x="1045" 
d="M953 752l-664 -701h101l7 -41l-343 -148l143 352l42 -5v-95q81 87 163 173.5t166 174.5q41 44 82.5 87t82.5 86q43 46 83.5 88.5t83.5 87.5z" />
    <glyph glyph-name="arrowdblright" unicode="&#x21d2;" horiz-adv-x="1045" 
d="M692 460l-47 37q-7 3 -13 8t-12 9q-7 5 -12 8.5t-10 8.5l50 63l345 -250l-348 -250l-47 67l98 71h-642v80h750l12 8l12 9q1 1 3.5 2.5t5.5 4.5q2 2 5 3.5t8 4.5l-13 9q-7 5 -11 9q-13 5 -24 19h-748v79h638z" />
    <glyph glyph-name="arrowdblboth" unicode="&#x21d4;" horiz-adv-x="1045" 
d="M692 461q-12 8 -24 17t-24 19q-8 3 -13.5 8t-11.5 9q-7 5 -12.5 8.5t-10.5 8.5l52 64l344 -250l-347 -250l-48 67l97 71h-359q12 -9 23.5 -18t26.5 -18q12 -12 24 -19q6 -4 12.5 -8t12.5 -8l-50 -65l-346 248l350 254l47 -67l-98 -71h355zM803 312q6 4 11.5 8.5t12.5 8.5
q4 1 10 7l14 8l-13 9q-5 4 -10 9q-14 5 -25 19h-577l-12 -10q-3 -2 -5 -4t-4 -3q-4 -2 -6.5 -3.5t-6.5 -5.5l-13 -8q2 -4 5.5 -6t6.5 -3l13 -7q11 -14 23 -19h576z" />
    <glyph glyph-name="universal" unicode="&#x2200;" horiz-adv-x="1045" 
d="M363 518h340q10 23 21 48t24 54l20 50q7 12 11.5 25t11.5 26h91l-311 -748h-76l-310 748h91zM670 437h-274q4 -12 8 -22.5t8 -22.5q4 -9 8.5 -20t9.5 -20q8 -20 16.5 -41t17.5 -40q7 -22 16 -42t17 -40q4 -12 8.5 -22.5t8.5 -21.5q4 -9 8.5 -20.5t9.5 -21.5z" />
    <glyph glyph-name="partialdiff" unicode="&#x2202;" horiz-adv-x="1045" 
d="M499 475q-23 -5 -35 -12q-8 -4 -13.5 -9t-9.5 -10q-23 -23 -34 -30q-16 -8 -27 9q-8 10 -2 29q4 15 18 28q12 13 28.5 25.5t35.5 24.5q35 19 80 18q17 -3 32 -7t30 -11q12 -8 23 -18t22 -19q8 -12 14.5 -25t11.5 -28q4 -14 6.5 -29.5t2.5 -30.5q0 -21 -2.5 -41t-7.5 -35
q-7 -18 -13.5 -36t-17.5 -33q-11 -19 -23 -34.5t-28 -27.5q-16 -17 -32.5 -27t-34.5 -18q-18 -11 -38 -14.5t-39 -3.5q-21 0 -39 5.5t-30 17.5q-28 22 -35 65q-6 26 7 56q4 16 11.5 29t19.5 26q22 25 51 43q16 9 30 15t33 12q12 3 25 4t28 4q6 0 11 0.5t12 0.5h21
q-1 8 -1 14q0 4 -0.5 7.5t-0.5 8.5l-10 29q-7 9 -14 16t-18 10q-13 2 -24 2h-24zM465 181q22 10 40 23t34 35q26 36 45 85l-53 -10q-15 -5 -29 -12.5t-30 -16.5q-32 -25 -41 -59q-1 -5 -1 -9.5t1 -7.5q0 -13 5 -17q1 -10 12 -12q4 -3 17 1z" />
    <glyph glyph-name="existential" unicode="&#x2203;" horiz-adv-x="1045" 
d="M772 720v-747h-526v79h440v268h-415v80h415v239h-431v81h517z" />
    <glyph glyph-name="gradient" unicode="&#x2207;" horiz-adv-x="1045" 
d="M514 -6l-369 662h739zM281 576q31 -55 59.5 -105.5t59.5 -100.5q12 -25 26.5 -50.5t29.5 -50.5q15 -27 29.5 -53t30.5 -53l28 54q8 13 14 26t15 27q13 23 26.5 48t29.5 52q6 14 13.5 25.5t13.5 25.5q12 26 28 51q6 13 13 25t14 25l31 54h-461z" />
    <glyph glyph-name="element" unicode="&#x2208;" horiz-adv-x="1045" 
d="M251 305q8 -79 61 -115q51 -44 135 -45h396v-79h-386q-31 0 -60 4.5t-54 14.5q-53 19 -92 56q-20 17 -35.5 38.5t-25.5 49.5q-13 24 -18 54t-5 62q0 33 4.5 61t16.5 55q21 51 60 87q18 18 41 31t50 25q27 9 56 14.5t62 7.5h386v-80h-396q-82 0 -135 -41q-53 -42 -61 -118
h592v-82h-592z" />
    <glyph glyph-name="suchthat" unicode="&#x220b;" horiz-adv-x="1045" 
d="M188 305v82h592q-6 39 -20 68.5t-42 49.5q-55 41 -133 41h-398v80h386q63 -5 118 -22q26 -12 48.5 -25t42.5 -31q19 -18 34 -40t27 -47q10 -27 15 -55t5 -61q0 -32 -5.5 -62t-15.5 -54q-12 -28 -28 -49.5t-34 -38.5q-42 -37 -92 -56q-28 -10 -56 -14.5t-59 -4.5h-386v79
h398q79 1 134 45q49 36 61 115h-592z" />
    <glyph glyph-name="product" unicode="&#x220f;" horiz-adv-x="1045" 
d="M835 682v-80h-158v-592h-79v592h-167v-592h-79v592h-157v80h640z" />
    <glyph glyph-name="summation" unicode="&#x2211;" horiz-adv-x="1045" 
d="M787 682v-252h-80v172h-364q28 -32 58 -64.5t61 -62.5q31 -36 59 -66q15 -15 28.5 -31.5t30.5 -32.5l-237 -255h371v175h80v-255h-529q-10 0 -17 2t-13 7q-16 5 -16 28q0 7 2 15.5t9 18.5q11 13 20 26l110 120q24 27 52 57.5t57 60.5q-29 32 -58 63t-57 65
q-31 31 -59.5 63t-54.5 62v84h547z" />
    <glyph glyph-name="radical" unicode="&#x221a;" horiz-adv-x="1045" 
d="M129 220l112 83l64 -125q4 26 8 54.5t9 57.5q6 28 10.5 57t9.5 58q5 28 9.5 57t9.5 58l19 113h497v-81h-428q-14 -68 -25.5 -136t-20.5 -135l-24 -137l-22 -133q-6 -12 -10 -15q-10 -6 -16 -6q-13 -2 -19 3q-10 2 -12 13l-89 175q-5 -4 -11 -8.5t-13 -9.5l-12 -9
q-7 -7 -9 -8z" />
    <glyph glyph-name="proportional" unicode="&#x221d;" horiz-adv-x="1045" 
d="M833 449q-13 9 -23 15.5t-19 9.5q-19 6 -43 6q-16 0 -29 -3t-25 -8q-24 -13 -40 -31q-18 -19 -30 -43q-5 -12 -10.5 -24.5t-10.5 -26.5q5 -22 19 -46q11 -26 30 -44q14 -17 40 -30q12 -5 24.5 -8.5t31.5 -3.5q43 0 85 31l47 -65q-35 -24 -67 -35q-29 -12 -65 -12
q-22 0 -38 1.5t-32 8.5q-16 4 -29.5 10.5t-26.5 16.5q-12 8 -22 16.5t-17 19.5q-10 10 -17 21.5t-9 22.5q-31 -52 -74 -84q-23 -19 -51 -26t-62 -7q-44 0 -81 17q-40 16 -65 47q-29 29 -44 69q-8 19 -11 40t-3 41q0 22 3 42t11 43q8 17 19 35t25 32q14 16 30.5 27t34.5 20
q19 9 38.5 13.5t42.5 4.5q70 0 117 -36q21 -18 38.5 -40t33.5 -49q6 14 15 26t17 25q9 9 19 19.5t21 18.5t23.5 14t28.5 13q13 4 29.5 6.5t35.5 2.5q33 0 67 -12q17 -7 32.5 -15.5t31.5 -20.5zM244 345q0 -12 2 -24.5t9 -25.5q7 -21 25 -42q17 -18 40 -29q23 -12 50 -12
q16 0 28.5 3.5t24.5 8.5q22 13 39 30q8 11 15.5 21t14.5 22q3 5 5 11t5 12l12 24q-5 14 -10.5 26t-10.5 23q-8 12 -15.5 22.5t-15.5 21.5q-9 9 -20 17t-20 14q-12 6 -24.5 9t-27.5 3q-13 0 -24.5 -3t-24.5 -8q-11 -7 -21.5 -13.5t-18.5 -16.5q-9 -8 -15.5 -19t-10.5 -22
q-7 -13 -9 -26t-2 -27z" />
    <glyph glyph-name="infinity" unicode="&#x221e;" horiz-adv-x="1045" 
d="M352 535q20 0 40.5 -6t41.5 -16q36 -23 78 -84q26 45 65 74q36 32 100 32q19 0 35.5 -4t35.5 -10q31 -19 58 -43q11 -15 21 -30t17 -30q7 -19 11 -36.5t4 -36.5q0 -17 -4 -36t-11 -35q-7 -18 -17 -32.5t-21 -27.5q-13 -14 -28 -24t-30 -16q-19 -10 -35.5 -13.5
t-35.5 -3.5q-56 0 -92 25q-37 26 -69 80q-24 -45 -67 -74q-43 -31 -97 -31q-20 0 -38 3.5t-34 12.5q-35 13 -57 40q-12 13 -22.5 27.5t-16.5 32.5q-9 17 -11.5 35t-2.5 37t2.5 37t11.5 37q6 15 16.5 30t22.5 30q13 12 27 22.5t30 19.5q34 14 72 14zM776 345q0 11 -2.5 20.5
t-5.5 19.5q-5 10 -9.5 18t-10.5 17q-13 11 -32 22q-20 10 -39 10q-22 0 -39 -12q-9 -6 -18 -12.5t-13 -14.5q-19 -18 -26 -33q-7 -11 -10.5 -19.5t-5.5 -16.5q3 -8 8 -16.5t11 -17.5q4 -9 10 -17.5t14 -15.5q6 -9 14.5 -15.5t17.5 -11.5q9 -6 17 -7.5t20 -1.5q10 0 19.5 1.5
t19.5 6.5q17 7 32 24q6 7 10.5 15.5t9.5 18.5q3 9 5.5 19t2.5 19zM255 345q0 -9 1.5 -19t6.5 -19q6 -22 19 -34q13 -17 30 -24q10 -5 19 -6.5t21 -1.5q11 0 20.5 1.5t19.5 7.5q17 10 30 24q6 8 11 16.5t12 18.5l8 19l9 16q-1 5 -3.5 9.5t-5.5 9.5l-8 21q-7 8 -12 16.5
t-11 17.5q-8 8 -15 13t-15 11q-10 5 -19.5 7.5t-20.5 2.5q-12 0 -21 -2.5t-19 -7.5q-19 -11 -30 -22q-14 -17 -19 -35q-5 -10 -6.5 -19.5t-1.5 -20.5z" />
    <glyph glyph-name="angle" unicode="&#x2220;" horiz-adv-x="1045" 
d="M329 110h524v-81h-628q-31 0 -38 28q-4 6 -2 12t7 14q6 11 18 21q33 34 67 68.5t69 70.5q33 36 67.5 72t68.5 74l136 146q34 37 66.5 72t65.5 71l60 -59z" />
    <glyph glyph-name="uni2225" unicode="&#x2225;" horiz-adv-x="1045" 
d="M397 812h77v-930h-77v930zM554 812h77v-930h-77v930z" />
    <glyph glyph-name="logicaland" unicode="&#x2227;" horiz-adv-x="1045" 
d="M768 1l-254 544q-32 -68 -63.5 -136t-62.5 -136q-33 -69 -65 -137t-61 -135l-67 42l282 610q3 6 17 21q4 5 9.5 7t10.5 2q28 0 39 -31l-1 1q34 -75 69 -151t72 -154q36 -78 71.5 -154.5t70.5 -151.5z" />
    <glyph glyph-name="logicalor" unicode="&#x2228;" horiz-adv-x="1045" 
d="M835 652l-283 -610q-7 -16 -14 -23q-6 -5 -11.5 -6.5t-12.5 -1.5q-11 0 -20 10q-13 10 -17 21q-35 72 -70 148.5t-71 154.5q-37 81 -73 156.5t-68 150.5l67 40l252 -544q30 67 62 135t66 138q31 68 63 135.5t63 135.5z" />
    <glyph glyph-name="intersection" unicode="&#x2229;" horiz-adv-x="1045" 
d="M519 629q-21 0 -39 -4t-35 -11q-19 -8 -34 -18t-29 -23q-28 -30 -42 -66q-7 -21 -10.5 -43t-3.5 -45v-418h-80v406q0 30 5 60t15 58q17 53 53 96q36 42 85 64q48 26 110 26q61 0 115 -26q48 -23 84 -64q15 -21 28.5 -45.5t24.5 -51.5q16 -55 16 -117v-406h-79v418
q0 41 -12 79q-12 36 -35 67q-12 15 -27 26t-30 21q-18 8 -38 12.5t-42 4.5z" />
    <glyph glyph-name="union" unicode="&#x222a;" horiz-adv-x="1045" 
d="M519 64q43 0 80 18q33 16 57 46q11 15 20 31t15 35q7 18 9.5 38t2.5 41v417h79v-405q0 -63 -16 -116q-11 -28 -24.5 -52t-28.5 -45q-36 -42 -84 -66q-54 -24 -115 -24q-62 0 -110 24q-51 24 -85 65q-36 42 -53 97q-10 26 -15 55t-5 62v405h80v-417q0 -27 3.5 -48.5
t10.5 -39.5q15 -39 42 -66q25 -28 63 -40q17 -9 35 -12t39 -3z" />
    <glyph glyph-name="integral" unicode="&#x222b;" horiz-adv-x="1045" 
d="M474 464q6 59 18 107.5t30 87.5q16 39 39 61.5t50 29.5q18 4 37 0q13 -6 29 -24q20 -33 2 -62q-14 -19 -26 -21q-17 -6 -32 1q-11 6 -21 8q-10 0 -11 -17q-6 -16 -8 -43q-3 -13 -5 -27t-2 -30q-1 -9 -2 -16.5t-1 -15.5q-1 -8 -1 -15v-13q-2 -16 -2.5 -29t-0.5 -24
q-1 -7 -1.5 -12.5t-0.5 -9.5v-12q-3 -12 -3 -28v-34l-3 -45l-4 -52q-3 -29 -8 -56.5t-10 -50.5q-7 -27 -14 -49t-15 -39q-10 -20 -20.5 -34.5t-20.5 -27.5q-24 -24 -51 -29q-9 -3 -18 -2.5t-17 3.5q-18 5 -29 22q-13 11 -13 30q-1 6 0.5 14.5t5.5 12.5q2 9 13 18q5 5 16 10
q4 1 8.5 3t9.5 3q8 0 14 -3q25 -16 36 2q4 6 6 19t5 33q0 9 1.5 20.5t2.5 22.5v21q0 11 1 23q1 65 4 135q2 32 4.5 66t7.5 68z" />
    <glyph glyph-name="uni222C" unicode="&#x222c;" horiz-adv-x="1045" 
d="M592 464q13 115 49 195q15 39 38 61.5t51 29.5q18 4 36 0q13 -6 30 -24q18 -33 2 -62q-14 -19 -28 -21q-15 -6 -29 1q-12 6 -23 8q-9 0 -11 -17q-6 -16 -7 -43q-3 -13 -5 -27t-2 -30q-1 -9 -2 -16.5t-1 -15.5q-1 -8 -1 -15v-13q-2 -16 -2.5 -29t-0.5 -24
q-1 -7 -1.5 -12.5t-0.5 -9.5v-12q-2 -12 -2.5 -28t-0.5 -34l-4 -45l-4 -52q-3 -29 -8 -56.5t-11 -50.5q-4 -27 -12 -49t-16 -39q-10 -20 -20 -34.5t-20 -27.5q-25 -24 -52 -29q-18 -6 -34 1q-19 5 -30 22q-11 11 -11 30q-2 15 3 27q3 10 13 18q6 4 18 10q3 1 7.5 3t9.5 3
q3 0 7 -0.5t7 -2.5q26 -15 36 2q2 6 5 19t6 33q0 9 1 20.5t2 22.5v21q0 11 2 23q1 65 6 135q1 64 10 134zM358 464q5 59 17 107.5t30 87.5q16 39 38.5 61.5t51.5 29.5q17 4 34 0q15 -6 30 -24q20 -33 2 -62q-13 -19 -27 -21q-16 -6 -29 1q-7 4 -12 5.5t-11 2.5
q-10 0 -11 -17q-6 -16 -9 -43q-4 -28 -4 -57q-1 -9 -2 -16.5t-1 -15.5q-2 -8 -2 -15v-13q-2 -16 -2.5 -29t-0.5 -24q-1 -7 -1 -13v-21q-2 -12 -2.5 -28t-0.5 -34l-5 -45l-4 -52q-4 -29 -7.5 -56.5t-10.5 -50.5q-7 -27 -13.5 -49t-15.5 -39q-10 -20 -20 -34.5t-20 -27.5
q-26 -24 -51 -29q-20 -6 -34 1q-21 5 -30 22q-14 11 -14 30q-1 6 1 14.5t5 12.5q2 9 13 18q3 2 7 5t10 5q4 1 8 3t9 3q3 0 7.5 -0.5t7.5 -2.5q25 -15 36 2q3 6 5.5 19t5.5 33q0 9 0.5 20.5t1.5 22.5v21q0 11 1 23q1 34 2.5 66.5t4.5 68.5q1 32 3.5 66t8.5 68z" />
    <glyph glyph-name="uni222E" unicode="&#x222e;" horiz-adv-x="1045" 
d="M412 134l5 17q1 4 2.5 8t3.5 10l4 16q2 8 4 18q-28 21 -45 53q-18 30 -18 69q0 28 12 58q6 12 13.5 25t18.5 24q10 10 21.5 19t26.5 16q24 11 56 11q5 20 12 36.5t13 30.5q6 13 10.5 23t8.5 18q18 36 52 58q32 18 61 14q53 -12 59 -54q2 -23 -4 -36q-7 -17 -20 -25
q-8 -6 -18 -7t-19 5q-23 5 -34 27q-6 -12 -13 -29t-15 -40l-1 -8l-2 -4q-1 -2 -1 -4q-1 -3 -2 -6.5t-3 -7.5q-1 -5 -3 -10l-3 -10q31 -25 49 -55q9 -17 12.5 -34.5t3.5 -34.5q0 -32 -9 -55q-7 -16 -15.5 -27.5t-17.5 -21.5q-11 -13 -22.5 -21t-25.5 -13q-13 -8 -27.5 -10.5
t-29.5 -0.5q-5 -21 -11 -37.5t-12 -31.5q-8 -17 -15 -30t-13 -26q-12 -20 -24.5 -32.5t-25.5 -19.5q-30 -14 -55 -9q-31 5 -44 21q-16 13 -16 32q-7 37 30 60q10 7 36 6q20 -5 33 -21zM447 322q0 -7 0.5 -12.5t1.5 -8.5q2 -14 8 -19q5 25 17 57l9 30l11 30
q-12 -6 -20.5 -13.5t-13.5 -17.5q-13 -22 -13 -46zM583 329q0 6 -1 10.5t-1 10.5q-3 3 -4 9q0 2 -1.5 3.5t-2.5 4.5q-3 -8 -5 -15t-5 -14q-5 -15 -5 -25q-7 -12 -11 -28q-4 -7 -6 -14t-4 -17q9 6 17 13t15 19q14 19 14 43z" />
    <glyph glyph-name="therefore" unicode="&#x2234;" horiz-adv-x="1045" 
d="M744 179q11 0 22 -5t23 -15q9 -12 14.5 -23t5.5 -24q0 -15 -5.5 -26t-14.5 -22q-12 -11 -23 -15t-22 -4q-14 0 -25 4t-19 15q-13 11 -17 22t-4 26q0 13 4 24t17 23q8 10 19 15t25 5zM286 179q12 0 22.5 -5t22.5 -15q8 -12 13.5 -23t5.5 -24q0 -26 -19 -48
q-20 -19 -45 -19q-14 0 -25.5 4t-19.5 15q-21 18 -21 48q0 13 4.5 24t16.5 23q8 10 19.5 15t25.5 5zM514 634q12 0 23 -5t22 -14q9 -11 15 -22t6 -25t-6 -26t-15 -21q-11 -12 -22 -16.5t-23 -4.5q-13 0 -24.5 4.5t-20.5 16.5q-20 16 -20 47q0 26 20 47q9 9 20.5 14t24.5 5z
" />
    <glyph glyph-name="uni2235" unicode="&#x2235;" horiz-adv-x="1045" 
d="M744 512q-14 0 -25 4.5t-19 15.5q-13 9 -17 21t-4 27q0 11 4 23t17 23q17 20 44 20q11 0 22 -5.5t23 -14.5q9 -11 14.5 -23t5.5 -23q0 -15 -5.5 -27t-14.5 -21q-12 -11 -23 -15.5t-22 -4.5zM286 512q-14 0 -25.5 4.5t-19.5 15.5q-21 16 -21 48q0 26 21 46q18 20 45 20
q22 0 45 -20q19 -24 19 -46q0 -29 -19 -48q-20 -20 -45 -20zM514 56q-13 0 -24.5 4t-20.5 17q-20 16 -20 46q0 27 20 48q9 8 20.5 14t24.5 6q12 0 23 -6t22 -14q9 -12 15 -23.5t6 -24.5q0 -14 -6 -25.5t-15 -20.5q-11 -13 -22 -17t-23 -4z" />
    <glyph glyph-name="similar" unicode="&#x223c;" horiz-adv-x="1045" 
d="M118 277q1 24 6 48.5t15 48.5q17 46 47 83q29 33 74 55q20 9 44.5 12.5t52.5 1.5q50 -5 92 -34q36 -31 65 -80q47 -83 120 -86q35 -4 62 12q11 5 20.5 15t20.5 22q9 12 15 25t12 31q4 15 9 30.5t9 32.5h81q-5 -26 -11.5 -50.5t-14.5 -49.5q-11 -24 -22 -44.5t-26 -38.5
q-30 -35 -73 -53q-20 -10 -46 -13t-56 1q-50 6 -88 37q-21 14 -38.5 34t-31.5 44q-13 19 -26 34.5t-26 28.5q-15 11 -28.5 16.5t-29.5 8.5q-18 0 -33.5 -2t-27.5 -9q-26 -10 -44 -35q-19 -24 -25 -55q-6 -17 -9.5 -35t-7.5 -36h-81z" />
    <glyph glyph-name="uni223D" unicode="&#x223d;" horiz-adv-x="1045" 
d="M716 577q21 -1 41.5 -5.5t38.5 -12.5q34 -18 62 -46q12 -16 21.5 -33.5t18.5 -36.5q5 -20 7.5 -41t2.5 -43q-1 -21 -4 -40t-10 -37q-9 -18 -19 -34t-22 -29q-15 -16 -29.5 -27t-32.5 -17q-19 -10 -38.5 -13.5t-40.5 -3.5q-17 0 -34 2t-34 9q-36 7 -64 32l30 69
q12 -6 24.5 -12t25.5 -9q14 -5 28 -6.5t29 -1.5q10 0 20.5 1.5t21.5 6.5q19 8 35 25q14 15 24 37q3 9 6 19t4 23q0 13 -2.5 26t-5.5 26q-6 13 -10.5 23t-11.5 23q-8 9 -18 16.5t-20 14.5q-12 6 -24.5 9t-24.5 4q-32 0 -55 -11q-12 -9 -23.5 -17.5t-21.5 -18.5
q-10 -13 -18 -25.5t-15 -24.5q-9 -15 -14.5 -28t-11.5 -27q-9 -16 -18.5 -33t-19.5 -34q-23 -36 -52 -63q-30 -28 -65 -41q-20 -10 -40.5 -12.5t-41.5 0.5q-94 12 -142 70q-27 28 -39.5 65.5t-9.5 83.5q0 18 3.5 37t12.5 37q12 36 40 66q14 12 29.5 23.5t33.5 20.5
q19 7 38 12t39 5q7 0 15 -1.5t18 -2.5q10 -3 18.5 -5t17.5 -5q5 -2 9 -4t8 -5q4 -2 8.5 -4t10.5 -4q7 -6 15 -11t13 -12l-36 -65q-13 8 -24.5 14.5t-24.5 12.5q-11 4 -24.5 6.5t-27.5 2.5q-11 0 -22 -2t-22 -6q-21 -11 -34 -25q-18 -17 -26 -34q-4 -13 -6 -23.5t-2 -22.5
q0 -65 31 -102q30 -41 86 -42q31 -4 57 11q23 14 43 39q17 18 35 49l11 24l13 24q10 15 19.5 32.5t19.5 35.5q19 33 48 63q14 12 29.5 23t34.5 20q33 16 85 16z" />
    <glyph glyph-name="uni2252" unicode="&#x2252;" horiz-adv-x="1045" 
d="M176 468h677v-85h-677v85zM176 310h677v-86h-677v86zM329 671q28 0 48 -21q20 -25 20 -50q0 -28 -20 -49q-10 -12 -22 -16.5t-26 -4.5q-16 0 -28 4.5t-21 16.5q-18 19 -18 49q0 26 18 50q20 21 49 21zM699 164q23 0 48 -21q8 -10 14 -23t6 -26q0 -15 -6 -27.5t-14 -21.5
q-23 -22 -48 -22q-30 0 -47 22q-22 19 -22 49q0 28 22 49q18 21 47 21z" />
    <glyph glyph-name="notequal" unicode="&#x2260;" horiz-adv-x="1045" 
d="M507 483q8 27 16.5 54.5t18.5 56.5l37 114l80 -23l-60 -202h263v-84h-293q-3 -7 -5 -13t-4 -13l-7 -28q-7 -14 -11 -28.5t-8 -26.5h328v-87h-355q-6 -14 -9.5 -27.5t-9.5 -26.5q-6 -14 -11.5 -27.5t-8.5 -28.5q-6 -15 -10.5 -29t-9.5 -27l-10 -28l-8 -25l-84 15l68 204
h-228v87h257q4 11 8 24.5t10 27.5q2 8 4 15t4 13q2 8 4 14.5t5 14.5h-292v84h321z" />
    <glyph glyph-name="equivalence" unicode="&#x2261;" horiz-adv-x="1045" 
d="M176 534h677v-80h-677v80zM176 387h677v-82h-677v82zM176 239h677v-81h-677v81z" />
    <glyph glyph-name="lessequal" unicode="&#x2264;" horiz-adv-x="1045" 
d="M346 442q60 -26 122 -54t128 -55q62 -30 125 -58t125 -54l-38 -79l-591 260q-10 4 -21 18q-12 10 -12 22q0 8 6 20q4 5 8 9t11 7l604 268l30 -82zM167 130h693v-87h-693v87z" />
    <glyph glyph-name="greaterequal" unicode="&#x2265;" horiz-adv-x="1045" 
d="M195 664l29 82l606 -268q7 -3 10.5 -7t7.5 -9q5 -12 5 -20q0 -11 -10 -22q-6 -7 -11.5 -11.5t-11.5 -6.5l-590 -260l-38 79l500 221zM871 43h-694v87h694v-87z" />
    <glyph glyph-name="uni226A" unicode="&#x226a;" horiz-adv-x="1045" 
d="M632 711l48 -62l-414 -304q25 -17 50.5 -36.5t51.5 -38.5q28 -20 54 -39t52 -37q52 -39 103.5 -76t103.5 -75l-50 -59l-446 327q-12 5 -18 17q-5 3 -6.5 7t-1.5 10q0 13 9 21l8 7l10 10zM847 711l48 -62l-415 -304q25 -17 51 -36.5t52 -38.5q25 -20 51 -39t54 -37
q53 -39 104.5 -76t104.5 -75l-53 -59l-444 327q-12 4 -20 17q-6 6 -6 17q0 6 1.5 11t5.5 10l9 7l10 10z" />
    <glyph glyph-name="uni226B" unicode="&#x226b;" horiz-adv-x="1045" 
d="M630 383q3 -6 8 -10t11 -7q3 -5 5 -10t2 -11q0 -9 -6 -17q-10 -13 -19 -17l-446 -327l-51 59l415 302q-54 39 -102 76q-27 17 -53.5 36.5t-52.5 39.5q-54 39 -105.5 77t-100.5 75l47 62zM843 383q3 -3 5.5 -5t4.5 -5l4 -4q2 -2 5 -3q4 -5 6.5 -10t2.5 -11q0 -11 -8 -17
q-4 -6 -8.5 -10t-10.5 -7l-444 -327l-51 59l413 302q-52 38 -103 75.5t-101 76.5q-56 39 -107 77t-101 75l48 62z" />
    <glyph glyph-name="propersubset" unicode="&#x2282;" horiz-adv-x="1045" 
d="M248 351q0 -23 3 -42t12 -38q5 -19 15 -35t25 -28q25 -30 62 -44q35 -17 82 -19h396v-79h-386q-31 0 -60 4.5t-54 14.5q-53 19 -92 56q-20 17 -35.5 38.5t-25.5 49.5q-13 24 -18 54t-5 62q0 33 4.5 61t16.5 56q21 51 60 87q18 18 41 31t50 25q27 9 56 14.5t62 6.5h386
v-80h-396q-21 0 -41 -3.5t-38 -9.5q-17 -8 -33 -18t-27 -22q-15 -15 -25.5 -29.5t-16.5 -32.5q-18 -35 -18 -80z" />
    <glyph glyph-name="propersuperset" unicode="&#x2283;" horiz-adv-x="1045" 
d="M782 351q-4 45 -16 80q-10 18 -19.5 32.5t-23.5 29.5q-25 24 -62 40q-17 6 -36 9.5t-40 3.5h-398v80h386q32 -1 61 -6.5t57 -14.5q26 -12 48.5 -25t42.5 -31q19 -18 34 -40.5t27 -46.5q10 -28 15 -56t5 -61q0 -32 -5.5 -62t-15.5 -54q-12 -28 -28 -49.5t-34 -38.5
q-42 -37 -92 -56q-28 -10 -56 -14.5t-59 -4.5h-386v79h398q22 1 43 5.5t38 13.5q19 8 33.5 18.5t28.5 25.5q13 12 22.5 28t17.5 35q7 19 10.5 38t3.5 42z" />
    <glyph glyph-name="reflexsubset" unicode="&#x2286;" horiz-adv-x="1045" 
d="M167 109h693v-80h-693v80zM247 421q0 -22 3.5 -38.5t12.5 -32.5q13 -33 42 -52q24 -25 62 -31q18 -7 38 -10t42 0h396v-80h-386q-62 -5 -115 13q-27 7 -50 18.5t-42 30.5q-20 14 -35.5 33.5t-25.5 42.5q-13 23 -17.5 49t-4.5 57q0 28 4.5 54t17.5 51q10 21 25.5 41
t35.5 37q38 29 92 48q25 6 54.5 9t60.5 2h386v-79h-396q-44 0 -80 -8q-18 -6 -34.5 -14t-27.5 -19q-31 -22 -42 -52q-9 -16 -12.5 -34.5t-3.5 -35.5z" />
    <glyph glyph-name="reflexsuperset" unicode="&#x2287;" horiz-adv-x="1045" 
d="M860 29h-693v80h693v-80zM780 421q0 17 -4 35.5t-10 34.5q-18 30 -43 52q-13 11 -28.5 19t-34.5 14q-37 8 -78 8h-398v79h387q62 2 115 -11q25 -10 47.5 -21t44.5 -27q35 -33 61 -78q10 -25 15.5 -51t5.5 -54q0 -31 -5.5 -57t-15.5 -49q-26 -46 -61 -76
q-22 -19 -44.5 -30.5t-47.5 -18.5q-55 -18 -115 -13h-387v80h398q21 -3 41 0t37 10q36 5 63 31q14 10 23.5 24t19.5 28q6 16 10 32.5t4 38.5z" />
    <glyph glyph-name="uni2299" unicode="&#x2299;" horiz-adv-x="1045" 
d="M516 746q41 0 78 -8.5t73 -23.5q68 -34 121 -89q50 -56 80 -128q30 -73 30 -153q0 -40 -8 -77.5t-22 -74.5q-15 -37 -36 -68t-45 -58q-27 -27 -57 -49t-64 -38q-36 -18 -73 -25t-77 -7q-43 0 -80 6t-72 25q-36 16 -66.5 38t-55.5 48q-52 54 -81 128q-30 71 -30 152
q0 82 31 154q14 37 34 68.5t46 59.5q49 54 122 88q35 15 72 23.5t80 8.5zM516 658q-34 0 -63 -6t-55 -19q-30 -12 -54 -29.5t-42 -38.5q-43 -44 -62 -100q-24 -57 -24 -121q0 -66 24 -118q19 -57 62 -99q38 -45 96 -69q26 -14 55 -20t63 -6q31 0 61 6t56 20q27 12 50.5 29.5
t44.5 39.5q38 42 63 100q10 26 15.5 56t5.5 61t-5.5 60.5t-16.5 58.5q-25 57 -63 100q-41 41 -95 70q-25 12 -55 18.5t-61 6.5zM516 519q15 0 31 -4.5t33 -11.5q15 -8 28 -17t24 -22q22 -25 36 -55q13 -32 13 -66q0 -32 -13 -63q-8 -15 -16.5 -28.5t-19.5 -27.5
q-11 -12 -23.5 -22t-27.5 -15q-17 -9 -33.5 -11.5t-31.5 -2.5q-19 0 -35 2.5t-31 11.5q-16 5 -29 15t-22 22q-24 22 -36 56q-13 28 -13 63q0 17 3 34t10 32q5 17 14 30t23 25q9 13 22 22t29 17q15 7 30.5 11.5t34.5 4.5z" />
    <glyph glyph-name="perpendicular" unicode="&#x22a5;" horiz-adv-x="1045" 
d="M195 109h276v535h87v-535h277v-81h-640v81z" />
    <glyph glyph-name="uni2312" unicode="&#x2312;" horiz-adv-x="1045" 
d="M175 356q4 67 36 129q29 58 75 104q42 43 104 71q28 13 59.5 18.5t64.5 5.5q34 0 64.5 -5.5t61.5 -18.5q28 -14 53.5 -31t50.5 -40q21 -23 40.5 -48.5t33.5 -55.5q16 -31 24.5 -63.5t13.5 -65.5h-86q-11 49 -29 96q-14 23 -27.5 42.5t-29.5 36.5q-19 15 -37.5 28.5
t-38.5 24.5q-22 7 -45.5 12.5t-48.5 5.5q-24 0 -47 -5.5t-44 -12.5q-43 -20 -76 -53q-18 -17 -31 -36.5t-26 -42.5q-24 -48 -31 -96h-84z" />
    <glyph glyph-name="uni2460" unicode="&#x2460;" horiz-adv-x="1100" 
d="M82 345q0 93 35 178q34 82 98 146q29 30 65 54.5t80 43.5q82 36 180 36q94 0 178 -36q41 -19 77.5 -43.5t67.5 -54.5q31 -34 55.5 -69.5t42.5 -75.5q36 -86 36 -179q0 -95 -36 -177q-18 -43 -43 -80t-56 -67q-63 -61 -145 -97q-85 -34 -177 -34q-96 0 -179 34
q-43 19 -79.5 43t-65.5 54q-34 30 -57.5 67t-40.5 80q-36 83 -36 177zM148 345q0 -80 30 -151q32 -70 87 -124q49 -53 123 -83q70 -33 152 -33q80 0 150 33q35 14 67 34.5t58 47.5q53 52 86 124q14 36 22 73.5t8 78.5q0 79 -30 152q-32 69 -86 125q-26 27 -57.5 47.5
t-66.5 36.5q-37 16 -74.5 24t-76.5 8q-42 0 -79.5 -8t-73.5 -24t-67 -36.5t-57 -47.5q-53 -54 -85 -125q-30 -70 -30 -152zM509 48v16q0 5 0.5 10t0.5 9v443q-12 -11 -22.5 -20.5t-20.5 -18.5q-12 -10 -21.5 -19t-18.5 -18q-8 8 -14 16.5t-12 17.5l-13 15q-3 4 -6.5 9
t-6.5 11l75 58q10 7 18.5 13.5t18.5 15.5q8 7 17.5 14.5t19.5 14.5h84v-21q-1 -6 -1 -12v-545q0 -6 1 -9h-99z" />
    <glyph glyph-name="uni2461" unicode="&#x2461;" horiz-adv-x="1100" 
d="M82 345q0 93 35 178q34 82 98 146q29 30 65 54.5t80 43.5q82 36 180 36q94 0 178 -36q41 -19 77.5 -43.5t67.5 -54.5q31 -34 55.5 -69.5t42.5 -75.5q36 -86 36 -179q0 -95 -36 -177q-18 -43 -43 -80t-56 -67q-63 -61 -145 -97q-85 -34 -177 -34q-96 0 -179 34
q-43 19 -79.5 43t-65.5 54q-34 30 -57.5 67t-40.5 80q-36 83 -36 177zM148 345q0 -80 30 -151q32 -70 87 -124q49 -53 123 -83q70 -33 152 -33q80 0 150 33q35 14 67 34.5t58 47.5q53 52 86 124q14 36 22 73.5t8 78.5q0 79 -30 152q-32 69 -86 125q-26 27 -57.5 47.5
t-66.5 36.5q-37 16 -74.5 24t-76.5 8q-42 0 -79.5 -8t-73.5 -24t-67 -36.5t-57 -47.5q-53 -54 -85 -125q-30 -70 -30 -152zM351 144q3 3 13 11l22 18q13 8 26.5 19t30.5 26q31 24 66 58q31 29 61 64q14 17 26 35t21 36q17 35 17 72q0 38 -29 62q-33 25 -79 25
q-91 0 -147 -48l-3 21q-1 7 -1.5 12.5t-0.5 10.5q-6 21 -6 46q22 9 42.5 15.5t42.5 11.5q20 3 41.5 5.5t42.5 2.5q19 0 38 -3t37 -8q19 -4 32.5 -12.5t29.5 -18.5q23 -20 42 -52q7 -18 11 -36.5t4 -38.5q0 -16 -3 -31t-7 -27q-6 -16 -13 -29l-14 -26q-9 -15 -18.5 -26
t-18.5 -24q-11 -13 -22 -25t-21 -21q-15 -17 -28.5 -31t-27.5 -29q-17 -16 -34.5 -31.5t-37.5 -31.5l-15 -9q-6 -8 -10 -9h233q7 0 16 1h14q8 0 17 2v-84q-12 0 -22.5 1t-18.5 1h-349v95z" />
    <glyph glyph-name="uni2462" unicode="&#x2462;" horiz-adv-x="1100" 
d="M82 345q0 93 35 178q34 82 98 146q29 30 65 54.5t80 43.5q82 36 180 36q94 0 178 -36q41 -19 77.5 -43.5t67.5 -54.5q31 -34 55.5 -69.5t42.5 -75.5q36 -86 36 -179q0 -95 -36 -177q-18 -43 -43 -80t-56 -67q-63 -61 -145 -97q-85 -34 -177 -34q-96 0 -179 34
q-43 19 -79.5 43t-65.5 54q-34 30 -57.5 67t-40.5 80q-36 83 -36 177zM148 345q0 -80 30 -151q32 -70 87 -124q49 -53 123 -83q70 -33 152 -33q80 0 150 33q35 14 67 34.5t58 47.5q53 52 86 124q14 36 22 73.5t8 78.5q0 79 -30 152q-32 69 -86 125q-26 27 -57.5 47.5
t-66.5 36.5q-37 16 -74.5 24t-76.5 8q-42 0 -79.5 -8t-73.5 -24t-67 -36.5t-57 -47.5q-53 -54 -85 -125q-30 -70 -30 -152zM449 320q-8 -2 -13 -2h-8v81h21q3 -1 9 -1h35q9 0 21 0.5t25 3.5q12 1 23 5t24 11q10 4 18.5 10.5t16.5 15.5q7 8 11 19t4 25q0 11 -2.5 22t-6.5 19
q-10 12 -24 26q-9 4 -17.5 7.5t-19.5 6.5q-10 1 -21 2.5t-24 1.5q-20 0 -38 -3t-35 -7q-20 -6 -37 -12.5t-33 -12.5q-1 10 -1.5 20.5t-0.5 23.5q-3 7 -4 18t-1 23q16 6 35.5 9.5t42.5 9.5q22 3 43 6t41 3t39 -3t37 -7q35 -11 63 -29q13 -12 23 -23t19 -27q7 -16 11 -33.5
t4 -38.5q0 -34 -11 -52q-12 -23 -28 -35q-9 -8 -19.5 -13.5t-18.5 -9.5q-14 -7 -24 -12.5t-20 -8.5q27 -7 51.5 -18t42.5 -30q36 -39 36 -100q0 -24 -6 -45t-16 -35q-12 -18 -25.5 -31t-32.5 -21q-36 -24 -77 -29q-23 -5 -45.5 -6.5t-43.5 -1.5q-19 0 -36.5 1.5t-35.5 6.5
q-20 2 -37 6.5t-32 9.5q0 5 0.5 10.5t0.5 10.5l4 24q0 10 0.5 21t1.5 23q12 -7 28 -12.5t34 -10.5q36 -13 72 -13q12 0 26 0.5t29 3.5q12 1 24.5 5.5t24.5 10.5q19 6 34 29q13 18 13 46q0 16 -4 28t-10 25q-8 8 -17 16.5t-20 14.5q-23 11 -50 17q-30 5 -54 5h-39z" />
    <glyph glyph-name="uni2463" unicode="&#x2463;" horiz-adv-x="1100" 
d="M82 345q0 93 35 178q34 82 98 146q29 30 65 54.5t80 43.5q82 36 180 36q94 0 178 -36q41 -19 77.5 -43.5t67.5 -54.5q31 -34 55.5 -69.5t42.5 -75.5q36 -86 36 -179q0 -95 -36 -177q-18 -43 -43 -80t-56 -67q-63 -61 -145 -97q-85 -34 -177 -34q-96 0 -179 34
q-43 19 -79.5 43t-65.5 54q-34 30 -57.5 67t-40.5 80q-36 83 -36 177zM148 345q0 -80 30 -151q32 -70 87 -124q49 -53 123 -83q70 -33 152 -33q80 0 150 33q35 14 67 34.5t58 47.5q53 52 86 124q14 36 22 73.5t8 78.5q0 79 -30 152q-32 69 -86 125q-26 27 -57.5 47.5
t-66.5 36.5q-37 16 -74.5 24t-76.5 8q-42 0 -79.5 -8t-73.5 -24t-67 -36.5t-57 -47.5q-53 -54 -85 -125q-30 -70 -30 -152zM297 180v76l61 95l61 96l60 94q16 24 31.5 48t30.5 47h134q-1 -4 -1 -10v-11q-1 -6 -1 -12v-12l1 -332h50q4 0 8 1h7q4 0 9 1v-83q-5 0 -10.5 0.5
t-10.5 0.5t-9.5 0.5t-8.5 0.5h-36v-73q0 -8 1 -17v-19q0 -11 3 -22h-101q0 10 1 21.5t2 23.5v22q0 6 0.5 11.5t0.5 12.5v40h-283zM580 545q-3 -3 -5.5 -7t-4.5 -7l-8 -12q-10 -20 -21 -35.5t-21 -32.5l-42 -69q-23 -37 -41 -67q-11 -17 -21 -30.5t-18 -25.5h182v286z" />
    <glyph glyph-name="uni2464" unicode="&#x2464;" horiz-adv-x="1100" 
d="M82 345q0 93 35 178q34 82 98 146q29 30 65 54.5t80 43.5q82 36 180 36q94 0 178 -36q41 -19 77.5 -43.5t67.5 -54.5q31 -34 55.5 -69.5t42.5 -75.5q36 -86 36 -179q0 -95 -36 -177q-18 -43 -43 -80t-56 -67q-63 -61 -145 -97q-85 -34 -177 -34q-96 0 -179 34
q-43 19 -79.5 43t-65.5 54q-34 30 -57.5 67t-40.5 80q-36 83 -36 177zM148 345q0 -80 30 -151q32 -70 87 -124q49 -53 123 -83q70 -33 152 -33q80 0 150 33q35 14 67 34.5t58 47.5q53 52 86 124q14 36 22 73.5t8 78.5q0 79 -30 152q-32 69 -86 125q-26 27 -57.5 47.5
t-66.5 36.5q-37 16 -74.5 24t-76.5 8q-42 0 -79.5 -8t-73.5 -24t-67 -36.5t-57 -47.5q-53 -54 -85 -125q-30 -70 -30 -152zM368 320q0 20 1 40.5t2 38.5l5 80q1 39 2.5 77t2.5 79h301q6 0 12 1h11q5 0 11 2v-80q-9 0 -17 2h-229q0 -42 -1.5 -70t-2.5 -43q-3 -10 -3.5 -14.5
t-0.5 -9.5q-1 -3 -1 -6q3 0 6.5 0.5t7.5 0.5l19 3q9 0 18 1t20 1q22 0 41.5 -4t37.5 -11q19 -8 34 -16t30 -22q25 -26 42 -58q7 -19 11 -37.5t4 -35.5q0 -55 -18 -89q-19 -38 -51 -62q-33 -25 -73 -38q-22 -6 -44.5 -8.5t-46.5 -2.5t-44 1.5t-38 4.5q-39 6 -56 13
q0 12 0.5 23t1.5 23v21q0 12 2 24q15 -9 31.5 -15.5t32.5 -10.5q16 -5 31.5 -7t34.5 -2q13 0 25.5 2t27.5 5q11 3 23 7.5t22 13.5q11 5 19 13.5t14 20.5q12 20 12 50q0 15 -3.5 30t-7.5 27q-6 11 -14 20t-19 17q-21 13 -45 19q-30 5 -58 5q-20 0 -35 -1.5t-30 -3.5
q-30 -5 -58 -19z" />
    <glyph glyph-name="uni2465" unicode="&#x2465;" horiz-adv-x="1100" 
d="M82 345q0 93 35 178q34 82 98 146q29 30 65 54.5t80 43.5q82 36 180 36q94 0 178 -36q41 -19 77.5 -43.5t67.5 -54.5q31 -34 55.5 -69.5t42.5 -75.5q36 -86 36 -179q0 -95 -36 -177q-18 -43 -43 -80t-56 -67q-63 -61 -145 -97q-85 -34 -177 -34q-96 0 -179 34
q-43 19 -79.5 43t-65.5 54q-34 30 -57.5 67t-40.5 80q-36 83 -36 177zM148 345q0 -80 30 -151q32 -70 87 -124q49 -53 123 -83q70 -33 152 -33q80 0 150 33q35 14 67 34.5t58 47.5q53 52 86 124q14 36 22 73.5t8 78.5q0 79 -30 152q-32 69 -86 125q-26 27 -57.5 47.5
t-66.5 36.5q-37 16 -74.5 24t-76.5 8q-42 0 -79.5 -8t-73.5 -24t-67 -36.5t-57 -47.5q-53 -54 -85 -125q-30 -70 -30 -152zM712 625q-3 -11 -4.5 -21.5t-1.5 -19.5q-3 -11 -4.5 -21.5t-1.5 -20.5q-16 6 -30.5 12t-29.5 11q-16 3 -31.5 5.5t-27.5 2.5q-19 0 -35 -4.5
t-29 -11.5q-28 -18 -46 -43q-10 -16 -17 -31t-12 -31q-6 -18 -9.5 -35t-3.5 -34q15 12 29.5 20t31.5 15q15 4 29.5 7.5t32.5 3.5q20 0 39.5 -4.5t38.5 -11.5q36 -17 59 -40q13 -12 21.5 -27.5t15.5 -31.5q6 -19 10 -38t4 -36q0 -25 -5 -46t-13 -40q-8 -18 -18.5 -33.5
t-23.5 -28.5q-15 -12 -30 -21.5t-33 -16.5q-38 -12 -77 -12q-67 0 -103 25q-21 13 -36.5 29t-26.5 37q-24 40 -32 91q-5 24 -6.5 49.5t-1.5 52.5q0 59 11 117q11 56 39 105q26 42 75 74q21 12 51 20.5t67 8.5q3 0 6 -0.5t8 -0.5t9.5 -0.5t8.5 -0.5q17 -6 41 -7
q7 -3 16.5 -5.5t18.5 -2.5q9 -2 15 -5t12 -4zM644 239q0 14 -6 38q-7 17 -19 36q-14 14 -32 26q-10 3 -21 6.5t-25 3.5q-13 0 -23.5 -3t-20.5 -7q-21 -8 -33 -24q-8 -9 -12.5 -17t-8.5 -18q-7 -22 -7 -41q0 -25 7 -44q7 -22 19 -38q13 -18 32 -26q16 -12 42 -12q13 0 24 2
t23 9q8 3 16.5 9.5t17.5 16.5q12 16 20 37q3 10 5 21t2 25z" />
    <glyph glyph-name="uni2466" unicode="&#x2466;" horiz-adv-x="1100" 
d="M82 345q0 94 35 179q17 40 41 76t58 70q60 61 145 99q82 34 179 34q92 0 178 -34q40 -20 76.5 -44.5t67.5 -54.5q31 -34 56 -70t43 -76q36 -86 36 -179q0 -97 -36 -176q-18 -43 -43 -80t-56 -67q-31 -31 -67.5 -55t-76.5 -43q-85 -34 -178 -34q-48 0 -93 7.5t-86 26.5
q-43 19 -79.5 43t-65.5 55q-34 30 -58 67t-41 80q-35 78 -35 176zM148 345q0 -83 30 -151q32 -70 87 -124q49 -53 123 -83q34 -17 72 -25t80 -8q39 0 76.5 8t74.5 25q34 14 66 35t58 48q55 54 87 124q29 69 29 151q0 81 -29 152q-17 35 -38 66t-49 59q-26 28 -58 48.5
t-66 37.5q-73 30 -151 30q-42 0 -80 -7t-72 -23q-36 -17 -67 -37.5t-56 -48.5q-28 -28 -49 -59t-38 -66q-30 -69 -30 -152zM743 552l-226 -519h-102l227 512h-262q-9 -1 -15.5 -1.5t-12.5 -0.5v82q6 -2 13 -2h17q8 -1 15 -1h346v-70z" />
    <glyph glyph-name="uni2467" unicode="&#x2467;" horiz-adv-x="1100" 
d="M82 345q0 93 35 178q34 82 98 146q29 30 65 54.5t80 43.5q82 36 180 36q94 0 178 -36q41 -19 77.5 -43.5t67.5 -54.5q31 -34 55.5 -69.5t42.5 -75.5q36 -86 36 -179q0 -95 -36 -177q-18 -43 -43 -80t-56 -67q-63 -61 -145 -97q-85 -34 -177 -34q-96 0 -179 34
q-43 19 -79.5 43t-65.5 54q-34 30 -57.5 67t-40.5 80q-36 83 -36 177zM148 345q0 -80 30 -151q32 -70 87 -124q49 -53 123 -83q70 -33 152 -33q80 0 150 33q35 14 67 34.5t58 47.5q53 52 86 124q14 36 22 73.5t8 78.5q0 79 -30 152q-32 69 -86 125q-26 27 -57.5 47.5
t-66.5 36.5q-37 16 -74.5 24t-76.5 8q-42 0 -79.5 -8t-73.5 -24t-67 -36.5t-57 -47.5q-53 -54 -85 -125q-30 -70 -30 -152zM544 43q-39 0 -75 10q-37 9 -66 32q-30 18 -45 52q-20 31 -20 71q0 54 34 93q17 18 38 33t48 28q-64 26 -83 68q-12 17 -17 37t-5 41q0 25 13 54
q6 13 16 23.5t22 23.5q25 19 62 30q19 6 39 9.5t44 3.5q20 0 40 -3.5t39 -9.5q32 -11 59 -30q13 -11 21.5 -21t14.5 -23q7 -12 11 -24.5t4 -24.5q0 -24 -6.5 -45.5t-15.5 -37.5q-25 -35 -79 -67q51 -24 84 -59q33 -42 33 -96q0 -23 -4 -41.5t-11 -33.5q-10 -19 -21.5 -31
t-24.5 -22q-31 -22 -67 -31q-20 -6 -41 -7.5t-41 -1.5zM658 205q0 13 -2.5 24.5t-6.5 20.5q-14 18 -31 31q-10 7 -20 11t-20 11q-25 8 -45 20q-9 -7 -17 -12t-17 -9q-4 -3 -8.5 -6.5t-9.5 -5.5q-4 -3 -7.5 -5.5t-6.5 -5.5q-7 -7 -12.5 -14t-9.5 -15q-7 -9 -9 -18t-2 -20
q0 -25 12 -39q10 -19 26 -30l19 -10q9 -4 20 -6q18 -7 42 -7q8 0 18 1t19 4q10 3 18 6.5t16 10.5q14 7 26 26q3 8 5 16.5t3 20.5zM446 497q0 -31 29 -50q17 -13 37.5 -25.5t49.5 -24.5q5 3 10.5 7t10.5 7l17 18q13 9 23 24q5 7 7.5 13t6.5 13q1 7 2.5 12t1.5 13
q0 11 -2.5 18t-7.5 16q-6 5 -11.5 10.5t-11.5 10.5l-34 11q-10 1 -17 2t-15 1q-6 0 -16 -2q-3 0 -6.5 -1t-8.5 -1q-9 -3 -16.5 -6.5t-14.5 -7.5q-9 -7 -14.5 -12.5t-9.5 -11.5q-7 -8 -8.5 -16.5t-1.5 -17.5z" />
    <glyph glyph-name="uni2468" unicode="&#x2468;" horiz-adv-x="1100" 
d="M82 345q0 93 35 178q34 82 98 146q29 30 65 54.5t80 43.5q82 36 180 36q94 0 178 -36q41 -19 77.5 -43.5t67.5 -54.5q31 -34 55.5 -69.5t42.5 -75.5q36 -86 36 -179q0 -95 -36 -177q-18 -43 -43 -80t-56 -67q-63 -61 -145 -97q-85 -34 -177 -34q-96 0 -179 34
q-43 19 -79.5 43t-65.5 54q-34 30 -57.5 67t-40.5 80q-36 83 -36 177zM148 345q0 -80 30 -151q32 -70 87 -124q49 -53 123 -83q70 -33 152 -33q80 0 150 33q35 14 67 34.5t58 47.5q53 52 86 124q14 36 22 73.5t8 78.5q0 79 -30 152q-32 69 -86 125q-26 27 -57.5 47.5
t-66.5 36.5q-37 16 -74.5 24t-76.5 8q-42 0 -79.5 -8t-73.5 -24t-67 -36.5t-57 -47.5q-53 -54 -85 -125q-30 -70 -30 -152zM371 68q1 10 3 19.5t4 22.5q0 17 7 40q14 -7 28.5 -12t31.5 -8q16 -6 29.5 -8t28.5 -2q18 0 34 3.5t30 12.5q14 7 25.5 16.5t20.5 24.5
q10 12 16.5 27t13.5 34q5 14 7.5 33t3.5 40q-15 -13 -29 -21.5t-29 -12.5q-16 -6 -32.5 -8t-32.5 -2q-23 0 -42 2.5t-37 11.5q-36 11 -59 40q-25 24 -35 61q-15 30 -15 72q0 21 4 42.5t12 38.5q7 19 17 34t25 29q12 13 28.5 22t34.5 16q19 7 38 11.5t41 4.5q65 0 109 -25
q37 -25 61 -64q9 -21 17 -44t13 -47q3 -27 4.5 -52.5t1.5 -52.5q0 -64 -10 -120q-7 -29 -17 -55t-22 -48q-16 -24 -34.5 -42t-41.5 -31q-23 -16 -53 -22t-63 -6q-9 0 -17 0.5t-19 2.5q-19 0 -37 5q-11 1 -20 3.5t-16 5.5q-19 2 -28 8zM439 455q0 -22 7 -40q5 -21 18 -34
q12 -20 33 -27q10 -7 20 -9t25 -2q23 0 43 8t35 26q12 15 20.5 34.5t8.5 43.5q0 22 -7 43q-8 22 -20 38l-14 14q-7 7 -17 13q-9 4 -20 7t-22 3q-15 0 -27 -3t-21 -7q-20 -11 -34 -27q-14 -15 -20 -38q-8 -20 -8 -43z" />
    <glyph glyph-name="uni2469" unicode="&#x2469;" horiz-adv-x="1100" 
d="M82 345q0 93 35 178q34 82 98 146q29 30 65 54.5t80 43.5q82 36 180 36q94 0 178 -36q41 -19 77.5 -43.5t67.5 -54.5q31 -34 55.5 -69.5t42.5 -75.5q36 -86 36 -179q0 -95 -36 -177q-18 -43 -43 -80t-56 -67q-63 -61 -145 -97q-85 -34 -177 -34q-96 0 -179 34
q-43 19 -79.5 43t-65.5 54q-34 30 -57.5 67t-40.5 80q-36 83 -36 177zM148 345q0 -80 30 -151q32 -70 87 -124q49 -53 123 -83q70 -33 152 -33q80 0 150 33q35 14 67 34.5t58 47.5q53 52 86 124q14 36 22 73.5t8 78.5q0 79 -30 152q-32 69 -86 125q-26 27 -57.5 47.5
t-66.5 36.5q-37 16 -74.5 24t-76.5 8q-42 0 -79.5 -8t-73.5 -24t-67 -36.5t-57 -47.5q-53 -54 -85 -125q-30 -70 -30 -152zM470 342q0 25 1 50.5t7 51.5q3 27 10 51.5t20 47.5q18 45 54 76q37 28 91 28q51 0 88 -28q16 -16 30 -35t26 -41q19 -48 30 -99q3 -26 5.5 -51.5
t2.5 -50.5q0 -24 -2.5 -49t-6.5 -52q-6 -28 -13 -53t-17 -45q-23 -47 -56 -75q-35 -28 -87 -28q-55 0 -91 28q-17 15 -31 32.5t-22 42.5q-24 42 -30 98q-6 27 -7.5 52t-1.5 49zM553 342q0 -13 0.5 -29.5t4.5 -34.5q0 -21 3 -39t10 -37q9 -36 31 -60q16 -26 51 -26
q29 0 50 26q18 23 30 60q6 19 9.5 36.5t5.5 38.5q1 18 2 34.5t1 30.5q0 10 -1 24t-2 34q-1 19 -4.5 37t-7.5 38q-7 19 -14 35t-16 31q-12 13 -25.5 20.5t-27.5 7.5q-32 0 -51 -26q-12 -15 -19 -30t-12 -32q-7 -19 -10 -37t-3 -38q-4 -20 -4.5 -35t-0.5 -29zM337 50v13
q0 3 0.5 6.5t0.5 7.5v452q-8 -11 -17 -20.5t-18 -17.5q-10 -10 -19 -19.5t-16 -19.5q-5 9 -10.5 17t-11.5 18q-12 17 -22 34l64 60l29 29q9 7 16.5 14.5t17.5 14.5h71q-2 -9 -2 -20v-559q0 -5 1 -10h-84z" />
    <glyph glyph-name="uni246A" unicode="&#x246a;" horiz-adv-x="1100" 
d="M82 345q0 93 35 178q34 82 98 146q29 30 65 54.5t80 43.5q82 36 180 36q94 0 178 -36q41 -19 77.5 -43.5t67.5 -54.5q31 -34 55.5 -69.5t42.5 -75.5q36 -86 36 -179q0 -95 -36 -177q-18 -43 -43 -80t-56 -67q-63 -61 -145 -97q-85 -34 -177 -34q-96 0 -179 34
q-43 19 -79.5 43t-65.5 54q-34 30 -57.5 67t-40.5 80q-36 83 -36 177zM148 345q0 -80 30 -151q32 -70 87 -124q49 -53 123 -83q70 -33 152 -33q80 0 150 33q35 14 67 34.5t58 47.5q53 52 86 124q14 36 22 73.5t8 78.5q0 79 -30 152q-32 69 -86 125q-26 27 -57.5 47.5
t-66.5 36.5q-37 16 -74.5 24t-76.5 8q-42 0 -79.5 -8t-73.5 -24t-67 -36.5t-57 -47.5q-53 -54 -85 -125q-30 -70 -30 -152zM657 50v17q0 4 0.5 9t0.5 9v443q-4 -5 -8 -9.5t-9 -9.5l-19 -18q-10 -10 -18.5 -20t-16.5 -19q-6 8 -12.5 16t-12.5 18q-4 8 -9.5 16.5t-11.5 18.5
q34 28 66.5 58t64.5 59h74q-2 -9 -2 -20v-23q-1 -11 -1 -23v-490q0 -5 1 -11v-13q0 -5 1 -8h-88zM372 50v17q0 4 1 9t1 9v443q-6 -5 -10 -9.5t-7 -9.5l-20 -18l-18 -20q-9 -10 -17 -19q-12 15 -24 34q-6 8 -10.5 16.5t-10.5 18.5q32 28 65 58t65 59h74q-2 -9 -2 -20v-23
q-1 -11 -1 -23v-490q0 -5 1 -11v-13q0 -5 1 -8h-88z" />
    <glyph glyph-name="uni246B" unicode="&#x246b;" horiz-adv-x="1100" 
d="M82 345q0 93 35 178q34 82 98 146q29 30 65 54.5t80 43.5q82 36 180 36q94 0 178 -36q41 -19 77.5 -43.5t67.5 -54.5q31 -34 55.5 -69.5t42.5 -75.5q36 -86 36 -179q0 -95 -36 -177q-18 -43 -43 -80t-56 -67q-63 -61 -145 -97q-85 -34 -177 -34q-96 0 -179 34
q-43 19 -79.5 43t-65.5 54q-34 30 -57.5 67t-40.5 80q-36 83 -36 177zM486 146q2 2 5 5.5t6 6.5l20 20q5 3 10 8l13 13l26 25q6 6 13 12t13 14l29 31q13 15 26 31t26 33q12 17 21 34.5t17 35.5q7 18 11 34.5t4 35.5q0 17 -6.5 33.5t-19.5 29.5q-29 24 -67 24q-75 0 -123 -48
q-4 20 -4 45q-6 20 -6 44q17 9 36 15.5t36 12.5q18 3 35 6t36 3q17 0 34 -3.5t32 -8.5q30 -11 53 -32q10 -12 19.5 -24.5t16.5 -27.5q12 -33 12 -74q0 -16 -2.5 -30.5t-6.5 -26.5q-6 -17 -11.5 -30t-11.5 -26q-9 -14 -16 -26t-15 -26q-10 -12 -19 -24t-18 -21
q-14 -20 -28 -37t-29 -32q-32 -36 -74 -71h198q6 0 14 1h13q7 0 12 2v-62q27 27 48 57.5t38 66.5q29 69 29 150q0 79 -30 152q-32 69 -86 125q-26 27 -57.5 47.5t-66.5 36.5q-37 16 -74.5 24t-76.5 8q-42 0 -79.5 -8t-73.5 -24t-67 -36.5t-57 -47.5q-53 -54 -85 -125
q-30 -70 -30 -152q0 -80 30 -151q32 -70 87 -124q49 -53 123 -83q70 -33 152 -33q71 0 137 26q31 13 61 29.5t56 40.5h-308v96zM336 50v13q0 3 0.5 6.5t0.5 7.5v452q-8 -11 -17 -20.5t-18 -17.5q-10 -10 -19 -19.5t-16 -19.5q-5 9 -11 17t-11 18q-12 17 -22 34l64 60l29 29
q9 7 16.5 14.5t17.5 14.5h71q-2 -9 -2 -20v-559q0 -5 1 -10h-84z" />
    <glyph glyph-name="uni246C" unicode="&#x246c;" horiz-adv-x="1100" 
d="M82 345q0 93 35 178q34 82 98 146q29 30 65 54.5t80 43.5q82 36 180 36q94 0 178 -36q41 -19 77.5 -43.5t67.5 -54.5q31 -34 55.5 -69.5t42.5 -75.5q36 -86 36 -179q0 -95 -36 -177q-18 -43 -43 -80t-56 -67q-63 -61 -145 -97q-85 -34 -177 -34q-96 0 -179 34
q-43 19 -79.5 43t-65.5 54q-34 30 -57.5 67t-40.5 80q-36 83 -36 177zM148 345q0 -80 30 -151q32 -70 87 -124q49 -53 123 -83q70 -33 152 -33q80 0 150 33q35 14 67 34.5t58 47.5q53 52 86 124q14 36 22 73.5t8 78.5q0 79 -30 152q-32 69 -86 125q-26 27 -57.5 47.5
t-66.5 36.5q-37 16 -74.5 24t-76.5 8q-42 0 -79.5 -8t-73.5 -24t-67 -36.5t-57 -47.5q-53 -54 -85 -125q-30 -70 -30 -152zM569 319q-7 -2 -10 -2h-6v82q6 -1 12 -1h43q9 0 18 0.5t22 3.5q9 1 19 5t19 11q10 4 17 10.5t13 15.5q12 18 12 44q0 47 -26 66q-29 18 -70 18
q-17 0 -31.5 -3t-31.5 -7q-16 -6 -31 -12.5t-28 -14.5q0 10 -0.5 21t-0.5 25q-1 8 -2 19t-1 22q13 7 30 10.5t36 9.5q18 3 35.5 6t35.5 3q14 0 31.5 -3t32.5 -7q15 -6 28 -12.5t25 -15.5q12 -11 21 -22.5t17 -27.5q13 -33 13 -74q0 -30 -9 -51q-11 -23 -23 -35
q-9 -8 -17 -14t-17 -10q-11 -7 -20 -12t-19 -8q12 -6 24 -11.5t22 -9.5q9 -6 18.5 -14t17.5 -16q7 -10 12 -19.5t11 -20.5q2 -14 4.5 -28.5t2.5 -30.5q0 -49 -17 -79q-20 -36 -50 -52q-15 -11 -32 -18.5t-35 -9.5q-21 -5 -39.5 -6.5t-36.5 -1.5q-16 0 -31 1.5t-30 6.5
q-37 5 -59 16q0 11 1 22t2 23q0 10 0.5 21t2.5 23q12 -9 26 -14t32 -10q14 -7 31 -9.5t38 -2.5q10 0 21 1t21 4q11 1 19.5 5t17.5 11q7 3 13.5 10.5t12.5 17.5q4 9 7 19.5t3 24.5q0 29 -14 51q-5 9 -12 18t-17 14q-21 13 -41 19q-26 5 -48 5h-35zM336 50v13q0 3 0.5 6.5
t0.5 7.5v452q-8 -11 -17 -20.5t-18 -17.5q-10 -10 -19 -19.5t-16 -19.5q-5 9 -11 17t-11 18q-12 17 -22 34l64 60l29 29q9 7 16.5 14.5t17.5 14.5h71q-2 -9 -2 -20v-559q0 -5 1 -10h-84z" />
    <glyph glyph-name="uni246D" unicode="&#x246d;" horiz-adv-x="1100" 
d="M82 345q0 93 35 178q34 82 98 146q29 30 65 54.5t80 43.5q82 36 180 36q94 0 178 -36q41 -19 77.5 -43.5t67.5 -54.5q31 -34 55.5 -69.5t42.5 -75.5q36 -86 36 -179q0 -95 -36 -177q-18 -43 -43 -80t-56 -67q-63 -61 -145 -97q-85 -34 -177 -34q-96 0 -179 34
q-43 19 -79.5 43t-65.5 54q-34 30 -57.5 67t-40.5 80q-36 83 -36 177zM148 345q0 -80 30 -151q32 -70 87 -124q49 -53 123 -83q70 -33 152 -33q80 0 150 33q35 14 67 34.5t58 47.5q53 52 86 124q14 36 22 73.5t8 78.5q0 79 -30 152q-32 69 -86 125q-26 27 -57.5 47.5
t-66.5 36.5q-37 16 -74.5 24t-76.5 8q-42 0 -79.5 -8t-73.5 -24t-67 -36.5t-57 -47.5q-53 -54 -85 -125q-30 -70 -30 -152zM449 180v76q13 24 27.5 48t28.5 47l54 96q13 24 26.5 47.5t27.5 46.5q13 24 27 48t30 47h121q-1 -4 -1 -10v-11q-1 -6 -1 -12v-12l1 -332h45q4 0 7 1
h6q3 0 8 1v-83q-5 0 -9.5 0.5t-8.5 0.5t-8 0.5t-9 0.5h-32v-73q0 -8 1 -17v-19q0 -11 1 -22h-90q0 10 1 21.5t2 23.5v86h-255zM336 50v13q0 3 0.5 6.5t0.5 7.5v452q-8 -11 -17 -20.5t-18 -17.5q-10 -10 -19 -19.5t-16 -19.5q-5 9 -11 17t-11 18q-12 17 -22 34l64 60l29 29
q9 7 16.5 14.5t17.5 14.5h71q-2 -9 -2 -20v-559q0 -5 1 -10h-84zM704 545l-4 -7q0 -3 -1 -4t-1 -2q-8 -8 -9 -13q-10 -20 -20 -35.5t-17 -32.5l-21 -37q-6 -8 -10 -16.5t-9 -15.5q-4 -10 -9 -18t-10 -17q-4 -9 -8.5 -16.5t-8.5 -15.5q-18 -32 -36 -56h164v286z" />
    </font>
</defs>
</svg>
